<?xml version="1.0" encoding="UTF-8" standalone="no"?>
<!-- Created with Inkscape (http://www.inkscape.org/) -->

<svg
   width="982.67719"
   height="453.5433"
   viewBox="0 0 260.00001 119.99999"
   version="1.1"
   id="svg5"
   inkscape:version="1.3.2 (091e20e, 2023-11-25, custom)"
   sodipodi:docname="004_HALP.svg"
   xml:space="preserve"
   inkscape:export-filename="004_HALP.png"
   inkscape:export-xdpi="300"
   inkscape:export-ydpi="300"
   xmlns:inkscape="http://www.inkscape.org/namespaces/inkscape"
   xmlns:sodipodi="http://sodipodi.sourceforge.net/DTD/sodipodi-0.dtd"
   xmlns:xlink="http://www.w3.org/1999/xlink"
   xmlns="http://www.w3.org/2000/svg"
   xmlns:svg="http://www.w3.org/2000/svg"><sodipodi:namedview
     id="namedview7"
     pagecolor="#ffffff"
     bordercolor="#666666"
     borderopacity="1.0"
     inkscape:showpageshadow="2"
     inkscape:pageopacity="0.0"
     inkscape:pagecheckerboard="0"
     inkscape:deskcolor="#d1d1d1"
     inkscape:document-units="mm"
     showgrid="false"
     inkscape:zoom="0.72515434"
     inkscape:cx="486.10341"
     inkscape:cy="179.96169"
     inkscape:window-width="1536"
     inkscape:window-height="897"
     inkscape:window-x="-8"
     inkscape:window-y="-8"
     inkscape:window-maximized="1"
     inkscape:current-layer="g1" /><defs
     id="defs2"><inkscape:path-effect
       effect="bspline"
       id="path-effect779"
       is_visible="true"
       lpeversion="1"
       weight="33.333333"
       steps="2"
       helper_size="0"
       apply_no_weight="true"
       apply_with_weight="true"
       only_selected="false"
       uniform="false" /><inkscape:path-effect
       effect="bspline"
       id="path-effect765"
       is_visible="true"
       lpeversion="1"
       weight="33.333333"
       steps="2"
       helper_size="0"
       apply_no_weight="true"
       apply_with_weight="true"
       only_selected="false"
       uniform="false" /><linearGradient
       id="linearGradient6703"><stop
         style="stop-color:#000000;stop-opacity:1.0000000;"
         offset="0.0000000"
         id="stop6704" /><stop
         style="stop-color:#7f7f7f;stop-opacity:1.0000000;"
         offset="0.50000000"
         id="stop6705" /><stop
         style="stop-color:#ffffff;stop-opacity:1.0000000;"
         offset="1.0000000"
         id="stop6706" /></linearGradient><linearGradient
       id="linearGradient879"><stop
         style="stop-color:#c3c3c3;stop-opacity:0.54918033;"
         offset="0.0000000"
         id="stop880" /><stop
         style="stop-color:#d4e1e4;stop-opacity:1.0000000;"
         offset="0.50000000"
         id="stop884" /><stop
         style="stop-color:#ddf0f0;stop-opacity:0.59016395;"
         offset="1.0000000"
         id="stop881" /></linearGradient><linearGradient
       x1="1453.8076"
       y1="384.45895"
       x2="1583.5951"
       y2="383.24872"
       id="linearGradient882"
       xlink:href="#linearGradient879"
       gradientTransform="scale(0.55994156,1.7859006)"
       gradientUnits="userSpaceOnUse" /><linearGradient
       x1="568.58307"
       y1="1189.8646"
       x2="567.13934"
       y2="1038.1013"
       id="linearGradient883"
       xlink:href="#linearGradient879"
       spreadMethod="pad"
       gradientTransform="scale(1.4640424,0.68304032)"
       gradientUnits="userSpaceOnUse" /><clipPath
       id="clip0_525_147"><rect
         width="24"
         height="24"
         fill="#ffffff"
         id="rect26341"
         x="0"
         y="0" /></clipPath><style
       id="style4881">.cls-1{fill:none;stroke:#020202;stroke-miterlimit:10;stroke-width:1.91px;}</style><clipPath
       clipPathUnits="userSpaceOnUse"
       id="clipPath2471"><path
         d="M 0,0 H 56.693 V 272.126 H 0 Z"
         id="path2469" /></clipPath><linearGradient
       x1="0"
       y1="0"
       x2="0"
       y2="272.12964"
       gradientUnits="userSpaceOnUse"
       id="linearGradient2477"
       gradientTransform="matrix(2.3384702,0,0,2.3384702,753.59705,-989.93593)"><stop
         style="stop-opacity:1;stop-color:#ebebf7"
         offset="0"
         id="stop2473" /><stop
         style="stop-opacity:1;stop-color:#ccccec"
         offset="1"
         id="stop2475" /></linearGradient><clipPath
       clipPathUnits="userSpaceOnUse"
       id="clipPath2719"><path
         d="m -17.00807,-24.09476 v 9.92137 h 34.01614 v -9.92137 z"
         id="path2717" /></clipPath><clipPath
       clipPathUnits="userSpaceOnUse"
       id="clipPath2743"><path
         d="m 209.76639,-26.92943 v 9.92137 h 34.01616 v -9.92137 z"
         id="path2741" /></clipPath><clipPath
       clipPathUnits="userSpaceOnUse"
       id="clipPath3023"><path
         d="m -17.00807,-24.09476 v 9.92137 h 34.01614 v -9.92137 z"
         id="path3021" /></clipPath><clipPath
       clipPathUnits="userSpaceOnUse"
       id="clipPath3043"><path
         d="m 209.76639,-24.09476 v 9.92137 h 34.01616 v -9.92137 z"
         id="path3041" /></clipPath><clipPath
       clipPathUnits="userSpaceOnUse"
       id="clipPath9141"><path
         d="m -17.00807,-24.09476 v 9.92137 h 34.01614 v -9.92137 z"
         id="path9139" /></clipPath><clipPath
       clipPathUnits="userSpaceOnUse"
       id="clipPath9165"><path
         d="m 209.76639,-26.92943 v 9.92137 h 34.01616 v -9.92137 z"
         id="path9163" /></clipPath><clipPath
       clipPathUnits="userSpaceOnUse"
       id="clipPath11751"><g
         id="g11755"><path
           d="m 753.59705,-989.93593 h 132.57489 v 636.35854 H 753.59705 Z"
           id="path11753"
           style="stroke-width:2.33847" /></g></clipPath><inkscape:path-effect
       effect="bspline"
       id="path-effect638"
       is_visible="true"
       lpeversion="1"
       weight="33.333333"
       steps="2"
       helper_size="0"
       apply_no_weight="true"
       apply_with_weight="true"
       only_selected="false"
       uniform="false" /><inkscape:path-effect
       effect="bspline"
       id="path-effect638-2"
       is_visible="true"
       lpeversion="1"
       weight="33.333333"
       steps="2"
       helper_size="0"
       apply_no_weight="true"
       apply_with_weight="true"
       only_selected="false"
       uniform="false" /><inkscape:path-effect
       effect="bspline"
       id="path-effect1867"
       is_visible="true"
       lpeversion="1"
       weight="33.333333"
       steps="2"
       helper_size="0"
       apply_no_weight="true"
       apply_with_weight="true"
       only_selected="false"
       uniform="false" /><inkscape:path-effect
       effect="bspline"
       id="path-effect1883"
       is_visible="true"
       lpeversion="1"
       weight="33.333333"
       steps="2"
       helper_size="0"
       apply_no_weight="true"
       apply_with_weight="true"
       only_selected="false"
       uniform="false" /><inkscape:path-effect
       effect="bspline"
       id="path-effect1899"
       is_visible="true"
       lpeversion="1"
       weight="33.333333"
       steps="2"
       helper_size="0"
       apply_no_weight="true"
       apply_with_weight="true"
       only_selected="false"
       uniform="false" /><inkscape:path-effect
       effect="bspline"
       id="path-effect1915"
       is_visible="true"
       lpeversion="1"
       weight="33.333333"
       steps="2"
       helper_size="0"
       apply_no_weight="true"
       apply_with_weight="true"
       only_selected="false"
       uniform="false" /><clipPath
       id="clipPath4348">
      <path
   clip-rule="nonzero"
   d="M 81,2 H 97 V 18.511719 H 81 Z m 0,0"
   id="path5274" />
    </clipPath><clipPath
       clipPathUnits="userSpaceOnUse"
       id="clipPath2"><g
         id="g4"><rect
           x="157.29411"
           y="3.4395833"
           width="107.84417"
           height="97.352547"
           id="rect4"
           style="stroke-width:0.352778" /></g></clipPath><clipPath
       clipPathUnits="userSpaceOnUse"
       id="clipPath4"><g
         id="g5"><rect
           x="157.29411"
           y="3.4395833"
           width="107.84417"
           height="97.352547"
           id="rect5"
           style="stroke-width:0.352778" /></g></clipPath><clipPath
       clipPathUnits="userSpaceOnUse"
       id="clipPath5"><g
         id="g6"><rect
           x="157.29411"
           y="3.4395833"
           width="107.84417"
           height="97.352547"
           id="rect6"
           style="stroke-width:0.352778" /></g></clipPath><clipPath
       clipPathUnits="userSpaceOnUse"
       id="clipPath6"><g
         id="g7"
         transform="matrix(2.8346458,0,0,2.8346458,-404.03308,2.6999995)"><rect
           x="157.29411"
           y="3.4395833"
           width="107.84417"
           height="97.352547"
           id="rect7"
           style="stroke-width:0.352778" /></g></clipPath><clipPath
       clipPathUnits="userSpaceOnUse"
       id="clipPath7"><g
         id="g8"
         transform="matrix(2.8346458,0,0,2.8346458,-404.03308,2.6999995)"><rect
           x="157.29411"
           y="3.4395833"
           width="107.84417"
           height="97.352547"
           id="rect8"
           style="stroke-width:0.352778" /></g></clipPath><clipPath
       clipPathUnits="userSpaceOnUse"
       id="clipPath8"><g
         id="g10"
         transform="matrix(2.8346458,0,0,2.8346458,-404.03308,2.6999995)"><rect
           x="157.29411"
           y="3.4395833"
           width="107.84417"
           height="97.352547"
           id="rect9"
           style="stroke-width:0.352778" /></g></clipPath><clipPath
       clipPathUnits="userSpaceOnUse"
       id="clipPath10"><g
         id="g11"
         transform="matrix(2.8346458,0,0,2.8346458,-404.03308,2.6999995)"><rect
           x="157.29411"
           y="3.4395833"
           width="107.84417"
           height="97.352547"
           id="rect10"
           style="stroke-width:0.352778" /></g></clipPath></defs><g
     id="g1"
     transform="translate(7.012859e-7,15.374728)"><path
       d="M 66.748471,0 C 45.844283,0 28.897157,16.947122 28.897157,37.85131 c 0,20.904188 16.947126,37.85131 37.851314,37.85131 20.904195,0 37.851319,-16.947122 37.851319,-37.85131 v 0 C 104.57413,16.957387 87.642396,0.0256619 66.751037,0 Z m 0,71.853334 c -18.779382,0 -34.002024,-15.222642 -34.002024,-34.002024 0,-18.779382 15.222642,-34.0020242 34.002024,-34.0020242 18.779385,0 34.002029,15.2226422 34.002029,34.0020242 v 0 C 100.73,56.620427 85.517596,71.832805 66.751037,71.853334 Z m 0,-59.022381 c -13.818936,0 -25.020357,11.201421 -25.020357,25.020357 0,13.818936 11.201421,25.020357 25.020357,25.020357 13.818945,0 25.020365,-11.201421 25.020365,-25.020357 v 0 C 91.753436,24.040073 80.559716,12.84635 66.751037,12.830953 Z m 0,46.191429 c -11.691564,0 -21.171072,-9.479508 -21.171072,-21.171072 0,-11.691564 9.479508,-21.171072 21.171072,-21.171072 11.691565,0 21.171075,9.479508 21.171075,21.171072 v 0 c -0.0154,11.686431 -9.48464,21.158241 -21.168509,21.171072 z m 0,-33.360477 c -6.731118,0 -12.189405,5.458287 -12.189405,12.189405 0,6.731118 5.458287,12.189405 12.189405,12.189405 6.731125,0 12.189405,-5.458287 12.189405,-12.189405 v 0 c -0.008,-6.728552 -5.46085,-12.181706 -12.189405,-12.189405 z m 0,20.529524 c -4.606312,0 -8.340119,-3.733807 -8.340119,-8.340119 0,-4.606312 3.733807,-8.340119 8.340119,-8.340119 4.606315,0 8.340125,3.733807 8.340125,8.340119 v 0 c -0.005,4.603746 -3.73637,8.334987 -8.340125,8.340119 z"
       id="path222"
       style="fill:#000000;stroke-width:2.56619" /><circle
       style="font-variation-settings:'wdth' 87, 'wght' 300;opacity:0.825;fill:#828282;fill-opacity:1;fill-rule:evenodd;stroke:none;stroke-width:0.264999;stroke-linecap:round"
       id="path904"
       cx="52.034599"
       cy="36.936943"
       r="2.7089832" /><circle
       style="font-variation-settings:'wdth' 87, 'wght' 300;opacity:0.825;fill:#828282;fill-opacity:1;fill-rule:evenodd;stroke:none;stroke-width:0.264999;stroke-linecap:round"
       id="path904-4"
       cx="64.143379"
       cy="21.976833"
       r="2.7089832" /><circle
       style="font-variation-settings:'wdth' 87, 'wght' 300;opacity:0.825;fill:#828282;fill-opacity:1;fill-rule:evenodd;stroke:none;stroke-width:0.264999;stroke-linecap:round"
       id="path904-6"
       cx="65.602844"
       cy="39.490345"
       r="2.7089832" /><circle
       style="font-variation-settings:'wdth' 87, 'wght' 300;opacity:0.825;fill:#828282;fill-opacity:1;fill-rule:evenodd;stroke:none;stroke-width:0.264999;stroke-linecap:round"
       id="path904-2"
       cx="70.346085"
       cy="49.341694"
       r="2.7089832" /><circle
       style="font-variation-settings:'wdth' 87, 'wght' 300;opacity:0.825;fill:#828282;fill-opacity:1;fill-rule:evenodd;stroke:none;stroke-width:0.264999;stroke-linecap:round"
       id="path904-42"
       cx="79.467705"
       cy="35.111965"
       r="2.7089832" /><circle
       style="font-variation-settings:'wdth' 87, 'wght' 300;opacity:0.825;fill:#828282;fill-opacity:1;fill-rule:evenodd;stroke:none;stroke-width:0.264999;stroke-linecap:round"
       id="path904-5"
       cx="70.346085"
       cy="28.909266"
       r="2.7089832" /><text
       xml:space="preserve"
       style="font-size:4.9389px;font-family:Bahnschrift;-inkscape-font-specification:'Bahnschrift, Normal';text-align:center;text-anchor:middle;fill:#000000;stroke-width:1"
       x="66.824265"
       y="103.62161"
       id="text12"><tspan
         sodipodi:role="line"
         id="tspan12"
         style="font-style:normal;font-variant:normal;font-weight:normal;font-stretch:normal;font-size:7.76111px;font-family:Bahnschrift;-inkscape-font-specification:'Bahnschrift, Normal';font-variant-ligatures:normal;font-variant-caps:normal;font-variant-numeric:normal;font-variant-east-asian:normal;stroke-width:1"
         x="66.824265"
         y="103.62161">a) The idea</tspan></text></g><g
     id="g2"
     transform="translate(7.012859e-7,-3.4395833)"><polyline
       points="194.69,288.42 194.69,12.45 "
       style="fill:none;stroke:#ebebeb;stroke-width:1.21;stroke-linecap:butt;stroke-linejoin:round;stroke-miterlimit:10"
       id="polyline3"
       transform="matrix(0.35277777,0,0,0.35277777,142.53389,-0.9524998)"
       clip-path="url(#clipPath10)" /><polyline
       points="90.48,288.42 90.48,12.45 "
       style="fill:none;stroke:#ebebeb;stroke-width:2.42;stroke-linecap:butt;stroke-linejoin:round;stroke-miterlimit:10"
       id="polyline4"
       transform="matrix(0.35277777,0,0,0.35277777,142.53389,-0.9524998)"
       clip-path="url(#clipPath8)" /><polyline
       points="298.91,288.42 298.91,12.45 "
       style="fill:none;stroke:#ebebeb;stroke-width:2.42;stroke-linecap:butt;stroke-linejoin:round;stroke-miterlimit:10"
       id="polyline5"
       transform="matrix(0.35277777,0,0,0.35277777,142.53389,-0.9524998)"
       clip-path="url(#clipPath7)" /><polyline
       points="55.74,275.87 58.52,275.84 61.30,275.80 64.08,275.74 66.85,275.67 69.63,275.57 72.41,275.45 75.19,275.28 77.97,275.07 80.75,274.80 83.53,274.46 86.31,274.03 89.09,273.49 91.87,272.82 94.65,271.99 97.42,270.98 100.20,269.75 102.98,268.26 105.76,266.48 108.54,264.37 111.32,261.87 114.10,258.94 116.88,255.54 119.66,251.61 122.44,247.11 125.22,241.99 128.00,236.23 130.77,229.78 133.55,222.63 136.33,214.76 139.11,206.18 141.89,196.91 144.67,186.97 147.45,176.42 150.23,165.34 153.01,153.80 155.79,141.92 158.57,129.83 161.34,117.66 164.12,105.57 166.90,93.72 169.68,82.30 172.46,71.47 175.24,61.42 178.02,52.30 180.80,44.29 183.58,37.52 186.36,32.12 189.14,28.19 191.92,25.80 194.69,25.00 197.47,25.80 200.25,28.19 203.03,32.12 205.81,37.52 208.59,44.29 211.37,52.30 214.15,61.42 216.93,71.47 219.71,82.30 222.49,93.72 225.26,105.57 228.04,117.66 230.82,129.83 233.60,141.92 236.38,153.80 239.16,165.34 241.94,176.42 244.72,186.97 247.50,196.91 250.28,206.18 253.06,214.76 255.84,222.63 258.61,229.78 261.39,236.23 264.17,241.99 266.95,247.11 269.73,251.61 272.51,255.54 275.29,258.94 278.07,261.87 280.85,264.37 283.63,266.48 286.41,268.26 289.18,269.75 291.96,270.98 294.74,271.99 297.52,272.82 300.30,273.49 303.08,274.03 305.86,274.46 308.64,274.80 311.42,275.07 314.20,275.28 316.98,275.45 319.76,275.57 322.53,275.67 325.31,275.74 328.09,275.80 330.87,275.84 333.65,275.87 "
       style="fill:none;stroke:#000000;stroke-width:4.27;stroke-linecap:butt;stroke-linejoin:round;stroke-miterlimit:10"
       id="polyline6"
       transform="matrix(0.35277777,0,0,0.35277777,142.53389,-0.9524998)"
       clip-path="url(#clipPath6)" /><line
       x1="174.45322"
       y1="100.79567"
       x2="174.45322"
       y2="3.4395833"
       style="fill:none;stroke:#ff0000;stroke-width:1.50636;stroke-linecap:butt;stroke-linejoin:round;stroke-miterlimit:10"
       id="line6"
       clip-path="url(#clipPath5)" /><line
       x1="247.9827"
       y1="100.79567"
       x2="247.9827"
       y2="3.4395833"
       style="fill:none;stroke:#ff0000;stroke-width:1.50636;stroke-linecap:butt;stroke-linejoin:round;stroke-miterlimit:10"
       id="line7"
       clip-path="url(#clipPath4)" /><line
       x1="198.96422"
       y1="52.013554"
       x2="223.47169"
       y2="52.013554"
       style="fill:none;stroke:#000000;stroke-width:0.377472;stroke-linecap:butt;stroke-linejoin:round;stroke-miterlimit:10"
       id="line8"
       clip-path="url(#clipPath2)" /><text
       x="90.480003"
       y="313.95001"
       text-anchor="middle"
       style="font-size:20px;font-family:Arial;white-space:pre;fill:#4d4d4d"
       textLength="35.689999"
       lengthAdjust="spacingAndGlyphs"
       id="text8"
       transform="matrix(0.35277777,0,0,0.35277777,142.53389,-0.9524998)">-3 σ</text><text
       x="298.91"
       y="313.95001"
       text-anchor="middle"
       style="font-size:20px;font-family:Arial;white-space:pre;fill:#4d4d4d"
       textLength="29.030001"
       lengthAdjust="spacingAndGlyphs"
       id="text9"
       transform="matrix(0.35277777,0,0,0.35277777,142.53389,-0.9524998)">3 σ</text><text
       xml:space="preserve"
       style="font-size:4.9389px;font-family:Bahnschrift;-inkscape-font-specification:'Bahnschrift, Normal';text-align:center;text-anchor:middle;fill:#000000;stroke-width:1"
       x="211.19901"
       y="103.62161"
       id="text12-8"
       transform="translate(0,18.814311)"><tspan
         sodipodi:role="line"
         id="tspan12-6"
         style="font-style:normal;font-variant:normal;font-weight:normal;font-stretch:normal;font-size:7.76111px;font-family:Bahnschrift;-inkscape-font-specification:'Bahnschrift, Normal';font-variant-ligatures:normal;font-variant-caps:normal;font-variant-numeric:normal;font-variant-east-asian:normal;stroke-width:1"
         x="211.19901"
         y="103.62161">b) The data</tspan></text></g></svg>
