<?xml version="1.0" encoding="UTF-8" standalone="no"?>
<!-- Created with Inkscape (http://www.inkscape.org/) -->

<svg
   width="982.67719"
   height="453.5433"
   viewBox="0 0 259.99999 120"
   version="1.1"
   id="svg5"
   inkscape:version="1.3.2 (091e20e, 2023-11-25, custom)"
   sodipodi:docname="005_LALP.svg"
   xml:space="preserve"
   inkscape:export-filename="005_LALP.png"
   inkscape:export-xdpi="300"
   inkscape:export-ydpi="300"
   xmlns:inkscape="http://www.inkscape.org/namespaces/inkscape"
   xmlns:sodipodi="http://sodipodi.sourceforge.net/DTD/sodipodi-0.dtd"
   xmlns:xlink="http://www.w3.org/1999/xlink"
   xmlns="http://www.w3.org/2000/svg"
   xmlns:svg="http://www.w3.org/2000/svg"><sodipodi:namedview
     id="namedview7"
     pagecolor="#ffffff"
     bordercolor="#666666"
     borderopacity="1.0"
     inkscape:showpageshadow="2"
     inkscape:pageopacity="0.0"
     inkscape:pagecheckerboard="0"
     inkscape:deskcolor="#d1d1d1"
     inkscape:document-units="mm"
     showgrid="false"
     inkscape:zoom="0.72515434"
     inkscape:cx="404.74142"
     inkscape:cy="367.50797"
     inkscape:window-width="1920"
     inkscape:window-height="1017"
     inkscape:window-x="3832"
     inkscape:window-y="1300"
     inkscape:window-maximized="1"
     inkscape:current-layer="svg5" /><defs
     id="defs2"><inkscape:path-effect
       effect="bspline"
       id="path-effect779"
       is_visible="true"
       lpeversion="1"
       weight="33.333333"
       steps="2"
       helper_size="0"
       apply_no_weight="true"
       apply_with_weight="true"
       only_selected="false"
       uniform="false" /><inkscape:path-effect
       effect="bspline"
       id="path-effect765"
       is_visible="true"
       lpeversion="1"
       weight="33.333333"
       steps="2"
       helper_size="0"
       apply_no_weight="true"
       apply_with_weight="true"
       only_selected="false"
       uniform="false" /><linearGradient
       id="linearGradient6703"><stop
         style="stop-color:#000000;stop-opacity:1.0000000;"
         offset="0.0000000"
         id="stop6704" /><stop
         style="stop-color:#7f7f7f;stop-opacity:1.0000000;"
         offset="0.50000000"
         id="stop6705" /><stop
         style="stop-color:#ffffff;stop-opacity:1.0000000;"
         offset="1.0000000"
         id="stop6706" /></linearGradient><linearGradient
       id="linearGradient879"><stop
         style="stop-color:#c3c3c3;stop-opacity:0.54918033;"
         offset="0.0000000"
         id="stop880" /><stop
         style="stop-color:#d4e1e4;stop-opacity:1.0000000;"
         offset="0.50000000"
         id="stop884" /><stop
         style="stop-color:#ddf0f0;stop-opacity:0.59016395;"
         offset="1.0000000"
         id="stop881" /></linearGradient><linearGradient
       x1="1453.8076"
       y1="384.45895"
       x2="1583.5951"
       y2="383.24872"
       id="linearGradient882"
       xlink:href="#linearGradient879"
       gradientTransform="scale(0.55994156,1.7859006)"
       gradientUnits="userSpaceOnUse" /><linearGradient
       x1="568.58307"
       y1="1189.8646"
       x2="567.13934"
       y2="1038.1013"
       id="linearGradient883"
       xlink:href="#linearGradient879"
       spreadMethod="pad"
       gradientTransform="scale(1.4640424,0.68304032)"
       gradientUnits="userSpaceOnUse" /><clipPath
       id="clip0_525_147"><rect
         width="24"
         height="24"
         fill="#ffffff"
         id="rect26341"
         x="0"
         y="0" /></clipPath><style
       id="style4881">.cls-1{fill:none;stroke:#020202;stroke-miterlimit:10;stroke-width:1.91px;}</style><clipPath
       clipPathUnits="userSpaceOnUse"
       id="clipPath2471"><path
         d="M 0,0 H 56.693 V 272.126 H 0 Z"
         id="path2469" /></clipPath><linearGradient
       x1="0"
       y1="0"
       x2="0"
       y2="272.12964"
       gradientUnits="userSpaceOnUse"
       id="linearGradient2477"
       gradientTransform="matrix(2.3384702,0,0,2.3384702,753.59705,-989.93593)"><stop
         style="stop-opacity:1;stop-color:#ebebf7"
         offset="0"
         id="stop2473" /><stop
         style="stop-opacity:1;stop-color:#ccccec"
         offset="1"
         id="stop2475" /></linearGradient><clipPath
       clipPathUnits="userSpaceOnUse"
       id="clipPath2719"><path
         d="m -17.00807,-24.09476 v 9.92137 h 34.01614 v -9.92137 z"
         id="path2717" /></clipPath><clipPath
       clipPathUnits="userSpaceOnUse"
       id="clipPath2743"><path
         d="m 209.76639,-26.92943 v 9.92137 h 34.01616 v -9.92137 z"
         id="path2741" /></clipPath><clipPath
       clipPathUnits="userSpaceOnUse"
       id="clipPath3023"><path
         d="m -17.00807,-24.09476 v 9.92137 h 34.01614 v -9.92137 z"
         id="path3021" /></clipPath><clipPath
       clipPathUnits="userSpaceOnUse"
       id="clipPath3043"><path
         d="m 209.76639,-24.09476 v 9.92137 h 34.01616 v -9.92137 z"
         id="path3041" /></clipPath><clipPath
       clipPathUnits="userSpaceOnUse"
       id="clipPath9141"><path
         d="m -17.00807,-24.09476 v 9.92137 h 34.01614 v -9.92137 z"
         id="path9139" /></clipPath><clipPath
       clipPathUnits="userSpaceOnUse"
       id="clipPath9165"><path
         d="m 209.76639,-26.92943 v 9.92137 h 34.01616 v -9.92137 z"
         id="path9163" /></clipPath><clipPath
       clipPathUnits="userSpaceOnUse"
       id="clipPath11751"><g
         id="g11755"><path
           d="m 753.59705,-989.93593 h 132.57489 v 636.35854 H 753.59705 Z"
           id="path11753"
           style="stroke-width:2.33847" /></g></clipPath><inkscape:path-effect
       effect="bspline"
       id="path-effect638"
       is_visible="true"
       lpeversion="1"
       weight="33.333333"
       steps="2"
       helper_size="0"
       apply_no_weight="true"
       apply_with_weight="true"
       only_selected="false"
       uniform="false" /><inkscape:path-effect
       effect="bspline"
       id="path-effect638-2"
       is_visible="true"
       lpeversion="1"
       weight="33.333333"
       steps="2"
       helper_size="0"
       apply_no_weight="true"
       apply_with_weight="true"
       only_selected="false"
       uniform="false" /><inkscape:path-effect
       effect="bspline"
       id="path-effect1867"
       is_visible="true"
       lpeversion="1"
       weight="33.333333"
       steps="2"
       helper_size="0"
       apply_no_weight="true"
       apply_with_weight="true"
       only_selected="false"
       uniform="false" /><inkscape:path-effect
       effect="bspline"
       id="path-effect1883"
       is_visible="true"
       lpeversion="1"
       weight="33.333333"
       steps="2"
       helper_size="0"
       apply_no_weight="true"
       apply_with_weight="true"
       only_selected="false"
       uniform="false" /><inkscape:path-effect
       effect="bspline"
       id="path-effect1899"
       is_visible="true"
       lpeversion="1"
       weight="33.333333"
       steps="2"
       helper_size="0"
       apply_no_weight="true"
       apply_with_weight="true"
       only_selected="false"
       uniform="false" /><inkscape:path-effect
       effect="bspline"
       id="path-effect1915"
       is_visible="true"
       lpeversion="1"
       weight="33.333333"
       steps="2"
       helper_size="0"
       apply_no_weight="true"
       apply_with_weight="true"
       only_selected="false"
       uniform="false" /><clipPath
       id="clipPath4348">
      <path
   clip-rule="nonzero"
   d="M 81,2 H 97 V 18.511719 H 81 Z m 0,0"
   id="path5274" />
    </clipPath><clipPath
       clipPathUnits="userSpaceOnUse"
       id="clipPath2"><g
         id="g4"><rect
           x="146.00211"
           y="-3.0787021e-08"
           width="107.84417"
           height="97.352547"
           id="rect4"
           style="stroke-width:0.352778" /></g></clipPath><clipPath
       clipPathUnits="userSpaceOnUse"
       id="clipPath4"><g
         id="g5"><rect
           x="146.00211"
           y="-3.0787021e-08"
           width="107.84417"
           height="97.352547"
           id="rect5"
           style="stroke-width:0.352778" /></g></clipPath><clipPath
       clipPathUnits="userSpaceOnUse"
       id="clipPath5"><g
         id="g6"><rect
           x="146.00211"
           y="-3.0787021e-08"
           width="107.84417"
           height="97.352547"
           id="rect6"
           style="stroke-width:0.352778" /></g></clipPath><clipPath
       clipPathUnits="userSpaceOnUse"
       id="clipPath6"><g
         id="g7"
         transform="matrix(2.8346458,0,0,2.8346458,-372.02423,12.45)"><rect
           x="146.00211"
           y="-3.0787021e-08"
           width="107.84417"
           height="97.352547"
           id="rect7"
           style="stroke-width:0.352778" /></g></clipPath><clipPath
       clipPathUnits="userSpaceOnUse"
       id="clipPath7"><g
         id="g8"
         transform="matrix(2.8346458,0,0,2.8346458,-372.02423,12.45)"><rect
           x="146.00211"
           y="-3.0787021e-08"
           width="107.84417"
           height="97.352547"
           id="rect8"
           style="stroke-width:0.352778" /></g></clipPath><clipPath
       clipPathUnits="userSpaceOnUse"
       id="clipPath8"><g
         id="g10"
         transform="matrix(2.8346458,0,0,2.8346458,-372.02423,12.45)"><rect
           x="146.00211"
           y="-3.0787021e-08"
           width="107.84417"
           height="97.352547"
           id="rect9"
           style="stroke-width:0.352778" /></g></clipPath><clipPath
       clipPathUnits="userSpaceOnUse"
       id="clipPath10"><g
         id="g11"
         transform="matrix(2.8346458,0,0,2.8346458,-372.02423,12.45)"><rect
           x="146.00211"
           y="-3.0787021e-08"
           width="107.84417"
           height="97.352547"
           id="rect10"
           style="stroke-width:0.352778" /></g></clipPath></defs><g
     id="g1"><path
       d="m 70.721476,15.374727 c -20.904188,0 -37.85131,16.947122 -37.85131,37.85131 0,20.904188 16.947122,37.85131 37.85131,37.85131 20.904188,0 37.851314,-16.947122 37.851314,-37.85131 v 0 C 108.54712,32.332114 91.615399,15.400389 70.724042,15.374727 Z m 0,71.853334 c -18.779382,0 -34.002024,-15.222642 -34.002024,-34.002024 0,-18.779382 15.222642,-34.002024 34.002024,-34.002024 18.779382,0 34.002024,15.222642 34.002024,34.002024 v 0 C 104.703,71.995154 89.490593,87.207532 70.724042,87.228061 Z m 0,-59.022381 c -13.818936,0 -25.020357,11.201421 -25.020357,25.020357 0,13.818936 11.201421,25.020357 25.020357,25.020357 13.818936,0 25.020357,-11.201421 25.020357,-25.020357 v 0 C 95.726436,39.4148 84.532713,28.221077 70.724042,28.20568 Z m 0,46.191429 c -11.691564,0 -21.171072,-9.479508 -21.171072,-21.171072 0,-11.691564 9.479508,-21.171072 21.171072,-21.171072 11.691564,0 21.171072,9.479508 21.171072,21.171072 v 0 c -0.0154,11.686432 -9.48464,21.158241 -21.168506,21.171072 z m 0,-33.360477 c -6.731118,0 -12.189405,5.458287 -12.189405,12.189405 0,6.731118 5.458287,12.189405 12.189405,12.189405 6.731118,0 12.189405,-5.458287 12.189405,-12.189405 v 0 C 82.903182,46.497486 77.450027,41.044331 70.721476,41.036632 Z m 0,20.529524 c -4.606312,0 -8.340119,-3.733807 -8.340119,-8.340119 0,-4.606312 3.733807,-8.340119 8.340119,-8.340119 4.606312,0 8.340119,3.733807 8.340119,8.340119 v 0 c -0.0051,4.603746 -3.736373,8.334987 -8.340119,8.340119 z"
       id="path222-1"
       style="fill:#000000;stroke-width:2.56619" /><circle
       style="font-variation-settings:'wdth' 87, 'wght' 300;opacity:0.825;fill:#828282;fill-opacity:1;fill-rule:evenodd;stroke:none;stroke-width:0.264999;stroke-linecap:round"
       id="path904-7"
       cx="62.278549"
       cy="26.411322"
       r="2.7089832" /><circle
       style="font-variation-settings:'wdth' 87, 'wght' 300;opacity:0.825;fill:#828282;fill-opacity:1;fill-rule:evenodd;stroke:none;stroke-width:0.264999;stroke-linecap:round"
       id="path904-21"
       cx="53.156929"
       cy="50.127537"
       r="2.7089832" /><circle
       style="font-variation-settings:'wdth' 87, 'wght' 300;opacity:0.825;fill:#828282;fill-opacity:1;fill-rule:evenodd;stroke:none;stroke-width:0.264999;stroke-linecap:round"
       id="path904-27"
       cx="61.913689"
       cy="78.222137"
       r="2.7089832" /><circle
       style="font-variation-settings:'wdth' 87, 'wght' 300;opacity:0.825;fill:#828282;fill-opacity:1;fill-rule:evenodd;stroke:none;stroke-width:0.264999;stroke-linecap:round"
       id="path904-48"
       cx="99.494759"
       cy="58.884289"
       r="2.7089832" /><circle
       style="font-variation-settings:'wdth' 87, 'wght' 300;opacity:0.825;fill:#828282;fill-opacity:1;fill-rule:evenodd;stroke:none;stroke-width:0.264999;stroke-linecap:round"
       id="path904-1"
       cx="79.062332"
       cy="35.168087"
       r="2.7089832" /><circle
       style="font-variation-settings:'wdth' 87, 'wght' 300;opacity:0.825;fill:#828282;fill-opacity:1;fill-rule:evenodd;stroke:none;stroke-width:0.264999;stroke-linecap:round"
       id="path904-49"
       cx="64.102875"
       cy="56.330242"
       r="2.7089832" /><text
       xml:space="preserve"
       style="font-size:4.9389px;font-family:Bahnschrift;-inkscape-font-specification:'Bahnschrift, Normal';text-align:center;text-anchor:middle;fill:#000000;stroke-width:1"
       x="70.797272"
       y="116.95789"
       id="text12"><tspan
         sodipodi:role="line"
         id="tspan12"
         style="font-style:normal;font-variant:normal;font-weight:normal;font-stretch:normal;font-size:7.76111px;font-family:Bahnschrift;-inkscape-font-specification:'Bahnschrift, Normal';font-variant-ligatures:normal;font-variant-caps:normal;font-variant-numeric:normal;font-variant-east-asian:normal;stroke-width:1"
         x="70.797272"
         y="116.95789">a) The idea</tspan></text></g><g
     id="g2"><polyline
       points="194.69,288.42 194.69,12.45 "
       style="fill:none;stroke:#ebebeb;stroke-width:1.21;stroke-linecap:butt;stroke-linejoin:round;stroke-miterlimit:10"
       id="polyline3"
       transform="matrix(0.35277777,0,0,0.35277777,131.24188,-4.3920832)"
       clip-path="url(#clipPath10)" /><polyline
       points="90.48,288.42 90.48,12.45 "
       style="fill:none;stroke:#ebebeb;stroke-width:2.42;stroke-linecap:butt;stroke-linejoin:round;stroke-miterlimit:10"
       id="polyline4"
       transform="matrix(0.35277777,0,0,0.35277777,131.24188,-4.3920832)"
       clip-path="url(#clipPath8)" /><polyline
       points="298.91,288.42 298.91,12.45 "
       style="fill:none;stroke:#ebebeb;stroke-width:2.42;stroke-linecap:butt;stroke-linejoin:round;stroke-miterlimit:10"
       id="polyline5"
       transform="matrix(0.35277777,0,0,0.35277777,131.24188,-4.3920832)"
       clip-path="url(#clipPath7)" /><polyline
       points="55.74,275.87 58.52,272.64 61.30,269.21 64.08,265.58 66.85,261.75 69.63,257.72 72.41,253.48 75.19,249.04 77.97,244.39 80.75,239.53 83.53,234.47 86.31,229.21 89.09,223.75 91.87,218.09 94.65,212.26 97.42,206.25 100.20,200.07 102.98,193.73 105.76,187.25 108.54,180.64 111.32,173.91 114.10,167.09 116.88,160.18 119.66,153.21 122.44,146.19 125.22,139.16 128.00,132.12 130.77,125.11 133.55,118.15 136.33,111.25 139.11,104.45 141.89,97.78 144.67,91.25 147.45,84.89 150.23,78.73 153.01,72.79 155.79,67.10 158.57,61.69 161.34,56.57 164.12,51.77 166.90,47.30 169.68,43.20 172.46,39.48 175.24,36.15 178.02,33.23 180.80,30.74 183.58,28.69 186.36,27.08 189.14,25.92 191.92,25.23 194.69,25.00 197.47,25.23 200.25,25.92 203.03,27.08 205.81,28.69 208.59,30.74 211.37,33.23 214.15,36.15 216.93,39.48 219.71,43.20 222.49,47.30 225.26,51.77 228.04,56.57 230.82,61.69 233.60,67.10 236.38,72.79 239.16,78.73 241.94,84.89 244.72,91.25 247.50,97.78 250.28,104.45 253.06,111.25 255.84,118.15 258.61,125.11 261.39,132.12 264.17,139.16 266.95,146.19 269.73,153.21 272.51,160.18 275.29,167.09 278.07,173.91 280.85,180.64 283.63,187.25 286.41,193.73 289.18,200.07 291.96,206.25 294.74,212.26 297.52,218.09 300.30,223.75 303.08,229.21 305.86,234.47 308.64,239.53 311.42,244.39 314.20,249.04 316.98,253.48 319.76,257.72 322.53,261.75 325.31,265.58 328.09,269.21 330.87,272.64 333.65,275.87 "
       style="fill:none;stroke:#000000;stroke-width:4.27;stroke-linecap:butt;stroke-linejoin:round;stroke-miterlimit:10"
       id="polyline6"
       transform="matrix(0.35277777,0,0,0.35277777,131.24188,-4.3920832)"
       clip-path="url(#clipPath6)" /><line
       x1="163.16121"
       y1="97.356087"
       x2="163.16121"
       y2="-3.0787021e-08"
       style="fill:none;stroke:#ff0000;stroke-width:1.50636;stroke-linecap:butt;stroke-linejoin:round;stroke-miterlimit:10"
       id="line6"
       clip-path="url(#clipPath5)" /><line
       x1="236.69069"
       y1="97.356087"
       x2="236.69069"
       y2="-3.0787021e-08"
       style="fill:none;stroke:#ff0000;stroke-width:1.50636;stroke-linecap:butt;stroke-linejoin:round;stroke-miterlimit:10"
       id="line7"
       clip-path="url(#clipPath4)" /><line
       x1="175.41672"
       y1="55.467247"
       x2="224.43518"
       y2="55.467247"
       style="fill:none;stroke:#000000;stroke-width:0.377472;stroke-linecap:butt;stroke-linejoin:round;stroke-miterlimit:10"
       id="line8"
       clip-path="url(#clipPath2)" /><text
       x="90.480003"
       y="313.95001"
       text-anchor="middle"
       style="font-size:20px;font-family:Arial;white-space:pre;fill:#4d4d4d"
       textLength="35.689999"
       lengthAdjust="spacingAndGlyphs"
       id="text8"
       transform="matrix(0.35277777,0,0,0.35277777,131.24188,-4.3920832)">-3 σ</text><text
       x="298.91"
       y="313.95001"
       text-anchor="middle"
       style="font-size:20px;font-family:Arial;white-space:pre;fill:#4d4d4d"
       textLength="29.030001"
       lengthAdjust="spacingAndGlyphs"
       id="text9"
       transform="matrix(0.35277777,0,0,0.35277777,131.24188,-4.3920832)">3 σ</text><text
       xml:space="preserve"
       style="font-size:4.9389px;font-family:Bahnschrift;-inkscape-font-specification:'Bahnschrift, Normal';text-align:center;text-anchor:middle;fill:#000000;stroke-width:1"
       x="199.907"
       y="116.95789"
       id="text12-8"><tspan
         sodipodi:role="line"
         id="tspan12-6"
         style="font-style:normal;font-variant:normal;font-weight:normal;font-stretch:normal;font-size:7.76111px;font-family:Bahnschrift;-inkscape-font-specification:'Bahnschrift, Normal';font-variant-ligatures:normal;font-variant-caps:normal;font-variant-numeric:normal;font-variant-east-asian:normal;stroke-width:1"
         x="199.907"
         y="116.95789">b) The data</tspan></text></g></svg>
