<?xml version="1.0" encoding="UTF-8" standalone="no"?>
<!-- Created with Inkscape (http://www.inkscape.org/) -->

<svg
   width="982.67719"
   height="453.5433"
   viewBox="0 0 260 120"
   version="1.1"
   id="svg5"
   inkscape:version="1.3.2 (091e20e, 2023-11-25, custom)"
   sodipodi:docname="006_LAHP.svg"
   xml:space="preserve"
   inkscape:export-filename="006_LAHP.png"
   inkscape:export-xdpi="300"
   inkscape:export-ydpi="300"
   xmlns:inkscape="http://www.inkscape.org/namespaces/inkscape"
   xmlns:sodipodi="http://sodipodi.sourceforge.net/DTD/sodipodi-0.dtd"
   xmlns:xlink="http://www.w3.org/1999/xlink"
   xmlns="http://www.w3.org/2000/svg"
   xmlns:svg="http://www.w3.org/2000/svg"><sodipodi:namedview
     id="namedview7"
     pagecolor="#ffffff"
     bordercolor="#666666"
     borderopacity="1.0"
     inkscape:showpageshadow="2"
     inkscape:pageopacity="0.0"
     inkscape:pagecheckerboard="0"
     inkscape:deskcolor="#d1d1d1"
     inkscape:document-units="mm"
     showgrid="false"
     inkscape:zoom="1.4503087"
     inkscape:cx="707.4356"
     inkscape:cy="207.88678"
     inkscape:window-width="1920"
     inkscape:window-height="1017"
     inkscape:window-x="3832"
     inkscape:window-y="1300"
     inkscape:window-maximized="1"
     inkscape:current-layer="g2" /><defs
     id="defs2"><inkscape:path-effect
       effect="bspline"
       id="path-effect779"
       is_visible="true"
       lpeversion="1"
       weight="33.333333"
       steps="2"
       helper_size="0"
       apply_no_weight="true"
       apply_with_weight="true"
       only_selected="false"
       uniform="false" /><inkscape:path-effect
       effect="bspline"
       id="path-effect765"
       is_visible="true"
       lpeversion="1"
       weight="33.333333"
       steps="2"
       helper_size="0"
       apply_no_weight="true"
       apply_with_weight="true"
       only_selected="false"
       uniform="false" /><linearGradient
       id="linearGradient6703"><stop
         style="stop-color:#000000;stop-opacity:1.0000000;"
         offset="0.0000000"
         id="stop6704" /><stop
         style="stop-color:#7f7f7f;stop-opacity:1.0000000;"
         offset="0.50000000"
         id="stop6705" /><stop
         style="stop-color:#ffffff;stop-opacity:1.0000000;"
         offset="1.0000000"
         id="stop6706" /></linearGradient><linearGradient
       id="linearGradient879"><stop
         style="stop-color:#c3c3c3;stop-opacity:0.54918033;"
         offset="0.0000000"
         id="stop880" /><stop
         style="stop-color:#d4e1e4;stop-opacity:1.0000000;"
         offset="0.50000000"
         id="stop884" /><stop
         style="stop-color:#ddf0f0;stop-opacity:0.59016395;"
         offset="1.0000000"
         id="stop881" /></linearGradient><linearGradient
       x1="1453.8076"
       y1="384.45895"
       x2="1583.5951"
       y2="383.24872"
       id="linearGradient882"
       xlink:href="#linearGradient879"
       gradientTransform="scale(0.55994156,1.7859006)"
       gradientUnits="userSpaceOnUse" /><linearGradient
       x1="568.58307"
       y1="1189.8646"
       x2="567.13934"
       y2="1038.1013"
       id="linearGradient883"
       xlink:href="#linearGradient879"
       spreadMethod="pad"
       gradientTransform="scale(1.4640424,0.68304032)"
       gradientUnits="userSpaceOnUse" /><clipPath
       id="clip0_525_147"><rect
         width="24"
         height="24"
         fill="#ffffff"
         id="rect26341"
         x="0"
         y="0" /></clipPath><style
       id="style4881">.cls-1{fill:none;stroke:#020202;stroke-miterlimit:10;stroke-width:1.91px;}</style><clipPath
       clipPathUnits="userSpaceOnUse"
       id="clipPath2471"><path
         d="M 0,0 H 56.693 V 272.126 H 0 Z"
         id="path2469" /></clipPath><linearGradient
       x1="0"
       y1="0"
       x2="0"
       y2="272.12964"
       gradientUnits="userSpaceOnUse"
       id="linearGradient2477"
       gradientTransform="matrix(2.3384702,0,0,2.3384702,753.59705,-989.93593)"><stop
         style="stop-opacity:1;stop-color:#ebebf7"
         offset="0"
         id="stop2473" /><stop
         style="stop-opacity:1;stop-color:#ccccec"
         offset="1"
         id="stop2475" /></linearGradient><clipPath
       clipPathUnits="userSpaceOnUse"
       id="clipPath2719"><path
         d="m -17.00807,-24.09476 v 9.92137 h 34.01614 v -9.92137 z"
         id="path2717" /></clipPath><clipPath
       clipPathUnits="userSpaceOnUse"
       id="clipPath2743"><path
         d="m 209.76639,-26.92943 v 9.92137 h 34.01616 v -9.92137 z"
         id="path2741" /></clipPath><clipPath
       clipPathUnits="userSpaceOnUse"
       id="clipPath3023"><path
         d="m -17.00807,-24.09476 v 9.92137 h 34.01614 v -9.92137 z"
         id="path3021" /></clipPath><clipPath
       clipPathUnits="userSpaceOnUse"
       id="clipPath3043"><path
         d="m 209.76639,-24.09476 v 9.92137 h 34.01616 v -9.92137 z"
         id="path3041" /></clipPath><clipPath
       clipPathUnits="userSpaceOnUse"
       id="clipPath9141"><path
         d="m -17.00807,-24.09476 v 9.92137 h 34.01614 v -9.92137 z"
         id="path9139" /></clipPath><clipPath
       clipPathUnits="userSpaceOnUse"
       id="clipPath9165"><path
         d="m 209.76639,-26.92943 v 9.92137 h 34.01616 v -9.92137 z"
         id="path9163" /></clipPath><clipPath
       clipPathUnits="userSpaceOnUse"
       id="clipPath11751"><g
         id="g11755"><path
           d="m 753.59705,-989.93593 h 132.57489 v 636.35854 H 753.59705 Z"
           id="path11753"
           style="stroke-width:2.33847" /></g></clipPath><inkscape:path-effect
       effect="bspline"
       id="path-effect638"
       is_visible="true"
       lpeversion="1"
       weight="33.333333"
       steps="2"
       helper_size="0"
       apply_no_weight="true"
       apply_with_weight="true"
       only_selected="false"
       uniform="false" /><inkscape:path-effect
       effect="bspline"
       id="path-effect638-2"
       is_visible="true"
       lpeversion="1"
       weight="33.333333"
       steps="2"
       helper_size="0"
       apply_no_weight="true"
       apply_with_weight="true"
       only_selected="false"
       uniform="false" /><inkscape:path-effect
       effect="bspline"
       id="path-effect1867"
       is_visible="true"
       lpeversion="1"
       weight="33.333333"
       steps="2"
       helper_size="0"
       apply_no_weight="true"
       apply_with_weight="true"
       only_selected="false"
       uniform="false" /><inkscape:path-effect
       effect="bspline"
       id="path-effect1883"
       is_visible="true"
       lpeversion="1"
       weight="33.333333"
       steps="2"
       helper_size="0"
       apply_no_weight="true"
       apply_with_weight="true"
       only_selected="false"
       uniform="false" /><inkscape:path-effect
       effect="bspline"
       id="path-effect1899"
       is_visible="true"
       lpeversion="1"
       weight="33.333333"
       steps="2"
       helper_size="0"
       apply_no_weight="true"
       apply_with_weight="true"
       only_selected="false"
       uniform="false" /><inkscape:path-effect
       effect="bspline"
       id="path-effect1915"
       is_visible="true"
       lpeversion="1"
       weight="33.333333"
       steps="2"
       helper_size="0"
       apply_no_weight="true"
       apply_with_weight="true"
       only_selected="false"
       uniform="false" /><clipPath
       id="clipPath4348">
      <path
   clip-rule="nonzero"
   d="M 81,2 H 97 V 18.511719 H 81 Z m 0,0"
   id="path5274" />
    </clipPath><clipPath
       clipPathUnits="userSpaceOnUse"
       id="clipPath2"><g
         id="g3"><rect
           x="133.37602"
           y="-17.739582"
           width="118.57213"
           height="113.95427"
           id="rect2"
           style="stroke-width:0.352778" /></g></clipPath><clipPath
       clipPathUnits="userSpaceOnUse"
       id="clipPath3"><g
         id="g4"><rect
           x="133.37602"
           y="-17.739582"
           width="118.57213"
           height="113.95427"
           id="rect4"
           style="stroke-width:0.352778" /></g></clipPath><clipPath
       clipPathUnits="userSpaceOnUse"
       id="clipPath4"><g
         id="g5"><rect
           x="133.37602"
           y="-17.739582"
           width="118.57213"
           height="113.95427"
           id="rect5"
           style="stroke-width:0.352778" /></g></clipPath><clipPath
       clipPathUnits="userSpaceOnUse"
       id="clipPath5"><g
         id="g6"
         transform="matrix(2.8346458,0,0,2.8346458,-359.66379,55.765433)"><rect
           x="133.37602"
           y="-17.739582"
           width="118.57213"
           height="113.95427"
           id="rect6"
           style="stroke-width:0.352778" /></g></clipPath><clipPath
       clipPathUnits="userSpaceOnUse"
       id="clipPath6"><g
         id="g7"
         transform="matrix(2.8346458,0,0,2.8346458,-359.66379,55.765433)"><rect
           x="133.37602"
           y="-17.739582"
           width="118.57213"
           height="113.95427"
           id="rect7"
           style="stroke-width:0.352778" /></g></clipPath><clipPath
       clipPathUnits="userSpaceOnUse"
       id="clipPath7"><g
         id="g8"
         transform="matrix(2.8346458,0,0,2.8346458,-359.66379,55.765433)"><rect
           x="133.37602"
           y="-17.739582"
           width="118.57213"
           height="113.95427"
           id="rect8"
           style="stroke-width:0.352778" /></g></clipPath><clipPath
       clipPathUnits="userSpaceOnUse"
       id="clipPath8"><g
         id="g9"
         transform="matrix(2.8346458,0,0,2.8346458,-359.66379,55.765433)"><rect
           x="133.37602"
           y="-17.739582"
           width="118.57213"
           height="113.95427"
           id="rect9"
           style="stroke-width:0.352778" /></g></clipPath></defs><g
     id="g1"><path
       d="m 62.297255,16.922645 c -20.904188,0 -37.85131,16.947122 -37.85131,37.85131 0,20.904188 16.947122,37.85131 37.85131,37.85131 20.904188,0 37.851305,-16.947122 37.851305,-37.85131 v 0 C 100.1229,33.880032 83.191178,16.948307 62.299821,16.922645 Z m 0,71.853334 c -18.779382,0 -34.002024,-15.222642 -34.002024,-34.002024 0,-18.779382 15.222642,-34.002024 34.002024,-34.002024 18.779382,0 34.002024,15.222642 34.002024,34.002024 v 0 C 96.27875,73.543072 81.066372,88.75545 62.299821,88.775979 Z m 0,-59.022381 c -13.818936,0 -25.020357,11.201421 -25.020357,25.020357 0,13.818936 11.201421,25.020357 25.020357,25.020357 13.818936,0 25.020357,-11.201421 25.020357,-25.020357 v 0 C 87.302215,40.962718 76.108492,29.768995 62.299821,29.753598 Z m 0,46.191429 c -11.691564,0 -21.171072,-9.479508 -21.171072,-21.171072 0,-11.691564 9.479508,-21.171072 21.171072,-21.171072 11.691564,0 21.171072,9.479508 21.171072,21.171072 v 0 c -0.0154,11.686431 -9.48464,21.158241 -21.168506,21.171072 z m 0,-33.360477 c -6.731118,0 -12.189405,5.458287 -12.189405,12.189405 0,6.731118 5.458287,12.189405 12.189405,12.189405 6.731118,0 12.189405,-5.458287 12.189405,-12.189405 v 0 C 74.478961,48.045403 69.025806,42.592249 62.297255,42.58455 Z m 0,20.529524 c -4.606312,0 -8.340119,-3.733807 -8.340119,-8.340119 0,-4.606312 3.733807,-8.340119 8.340119,-8.340119 4.606312,0 8.340119,3.733807 8.340119,8.340119 v 0 c -0.0051,4.603746 -3.736373,8.334987 -8.340119,8.340119 z"
       id="path222-6"
       style="fill:#000000;stroke-width:2.56619" /><circle
       style="font-variation-settings:'wdth' 87, 'wght' 300;opacity:0.825;fill:#828282;fill-opacity:1;fill-rule:evenodd;stroke:none;stroke-width:0.264999;stroke-linecap:round"
       id="path904-15"
       cx="41.682964"
       cy="37.08086"
       r="2.7089832" /><circle
       style="font-variation-settings:'wdth' 87, 'wght' 300;opacity:0.825;fill:#828282;fill-opacity:1;fill-rule:evenodd;stroke:none;stroke-width:0.264999;stroke-linecap:round"
       id="path904-217"
       cx="44.966747"
       cy="30.513302"
       r="2.7089832" /><circle
       style="font-variation-settings:'wdth' 87, 'wght' 300;opacity:0.825;fill:#828282;fill-opacity:1;fill-rule:evenodd;stroke:none;stroke-width:0.264999;stroke-linecap:round"
       id="path904-8"
       cx="47.885662"
       cy="34.891674"
       r="2.7089832" /><circle
       style="font-variation-settings:'wdth' 87, 'wght' 300;opacity:0.825;fill:#828282;fill-opacity:1;fill-rule:evenodd;stroke:none;stroke-width:0.264999;stroke-linecap:round"
       id="path904-9"
       cx="48.615398"
       cy="42.918705"
       r="2.7089832" /><circle
       style="font-variation-settings:'wdth' 87, 'wght' 300;opacity:0.825;fill:#828282;fill-opacity:1;fill-rule:evenodd;stroke:none;stroke-width:0.264999;stroke-linecap:round"
       id="path904-79"
       cx="38.034313"
       cy="40.729511"
       r="2.7089832" /><circle
       style="font-variation-settings:'wdth' 87, 'wght' 300;opacity:0.825;fill:#828282;fill-opacity:1;fill-rule:evenodd;stroke:none;stroke-width:0.264999;stroke-linecap:round"
       id="path904-75"
       cx="40.588375"
       cy="30.513302"
       r="2.7089832" /><text
       xml:space="preserve"
       style="font-size:4.9389px;font-family:Bahnschrift;-inkscape-font-specification:'Bahnschrift, Normal';text-align:center;text-anchor:middle;fill:#000000;stroke-width:1"
       x="62.373047"
       y="116.16414"
       id="text12"><tspan
         sodipodi:role="line"
         id="tspan12"
         style="font-style:normal;font-variant:normal;font-weight:normal;font-stretch:normal;font-size:7.76111px;font-family:Bahnschrift;-inkscape-font-specification:'Bahnschrift, Normal';font-variant-ligatures:normal;font-variant-caps:normal;font-variant-numeric:normal;font-variant-east-asian:normal;stroke-width:1"
         x="62.373047"
         y="116.16414">a) The idea</tspan></text></g><g
     id="g2"><polyline
       points="186.47,328.50 186.47,5.48 "
       style="fill:none;stroke:#ebebeb;stroke-width:1.40541;stroke-linecap:butt;stroke-linejoin:round;stroke-miterlimit:10;stroke-dasharray:none"
       id="polyline3"
       transform="matrix(0.3038254,0,0,0.3038254,148.06778,0.97732897)"
       clip-path="url(#clipPath8)" /><polyline
       points="71.89,328.50 71.89,5.48 "
       style="fill:none;stroke:#ebebeb;stroke-width:1.07;stroke-linecap:butt;stroke-linejoin:round;stroke-miterlimit:10"
       id="polyline4"
       transform="matrix(0.3038254,0,0,0.3038254,148.06778,0.97732897)"
       clip-path="url(#clipPath7)" /><polyline
       points="301.05,328.50 301.05,5.48 "
       style="fill:none;stroke:#ebebeb;stroke-width:1.07;stroke-linecap:butt;stroke-linejoin:round;stroke-miterlimit:10"
       id="polyline5"
       transform="matrix(0.3038254,0,0,0.3038254,148.06778,0.97732897)"
       clip-path="url(#clipPath6)" /><polyline
       points="33.69,300.92 36.75,298.11 39.80,294.81 42.86,290.97 45.91,286.53 48.97,281.44 52.02,275.64 55.08,269.08 58.14,261.74 61.19,253.58 64.25,244.58 67.30,234.74 70.36,224.09 73.41,212.65 76.47,200.48 79.52,187.65 82.58,174.27 85.64,160.46 88.69,146.35 91.75,132.11 94.80,117.92 97.86,103.97 100.91,90.45 103.97,77.59 107.02,65.58 110.08,54.62 113.14,44.90 116.19,36.60 119.25,29.87 122.30,24.82 125.36,21.57 128.41,20.16 131.47,20.63 134.52,22.97 137.58,27.13 140.63,33.03 143.69,40.56 146.75,49.59 149.80,59.95 152.86,71.46 155.91,83.93 158.97,97.14 162.02,110.90 165.08,125.00 168.13,139.23 171.19,153.43 174.25,167.41 177.30,181.02 180.36,194.14 183.41,206.65 186.47,218.46 189.52,229.52 192.58,239.77 195.63,249.18 198.69,257.76 201.75,265.51 204.80,272.46 207.86,278.63 210.91,284.07 213.97,288.83 217.02,292.97 220.08,296.53 223.13,299.57 226.19,302.15 229.24,304.33 232.30,306.15 235.36,307.66 238.41,308.90 241.47,309.92 244.52,310.75 247.58,311.42 250.63,311.95 253.69,312.37 256.74,312.71 259.80,312.97 262.86,313.18 265.91,313.34 268.97,313.46 272.02,313.55 275.08,313.62 278.13,313.67 281.19,313.71 284.24,313.74 287.30,313.77 290.35,313.78 293.41,313.79 296.47,313.80 299.52,313.81 302.58,313.81 305.63,313.81 308.69,313.82 311.74,313.82 314.80,313.82 317.85,313.82 320.91,313.82 323.97,313.82 327.02,313.82 330.08,313.82 333.13,313.82 336.19,313.82 339.24,313.82 "
       style="fill:none;stroke:#000000;stroke-width:4.27;stroke-linecap:butt;stroke-linejoin:round;stroke-miterlimit:10"
       id="polyline6"
       transform="matrix(0.3038254,0,0,0.3038254,148.06778,0.97732897)"
       clip-path="url(#clipPath5)" /><path
       style="fill:#4d4d4d;stroke:#ff0000;stroke-width:1.506;stroke-dasharray:none;stroke-opacity:1"
       d="M 239.53442,3.5471727 V 99.879089"
       id="path13"
       sodipodi:nodetypes="cc" /><path
       style="fill:#4d4d4d;stroke:#ff0000;stroke-width:1.506;stroke-dasharray:none;stroke-opacity:1"
       d="M 169.90979,3.5471728 V 99.879089"
       id="path13-9"
       sodipodi:nodetypes="cc" /><line
       x1="158.97711"
       y1="39.08939"
       x2="185.9258"
       y2="39.08939"
       style="fill:none;stroke:#000000;stroke-width:0.377472;stroke-linecap:butt;stroke-linejoin:round;stroke-miterlimit:10"
       id="line8"
       clip-path="url(#clipPath2)"
       transform="matrix(0.86123737,0,0,0.86123737,38.792789,17.920284)" /><text
       x="90.480003"
       y="313.95001"
       text-anchor="middle"
       style="font-size:20px;font-family:Arial;white-space:pre;fill:#4d4d4d"
       textLength="35.689999"
       lengthAdjust="spacingAndGlyphs"
       id="text8-6"
       transform="matrix(0.33492027,0,0,0.33492027,139.5735,1.6723551)">-3 σ</text><text
       x="298.91"
       y="313.95001"
       text-anchor="middle"
       style="font-size:20px;font-family:Arial;white-space:pre;fill:#4d4d4d"
       textLength="29.030001"
       lengthAdjust="spacingAndGlyphs"
       id="text9-8"
       transform="matrix(0.33492027,0,0,0.33492027,139.35633,1.6723551)">3 σ</text><text
       xml:space="preserve"
       style="font-size:4.9389px;font-family:Bahnschrift;-inkscape-font-specification:'Bahnschrift, Normal';text-align:center;text-anchor:middle;fill:#000000;stroke-width:1"
       x="204.48227"
       y="116.16414"
       id="text12-8"><tspan
         sodipodi:role="line"
         id="tspan12-6"
         style="font-style:normal;font-variant:normal;font-weight:normal;font-stretch:normal;font-size:7.76111px;font-family:Bahnschrift;-inkscape-font-specification:'Bahnschrift, Normal';font-variant-ligatures:normal;font-variant-caps:normal;font-variant-numeric:normal;font-variant-east-asian:normal;stroke-width:1"
         x="204.48227"
         y="116.16414">b) The data</tspan></text></g></svg>
