<?xml version="1.0" encoding="UTF-8" standalone="no"?>
<!-- Created with Inkscape (http://www.inkscape.org/) -->

<svg
   width="1050"
   height="700"
   viewBox="0 0 277.81249 185.20833"
   version="1.1"
   id="svg5"
   inkscape:version="1.2.2 (732a01da63, 2022-12-09)"
   sodipodi:docname="006_MeasurementError.svg"
   xml:space="preserve"
   inkscape:export-filename="006_MeasurementError.png"
   inkscape:export-xdpi="300"
   inkscape:export-ydpi="300"
   xmlns:inkscape="http://www.inkscape.org/namespaces/inkscape"
   xmlns:sodipodi="http://sodipodi.sourceforge.net/DTD/sodipodi-0.dtd"
   xmlns:xlink="http://www.w3.org/1999/xlink"
   xmlns="http://www.w3.org/2000/svg"
   xmlns:svg="http://www.w3.org/2000/svg"><sodipodi:namedview
     id="namedview7"
     pagecolor="#ffffff"
     bordercolor="#666666"
     borderopacity="1.0"
     inkscape:showpageshadow="2"
     inkscape:pageopacity="0.0"
     inkscape:pagecheckerboard="0"
     inkscape:deskcolor="#d1d1d1"
     inkscape:document-units="mm"
     showgrid="false"
     inkscape:zoom="0.72515434"
     inkscape:cx="247.53351"
     inkscape:cy="433.01127"
     inkscape:window-width="1920"
     inkscape:window-height="1017"
     inkscape:window-x="1912"
     inkscape:window-y="-8"
     inkscape:window-maximized="1"
     inkscape:current-layer="layer1" /><defs
     id="defs2"><linearGradient
   id="linearGradient12025"
   inkscape:swatch="solid"><stop
     style="stop-color:#c0c0c0;stop-opacity:1;"
     offset="0"
     id="stop12023" /></linearGradient><linearGradient
   id="linearGradient6703"><stop
     style="stop-color:#000000;stop-opacity:1.0000000;"
     offset="0.0000000"
     id="stop6704" /><stop
     style="stop-color:#7f7f7f;stop-opacity:1.0000000;"
     offset="0.50000000"
     id="stop6705" /><stop
     style="stop-color:#ffffff;stop-opacity:1.0000000;"
     offset="1.0000000"
     id="stop6706" /></linearGradient><linearGradient
   id="linearGradient879"><stop
     style="stop-color:#c3c3c3;stop-opacity:0.54918033;"
     offset="0.0000000"
     id="stop880" /><stop
     style="stop-color:#d4e1e4;stop-opacity:1.0000000;"
     offset="0.50000000"
     id="stop884" /><stop
     style="stop-color:#ddf0f0;stop-opacity:0.59016395;"
     offset="1.0000000"
     id="stop881" /></linearGradient><linearGradient
   x1="1453.8076"
   y1="384.45894"
   x2="1583.5951"
   y2="383.24872"
   id="linearGradient882"
   xlink:href="#linearGradient879"
   gradientTransform="scale(0.55994156,1.7859006)"
   gradientUnits="userSpaceOnUse" /><linearGradient
   x1="568.58307"
   y1="1189.8646"
   x2="567.13932"
   y2="1038.1013"
   id="linearGradient883"
   xlink:href="#linearGradient879"
   spreadMethod="pad"
   gradientTransform="scale(1.4640424,0.68304032)"
   gradientUnits="userSpaceOnUse" /><clipPath
   id="clip0_525_147"><rect
     width="24"
     height="24"
     fill="white"
     id="rect26341" /></clipPath><style
   id="style4881">.cls-1{fill:none;stroke:#020202;stroke-miterlimit:10;stroke-width:1.91px;}</style><clipPath
   id="clipPath1983">
      <path
   clip-rule="nonzero"
   d="M 0,0 H 6 V 6.226563 H 0 Z m 0,0"
   id="path4278" />
    </clipPath>
  <clipPath
   id="clipPath3454">
      <path
   clip-rule="nonzero"
   d="M 0,1 H 6 V 7.75 H 0 Z m 0,0"
   id="path4704" />
    </clipPath>
  <clipPath
   id="clipPath3049">
      <path
   clip-rule="nonzero"
   d="M 0,1 H 6 V 7.75 H 0 Z m 0,0"
   id="path363" />
    </clipPath>
  <clipPath
   id="clipPath5165">
      <path
   clip-rule="nonzero"
   d="M 0,0 H 10 V 10.761719 H 0 Z m 0,0"
   id="path1626" />
    </clipPath>
  <clipPath
   id="clipPath2469">
      <path
   clip-rule="nonzero"
   d="M 0,2 H 10 V 13.046875 H 0 Z m 0,0"
   id="path6884" />
    </clipPath>
  <clipPath
   id="clipPath6213">
      <path
   clip-rule="nonzero"
   d="M 0,3 H 10 V 14.445313 H 0 Z m 0,0"
   id="path2614" />
    </clipPath>
  <clipPath
   id="clipPath4535">
      <path
   clip-rule="nonzero"
   d="M 0,3 H 10 V 14.445313 H 0 Z m 0,0"
   id="path4179" />
    </clipPath>
  <clipPath
   id="clipPath4555">
      <path
   clip-rule="nonzero"
   d="M 0,3 H 10 V 14.445313 H 0 Z m 0,0"
   id="path9849" />
    </clipPath>
  <clipPath
   id="clipPath6568">
      <path
   clip-rule="nonzero"
   d="M 0,3 H 10 V 14.445313 H 0 Z m 0,0"
   id="path4298" />
    </clipPath>
  <clipPath
   id="clipPath5697">
      <path
   clip-rule="nonzero"
   d="M 0,2 H 10 V 13.390625 H 0 Z m 0,0"
   id="path1288" />
    </clipPath>
  <marker
   style="overflow:visible"
   id="Arrow1Mstart-0"
   refX="0"
   refY="0"
   orient="auto"
   inkscape:stockid="Arrow1Mstart"
   inkscape:isstock="true"><path
     transform="matrix(0.4,0,0,0.4,4,0)"
     style="fill:#000000;fill-opacity:1;fill-rule:evenodd;stroke:#000000;stroke-width:1pt;stroke-opacity:1"
     d="M 0,0 5,-5 -12.5,0 5,5 Z"
     id="path909-3" /></marker><marker
   style="overflow:visible"
   id="Arrow1Mend-5"
   refX="0"
   refY="0"
   orient="auto"
   inkscape:stockid="Arrow1Mend"
   inkscape:isstock="true"><path
     transform="matrix(-0.4,0,0,-0.4,-4,0)"
     style="fill:#000000;fill-opacity:1;fill-rule:evenodd;stroke:#000000;stroke-width:1pt;stroke-opacity:1"
     d="M 0,0 5,-5 -12.5,0 5,5 Z"
     id="path912-4" /></marker>
  <clipPath
   id="clipPath1593">
      <path
   clip-rule="nonzero"
   d="M 45,0 H 68.132813 V 18 H 45 Z m 0,0"
   id="path2845" />
    </clipPath>
  <clipPath
   id="clipPath3600">
      <path
   clip-rule="nonzero"
   d="M 20,3 H 36 V 18.785156 H 20 Z m 0,0"
   id="path3504" />
    </clipPath>
    <clipPath
   id="clipPath114">
      <path
   clip-rule="nonzero"
   d="M 43,0 H 66.695313 V 18 H 43 Z m 0,0"
   id="path8676" />
    </clipPath>
  
  

    
  <clipPath
   clipPathUnits="userSpaceOnUse"
   id="clipPath2114"><g
     id="g2118"
     transform="matrix(2.8346439,0,0,2.8346439,-504.54938,-490.82947)"><path
       clip-rule="nonzero"
       d="m 177.99392,173.8594 h 4.58611 v 4.18786 h -4.58611 z m 0,0"
       id="path2116"
       style="stroke-width:0.352778" /></g></clipPath><clipPath
   id="clipPath4580">
      <path
   clip-rule="nonzero"
   d="m 15,3 h 6 v 11.390625 h -6 z m 0,0"
   id="path4047" />
    </clipPath>
    <clipPath
   id="clipPath3769">
      <path
   clip-rule="nonzero"
   d="m 73,3 h 5 v 11.390625 h -5 z m 0,0"
   id="path9149" />
    </clipPath>
  </defs><g
     inkscape:label="Ebene 1"
     inkscape:groupmode="layer"
     id="layer1"><g
   id="Layer_2"
   transform="matrix(0.32412852,0,0,0.32412852,111.37449,123.98473)">
</g><g
   style="fill:#000000"
   id="g795"
   transform="matrix(0.29232605,-0.29232605,0.29232605,0.29232605,6.3625017,-101.79815)"><g
     id="g785"
     transform="translate(-56.790529,14.35365)">
	<g
   id="g783">
		<path
   id="path781"
   d="m 54.543618,396.54492 c -0.08826,-0.80322 -0.840353,-1.23718 -1.381478,-1.73073 -8.340437,-7.2986 -16.681246,-14.59676 -25.021455,-21.89563 8.683941,-7.60635 17.384214,-15.19567 26.049359,-22.82247 0.570701,-0.62114 0.425487,-1.71542 -0.29515,-2.1608 -0.560715,-0.39962 -1.275224,-0.19172 -1.911711,-0.24284 -8.896718,-0.0223 -17.793478,-0.003 -26.690212,-0.01 -0.0198,-3.27602 0.04104,-6.5548 -0.03647,-9.82899 -0.166607,-0.76362 -0.993725,-1.26863 -1.752543,-1.13751 -13.348454,-0.003 -26.696924,-0.0152 -40.045369,0.007 -0.882722,0.18249 -1.605678,0.76757 -2.43101,1.10039 -11.62283,5.81585 -23.256447,11.6121 -34.865148,17.45464 -0.779306,0.54767 -0.797893,1.89858 0.05147,2.39354 0.643428,0.4217 1.436239,0.20638 2.15362,0.25447 h 48.3963266 l -0.075897,75.91292 c -16.6520366,0.002 -33.3047886,-0.005 -49.9563736,0.0157 -0.969553,0.12317 -1.609978,1.37733 -1.02727,2.2025 0.420871,0.65903 1.240052,0.82345 1.875029,1.19955 11.493313,5.74679 22.986622,11.49359 34.479939,17.24038 0.0048,9.53168 -0.01779,19.06497 0.02138,28.59563 0.125257,0.7845 0.956298,1.34661 1.732462,1.20763 4.291587,0.0183 8.5832269,0.009 12.8748377,0.0108 0.00169,39.78382 0.079765,26.32681 0.081779,66.11063 0.057713,0.83038 0.917716,1.4666 1.7295598,1.3285 8.518265,0.0145 17.0378755,0.0158 25.5553115,-0.01 0.811378,-0.11524 1.377627,-0.98306 1.229198,-1.77579 0.02124,-26.19522 0.0042,-52.39045 0.0091,-78.58569 v -73.2239 c 9.348387,-0.005 18.698272,0.0212 28.045719,-0.0236 0.722346,-0.11728 1.289171,-0.85679 1.204928,-1.5861 z m -6.451312,-44.97254 c -7.599829,6.64991 -15.199421,13.30011 -22.799335,19.94994 v -20.91091 h 23.89757 c -0.366072,0.32033 -0.732153,0.64064 -1.098235,0.96097 z m -0.361621,43.65415 H 25.292971 v -20.91091 c 7.965986,6.97016 15.931668,13.94067 23.89757,20.91091 z M 22.38079,428.66004 c -0.03047,3.11521 -0.0095,6.234 -0.01642,9.35059 1.52e-4,1.58665 4.23e-4,3.17329 4.23e-4,4.75994 -3.288518,0.0171 -6.579914,-0.0429 -9.86657,0.0385 -0.928912,0.22422 -1.46083,1.47652 -0.83922,2.25237 0.329431,0.48725 0.939016,0.70415 1.509378,0.62922 3.065459,0.0118 6.130944,0.004 9.196412,0.006 v 15.35526 c -2.075221,0.0305 -4.154326,-0.0478 -6.226983,0.0486 -0.906749,0.23105 -1.429756,1.44722 -0.840252,2.21997 0.325335,0.5035 0.948062,0.73289 1.529662,0.65666 1.480107,0.007 2.964427,0.0142 4.441665,-0.0142 0.721271,0.0771 1.211419,0.83163 1.102314,1.52687 -0.01354,4.61739 -0.0042,9.2348 -0.0068,13.8522 -3.288527,0.0171 -6.579914,-0.0429 -9.866579,0.0385 -0.930181,0.22444 -1.462098,1.48016 -0.836858,2.25526 0.329109,0.48632 0.938144,0.70048 1.507017,0.62695 3.065476,0.006 6.130944,0.007 9.19642,0.006 v 15.35526 c -2.076313,0.031 -4.156763,-0.0488 -6.230334,0.0494 -0.904041,0.23273 -1.424661,1.44285 -0.837976,2.21511 0.322103,0.5071 0.945397,0.7339 1.526548,0.65951 1.519846,0.0233 3.042738,-0.0185 4.560705,0.0217 0.705328,0.0997 1.09859,0.87129 0.981057,1.5305 v 13.81388 c -3.288527,0.0171 -6.579914,-0.0429 -9.866579,0.0385 -0.913611,0.22151 -1.450886,1.44181 -0.860798,2.22028 0.322576,0.50788 0.94741,0.73788 1.530128,0.66131 3.06573,0.0118 6.131494,0.004 9.197249,0.006 v 15.35526 c -2.075229,0.0305 -4.154326,-0.0478 -6.226983,0.0486 -0.904904,0.22919 -1.428656,1.44312 -0.842858,2.21501 0.322991,0.50798 0.947918,0.73651 1.530593,0.66084 1.480656,0.008 2.965536,0.0151 4.443332,-0.0135 0.721559,0.0768 1.211689,0.83164 1.102212,1.52688 -0.01354,3.39804 -0.0042,6.79613 -0.0059,10.1942 H -0.30813848 c 0.0017,-64.16829 -8.46e-4,-128.33659 -0.0076,-192.50488 -0.06305,-0.83851 -0.93624002,-1.46058 -1.75149402,-1.31598 -11.9985295,-0.0272 -23.9973155,0.014 -35.9957075,-0.0303 -2.410404,-0.10061 -4.820833,-0.20065 -7.231207,-0.30195 3.330576,-1.88453 6.640447,-3.81455 10.095552,-5.46588 6.380568,-3.18987 12.761146,-6.37973 19.14171,-9.56962 H 22.36472 v 11.69808 c -2.073859,0.03 -4.151373,-0.0468 -6.222795,0.0477 -0.909228,0.22904 -1.43556,1.44775 -0.843763,2.22175 0.323837,0.50417 0.945015,0.72882 1.524796,0.65453 1.529535,0.0274 3.065079,-0.027 4.590848,0.0284 0.639271,0.11517 1.046437,0.78684 0.954155,1.41198 -0.0042,4.6419 -0.0042,9.2838 -0.0034,13.9257 -3.288518,0.0171 -6.579914,-0.0429 -9.86657,0.0385 -0.915186,0.2223 -1.451851,1.4456 -0.858818,2.22425 0.326079,0.50324 0.946775,0.73503 1.528976,0.65796 3.065468,0.006 6.130944,0.007 9.196412,0.006 v 15.35525 c -2.07385,0.03 -4.151373,-0.0468 -6.222794,0.0477 -0.910811,0.2278 -1.43458,1.44739 -0.843002,2.2218 0.323794,0.50505 0.947833,0.72989 1.528232,0.65567 1.480098,0.007 2.964418,0.0142 4.441656,-0.0142 0.721593,0.0768 1.211216,0.83184 1.102348,1.52687 -0.0121,4.61739 -0.0051,9.23481 -0.0068,13.85221 -3.288527,0.0171 -6.579922,-0.0429 -9.866579,0.0385 -0.911877,0.2227 -1.452198,1.44123 -0.861238,2.22001 0.323448,0.50751 0.948197,0.73982 1.531397,0.66139 3.065467,0.006 6.130944,0.008 9.19642,0.007 v 15.35275 c -2.08189,0.041 -4.167951,-0.0551 -6.247073,0.0553 -0.893514,0.24484 -1.402659,1.44556 -0.822007,2.21321 0.32564,0.50515 0.947986,0.73581 1.530669,0.65844 1.501737,0.014 3.006714,0.003 4.506292,-0.004 0.600522,0.0876 1.042527,0.66579 1.04802,1.25895 z m -25.6970117,8.65499 v 44.06768 H -15.012633 c -0.0043,-9.33875 0.01945,-18.6785 -0.02229,-28.01662 -0.09116,-0.71669 -0.759852,-1.14767 -1.380134,-1.38525 -7.58482,-3.79633 -15.182941,-7.56676 -22.748981,-11.3996 -2.074765,-1.14675 -4.149664,-2.29327 -6.224265,-3.44031 3.801076,-0.19518 7.603597,-0.44284 11.411972,-0.375 10.220042,2.7e-4 20.440079,4.3e-4 30.660126,8.5e-4 v 0.54828 z"
   sodipodi:nodetypes="scccccccccccccccccccccccccccccsscccccccccccccccccccccccccccccccccccccccccccccccccccccccccccccccccccccccccccccccccccccccccccccc"
   style="stroke-width:0.428581" />
	</g>
</g></g><g
   id="g1546"
   transform="matrix(0.9572516,-0.9572516,0.9572516,0.9572516,-256.90495,247.27728)"><path
     style="fill:none;stroke:#000000;stroke-width:0.265;stroke-linecap:butt;stroke-linejoin:miter;stroke-miterlimit:4;stroke-dasharray:2.12, 0.53, 0.265, 0.53;stroke-dashoffset:0;stroke-opacity:1"
     d="m 231.35751,80.349842 h 69.87822"
     id="path833"
     sodipodi:nodetypes="cc" /><path
     id="rect835"
     style="fill:none;fill-rule:evenodd;stroke:#000000;stroke-width:0.5;stroke-miterlimit:4;stroke-dasharray:none;stroke-opacity:1"
     d="m 231.35751,65.716835 h 41.42677 v 29.266013 h -41.42677"
     sodipodi:nodetypes="cccc" /><path
     id="rect838"
     style="fill:none;fill-rule:evenodd;stroke:#000000;stroke-width:0.5;stroke-miterlimit:4;stroke-dasharray:none;stroke-opacity:1"
     d="m 273.03428,69.358628 h 22.01711 V 91.56473 h -22.01711"
     sodipodi:nodetypes="cccc" /></g>
      
    <g
   id="g2203"
   transform="translate(-2.9189188,-8.0270268)"><line
     style="fill:none;stroke:#000000;stroke-width:0.38394;stroke-linecap:round;stroke-linejoin:round;stroke-miterlimit:10"
     id="line2443"
     y2="167.40546"
     x2="273.72064"
     y1="167.40546"
     x1="85.39769"
     stroke-miterlimit="10" /><path
     style="fill:#ececec;fill-opacity:1;stroke:#000000;stroke-width:3.07856;stroke-linecap:round;stroke-linejoin:round;stroke-miterlimit:10;stroke-dasharray:none"
     id="path2445"
     d="m 85.470892,167.37986 c 4.24841,-0.0179 8.496819,-0.0522 12.743181,-0.16331 4.060537,-0.10699 8.136427,-0.2795 12.171367,-0.78835 4.27196,-0.53905 8.46764,-1.43337 12.48876,-3.06076 4.00678,-1.62227 7.54926,-4.08203 10.82195,-6.95748 3.18157,-2.79507 5.96538,-6.23005 8.4144,-9.7244 2.51967,-3.59571 4.85606,-7.32504 7.02352,-11.16289 2.23452,-3.9561 4.37332,-7.96647 6.49471,-11.98912 2.0789,-3.9428 4.16138,-7.88099 6.32372,-11.77464 2.1132,-3.80662 4.39738,-7.58662 7.07113,-10.99446 1.38525,-1.765611 2.91128,-3.340271 4.62006,-4.759821 1.6622,-1.381155 3.66943,-2.159783 5.76983,-2.32462 2.13009,-0.166886 4.15217,0.9235 5.87068,2.104495 1.75793,1.208128 3.21945,2.906672 4.57809,4.562216 2.79916,3.40835 5.05365,7.2933 7.25644,11.13422 2.13469,3.72267 4.10763,7.54773 6.11128,11.34821 2.11013,4.0032 4.21923,8.00742 6.44249,11.94459 2.15722,3.82044 4.41734,7.58816 6.92676,11.16852 2.57342,3.67199 5.38999,7.12436 8.62685,10.17898 3.18004,3.00137 6.81466,5.34238 10.75284,7.08904 3.79025,1.68165 7.94907,2.59799 12.02496,3.11246 4.18852,0.5283 8.39342,0.75611 12.60906,0.88307 4.16855,0.12541 8.3412,0.1546 12.51128,0.17251 0.21194,3.2e-4 0.42285,0.002 0.63478,0.002"
     stroke-miterlimit="10" /><line
     style="fill:none;stroke:#000000;stroke-width:0.328086;stroke-linejoin:round;stroke-miterlimit:10;stroke-dasharray:none"
     id="line2451"
     y2="122.89841"
     x2="156.07927"
     y1="170.32851"
     x1="156.07927"
     stroke-miterlimit="10" /><line
     style="fill:none;stroke:#000000;stroke-width:0.372732;stroke-linejoin:round;stroke-miterlimit:10;stroke-dasharray:none"
     id="line2453"
     y2="94.211021"
     x2="179.61522"
     y1="170.32851"
     x1="179.61522"
     stroke-miterlimit="10" /><line
     style="fill:none;stroke:#000000;stroke-width:0.333369;stroke-linejoin:round;stroke-miterlimit:10;stroke-dasharray:none"
     id="line2455"
     y2="121.75169"
     x2="203.15117"
     y1="170.32851"
     x1="203.15117"
     stroke-miterlimit="10" /><g
     id="g2144"
     transform="matrix(1.2145104,0,0,1.2145104,-39.435566,-37.208572)"><g
       fill="#000000"
       fill-opacity="1"
       id="g19"
       transform="matrix(0.352778,0,0,0.352778,177.99392,173.15384)">
    <g
   id="use17"
   transform="translate(1.886,13.869)">
      <path
   d="M 9.890625,-13.703125 V -14.28125 H 1.46875 v 0.578125 z m 0,0"
   id="path31" />
    </g>
  </g><g
       fill="#000000"
       fill-opacity="1"
       id="g23"
       transform="matrix(0.352778,0,0,0.352778,177.99392,173.15384)"
       clip-path="url(#clipPath2114)">
      <g
   id="use21"
   transform="translate(0,13.871)">
        <path
   d="m 11.75,-10.109375 c -0.796875,0.140625 -1.09375,0.734375 -1.09375,1.21875 0,0.59375 0.46875,0.78125 0.8125,0.78125 0.75,0 1.265625,-0.640625 1.265625,-1.3125 0,-1.03125 -1.1875,-1.5 -2.234375,-1.5 -1.5,0 -2.34375,1.484375 -2.5625,1.953125 -0.578125,-1.859375 -2.109375,-1.953125 -2.5625,-1.953125 -2.53125,0 -3.859375,3.234375 -3.859375,3.78125 0,0.109375 0.09375,0.234375 0.265625,0.234375 0.203125,0 0.25,-0.15625 0.296875,-0.25 0.84375,-2.75 2.5,-3.28125 3.21875,-3.28125 1.125,0 1.34375,1.046875 1.34375,1.640625 C 6.640625,-8.25 6.5,-7.6875 6.1875,-6.5 l -0.828125,3.40625 c -0.375,1.484375 -1.09375,2.84375 -2.40625,2.84375 -0.125,0 -0.75,0 -1.265625,-0.3125 0.890625,-0.1875 1.09375,-0.921875 1.09375,-1.21875 0,-0.5 -0.375,-0.796875 -0.84375,-0.796875 -0.59375,0 -1.25,0.515625 -1.25,1.3125 0,1.046875 1.171875,1.515625 2.234375,1.515625 1.1875,0 2.03125,-0.9375 2.5625,-1.953125 C 5.875,-0.25 7.109375,0.25 8.03125,0.25 c 2.53125,0 3.859375,-3.25 3.859375,-3.796875 0,-0.125 -0.09375,-0.21875 -0.25,-0.21875 -0.21875,0 -0.234375,0.125 -0.3125,0.328125 -0.671875,2.171875 -2.109375,3.1875 -3.21875,3.1875 -0.875,0 -1.34375,-0.640625 -1.34375,-1.65625 0,-0.546875 0.09375,-0.9375 0.5,-2.578125 L 8.125,-7.859375 C 8.5,-9.34375 9.34375,-10.4375 10.484375,-10.4375 c 0.04687,0 0.734375,0 1.265625,0.328125 z m 0,0"
   id="path35" />
      </g>
    </g></g><g
     inkscape:label=""
     transform="matrix(1.2145104,0,0,1.2145104,141.64509,171.85361)"
     id="g1724"><g
   fill="#000000"
   fill-opacity="1"
   id="g29"
   transform="matrix(0.352778,0,0,0.352778,-0.242535,-0.00348345)">
    <g
   id="use27"
   transform="translate(1.886,17.212)">
      <path
   d="M 9.890625,-13.703125 V -14.28125 H 1.46875 v 0.578125 z m 0,0"
   id="path51" />
    </g>
  </g>
  <g
   fill="#000000"
   fill-opacity="1"
   id="g33"
   transform="matrix(0.352778,0,0,0.352778,-0.242535,-0.00348345)">
    <g
   id="use31"
   transform="translate(0,17.212999)">
      <path
   d="m 11.75,-10.109375 c -0.796875,0.140625 -1.09375,0.734375 -1.09375,1.21875 0,0.59375 0.46875,0.78125 0.8125,0.78125 0.75,0 1.265625,-0.640625 1.265625,-1.3125 0,-1.03125 -1.1875,-1.5 -2.234375,-1.5 -1.5,0 -2.34375,1.484375 -2.5625,1.953125 -0.578125,-1.859375 -2.109375,-1.953125 -2.5625,-1.953125 -2.53125,0 -3.859375,3.234375 -3.859375,3.78125 0,0.109375 0.09375,0.234375 0.265625,0.234375 0.203125,0 0.25,-0.15625 0.296875,-0.25 0.84375,-2.75 2.5,-3.28125 3.21875,-3.28125 1.125,0 1.34375,1.046875 1.34375,1.640625 C 6.640625,-8.25 6.5,-7.6875 6.1875,-6.5 l -0.828125,3.40625 c -0.375,1.484375 -1.09375,2.84375 -2.40625,2.84375 -0.125,0 -0.75,0 -1.265625,-0.3125 0.890625,-0.1875 1.09375,-0.921875 1.09375,-1.21875 0,-0.5 -0.375,-0.796875 -0.84375,-0.796875 -0.59375,0 -1.25,0.515625 -1.25,1.3125 0,1.046875 1.171875,1.515625 2.234375,1.515625 1.1875,0 2.03125,-0.9375 2.5625,-1.953125 C 5.875,-0.25 7.109375,0.25 8.03125,0.25 c 2.53125,0 3.859375,-3.25 3.859375,-3.796875 0,-0.125 -0.09375,-0.21875 -0.25,-0.21875 -0.21875,0 -0.234375,0.125 -0.3125,0.328125 -0.671875,2.171875 -2.109375,3.1875 -3.21875,3.1875 -0.875,0 -1.34375,-0.640625 -1.34375,-1.65625 0,-0.546875 0.09375,-0.9375 0.5,-2.578125 L 8.125,-7.859375 C 8.5,-9.34375 9.34375,-10.4375 10.484375,-10.4375 c 0.04687,0 0.734375,0 1.265625,0.328125 z m 0,0"
   id="path55" />
    </g>
  </g>
  <g
   fill="#000000"
   fill-opacity="1"
   id="g37"
   transform="matrix(0.352778,0,0,0.352778,-0.242535,-0.00348345)">
    <g
   id="use35"
   transform="translate(19.299999,17.212999)">
      <path
   d="m 16.328125,-5.703125 c 0.421875,0 0.875,0 0.875,-0.484375 0,-0.5 -0.453125,-0.5 -0.875,-0.5 H 2.921875 c -0.421875,0 -0.859375,0 -0.859375,0.5 0,0.484375 0.4375,0.484375 0.859375,0.484375 z m 0,0"
   id="path59" />
    </g>
  </g>
  <g
   clip-path="url(#clipPath1593)"
   id="g45"
   transform="matrix(0.352778,0,0,0.352778,-0.242535,-0.00348345)">
    <g
   fill="#000000"
   fill-opacity="1"
   id="g43">
      <g
   id="use39"
   transform="translate(44.087002,17.212999)">
        <path
   d="m 5.65625,-4.953125 c 0.421875,0.078125 1.078125,0.21875 1.234375,0.25 0.328125,0.09375 1.4375,0.484375 1.4375,1.6875 C 8.328125,-2.25 7.625,-0.25 4.765625,-0.25 4.234375,-0.25 2.375,-0.328125 1.890625,-1.6875 2.875,-1.5625 3.375,-2.328125 3.375,-2.875 c 0,-0.515625 -0.359375,-0.796875 -0.84375,-0.796875 -0.546875,0 -1.265625,0.421875 -1.265625,1.546875 0,1.453125 1.484375,2.375 3.46875,2.375 3.765625,0 4.875,-2.78125 4.875,-4.0625 0,-0.375 0,-1.0625 -0.78125,-1.859375 -0.625,-0.59375 -1.21875,-0.71875 -2.5625,-1 C 5.59375,-6.8125 4.53125,-7.03125 4.53125,-8.15625 c 0,-0.5 0.453125,-2.28125 2.796875,-2.28125 1.046875,0 2.0625,0.40625 2.3125,1.296875 -1.09375,0 -1.140625,0.9375 -1.140625,0.96875 0,0.515625 0.46875,0.65625 0.6875,0.65625 0.359375,0 1.046875,-0.265625 1.046875,-1.3125 0,-1.03125 -0.9375,-2.09375 -2.875,-2.09375 -3.25,0 -4.109375,2.546875 -4.109375,3.5625 0,1.875 1.828125,2.28125 2.40625,2.40625 z m 0,0"
   id="path63" />
      </g>
      <g
   id="use41"
   transform="translate(55.51881,17.212999)">
        <path
   d="m 12.46875,-16.578125 c 0.01563,-0.09375 0.07813,-0.25 0.07813,-0.375 0,-0.25 -0.25,-0.25 -0.3125,-0.25 -0.01563,0 -1.234375,0.109375 -1.359375,0.125 -0.421875,0.03125 -0.78125,0.07813 -1.234375,0.109375 -0.625,0.04687 -0.796875,0.0625 -0.796875,0.515625 0,0.25 0.203125,0.25 0.546875,0.25 1.21875,0 1.234375,0.21875 1.234375,0.46875 0,0.140625 -0.04687,0.34375 -0.0625,0.421875 L 9.04688,-9.296875 c -0.28125,-0.640625 -0.9375,-1.625 -2.234375,-1.625 -2.796875,0 -5.828125,3.609375 -5.828125,7.28125 0,2.453125 1.4375,3.890625 3.125,3.890625 1.375,0 2.53125,-1.0625 3.21875,-1.890625 C 7.578125,-0.171875 8.75,0.25 9.484375,0.25 c 0.75,0 1.34375,-0.453125 1.796875,-1.34375 0.390625,-0.84375 0.734375,-2.34375 0.734375,-2.453125 0,-0.125 -0.09375,-0.21875 -0.25,-0.21875 -0.21875,0 -0.25,0.125 -0.34375,0.5 C 11.046875,-1.8125 10.578125,-0.25 9.5625,-0.25 c -0.71875,0 -0.765625,-0.640625 -0.765625,-1.140625 0,-0.09375 0,-0.609375 0.171875,-1.3125 z m -5.015625,13.625 c -0.125,0.421875 -0.125,0.46875 -0.46875,0.953125 -0.546875,0.6875 -1.625,1.75 -2.796875,1.75 -1.015625,0 -1.578125,-0.921875 -1.578125,-2.375 0,-1.359375 0.765625,-4.140625 1.234375,-5.1875 0.84375,-1.734375 2,-2.625 2.96875,-2.625 1.640625,0 1.953125,2.03125 1.953125,2.234375 0,0.03125 -0.0625,0.34375 -0.09375,0.390625 z m 0,0"
   id="path67" />
      </g>
    </g>
  </g>
</g><g
     inkscape:label=""
     transform="matrix(1.2145104,0,0,1.2145104,191.1413,171.32444)"
     id="g2020"><g
   fill="#000000"
   fill-opacity="1"
   id="g31"
   transform="matrix(0.352778,0,0,0.352778,-0.242535,-0.00348345)">
    <g
   id="use29"
   transform="translate(1.886,17.212)">
      <path
   d="M 9.890625,-13.703125 V -14.28125 H 1.46875 v 0.578125 z m 0,0"
   id="path2000" />
    </g>
  </g>
  <g
   fill="#000000"
   fill-opacity="1"
   id="g35"
   transform="matrix(0.352778,0,0,0.352778,-0.242535,-0.00348345)">
    <g
   id="use33"
   transform="translate(0,17.212999)">
      <path
   d="m 11.75,-10.109375 c -0.796875,0.140625 -1.09375,0.734375 -1.09375,1.21875 0,0.59375 0.46875,0.78125 0.8125,0.78125 0.75,0 1.265625,-0.640625 1.265625,-1.3125 0,-1.03125 -1.1875,-1.5 -2.234375,-1.5 -1.5,0 -2.34375,1.484375 -2.5625,1.953125 -0.578125,-1.859375 -2.109375,-1.953125 -2.5625,-1.953125 -2.53125,0 -3.859375,3.234375 -3.859375,3.78125 0,0.109375 0.09375,0.234375 0.265625,0.234375 0.203125,0 0.25,-0.15625 0.296875,-0.25 0.84375,-2.75 2.5,-3.28125 3.21875,-3.28125 1.125,0 1.34375,1.046875 1.34375,1.640625 C 6.640625,-8.25 6.5,-7.6875 6.1875,-6.5 l -0.828125,3.40625 c -0.375,1.484375 -1.09375,2.84375 -2.40625,2.84375 -0.125,0 -0.75,0 -1.265625,-0.3125 0.890625,-0.1875 1.09375,-0.921875 1.09375,-1.21875 0,-0.5 -0.375,-0.796875 -0.84375,-0.796875 -0.59375,0 -1.25,0.515625 -1.25,1.3125 0,1.046875 1.171875,1.515625 2.234375,1.515625 1.1875,0 2.03125,-0.9375 2.5625,-1.953125 C 5.875,-0.25 7.109375,0.25 8.03125,0.25 c 2.53125,0 3.859375,-3.25 3.859375,-3.796875 0,-0.125 -0.09375,-0.21875 -0.25,-0.21875 -0.21875,0 -0.234375,0.125 -0.3125,0.328125 -0.671875,2.171875 -2.109375,3.1875 -3.21875,3.1875 -0.875,0 -1.34375,-0.640625 -1.34375,-1.65625 0,-0.546875 0.09375,-0.9375 0.5,-2.578125 L 8.125,-7.859375 C 8.5,-9.34375 9.34375,-10.4375 10.484375,-10.4375 c 0.04687,0 0.734375,0 1.265625,0.328125 z m 0,0"
   id="path2004" />
    </g>
  </g>
  <g
   clip-path="url(#clipPath3600)"
   id="g41"
   transform="matrix(0.352778,0,0,0.352778,-0.242535,-0.00348345)">
    <g
   fill="#000000"
   fill-opacity="1"
   id="g39">
      <g
   id="use37"
   transform="translate(19.299999,17.212999)">
        <path
   d="m 9.34375,-5.75 h 6.5625 c 0.34375,0 0.765625,0 0.765625,-0.421875 0,-0.4375 -0.390625,-0.4375 -0.765625,-0.4375 H 9.34375 V -13.1875 c 0,-0.34375 0,-0.765625 -0.421875,-0.765625 -0.453125,0 -0.453125,0.390625 -0.453125,0.765625 v 6.578125 h -6.5625 c -0.34375,0 -0.765625,0 -0.765625,0.421875 0,0.4375 0.390625,0.4375 0.765625,0.4375 h 6.5625 v 6.5625 c 0,0.359375 0,0.78125 0.421875,0.78125 0.453125,0 0.453125,-0.40625 0.453125,-0.78125 z m 0,0"
   id="path2008" />
      </g>
    </g>
  </g>
  <g
   clip-path="url(#clipPath114)"
   id="g49"
   transform="matrix(0.352778,0,0,0.352778,-0.242535,-0.00348345)">
    <g
   fill="#000000"
   fill-opacity="1"
   id="g47">
      <g
   id="use43"
   transform="translate(42.651001,17.212999)">
        <path
   d="m 5.65625,-4.953125 c 0.421875,0.078125 1.078125,0.21875 1.234375,0.25 0.328125,0.09375 1.4375,0.484375 1.4375,1.6875 C 8.328125,-2.25 7.625,-0.25 4.765625,-0.25 4.234375,-0.25 2.375,-0.328125 1.890625,-1.6875 2.875,-1.5625 3.375,-2.328125 3.375,-2.875 c 0,-0.515625 -0.359375,-0.796875 -0.84375,-0.796875 -0.546875,0 -1.265625,0.421875 -1.265625,1.546875 0,1.453125 1.484375,2.375 3.46875,2.375 3.765625,0 4.875,-2.78125 4.875,-4.0625 0,-0.375 0,-1.0625 -0.78125,-1.859375 -0.625,-0.59375 -1.21875,-0.71875 -2.5625,-1 C 5.59375,-6.8125 4.53125,-7.03125 4.53125,-8.15625 c 0,-0.5 0.453125,-2.28125 2.796875,-2.28125 1.046875,0 2.0625,0.40625 2.3125,1.296875 -1.09375,0 -1.140625,0.9375 -1.140625,0.96875 0,0.515625 0.46875,0.65625 0.6875,0.65625 0.359375,0 1.046875,-0.265625 1.046875,-1.3125 0,-1.03125 -0.9375,-2.09375 -2.875,-2.09375 -3.25,0 -4.109375,2.546875 -4.109375,3.5625 0,1.875 1.828125,2.28125 2.40625,2.40625 z m 0,0"
   id="path2013" />
      </g>
      <g
   id="use45"
   transform="translate(54.082809,17.212999)">
        <path
   d="m 12.46875,-16.578125 c 0.01563,-0.09375 0.07813,-0.25 0.07813,-0.375 0,-0.25 -0.25,-0.25 -0.3125,-0.25 -0.01563,0 -1.234375,0.109375 -1.359375,0.125 -0.421875,0.03125 -0.78125,0.07813 -1.234375,0.109375 -0.625,0.04687 -0.796875,0.0625 -0.796875,0.515625 0,0.25 0.203125,0.25 0.546875,0.25 1.21875,0 1.234375,0.21875 1.234375,0.46875 0,0.140625 -0.04687,0.34375 -0.0625,0.421875 L 9.04688,-9.296875 c -0.28125,-0.640625 -0.9375,-1.625 -2.234375,-1.625 -2.796875,0 -5.828125,3.609375 -5.828125,7.28125 0,2.453125 1.4375,3.890625 3.125,3.890625 1.375,0 2.53125,-1.0625 3.21875,-1.890625 C 7.578125,-0.171875 8.75,0.25 9.484375,0.25 c 0.75,0 1.34375,-0.453125 1.796875,-1.34375 0.390625,-0.84375 0.734375,-2.34375 0.734375,-2.453125 0,-0.125 -0.09375,-0.21875 -0.25,-0.21875 -0.21875,0 -0.25,0.125 -0.34375,0.5 C 11.046875,-1.8125 10.578125,-0.25 9.5625,-0.25 c -0.71875,0 -0.765625,-0.640625 -0.765625,-1.140625 0,-0.09375 0,-0.609375 0.171875,-1.3125 z m -5.015625,13.625 c -0.125,0.421875 -0.125,0.46875 -0.46875,0.953125 -0.546875,0.6875 -1.625,1.75 -2.796875,1.75 -1.015625,0 -1.578125,-0.921875 -1.578125,-2.375 0,-1.359375 0.765625,-4.140625 1.234375,-5.1875 0.84375,-1.734375 2,-2.625 2.96875,-2.625 1.640625,0 1.953125,2.03125 1.953125,2.234375 0,0.03125 -0.0625,0.34375 -0.09375,0.390625 z m 0,0"
   id="path71" />
      </g>
    </g>
  </g>
</g></g><g
   inkscape:label=""
   transform="matrix(1.9412833,0,0,1.9412833,194.29049,37.828039)"
   id="g2470"><g
   fill="#000000"
   fill-opacity="1"
   id="g2437"
   transform="matrix(0.352778,0,0,0.352778,-0.242535,0.0881504)">
    <g
   id="g2435"
   transform="translate(0,10.672)">
      <path
   d="m 11.75,-10.109375 c -0.796875,0.140625 -1.09375,0.734375 -1.09375,1.21875 0,0.59375 0.46875,0.78125 0.8125,0.78125 0.75,0 1.265625,-0.640625 1.265625,-1.3125 0,-1.03125 -1.1875,-1.5 -2.234375,-1.5 -1.5,0 -2.34375,1.484375 -2.5625,1.953125 -0.578125,-1.859375 -2.109375,-1.953125 -2.5625,-1.953125 -2.53125,0 -3.859375,3.234375 -3.859375,3.78125 0,0.109375 0.09375,0.234375 0.265625,0.234375 0.203125,0 0.25,-0.15625 0.296875,-0.25 0.84375,-2.75 2.5,-3.28125 3.21875,-3.28125 1.125,0 1.34375,1.046875 1.34375,1.640625 C 6.640625,-8.25 6.5,-7.6875 6.1875,-6.5 l -0.828125,3.40625 c -0.375,1.484375 -1.09375,2.84375 -2.40625,2.84375 -0.125,0 -0.75,0 -1.265625,-0.3125 0.890625,-0.1875 1.09375,-0.921875 1.09375,-1.21875 0,-0.5 -0.375,-0.796875 -0.84375,-0.796875 -0.59375,0 -1.25,0.515625 -1.25,1.3125 0,1.046875 1.171875,1.515625 2.234375,1.515625 1.1875,0 2.03125,-0.9375 2.5625,-1.953125 C 5.875,-0.25 7.109375,0.25 8.03125,0.25 c 2.53125,0 3.859375,-3.25 3.859375,-3.796875 0,-0.125 -0.09375,-0.21875 -0.25,-0.21875 -0.21875,0 -0.234375,0.125 -0.3125,0.328125 -0.671875,2.171875 -2.109375,3.1875 -3.21875,3.1875 -0.875,0 -1.34375,-0.640625 -1.34375,-1.65625 0,-0.546875 0.09375,-0.9375 0.5,-2.578125 L 8.125,-7.859375 C 8.5,-9.34375 9.34375,-10.4375 10.484375,-10.4375 c 0.04687,0 0.734375,0 1.265625,0.328125 z m 0,0"
   id="path2433" />
    </g>
  </g>
  <g
   clip-path="url(#clipPath4580)"
   id="g2445"
   transform="matrix(0.352778,0,0,0.352778,-0.242535,0.0881504)">
    <g
   fill="#000000"
   fill-opacity="1"
   id="g2443">
      <g
   id="g2441"
   transform="translate(13.792,14.39)">
        <path
   d="m 4.578125,-11 c 0,-0.359375 -0.015625,-0.375 -0.25,-0.375 -0.671875,0.796875 -1.6875,1.0625 -2.65625,1.09375 -0.046875,0 -0.140625,0 -0.15625,0.03125 C 1.5,-10.203125 1.5,-10.171875 1.5,-9.8125 c 0.53125,0 1.421875,-0.109375 2.109375,-0.515625 V -1.25 c 0,0.59375 -0.03125,0.796875 -1.515625,0.796875 H 1.578125 V 0 c 0.828125,-0.015625 1.6875,-0.03125 2.515625,-0.03125 0.828125,0 1.6875,0.015625 2.515625,0.03125 V -0.453125 H 6.09375 c -1.484375,0 -1.515625,-0.1875 -1.515625,-0.796875 z m 0,0"
   id="path2439" />
      </g>
    </g>
  </g>
  <g
   fill="#000000"
   fill-opacity="1"
   id="g2451"
   transform="matrix(0.352778,0,0,0.352778,-0.242535,0.0881504)">
    <g
   id="g2449"
   transform="translate(26.316999,10.672)">
      <path
   d="m 4.5625,-1.1875 c 0,-0.71875 -0.59375,-1.21875 -1.1875,-1.21875 -0.71875,0 -1.21875,0.59375 -1.21875,1.1875 C 2.15625,-0.5 2.75,0 3.34375,0 4.0625,0 4.5625,-0.59375 4.5625,-1.1875 Z m 0,0"
   id="path2447" />
    </g>
  </g>
  <g
   fill="#000000"
   fill-opacity="1"
   id="g2456"
   transform="matrix(0.352778,0,0,0.352778,-0.242535,0.0881504)">
    <g
   id="g2454"
   transform="translate(37.198536,10.672)">
      <path
   d="m 4.5625,-1.1875 c 0,-0.71875 -0.59375,-1.21875 -1.1875,-1.21875 -0.71875,0 -1.21875,0.59375 -1.21875,1.1875 C 2.15625,-0.5 2.75,0 3.34375,0 4.0625,0 4.5625,-0.59375 4.5625,-1.1875 Z m 0,0"
   id="path75" />
    </g>
  </g>
  <g
   fill="#000000"
   fill-opacity="1"
   id="g2461"
   transform="matrix(0.352778,0,0,0.352778,-0.242535,0.0881504)">
    <g
   id="g2459"
   transform="translate(48.055286,10.672)">
      <path
   d="m 4.5625,-1.1875 c 0,-0.71875 -0.59375,-1.21875 -1.1875,-1.21875 -0.71875,0 -1.21875,0.59375 -1.21875,1.1875 C 2.15625,-0.5 2.75,0 3.34375,0 4.0625,0 4.5625,-0.59375 4.5625,-1.1875 Z m 0,0"
   id="path79" />
    </g>
  </g>
  <g
   fill="#000000"
   fill-opacity="1"
   id="g51"
   transform="matrix(0.352778,0,0,0.352778,-0.242535,0.0881504)">
    <g
   id="use49"
   transform="translate(58.936825,10.672)">
      <path
   d="m 11.75,-10.109375 c -0.796875,0.140625 -1.09375,0.734375 -1.09375,1.21875 0,0.59375 0.46875,0.78125 0.8125,0.78125 0.75,0 1.265625,-0.640625 1.265625,-1.3125 0,-1.03125 -1.1875,-1.5 -2.234375,-1.5 -1.5,0 -2.34375,1.484375 -2.5625,1.953125 -0.578125,-1.859375 -2.109375,-1.953125 -2.5625,-1.953125 -2.53125,0 -3.859375,3.234375 -3.859375,3.78125 0,0.109375 0.09375,0.234375 0.265625,0.234375 0.203125,0 0.25,-0.15625 0.296875,-0.25 0.84375,-2.75 2.5,-3.28125 3.21875,-3.28125 1.125,0 1.34375,1.046875 1.34375,1.640625 C 6.640625,-8.25 6.5,-7.6875 6.1875,-6.5 l -0.828125,3.40625 c -0.375,1.484375 -1.09375,2.84375 -2.40625,2.84375 -0.125,0 -0.75,0 -1.265625,-0.3125 0.890625,-0.1875 1.09375,-0.921875 1.09375,-1.21875 0,-0.5 -0.375,-0.796875 -0.84375,-0.796875 -0.59375,0 -1.25,0.515625 -1.25,1.3125 0,1.046875 1.171875,1.515625 2.234375,1.515625 1.1875,0 2.03125,-0.9375 2.5625,-1.953125 C 5.875,-0.25 7.109375,0.25 8.03125,0.25 c 2.53125,0 3.859375,-3.25 3.859375,-3.796875 0,-0.125 -0.09375,-0.21875 -0.25,-0.21875 -0.21875,0 -0.234375,0.125 -0.3125,0.328125 -0.671875,2.171875 -2.109375,3.1875 -3.21875,3.1875 -0.875,0 -1.34375,-0.640625 -1.34375,-1.65625 0,-0.546875 0.09375,-0.9375 0.5,-2.578125 L 8.125,-7.859375 C 8.5,-9.34375 9.34375,-10.4375 10.484375,-10.4375 c 0.04687,0 0.734375,0 1.265625,0.328125 z m 0,0"
   id="path83" />
    </g>
  </g>
  <g
   clip-path="url(#clipPath3769)"
   id="g57"
   transform="matrix(0.352778,0,0,0.352778,-0.242535,0.0881504)">
    <g
   fill="#000000"
   fill-opacity="1"
   id="g55">
      <g
   id="use53"
   transform="translate(72.726997,14.39)">
        <path
   d="m 4.875,-2.46875 c 0,-0.078125 -0.078125,-0.15625 -0.171875,-0.15625 -0.15625,0 -0.171875,0.0625 -0.265625,0.359375 -0.4375,1.5625 -1.15625,2.09375 -1.71875,2.09375 -0.203125,0 -0.453125,-0.046875 -0.453125,-0.5625 0,-0.46875 0.21875,-0.984375 0.40625,-1.5 L 3.875,-5.4375 c 0.046875,-0.140625 0.171875,-0.453125 0.171875,-0.78125 0,-0.71875 -0.515625,-1.375 -1.359375,-1.375 -1.578125,0 -2.21875,2.5 -2.21875,2.640625 0,0.0625 0.0625,0.15625 0.1875,0.15625 0.15625,0 0.171875,-0.078125 0.234375,-0.3125 C 1.3125,-6.5625 1.96875,-7.25 2.640625,-7.25 c 0.15625,0 0.4375,0.015625 0.4375,0.5625 0,0.453125 -0.21875,1.015625 -0.359375,1.40625 L 1.515625,-2.078125 C 1.40625,-1.8125 1.3125,-1.53125 1.3125,-1.21875 c 0,0.765625 0.53125,1.390625 1.359375,1.390625 C 4.25,0.171875 4.875,-2.34375 4.875,-2.46875 Z M 4.734375,-10.75 c 0,-0.25 -0.203125,-0.5625 -0.578125,-0.5625 -0.40625,0 -0.84375,0.375 -0.84375,0.828125 0,0.421875 0.359375,0.5625 0.5625,0.5625 0.46875,0 0.859375,-0.4375 0.859375,-0.828125 z m 0,0"
   id="path87" />
      </g>
    </g>
  </g>
</g></g></svg>
