<?xml version="1.0" encoding="UTF-8" standalone="no"?>
<!-- Created with Inkscape (http://www.inkscape.org/) -->

<svg
   width="1038.439"
   height="390.87555"
   viewBox="0 0 274.75364 103.41915"
   version="1.1"
   id="svg5"
   inkscape:version="1.3.2 (091e20e, 2023-11-25, custom)"
   sodipodi:docname="SixSigma.svg"
   xml:space="preserve"
   inkscape:export-filename="SixSigma.png"
   inkscape:export-xdpi="300"
   inkscape:export-ydpi="300"
   xmlns:inkscape="http://www.inkscape.org/namespaces/inkscape"
   xmlns:sodipodi="http://sodipodi.sourceforge.net/DTD/sodipodi-0.dtd"
   xmlns:xlink="http://www.w3.org/1999/xlink"
   xmlns="http://www.w3.org/2000/svg"
   xmlns:svg="http://www.w3.org/2000/svg"><sodipodi:namedview
     id="namedview7"
     pagecolor="#ffffff"
     bordercolor="#666666"
     borderopacity="1.0"
     inkscape:showpageshadow="2"
     inkscape:pageopacity="0.0"
     inkscape:pagecheckerboard="0"
     inkscape:deskcolor="#d1d1d1"
     inkscape:document-units="mm"
     showgrid="false"
     inkscape:zoom="0.79936738"
     inkscape:cx="391.55964"
     inkscape:cy="46.912097"
     inkscape:window-width="1920"
     inkscape:window-height="1017"
     inkscape:window-x="3832"
     inkscape:window-y="-8"
     inkscape:window-maximized="1"
     inkscape:current-layer="layer1"
     showguides="true" /><defs
     id="defs2"><inkscape:path-effect
   effect="bspline"
   id="path-effect2"
   is_visible="true"
   lpeversion="1.3"
   weight="33.333333"
   steps="2"
   helper_size="0"
   apply_no_weight="true"
   apply_with_weight="true"
   only_selected="false"
   uniform="false" /><inkscape:perspective
   sodipodi:type="inkscape:persp3d"
   inkscape:vp_x="-149.3461 : -1.8289018e-14 : 0"
   inkscape:vp_y="6.1230319e-14 : -999.99995 : 0"
   inkscape:vp_z="-124.418 : -124.41799 : 0"
   inkscape:persp3d-origin="74.075529 : 29.939849 : 1"
   id="perspective5772" /><inkscape:path-effect
   effect="bspline"
   id="path-effect4166"
   is_visible="true"
   lpeversion="1"
   weight="33.333333"
   steps="2"
   helper_size="0"
   apply_no_weight="true"
   apply_with_weight="true"
   only_selected="false"
   uniform="false" /><inkscape:path-effect
   effect="bspline"
   id="path-effect1915"
   is_visible="true"
   lpeversion="1"
   weight="33.333333"
   steps="2"
   helper_size="0"
   apply_no_weight="true"
   apply_with_weight="true"
   only_selected="false"
   uniform="false" /><inkscape:path-effect
   effect="bspline"
   id="path-effect1899"
   is_visible="true"
   lpeversion="1"
   weight="33.333333"
   steps="2"
   helper_size="0"
   apply_no_weight="true"
   apply_with_weight="true"
   only_selected="false"
   uniform="false" /><inkscape:path-effect
   effect="bspline"
   id="path-effect1883"
   is_visible="true"
   lpeversion="1"
   weight="33.333333"
   steps="2"
   helper_size="0"
   apply_no_weight="true"
   apply_with_weight="true"
   only_selected="false"
   uniform="false" /><inkscape:path-effect
   effect="bspline"
   id="path-effect1867"
   is_visible="true"
   lpeversion="1"
   weight="33.333333"
   steps="2"
   helper_size="0"
   apply_no_weight="true"
   apply_with_weight="true"
   only_selected="false"
   uniform="false" /><inkscape:path-effect
   effect="bspline"
   id="path-effect638"
   is_visible="true"
   lpeversion="1"
   weight="33.333333"
   steps="2"
   helper_size="0"
   apply_no_weight="true"
   apply_with_weight="true"
   only_selected="false"
   uniform="false" /><linearGradient
   id="linearGradient6703"><stop
     style="stop-color:#000000;stop-opacity:1.0000000;"
     offset="0.0000000"
     id="stop6704" /><stop
     style="stop-color:#7f7f7f;stop-opacity:1.0000000;"
     offset="0.50000000"
     id="stop6705" /><stop
     style="stop-color:#ffffff;stop-opacity:1.0000000;"
     offset="1.0000000"
     id="stop6706" /></linearGradient><linearGradient
   id="linearGradient879"><stop
     style="stop-color:#c3c3c3;stop-opacity:0.54918033;"
     offset="0.0000000"
     id="stop880" /><stop
     style="stop-color:#d4e1e4;stop-opacity:1.0000000;"
     offset="0.50000000"
     id="stop884" /><stop
     style="stop-color:#ddf0f0;stop-opacity:0.59016395;"
     offset="1.0000000"
     id="stop881" /></linearGradient><linearGradient
   x1="1453.8076"
   y1="384.45895"
   x2="1583.5951"
   y2="383.24872"
   id="linearGradient882"
   xlink:href="#linearGradient879"
   gradientTransform="scale(0.55994156,1.7859006)"
   gradientUnits="userSpaceOnUse" /><linearGradient
   x1="568.58307"
   y1="1189.8646"
   x2="567.13934"
   y2="1038.1013"
   id="linearGradient883"
   xlink:href="#linearGradient879"
   spreadMethod="pad"
   gradientTransform="scale(1.4640424,0.68304032)"
   gradientUnits="userSpaceOnUse" /><clipPath
   id="clip0_525_147"><rect
     width="24"
     height="24"
     fill="#ffffff"
     id="rect26341"
     x="0"
     y="0" /></clipPath><style
   id="style4881">.cls-1{fill:none;stroke:#020202;stroke-miterlimit:10;stroke-width:1.91px;}</style><inkscape:path-effect
   effect="bspline"
   id="path-effect638-2"
   is_visible="true"
   lpeversion="1"
   weight="33.333333"
   steps="2"
   helper_size="0"
   apply_no_weight="true"
   apply_with_weight="true"
   only_selected="false"
   uniform="false" /><inkscape:path-effect
   effect="bspline"
   id="path-effect638-2-6"
   is_visible="true"
   lpeversion="1"
   weight="33.333333"
   steps="2"
   helper_size="0"
   apply_no_weight="true"
   apply_with_weight="true"
   only_selected="false"
   uniform="false" /><inkscape:path-effect
   effect="bspline"
   id="path-effect4166-3"
   is_visible="true"
   lpeversion="1"
   weight="33.333333"
   steps="2"
   helper_size="0"
   apply_no_weight="true"
   apply_with_weight="true"
   only_selected="false"
   uniform="false" /><inkscape:path-effect
   effect="bspline"
   id="path-effect4166-8"
   is_visible="true"
   lpeversion="1"
   weight="33.333333"
   steps="2"
   helper_size="0"
   apply_no_weight="true"
   apply_with_weight="true"
   only_selected="false"
   uniform="false" /><inkscape:path-effect
   effect="bspline"
   id="path-effect1883-9"
   is_visible="true"
   lpeversion="1"
   weight="33.333333"
   steps="2"
   helper_size="0"
   apply_no_weight="true"
   apply_with_weight="true"
   only_selected="false"
   uniform="false" /><inkscape:perspective
   sodipodi:type="inkscape:persp3d"
   inkscape:vp_x="-33.653483 : -4.0135822e-15 : 0"
   inkscape:vp_y="1.3797571e-14 : -219.45312 : 0"
   inkscape:vp_z="-28.036212 : -27.303918 : 0"
   inkscape:persp3d-origin="126.22519 : 71.290007 : 1"
   id="perspective5772-4" /><inkscape:path-effect
   effect="bspline"
   id="path-effect1915-0"
   is_visible="true"
   lpeversion="1"
   weight="33.333333"
   steps="2"
   helper_size="0"
   apply_no_weight="true"
   apply_with_weight="true"
   only_selected="false"
   uniform="false" /><inkscape:path-effect
   effect="bspline"
   id="path-effect1915-0-0"
   is_visible="true"
   lpeversion="1"
   weight="33.333333"
   steps="2"
   helper_size="0"
   apply_no_weight="true"
   apply_with_weight="true"
   only_selected="false"
   uniform="false" /><inkscape:path-effect
   effect="bspline"
   id="path-effect1915-0-0-7"
   is_visible="true"
   lpeversion="1"
   weight="33.333333"
   steps="2"
   helper_size="0"
   apply_no_weight="true"
   apply_with_weight="true"
   only_selected="false"
   uniform="false" /><clipPath
   id="clipPath3874">
      <path
   clip-rule="nonzero"
   d="m 73,7 h 8 v 17.378906 h -8 z m 0,0"
   id="path9388" />
    </clipPath>
    <clipPath
   id="clipPath1301">
      <path
   clip-rule="nonzero"
   d="m 133,7 h 10 v 17.378906 h -10 z m 0,0"
   id="path4916" />
    </clipPath>
    <clipPath
   id="clipPath2579">
      <path
   clip-rule="nonzero"
   d="m 195,7 h 8 v 17.378906 h -8 z m 0,0"
   id="path9102" />
    </clipPath>
    <clipPath
   id="clipPath8860">
      <path
   clip-rule="nonzero"
   d="m 256,7 h 10 v 17.378906 h -10 z m 0,0"
   id="path9738" />
    </clipPath>
  <clipPath
   id="clipPath9647">
      <path
   clip-rule="nonzero"
   d="m 73,7 h 8 v 17.378906 h -8 z m 0,0"
   id="path6766" />
    </clipPath>
    <clipPath
   id="clipPath6656">
      <path
   clip-rule="nonzero"
   d="m 133,7 h 10 v 17.378906 h -10 z m 0,0"
   id="path3032" />
    </clipPath>
    <clipPath
   id="clipPath2119">
      <path
   clip-rule="nonzero"
   d="m 195,7 h 8 v 17.378906 h -8 z m 0,0"
   id="path4555" />
    </clipPath>
    <clipPath
   id="clipPath7997">
      <path
   clip-rule="nonzero"
   d="m 243,7 h 11 v 17.378906 h -11 z m 0,0"
   id="path2380" />
    </clipPath>
  <clipPath
   id="clipPath1676">
      <path
   clip-rule="nonzero"
   d="m 74,7 h 9 v 17.378906 h -9 z m 0,0"
   id="path6703" />
    </clipPath>
    <clipPath
   id="clipPath1007">
      <path
   clip-rule="nonzero"
   d="m 134,7 h 10 v 17.378906 h -10 z m 0,0"
   id="path8889" />
    </clipPath>
    <clipPath
   id="clipPath4024">
      <path
   clip-rule="nonzero"
   d="m 196,7 h 8 v 17.378906 h -8 z m 0,0"
   id="path7996" />
    </clipPath>
    <clipPath
   id="clipPath3916">
      <path
   clip-rule="nonzero"
   d="m 245,7 h 10 v 17.378906 h -10 z m 0,0"
   id="path1765" />
    </clipPath>
    <clipPath
   id="clipPath1198">
      <path
   clip-rule="nonzero"
   d="m 286,6 h 8.83984 V 18 H 286 Z m 0,0"
   id="path9852" />
    </clipPath>
  <clipPath
   id="clipPath6491">
      <path
   clip-rule="nonzero"
   d="m 74,7 h 9 v 17.378906 h -9 z m 0,0"
   id="path1887" />
    </clipPath>
    <clipPath
   id="clipPath4822">
      <path
   clip-rule="nonzero"
   d="m 134,7 h 10 v 17.378906 h -10 z m 0,0"
   id="path8281" />
    </clipPath>
    <clipPath
   id="clipPath756">
      <path
   clip-rule="nonzero"
   d="m 196,7 h 8 v 17.378906 h -8 z m 0,0"
   id="path5431" />
    </clipPath>
    <clipPath
   id="clipPath5448">
      <path
   clip-rule="nonzero"
   d="m 245,7 h 10 v 17.378906 h -10 z m 0,0"
   id="path6537" />
    </clipPath>
    <clipPath
   id="clipPath9683">
      <path
   clip-rule="nonzero"
   d="m 286,6 h 8.83984 V 18 H 286 Z m 0,0"
   id="path8557" />
    </clipPath>
  <inkscape:path-effect
   effect="bspline"
   id="path-effect638-2-3"
   is_visible="true"
   lpeversion="1"
   weight="33.333333"
   steps="2"
   helper_size="0"
   apply_no_weight="true"
   apply_with_weight="true"
   only_selected="false"
   uniform="false" /><inkscape:path-effect
   effect="bspline"
   id="path-effect638-2-3-4"
   is_visible="true"
   lpeversion="1"
   weight="33.333333"
   steps="2"
   helper_size="0"
   apply_no_weight="true"
   apply_with_weight="true"
   only_selected="false"
   uniform="false" /></defs><g
     inkscape:label="Ebene 1"
     inkscape:groupmode="layer"
     id="layer1"
     transform="translate(34.463312,-80.55837)"><path
       style="fill:none;stroke:#000000;stroke-width:1.42881;stroke-linecap:butt;stroke-linejoin:miter;stroke-dasharray:none;stroke-opacity:1"
       d="m -103.87537,105.26529 c 97.4955787,0 194.991163,0 292.48676,0"
       id="path636"
       inkscape:path-effect="#path-effect638"
       inkscape:original-d="m -103.87537,105.26529 c 97.4955787,0 194.991163,0 292.48676,0"
       sodipodi:nodetypes="cc"
       transform="matrix(0.939328,0,0,0.96452,63.109732,72.812333)" /><path
       style="fill:#ececec;fill-opacity:1;stroke:#000000;stroke-width:1.15167;stroke-linecap:round;stroke-linejoin:round;stroke-miterlimit:10;stroke-dasharray:none"
       id="nd"
       d="m 239.7145,174.46458 c -6.80817,-0.0854 -13.64217,-0.22333 -20.40748,-0.63024 -7.16274,-0.43095 -14.19746,-1.1459 -20.93962,-2.44698 -6.71807,-1.29691 -12.65767,-3.26338 -18.14495,-5.56222 -5.33447,-2.23451 -10.00203,-4.98067 -14.10821,-7.77426 -4.2247,-2.87464 -8.14206,-5.85606 -11.7762,-8.92429 -3.74656,-3.16273 -7.33267,-6.36887 -10.88955,-9.58481 -3.48564,-3.1521 -6.9773,-6.30054 -10.60284,-9.41338 -3.54315,-3.04321 -7.373,-6.06518 -11.85597,-8.7896 -2.32267,-1.41155 -4.88131,-2.67042 -7.74638,-3.80529 -2.78696,-1.10417 -6.15245,-1.72668 -9.67414,-1.85845 -3.571511,-0.13336 -6.961831,0.73829 -9.843251,1.68244 -2.94747,0.96588 -5.39798,2.32376 -7.676,3.64731 -4.69328,2.72485 -8.47332,5.83072 -12.16666,8.90139 -3.5792,2.97612 -6.8872,6.03411 -10.24669,9.07246 -3.537993,3.20038 -7.074284,6.40158 -10.801997,9.54922 -3.616943,3.05425 -7.406459,6.06639 -11.613924,8.92879 -4.314765,2.93559 -9.03727,5.69562 -14.464453,8.13767 -5.331915,2.39946 -11.426021,4.27102 -18.0290846,5.66738 -6.355001,1.34446 -13.327978,2.077 -20.1619664,2.48831 -7.022778,0.42236 -14.073009,0.60451 -21.141297,0.70597"
       stroke-miterlimit="10"
       sodipodi:nodetypes="ccccccccscccccccccccc" /><g
       id="USL"
       transform="matrix(0.8,0,0,0.8,-8.8092896,40.948115)"
       style="stroke-width:2.5;stroke-dasharray:none"><text
         xml:space="preserve"
         style="font-size:7.05557px;font-family:Bahnschrift;-inkscape-font-specification:'Bahnschrift, Normal';direction:rtl;fill:#000000;stroke:#b10e0e;stroke-width:2.5;stroke-dasharray:none;stroke-opacity:1"
         x="265.7402"
         y="178.73509"
         id="text1-3"><tspan
           sodipodi:role="line"
           id="tspan1-3"
           style="stroke:none;stroke-width:2.5;stroke-dasharray:none"
           x="265.7402"
           y="178.73509">USL</tspan></text><path
         style="fill:none;stroke:#b10e0e;stroke-width:2.10119;stroke-linecap:butt;stroke-linejoin:miter;stroke-dasharray:none;stroke-opacity:1"
         d="m -58.673859,107.61863 c 0,-23.366218 0,-46.732437 0,-70.098655"
         id="path636-9-9"
         inkscape:path-effect="#path-effect638-2-3"
         inkscape:original-d="m -58.673859,107.61863 c 0,-23.366218 0,-46.732437 0,-70.098655"
         sodipodi:nodetypes="cc"
         transform="matrix(1.17416,0,0,1.20565,328.40224,39.830273)" /></g><g
       id="LSL"
       transform="matrix(0.8,0,0,0.8,-8.8092896,40.948115)"
       style="stroke-width:2.5;stroke-dasharray:none"><text
         xml:space="preserve"
         style="font-size:7.05557px;font-family:Bahnschrift;-inkscape-font-specification:'Bahnschrift, Normal';direction:rtl;fill:#000000;stroke:#b10e0e;stroke-width:2.5;stroke-dasharray:none;stroke-opacity:1"
         x="26.912905"
         y="178.73509"
         id="text1"><tspan
           sodipodi:role="line"
           id="tspan1"
           style="stroke:none;stroke-width:2.5;stroke-dasharray:none"
           x="26.912905"
           y="178.73509">LSL</tspan></text><path
         style="fill:none;stroke:#b10e0e;stroke-width:2.10119;stroke-linecap:butt;stroke-linejoin:miter;stroke-dasharray:none;stroke-opacity:1"
         d="m -58.673859,107.61863 c 0,-23.366218 0,-46.732437 0,-70.098655"
         id="path636-9"
         inkscape:path-effect="#path-effect638-2"
         inkscape:original-d="m -58.673859,107.61863 c 0,-23.366218 0,-46.732437 0,-70.098655"
         sodipodi:nodetypes="cc"
         transform="matrix(1.17416,0,0,1.20565,89.898778,39.830273)" /></g><path
       style="fill:none;stroke:#000000;stroke-width:0.840478;stroke-linecap:butt;stroke-linejoin:miter;stroke-dasharray:0.840478, 0.840478;stroke-dashoffset:0;stroke-opacity:1"
       d="m -58.673859,107.61863 c 0,-23.366218 0,-46.732437 0,-70.098655"
       id="Mean"
       sodipodi:nodetypes="cc"
       transform="matrix(0.939328,0,0,0.96452,158.68317,72.806054)"
       inkscape:original-d="m -58.673859,107.61863 c 0,-23.366218 0,-46.732437 0,-70.098655"
       inkscape:path-effect="#path-effect638-2-3-4" /><g
       id="g2"
       transform="translate(0,-0.52916667)"><path
         style="fill:#ececec;fill-opacity:1;stroke:#000000;stroke-width:0.711407;stroke-linecap:round;stroke-linejoin:round;stroke-miterlimit:10;stroke-dasharray:none"
         id="path2445-7-7-84"
         d="m 96.792251,174.92161 c 0.981743,-0.004 1.963486,-0.0109 2.944767,-0.0377 0.938322,-0.0246 1.880202,-0.0646 2.812612,-0.18218 0.98718,-0.12455 1.95674,-0.33122 2.88595,-0.70731 0.92592,-0.37487 1.74455,-0.94329 2.50082,-1.60775 0.73521,-0.64589 1.3785,-1.43968 1.94444,-2.24716 0.58226,-0.83093 1.12216,-1.69272 1.62304,-2.5796 0.51635,-0.91419 1.0106,-1.84093 1.50082,-2.77049 0.4804,-0.91114 0.96165,-1.8212 1.46131,-2.72095 0.48835,-0.87966 1.01618,-1.75318 1.63404,-2.54068 0.32011,-0.40798 0.67275,-0.77187 1.06763,-1.09991 0.38411,-0.31917 0.84796,-0.49908 1.33332,-0.53717 0.49224,-0.0386 0.95952,0.21339 1.35664,0.4863 0.40621,0.27918 0.74396,0.67169 1.05793,1.05427 0.64683,0.78762 1.16782,1.68537 1.67686,2.57294 0.49327,0.86025 0.94919,1.74418 1.41221,2.62243 0.48761,0.92507 0.975,1.85036 1.48878,2.76019 0.49849,0.88286 1.02076,1.75352 1.60066,2.58088 0.59467,0.84854 1.24555,1.64637 1.99353,2.35223 0.73486,0.69356 1.57478,1.23453 2.48482,1.63817 0.87588,0.3886 1.83691,0.60036 2.7788,0.71923 0.96791,0.12202 1.93959,0.1747 2.91375,0.20406 0.41706,0.0109 0.83428,0.021 1.25157,0.027"
         stroke-miterlimit="10"
         sodipodi:nodetypes="cccccccccsccscccsccccsc" /><path
         style="fill:#ececec;fill-opacity:1;stroke:#000000;stroke-width:0.711407;stroke-linecap:round;stroke-linejoin:round;stroke-miterlimit:10;stroke-dasharray:none"
         id="path2445-7-7-84-4"
         d="m 127.71914,174.92161 c 0.98175,-0.004 1.96349,-0.0109 2.94477,-0.0377 0.93833,-0.0246 1.8802,-0.0646 2.81263,-0.18218 0.98718,-0.12455 1.95674,-0.33122 2.88595,-0.70731 0.92591,-0.37487 1.74453,-0.94329 2.50079,-1.60775 0.73523,-0.64589 1.37851,-1.43968 1.94445,-2.24716 0.58225,-0.83093 1.12218,-1.69272 1.62304,-2.5796 0.51635,-0.91419 1.0106,-1.84093 1.50083,-2.77049 0.4804,-0.91114 0.96163,-1.8212 1.46131,-2.72095 0.48833,-0.87966 1.01617,-1.75318 1.63405,-2.54068 0.32009,-0.40798 0.67275,-0.77187 1.06763,-1.09991 0.38409,-0.31917 0.84794,-0.49908 1.3333,-0.53717 0.49224,-0.0386 0.95952,0.21339 1.35664,0.4863 0.40623,0.27918 0.74397,0.67169 1.05793,1.05427 0.64684,0.78762 1.16781,1.68537 1.67687,2.57294 0.49327,0.86025 0.9492,1.74418 1.4122,2.62243 0.48761,0.92507 0.97501,1.85036 1.48878,2.76019 0.49848,0.88286 1.02078,1.75352 1.60066,2.58088 0.59468,0.84854 1.24557,1.64637 1.99354,2.35223 0.73487,0.69356 1.57477,1.23453 2.48483,1.63817 0.87587,0.3886 1.83689,0.60036 2.77879,0.71923 0.9679,0.12202 1.93958,0.1747 2.91376,0.20406 0.41704,0.0109 0.83427,0.021 1.25155,0.027"
         stroke-miterlimit="10"
         sodipodi:nodetypes="cccccccccsccscccsccccsc" /><path
         style="fill:#ececec;fill-opacity:1;stroke:#000000;stroke-width:0.711407;stroke-linecap:round;stroke-linejoin:round;stroke-miterlimit:10;stroke-dasharray:none"
         id="path2445-7-7-84-5"
         d="m 158.64604,174.92161 c 0.98175,-0.004 1.96348,-0.0109 2.94477,-0.0377 0.93832,-0.0246 1.88018,-0.0646 2.81262,-0.18218 0.98717,-0.12455 1.95674,-0.33122 2.88595,-0.70731 0.92591,-0.37487 1.74452,-0.94329 2.50081,-1.60775 0.73521,-0.64589 1.37851,-1.43968 1.94443,-2.24716 0.58227,-0.83093 1.12217,-1.69272 1.62303,-2.5796 0.51637,-0.91419 1.01062,-1.84093 1.50084,-2.77049 0.4804,-0.91114 0.96163,-1.8212 1.46131,-2.72095 0.48835,-0.87966 1.01618,-1.75318 1.63404,-2.54068 0.32011,-0.40798 0.67276,-0.77187 1.06763,-1.09991 0.38411,-0.31917 0.84795,-0.49908 1.33332,-0.53717 0.49223,-0.0386 0.95952,0.21339 1.35664,0.4863 0.40621,0.27918 0.74396,0.67169 1.05791,1.05427 0.64685,0.78762 1.16784,1.68537 1.67688,2.57294 0.49327,0.86025 0.94919,1.74418 1.4122,2.62243 0.48762,0.92507 0.97501,1.85036 1.48877,2.76019 0.49851,0.88286 1.02078,1.75352 1.60066,2.58088 0.59469,0.84854 1.24557,1.64637 1.99355,2.35223 0.73486,0.69356 1.57477,1.23453 2.48482,1.63817 0.87588,0.3886 1.83692,0.60036 2.7788,0.71923 0.96791,0.12202 1.93959,0.1747 2.91376,0.20406 0.41705,0.0109 0.83427,0.021 1.25156,0.027"
         stroke-miterlimit="10"
         sodipodi:nodetypes="cccccccccsccscccsccccsc" /><path
         style="fill:#ececec;fill-opacity:1;stroke:#000000;stroke-width:0.711407;stroke-linecap:round;stroke-linejoin:round;stroke-miterlimit:10;stroke-dasharray:none"
         id="path2445-7-7-84-7"
         d="m 4.011565,174.92161 c 0.981743,-0.004 1.963486,-0.0109 2.944767,-0.0377 0.93832,-0.0246 1.8802,-0.0646 2.81261,-0.18218 0.98718,-0.12455 1.95674,-0.33122 2.88595,-0.70731 0.92592,-0.37487 1.74455,-0.94329 2.50082,-1.60775 0.73521,-0.64589 1.3785,-1.43968 1.94444,-2.24716 0.58226,-0.83093 1.12216,-1.69272 1.62304,-2.5796 0.51635,-0.91419 1.0106,-1.84093 1.50082,-2.77049 0.4804,-0.91114 0.96165,-1.8212 1.46131,-2.72095 0.48835,-0.87966 1.01618,-1.75318 1.63404,-2.54068 0.32011,-0.40798 0.67275,-0.77187 1.06763,-1.09991 0.38411,-0.31917 0.84796,-0.49908 1.33332,-0.53717 0.49224,-0.0386 0.95952,0.21339 1.35664,0.4863 0.40621,0.27918 0.74396,0.67169 1.05793,1.05427 0.64683,0.78762 1.16782,1.68537 1.67686,2.57294 0.49327,0.86025 0.94919,1.74418 1.41221,2.62243 0.48761,0.92507 0.975,1.85036 1.48878,2.76019 0.49849,0.88286 1.02076,1.75352 1.60066,2.58088 0.59467,0.84854 1.24555,1.64637 1.99353,2.35223 0.73486,0.69356 1.57478,1.23453 2.48482,1.63817 0.87588,0.3886 1.83691,0.60036 2.7788,0.71923 0.96791,0.12202 1.93959,0.1747 2.91375,0.20406 0.41706,0.0109 0.83428,0.021 1.25157,0.027"
         stroke-miterlimit="10"
         sodipodi:nodetypes="cccccccccsccscccsccccsc" /><path
         style="fill:#ececec;fill-opacity:1;stroke:#000000;stroke-width:0.711407;stroke-linecap:round;stroke-linejoin:round;stroke-miterlimit:10;stroke-dasharray:none"
         id="path2445-7-7-84-4-4"
         d="m 34.938459,174.92161 c 0.98175,-0.004 1.96349,-0.0109 2.94477,-0.0377 0.93833,-0.0246 1.8802,-0.0646 2.81263,-0.18218 0.98718,-0.12455 1.95674,-0.33122 2.88595,-0.70731 0.92591,-0.37487 1.74453,-0.94329 2.50079,-1.60775 0.73523,-0.64589 1.37851,-1.43968 1.94445,-2.24716 0.58225,-0.83093 1.12218,-1.69272 1.62304,-2.5796 0.51635,-0.91419 1.0106,-1.84093 1.50083,-2.77049 0.4804,-0.91114 0.96163,-1.8212 1.46131,-2.72095 0.48833,-0.87966 1.01617,-1.75318 1.63405,-2.54068 0.32009,-0.40798 0.67275,-0.77187 1.06763,-1.09991 0.38409,-0.31917 0.84794,-0.49908 1.3333,-0.53717 0.49224,-0.0386 0.95952,0.21339 1.35664,0.4863 0.40623,0.27918 0.74397,0.67169 1.05793,1.05427 0.64684,0.78762 1.16781,1.68537 1.67687,2.57294 0.49327,0.86025 0.9492,1.74418 1.4122,2.62243 0.48761,0.92507 0.97501,1.85036 1.48878,2.76019 0.49848,0.88286 1.02078,1.75352 1.60066,2.58088 0.59468,0.84854 1.24557,1.64637 1.99354,2.35223 0.73487,0.69356 1.57477,1.23453 2.48483,1.63817 0.87587,0.3886 1.83689,0.60036 2.77879,0.71923 0.9679,0.12202 1.93958,0.1747 2.91376,0.20406 0.41704,0.0109 0.83427,0.021 1.25155,0.027"
         stroke-miterlimit="10"
         sodipodi:nodetypes="cccccccccsccscccsccccsc" /><path
         style="fill:#ececec;fill-opacity:1;stroke:#000000;stroke-width:0.711407;stroke-linecap:round;stroke-linejoin:round;stroke-miterlimit:10;stroke-dasharray:none"
         id="path2445-7-7-84-5-5"
         d="m 65.865355,174.92161 c 0.98175,-0.004 1.96348,-0.0109 2.94477,-0.0377 0.93832,-0.0246 1.88018,-0.0646 2.81262,-0.18218 0.98717,-0.12455 1.95674,-0.33122 2.88595,-0.70731 0.92591,-0.37487 1.74452,-0.94329 2.50081,-1.60775 0.73521,-0.64589 1.37851,-1.43968 1.94443,-2.24716 0.58227,-0.83093 1.12217,-1.69272 1.62303,-2.5796 0.51637,-0.91419 1.01062,-1.84093 1.50084,-2.77049 0.4804,-0.91114 0.96163,-1.8212 1.46131,-2.72095 0.48835,-0.87966 1.01618,-1.75318 1.63404,-2.54068 0.32011,-0.40798 0.67276,-0.77187 1.06763,-1.09991 0.38411,-0.31917 0.84795,-0.49908 1.33332,-0.53717 0.49223,-0.0386 0.95952,0.21339 1.35664,0.4863 0.40621,0.27918 0.74396,0.67169 1.05791,1.05427 0.64685,0.78762 1.16784,1.68537 1.67688,2.57294 0.49327,0.86025 0.94919,1.74418 1.4122,2.62243 0.48762,0.92507 0.97501,1.85036 1.48877,2.76019 0.49851,0.88286 1.02078,1.75352 1.60066,2.58088 0.59469,0.84854 1.24557,1.64637 1.99355,2.35223 0.73486,0.69356 1.57477,1.23453 2.484825,1.63817 0.87587,0.3886 1.83691,0.60036 2.77879,0.71923 0.96791,0.12202 1.93959,0.1747 2.91376,0.20406 0.41705,0.0109 0.83427,0.021 1.25156,0.027"
         stroke-miterlimit="10"
         sodipodi:nodetypes="cccccccccsccscccsccccsc" /></g><text
       xml:space="preserve"
       style="font-size:35.6385px;font-family:Bahnschrift;-inkscape-font-specification:'Bahnschrift, Normal';direction:rtl;fill:#000000;stroke:#000000;stroke-width:8.5869;stroke-dasharray:none;stroke-dashoffset:0;stroke-opacity:1"
       x="56.813442"
       y="140.78648"
       id="SixLSL"><tspan
         sodipodi:role="line"
         id="tspan2"
         style="stroke:none;stroke-width:8.5869"
         x="56.813442"
         y="140.78648">3σ</tspan></text><text
       xml:space="preserve"
       style="font-size:35.6385px;font-family:Bahnschrift;-inkscape-font-specification:'Bahnschrift, Normal';direction:rtl;fill:#000000;stroke:#000000;stroke-width:8.5869;stroke-dasharray:none;stroke-dashoffset:0;stroke-opacity:1"
       x="192.34682"
       y="139.52043"
       id="SixUSL"><tspan
         sodipodi:role="line"
         id="tspan2-1"
         style="stroke:none;stroke-width:8.5869"
         x="192.34682"
         y="139.52043">3σ</tspan></text><text
       xml:space="preserve"
       style="font-size:35.6385px;font-family:Bahnschrift;-inkscape-font-specification:'Bahnschrift, Normal';direction:rtl;fill:#000000;stroke:#000000;stroke-width:8.5869;stroke-dasharray:none;stroke-dashoffset:0;stroke-opacity:1"
       x="122.77185"
       y="105.86031"
       id="TwelveSig"><tspan
         sodipodi:role="line"
         id="tspan2-1-1"
         style="stroke:none;stroke-width:8.5869"
         x="122.77185"
         y="105.86031">6σ</tspan></text><path
       style="fill:#000000;stroke-width:1"
       d="M -33.611756,173.95971 H 239.05173"
       id="path1" /><path
       style="fill:#000000;stroke:#000000;stroke-width:1;stroke-opacity:1"
       d="m -33.37771,174.4278 c 90.887829,0 181.77566,0 272.66349,0"
       id="path2"
       inkscape:path-effect="#path-effect2"
       inkscape:original-d="m -33.37771,174.4278 c 90.887829,0 181.77566,0 272.66349,0" /></g></svg>
