<?xml version="1.0" encoding="UTF-8" standalone="no"?>
<!-- Created with Inkscape (http://www.inkscape.org/) -->

<svg
   width="1050"
   height="700"
   viewBox="0 0 277.81249 185.20833"
   version="1.1"
   id="svg5"
   inkscape:version="1.2.2 (732a01da63, 2022-12-09)"
   sodipodi:docname="014_NominalData.svg"
   xml:space="preserve"
   inkscape:export-filename="014_NominalData.png"
   inkscape:export-xdpi="300"
   inkscape:export-ydpi="300"
   xmlns:inkscape="http://www.inkscape.org/namespaces/inkscape"
   xmlns:sodipodi="http://sodipodi.sourceforge.net/DTD/sodipodi-0.dtd"
   xmlns:xlink="http://www.w3.org/1999/xlink"
   xmlns="http://www.w3.org/2000/svg"
   xmlns:svg="http://www.w3.org/2000/svg"><sodipodi:namedview
     id="namedview7"
     pagecolor="#ffffff"
     bordercolor="#666666"
     borderopacity="1.0"
     inkscape:showpageshadow="2"
     inkscape:pageopacity="0.0"
     inkscape:pagecheckerboard="0"
     inkscape:deskcolor="#d1d1d1"
     inkscape:document-units="mm"
     showgrid="false"
     inkscape:zoom="0.72515434"
     inkscape:cx="498.51456"
     inkscape:cy="344.75419"
     inkscape:window-width="1920"
     inkscape:window-height="1017"
     inkscape:window-x="1912"
     inkscape:window-y="-8"
     inkscape:window-maximized="1"
     inkscape:current-layer="g2584" /><defs
     id="defs2"><linearGradient
       id="linearGradient6703"><stop
         style="stop-color:#000000;stop-opacity:1.0000000;"
         offset="0.0000000"
         id="stop6704" /><stop
         style="stop-color:#7f7f7f;stop-opacity:1.0000000;"
         offset="0.50000000"
         id="stop6705" /><stop
         style="stop-color:#ffffff;stop-opacity:1.0000000;"
         offset="1.0000000"
         id="stop6706" /></linearGradient><linearGradient
       id="linearGradient879"><stop
         style="stop-color:#c3c3c3;stop-opacity:0.54918033;"
         offset="0.0000000"
         id="stop880" /><stop
         style="stop-color:#d4e1e4;stop-opacity:1.0000000;"
         offset="0.50000000"
         id="stop884" /><stop
         style="stop-color:#ddf0f0;stop-opacity:0.59016395;"
         offset="1.0000000"
         id="stop881" /></linearGradient><linearGradient
       x1="1453.8076"
       y1="384.45894"
       x2="1583.5951"
       y2="383.24872"
       id="linearGradient882"
       xlink:href="#linearGradient879"
       gradientTransform="scale(0.55994156,1.7859006)"
       gradientUnits="userSpaceOnUse" /><linearGradient
       x1="568.58307"
       y1="1189.8646"
       x2="567.13932"
       y2="1038.1013"
       id="linearGradient883"
       xlink:href="#linearGradient879"
       spreadMethod="pad"
       gradientTransform="scale(1.4640424,0.68304032)"
       gradientUnits="userSpaceOnUse" /><clipPath
       id="clip0_525_147"><rect
         width="24"
         height="24"
         fill="white"
         id="rect26341" /></clipPath><style
       id="style4881">.cls-1{fill:none;stroke:#020202;stroke-miterlimit:10;stroke-width:1.91px;}</style></defs><g
     inkscape:label="Ebene 1"
     inkscape:groupmode="layer"
     id="layer1"><g
       id="g6749"
       transform="matrix(1.1741575,0,0,1.2056485,82.236622,41.654623)"><g
         id="g2515"
         transform="matrix(0.77903827,0,0,0.75869015,-49.327496,-25.874608)">
	<g
   id="g2507">
		<circle
   fill="#231f20"
   cx="22.336"
   cy="19.721001"
   r="8.2720003"
   id="circle2503" />
		<path
   fill="#231f20"
   d="m 37.999,30.217 v -0.04 H 8.363 v 0.027 c -2.142,0 -3.878,1.729 -3.894,3.867 H 4.466 V 57.51 h 0.039 c -0.002,0.893 0.337,1.786 1.018,2.467 1.358,1.359 3.56,1.359 4.919,0 0.68,-0.681 1.019,-1.574 1.017,-2.467 h 0.008 V 41.32 41.148 h 0.009 c 0.025,-0.592 0.505,-1.064 1.101,-1.064 0.598,0 1.078,0.473 1.103,1.064 h 0.009 v 0.172 10.44 32.293 c 0.003,2.245 1.822,4.063 4.068,4.063 2.246,0 4.068,-1.821 4.068,-4.068 V 62.444 h 0.03 c 0,-0.623 0.504,-1.128 1.126,-1.128 0.622,0 1.127,0.505 1.127,1.128 h 0.029 v 21.604 c 0,2.247 1.823,4.068 4.069,4.068 2.247,0 4.068,-1.821 4.068,-4.068 V 62.444 51.76 41.32 41.148 c 0,-0.615 0.497,-1.112 1.112,-1.112 0.613,0 1.11,0.497 1.11,1.112 v 0.172 16.191 h 0.038 c -0.002,0.893 0.337,1.786 1.018,2.467 1.359,1.359 3.561,1.359 4.92,0 0.681,-0.681 1.02,-1.574 1.018,-2.467 h 0.007 V 34.072 c 0.002,-2.015 -1.535,-3.654 -3.498,-3.855 z"
   id="path2505" />
	</g>
	<g
   id="g2513">
		<circle
   fill="#231f20"
   cx="72.296997"
   cy="19.768"
   r="8.3199997"
   id="circle2509" />
		<path
   fill="#231f20"
   d="m 95.534,54.161 -5.55,-20.712 c -0.003,-0.016 -0.009,-0.032 -0.013,-0.048 l -0.098,-0.365 -0.014,0.004 c -0.506,-1.579 -1.968,-2.729 -3.715,-2.729 -0.014,0 -0.026,0.004 -0.04,0.004 v -0.072 h -26.12 v 0.068 c -1.747,0 -3.209,1.151 -3.715,2.729 L 56.255,33.036 56.157,33.4 c -0.004,0.017 -0.01,0.033 -0.013,0.05 l -5.55,20.711 0.052,0.014 c -0.025,0.171 -0.052,0.342 -0.052,0.52 0,1.952 1.583,3.536 3.536,3.536 1.495,0 2.767,-0.932 3.283,-2.244 l 0.025,0.007 4.071,-15.193 v 0.057 h 0.032 c 0.111,-0.5 0.536,-0.882 1.07,-0.882 0.534,0 0.959,0.382 1.07,0.882 h 0.033 v 0.164 c 0.002,0.025 0.015,0.047 0.015,0.072 0,0.025 -0.013,0.047 -0.015,0.072 v 0.155 l -6.518,24.326 c -0.105,0.214 -0.169,0.449 -0.187,0.698 l -0.014,0.051 0.008,0.002 c -10e-4,0.028 -0.008,0.054 -0.008,0.082 0,1.048 0.85,1.897 1.898,1.897 h 4.82 v 16.08 c 0,2.259 1.831,4.09 4.091,4.09 2.259,0 4.091,-1.832 4.091,-4.09 v -16.08 h 2.326 v 16.08 c 0,2.259 1.832,4.09 4.091,4.09 2.26,0 4.091,-1.832 4.091,-4.09 v -16.08 h 4.835 c 1.048,0 1.898,-0.849 1.898,-1.897 0,-0.028 -0.007,-0.055 -0.008,-0.082 l 0.008,-0.002 -0.014,-0.051 C 89.104,66.096 89.04,65.861 88.935,65.647 l -6.499,-24.253 0.021,-0.006 c -0.027,-0.096 -0.06,-0.191 -0.06,-0.296 0,-0.616 0.5,-1.118 1.118,-1.118 0.525,0 0.946,0.371 1.065,0.86 l 0.043,-0.011 4.065,15.169 0.024,-0.007 c 0.517,1.312 1.788,2.244 3.283,2.244 1.953,0 3.536,-1.584 3.536,-3.536 0,-0.178 -0.027,-0.349 -0.052,-0.52 z"
   id="path2511" />
	</g>
</g><g
         fill="#434343"
         id="g2584"
         style="fill-rule:evenodd;stroke:none;stroke-width:1"
         transform="matrix(3.5794698,0,0,3.4859755,81.160034,-22.713896)"><g
           id="g2578"
           style="fill:#000000;fill-opacity:1"><path
             d="M 15.924,3.779 C 15.924,-0.037 9.787,0.09 7.637,0.09 5.485,0.09 0.038,0.136 0.038,3.953 h 3.909 c 0,-0.027 0.004,-1.194 0.004,-0.957 0,-0.438 0.479,-1.027 1.553,-1.027 h 5.013 c 1.046,0 1.537,0.589 1.537,1.027 v 0 c 0,0.154 0.008,0.927 0.008,0.957 h 3.86 c 0,-0.013 0.002,-0.162 0.002,-0.174 z"
             class="si-glyph-fill"
             id="path2558"
             style="fill:#000000;fill-opacity:1" /><path
             d="m 4.987,9.338 c 0,0.341 -0.286,0.617 -0.638,0.617 H 3.652 C 3.299,9.955 3.013,9.679 3.013,9.338 V 8.662 c 0,-0.341 0.286,-0.617 0.639,-0.617 h 0.697 c 0.352,0 0.638,0.276 0.638,0.617 z"
             class="si-glyph-fill"
             id="path2560"
             style="fill:#000000;fill-opacity:1" /><path
             d="m 12.975,9.345 c 0,0.353 -0.285,0.638 -0.639,0.638 H 11.64 c -0.353,0 -0.638,-0.285 -0.638,-0.638 V 8.648 c 0,-0.353 0.285,-0.638 0.638,-0.638 h 0.696 c 0.354,0 0.639,0.285 0.639,0.638 z"
             class="si-glyph-fill"
             id="path2562"
             style="fill:#000000;fill-opacity:1" /><path
             d="m 8.986,9.349 c 0,0.353 -0.285,0.638 -0.638,0.638 H 7.65 C 7.298,9.987 7.013,9.702 7.013,9.349 V 8.652 c 0,-0.353 0.285,-0.638 0.637,-0.638 h 0.698 c 0.353,0 0.638,0.285 0.638,0.638 z"
             class="si-glyph-fill"
             id="path2564"
             style="fill:#000000;fill-opacity:1" /><path
             d="m 4.962,12.336 c 0,0.353 -0.281,0.638 -0.628,0.638 H 3.648 C 3.3,12.974 3.019,12.689 3.019,12.336 V 11.639 C 3.019,11.285 3.3,11 3.648,11 h 0.686 c 0.347,0 0.628,0.285 0.628,0.639 z"
             class="si-glyph-fill"
             id="path2566"
             style="fill:#000000;fill-opacity:1" /><path
             d="m 12.943,12.346 c 0,0.348 -0.275,0.628 -0.617,0.628 H 11.65 c -0.342,0 -0.617,-0.28 -0.617,-0.628 V 11.66 c 0,-0.349 0.275,-0.629 0.617,-0.629 h 0.676 c 0.342,0 0.617,0.28 0.617,0.629 z"
             class="si-glyph-fill"
             id="path2568"
             style="fill:#000000;fill-opacity:1" /><path
             d="m 8.982,12.346 c 0,0.348 -0.284,0.628 -0.637,0.628 H 7.648 c -0.353,0 -0.638,-0.28 -0.638,-0.628 V 11.66 c 0,-0.349 0.285,-0.629 0.638,-0.629 h 0.697 c 0.353,0 0.637,0.28 0.637,0.629 z"
             class="si-glyph-fill"
             id="path2570"
             style="fill:#000000;fill-opacity:1" /><path
             d="m 4.993,15.347 c 0,0.342 -0.286,0.618 -0.638,0.618 H 3.658 c -0.353,0 -0.639,-0.276 -0.639,-0.618 v -0.676 c 0,-0.341 0.286,-0.617 0.639,-0.617 h 0.697 c 0.352,0 0.638,0.276 0.638,0.617 z"
             class="si-glyph-fill"
             id="path2572"
             style="fill:#000000;fill-opacity:1" /><path
             d="m 12.975,15.357 c 0,0.354 -0.285,0.639 -0.639,0.639 H 11.64 c -0.353,0 -0.638,-0.285 -0.638,-0.639 V 14.66 c 0,-0.353 0.285,-0.638 0.638,-0.638 h 0.696 c 0.354,0 0.639,0.285 0.639,0.638 z"
             class="si-glyph-fill"
             id="path2574"
             style="fill:#000000;fill-opacity:1" /><path
             d="m 8.982,15.357 c 0,0.354 -0.279,0.639 -0.627,0.639 H 7.669 c -0.348,0 -0.627,-0.285 -0.627,-0.639 V 14.66 c 0,-0.353 0.279,-0.638 0.627,-0.638 h 0.686 c 0.348,0 0.627,0.285 0.627,0.638 z"
             class="si-glyph-fill"
             id="path2576"
             style="fill:#000000;fill-opacity:1" /></g><path
           d="m 0.992,5.973 h 2.047 c 0,0 0.707,0.228 0.887,-0.973 H 0.067 c 0.167,1.113 0.925,0.973 0.925,0.973 z"
           class="si-glyph-fill"
           id="path2580"
           style="fill:#000000;fill-opacity:1" /><path
           d="m 12.115,5 c 0.209,1.053 0.963,0.973 0.963,0.973 h 1.891 c 0,0 0.758,0.011 0.943,-0.973 z"
           class="si-glyph-fill"
           id="path2582"
           style="fill:#000000;fill-opacity:1" /></g><path
         d="M 4.9012238,64.413815 H -35.859205 c -2.407776,0 -4.367187,1.908232 -4.367187,4.253119 v 28.354131 c 0,2.34489 1.959411,4.253125 4.367187,4.253125 H 4.9012238 c 2.4077773,0 4.3671879,-1.908235 4.3671879,-4.253125 V 68.666934 c 0,-2.344887 -1.9594106,-4.253119 -4.3671879,-4.253119 z m 1.4557293,32.60725 c 0,0.77974 -0.6521677,1.4177 -1.4557293,1.4177 H -35.859205 c -0.803561,0 -1.455728,-0.63796 -1.455728,-1.4177 V 81.426289 H 6.3569531 Z M -37.314933,72.920054 v -4.25312 c 0,-0.779738 0.652167,-1.417708 1.455728,-1.417708 H 4.9012238 c 0.8035616,0 1.4557293,0.63797 1.4557293,1.417708 v 4.25312 z"
         fill="#000000"
         id="path2620"
         style="stroke-width:2.87319" /><g
         style="fill:#000000"
         id="g2670"
         transform="matrix(0.13065224,0,0,0.12723965,47.322872,43.957279)"><g
           id="g2633">
	<g
   id="g2631">
		<path
   d="m 177.512,430.977 c -5.585,0 -9.309,3.724 -9.309,9.309 v 63.302 c 0,5.585 3.724,9.309 9.309,9.309 4.655,0 9.309,-3.724 9.309,-9.309 v -63.302 c 0,-5.585 -3.724,-9.309 -9.309,-9.309 z"
   id="path2629" />
	</g>
</g><g
           id="g2639">
	<g
   id="g2637">
		<path
   d="m 345.076,431.908 c -5.585,0 -9.309,3.724 -9.309,9.309 v 62.371 c 0,5.585 3.724,9.309 9.309,9.309 4.655,0 9.309,-3.724 9.309,-9.309 v -62.371 c 0,-5.585 -3.724,-9.309 -9.309,-9.309 z"
   id="path2635" />
	</g>
</g><g
           id="g2645">
	<g
   id="g2643">
		<path
   d="m 502.399,368.606 c -1.862,-2.793 -4.655,-4.655 -8.378,-4.655 -12.102,0 -19.549,-2.793 -24.204,-8.378 -5.586,-6.516 -3.724,-17.687 -3.724,-17.687 0,-0.931 0,-0.931 0,-1.862 v -37.236 c 0,-133.12 -19.549,-170.356 -20.48,-173.149 C 413.032,58.613 373.934,17.654 330.181,4.621 296.668,-5.619 270.603,3.69 260.363,8.345 249.192,3.69 218.472,-5.619 181.236,6.483 136.552,21.377 97.454,62.337 66.734,126.57 65.803,128.432 47.185,165.668 47.185,298.788 v 37.236 c 0,0.931 0,0.931 0,1.862 0,0 1.862,11.171 -3.724,17.687 -4.655,5.586 -13.033,8.378 -24.204,8.378 -3.724,0 -6.516,1.862 -8.378,4.655 -1.862,2.793 -1.862,6.516 0,9.309 0.931,1.862 33.513,57.716 153.6,60.509 4.655,0 7.447,-1.862 9.309,-5.586 1.862,-3.724 0,-7.447 -2.793,-10.24 -5.585,-3.724 -9.309,-7.447 -13.033,-11.171 -41.891,-40.029 -45.615,-103.331 -45.615,-158.255 0,-21.411 9.309,-40.96 27.927,-53.993 l 121.949,-93.091 121.018,92.16 c 16.756,13.033 26.996,32.582 26.996,53.993 0,55.855 -2.793,119.156 -44.684,159.185 -2.793,3.724 -7.447,7.447 -12.102,11.171 -2.793,1.862 -5.585,4.655 -3.724,8.378 1.861,3.723 5.585,5.585 9.309,5.585 104.262,-7.447 140.567,-56.785 142.429,-58.647 1.865,-2.79 2.796,-6.514 0.934,-9.307 z m -116.363,47.477 c 37.236,-41.891 42.822,-102.4 42.822,-161.978 0,-26.996 -13.033,-52.131 -34.444,-68.887 L 268.741,88.403 c -4.655,-3.724 -10.24,-3.724 -14.895,0 l -125.673,95.884 c -21.411,15.825 -34.444,41.891 -34.444,68.887 0,60.509 5.585,122.88 44.684,165.702 -56.785,-5.585 -87.505,-25.135 -101.469,-38.167 8.378,-2.793 15.825,-7.447 20.48,-13.033 10.24,-13.033 9.309,-27.927 8.378,-32.582 v -36.305 c 0,-126.604 16.756,-162.909 17.687,-163.84 28.858,-59.578 63.302,-96.815 103.331,-109.847 39.098,-13.033 69.818,2.793 69.818,2.793 2.793,1.862 6.516,1.862 9.309,0 0.931,-0.931 26.065,-14.895 60.509,-3.724 38.167,12.102 73.542,49.338 103.331,111.709 0,0 17.687,36.305 17.687,162.909 v 36.305 c 0,4.655 -1.862,20.48 8.378,32.582 4.655,5.585 11.171,9.309 18.618,12.102 -14.892,12.101 -42.82,27.926 -88.434,36.305 z"
   id="path2641" />
	</g>
</g><g
           id="g2651">
	<g
   id="g2649">
		<path
   d="m 377.658,409.566 c -3.724,-3.724 -9.309,-3.724 -13.033,0 -12.102,13.033 -26.065,24.204 -40.96,33.513 l -9.309,6.516 c -3.724,2.793 -7.447,5.585 -11.171,8.378 -13.033,9.309 -25.135,18.618 -40.96,18.618 -15.825,0 -27.927,-9.309 -40.96,-18.618 -3.724,-2.793 -7.447,-5.586 -11.171,-8.378 l -8.378,-5.585 c -10.24,-7.447 -20.48,-13.964 -29.789,-21.411 -5.585,-3.724 -9.309,-7.447 -13.033,-11.171 -3.724,-3.724 -9.309,-3.724 -13.033,0 -3.724,3.724 -3.724,9.309 0,13.033 3.724,3.724 8.378,7.447 13.964,12.102 10.24,8.378 20.48,15.825 30.72,22.342 l 8.378,5.585 c 3.724,2.793 6.516,4.655 10.24,7.447 14.895,11.171 30.72,22.342 52.131,22.342 21.411,0 36.305,-11.171 53.062,-23.273 3.724,-2.793 6.516,-4.655 10.24,-7.447 l 9.309,-5.585 c 14.895,-10.24 30.72,-20.48 44.684,-33.513 3.723,-3.724 2.792,-11.171 -0.931,-14.895 z"
   id="path2647" />
	</g>
</g></g></g></g></svg>
