<?xml version="1.0" encoding="UTF-8" standalone="no"?>
<!-- Created with Inkscape (http://www.inkscape.org/) -->

<svg
   width="1050"
   height="700"
   viewBox="0 0 277.81249 185.20833"
   version="1.1"
   id="svg5"
   inkscape:version="1.2.2 (732a01da63, 2022-12-09)"
   sodipodi:docname="015_OrdinalData.svg"
   xml:space="preserve"
   inkscape:export-filename="015_OrdinalData.png"
   inkscape:export-xdpi="300"
   inkscape:export-ydpi="300"
   xmlns:inkscape="http://www.inkscape.org/namespaces/inkscape"
   xmlns:sodipodi="http://sodipodi.sourceforge.net/DTD/sodipodi-0.dtd"
   xmlns:xlink="http://www.w3.org/1999/xlink"
   xmlns="http://www.w3.org/2000/svg"
   xmlns:svg="http://www.w3.org/2000/svg"><sodipodi:namedview
     id="namedview7"
     pagecolor="#ffffff"
     bordercolor="#666666"
     borderopacity="1.0"
     inkscape:showpageshadow="2"
     inkscape:pageopacity="0.0"
     inkscape:pagecheckerboard="0"
     inkscape:deskcolor="#d1d1d1"
     inkscape:document-units="mm"
     showgrid="false"
     inkscape:zoom="0.72515434"
     inkscape:cx="506.09916"
     inkscape:cy="344.75419"
     inkscape:window-width="1920"
     inkscape:window-height="1017"
     inkscape:window-x="1912"
     inkscape:window-y="-8"
     inkscape:window-maximized="1"
     inkscape:current-layer="g2584" /><defs
     id="defs2"><linearGradient
       id="linearGradient6703"><stop
         style="stop-color:#000000;stop-opacity:1.0000000;"
         offset="0.0000000"
         id="stop6704" /><stop
         style="stop-color:#7f7f7f;stop-opacity:1.0000000;"
         offset="0.50000000"
         id="stop6705" /><stop
         style="stop-color:#ffffff;stop-opacity:1.0000000;"
         offset="1.0000000"
         id="stop6706" /></linearGradient><linearGradient
       id="linearGradient879"><stop
         style="stop-color:#c3c3c3;stop-opacity:0.54918033;"
         offset="0.0000000"
         id="stop880" /><stop
         style="stop-color:#d4e1e4;stop-opacity:1.0000000;"
         offset="0.50000000"
         id="stop884" /><stop
         style="stop-color:#ddf0f0;stop-opacity:0.59016395;"
         offset="1.0000000"
         id="stop881" /></linearGradient><linearGradient
       x1="1453.8076"
       y1="384.45894"
       x2="1583.5951"
       y2="383.24872"
       id="linearGradient882"
       xlink:href="#linearGradient879"
       gradientTransform="scale(0.55994156,1.7859006)"
       gradientUnits="userSpaceOnUse" /><linearGradient
       x1="568.58307"
       y1="1189.8646"
       x2="567.13932"
       y2="1038.1013"
       id="linearGradient883"
       xlink:href="#linearGradient879"
       spreadMethod="pad"
       gradientTransform="scale(1.4640424,0.68304032)"
       gradientUnits="userSpaceOnUse" /><clipPath
       id="clip0_525_147"><rect
         width="24"
         height="24"
         fill="white"
         id="rect26341" /></clipPath><style
       id="style4881">.cls-1{fill:none;stroke:#020202;stroke-miterlimit:10;stroke-width:1.91px;}</style><style
       id="style7143">.cls-1{fill:#010002;}</style></defs><g
     inkscape:label="Ebene 1"
     inkscape:groupmode="layer"
     id="layer1"><g
       id="g6749"
       transform="matrix(1.1741575,0,0,1.2056485,82.236622,41.654623)"><g
         fill="#434343"
         id="g2584"
         style="fill-rule:evenodd;stroke:none;stroke-width:1"
         transform="matrix(3.5794698,0,0,3.4859755,81.160034,-22.713896)"><path
           fill="#000000"
           fill-opacity="1"
           stroke-width="0.0574239"
           stroke-linejoin="round"
           d="m -25.263661,10.241601 h -2.291987 l -0.600079,-1.8669058 h -3.43587 l -0.59382,1.8669058 h -2.279469 l 3.394209,-9.33456353 h 2.489899 z M -28.716213,6.5077872 -29.69549,3.4136177 c -0.0764,-0.234749 -0.129204,-0.5146328 -0.158375,-0.8396803 h -0.05209 c -0.01668,0.2736535 -0.07155,0.5445218 -0.164606,0.8126051 l -0.998055,3.1212447 z m 3.123714,-1.7214523 h 1.704771 v -1.704771 h 1.818412 v 1.704771 h 1.704771 v 1.8184413 h -1.704771 v 1.704771 h -1.818412 v -1.704771 h -1.704771 z"
           id="path5682" /><g
           id="g7165"
           transform="matrix(0.24224212,0,0,0.24224213,-11.157304,-0.67077014)"><path
             class="cls-1"
             d="m 26.05,30 q 0.39,0.41 0.81,0.78 a 13.66,13.66 0 0 0 18.28,0 Q 45.56,30.41 45.95,30 c 0.25,-0.27 0.5,-0.54 0.74,-0.83 a 13.66,13.66 0 0 0 3.05,-8.62 c 0,-7.58 -6.16,-1.88 -13.74,-1.88 -7.58,0 -13.74,-5.7 -13.74,1.88 a 13.66,13.66 0 0 0 3,8.62 c 0.28,0.26 0.53,0.53 0.79,0.83 z"
             id="path7149" /><path
             class="cls-1"
             d="m 24.93,14.29 c 0,0 10.8,5.08 22.14,0 a 32.87,32.87 0 0 0 -22.14,0 z"
             id="path7151" /><path
             class="cls-1"
             d="M 36,4 C 36,4 29.3,3.35 21.2,13 A 44.43,44.43 0 0 1 36,10.21 54.26,54.26 0 0 1 50.8,12.93 C 50.8,12.93 42.62,4 36,4 Z m -0.39,3.72 a 1,1 0 0 1 0,-2 1,1 0 0 1 0,1.96 z"
             id="path7153" /><path
             class="cls-1"
             d="M 60,50.09 A 24.29,24.29 0 0 0 47.2,31.72 c -1.49,1.49 -3.94,6.79 -5.93,7.59 -1.83,0.75 -3.17,-3 -5.27,-3 -1.69,0 -3.2,3.29 -4.73,2.8 -2.42,-0.78 -4.71,-5.69 -6.47,-7.44 A 24.29,24.29 0 0 0 12,50.09 a 1.64,1.64 0 0 0 0.41,1.3 2,2 0 0 0 1.5,0.66 h 44.17 a 2,2 0 0 0 1.5,-0.66 1.62,1.62 0 0 0 0.42,-1.3 z M 50.64,47 48.3,45.76 46,47 l 0.45,-2.61 -1.9,-1.85 2.62,-0.39 1.18,-2.37 1.17,2.37 2.62,0.39 -1.94,1.84 z"
             id="path7155" /></g><g
           style="fill:#000000;fill-opacity:1"
           id="g8652"
           transform="matrix(0.94816,0,0,0.94816005,-34.042065,15.785189)"><path
             d="m 10.75,8.25 c 0,0.55228 -0.4477,1 -1,1 -0.55228,0 -1,-0.44772 -1,-1 0,-0.55228 0.44772,-1 1,-1 0.5523,0 1,0.44772 1,1 z"
             fill="#212121"
             id="path8619"
             style="fill:#000000;fill-opacity:1" /><path
             d="m 13.5,8.25 c 0,0.55228 -0.4477,1 -1,1 -0.5523,0 -1,-0.44772 -1,-1 0,-0.55228 0.4477,-1 1,-1 0.5523,0 1,0.44772 1,1 z"
             fill="#212121"
             id="path8621"
             style="fill:#000000;fill-opacity:1" /><path
             d="m 16.5,8.25 c 0,0.55228 -0.4477,1 -1,1 -0.5523,0 -1,-0.44772 -1,-1 0,-0.55228 0.4477,-1 1,-1 0.5523,0 1,0.44772 1,1 z"
             fill="#212121"
             id="path8623"
             style="fill:#000000;fill-opacity:1" /><path
             d="m 19.5,8.25 c 0,0.55228 -0.4477,1 -1,1 -0.5523,0 -1,-0.44772 -1,-1 0,-0.55228 0.4477,-1 1,-1 0.5523,0 1,0.44772 1,1 z"
             fill="#212121"
             id="path8625"
             style="fill:#000000;fill-opacity:1" /><path
             d="m 9.75,16.75 c 0.5523,0 1,-0.4477 1,-1 0,-0.5523 -0.4477,-1 -1,-1 -0.55228,0 -1,0.4477 -1,1 0,0.5523 0.44772,1 1,1 z"
             fill="#212121"
             id="path8627"
             style="fill:#000000;fill-opacity:1" /><path
             d="m 12.5,16.75 c 0.5523,0 1,-0.4477 1,-1 0,-0.5523 -0.4477,-1 -1,-1 -0.5523,0 -1,0.4477 -1,1 0,0.5523 0.4477,1 1,1 z"
             fill="#212121"
             id="path8629"
             style="fill:#000000;fill-opacity:1" /><path
             d="m 15.5,16.75 c 0.5523,0 1,-0.4477 1,-1 0,-0.5523 -0.4477,-1 -1,-1 -0.5523,0 -1,0.4477 -1,1 0,0.5523 0.4477,1 1,1 z"
             fill="#212121"
             id="path8631"
             style="fill:#000000;fill-opacity:1" /><path
             d="m 18.5,16.75 c 0.5523,0 1,-0.4477 1,-1 0,-0.5523 -0.4477,-1 -1,-1 -0.5523,0 -1,0.4477 -1,1 0,0.5523 0.4477,1 1,1 z"
             fill="#212121"
             id="path8633"
             style="fill:#000000;fill-opacity:1" /><path
             d="M 5,4 C 3.34315,4 2,5.34315 2,7 v 10 c 0,1.6569 1.34315,3 3,3 h 14 c 1.6569,0 3,-1.3431 3,-3 V 7 C 22,5.34315 20.6569,4 19,4 Z m 14,1.5 c 0.8284,0 1.5,0.67157 1.5,1.5 v 4.25 H 7.5 V 5.5 Z m 1.5,7.25 V 17 c 0,0.8284 -0.6716,1.5 -1.5,1.5 H 7.5 V 12.75 Z M 6,11.25 H 3.5 V 7 C 3.5,6.17157 4.17157,5.5 5,5.5 h 1 z m -2.5,1.5 H 6 V 18.5 H 5 C 4.17157,18.5 3.5,17.8284 3.5,17 Z"
             fill="#212121"
             id="path8635"
             style="fill:#000000;fill-opacity:1" /></g><g
           style="fill:#000000"
           id="g10127"
           transform="matrix(0.03455962,0,0,0.03455963,-5.7988852,19.575812)"><g
             id="XMLID_21_">
	<path
   id="XMLID_22_"
   d="m 280.539,223.333 -26.081,9.409 c -8.243,2.973 -17.187,2.664 -25.291,-0.961 -8.098,3.622 -17.041,3.938 -25.289,0.961 l -26.08,-9.409 c 0,0 -0.206,-7.812 -0.206,211.729 0,12.855 10.421,23.276 23.276,23.276 12.855,0 23.276,-10.421 23.276,-23.276 v -186.047 -10e-4 h 10.05 v 10e-4 186.047 c 0,12.855 10.421,23.276 23.276,23.276 12.855,0 23.276,-10.421 23.276,-23.276 -10e-4,-210.9 -0.207,-211.729 -0.207,-211.729 z" />
	<path
   id="XMLID_931_"
   d="m 121.792,171.005 c -1.467,9.197 3.811,18.14 12.572,21.301 l 74.417,26.847 c 7.341,2.646 15.219,0.6 20.387,-4.634 5.168,5.234 13.046,7.28 20.387,4.634 l 74.417,-26.847 c 8.762,-3.161 14.039,-12.104 12.572,-21.301 -0.072,-0.453 -7.25,-45.498 -9.561,-64.452 -3.067,-25.159 -22.312,-43.421 -45.759,-43.421 h -0.64 c -3.342,7.464 -8.259,14.069 -14.331,19.396 -9.915,8.697 -22.89,13.988 -37.085,13.988 -14.195,0 -27.169,-5.29 -37.085,-13.988 -6.072,-5.327 -10.989,-11.932 -14.331,-19.396 h -0.641 c -23.447,0 -42.692,18.261 -45.759,43.421 -2.31,18.953 -9.487,63.999 -9.56,64.452 z m 48.069,-59.757 c 0.422,-3.463 2.424,-9.323 7.251,-9.323 h 8.171 c 0,0 -4.764,37.68 -6.605,49.77 52.375,18.895 48.667,17.51 50.49,18.323 1.823,-0.812 -1.861,0.563 50.49,-18.323 -1.841,-12.092 -6.811,-49.77 -6.811,-49.77 h 8.377 c 4.827,0 6.829,5.86 7.251,9.323 1.519,12.456 4.91,34.811 7.268,50.002 l -59.353,21.412 c -2.824,1.019 -5.249,2.64 -7.223,4.647 -1.973,-2.006 -4.398,-3.628 -7.223,-4.647 -6.407,-2.311 -52.978,-19.112 -59.353,-21.412 2.36,-15.192 5.751,-37.546 7.27,-50.002 z" />
	<circle
   id="XMLID_934_"
   cx="229.16901"
   cy="40.200001"
   r="40.200001" />
	<path
   id="XMLID_935_"
   d="M 147.898,225.473 H 91.992 c -5.718,0 -10.353,4.636 -10.353,10.353 0,5.717 4.635,10.353 10.353,10.353 h 55.906 c 5.718,0 10.353,-4.636 10.353,-10.353 0,-5.717 -4.635,-10.353 -10.353,-10.353 z" />
	<path
   id="XMLID_936_"
   d="m 140.578,266.716 -39.532,39.531 c -4.043,4.043 -4.044,10.599 -0.001,14.642 4.045,4.043 10.599,4.042 14.641,0 l 39.532,-39.531 c 4.043,-4.043 4.044,-10.599 0.001,-14.642 -4.043,-4.041 -10.598,-4.041 -14.641,0 z" />
	<path
   id="XMLID_937_"
   d="m 366.345,225.473 h -55.906 c -5.718,0 -10.353,4.636 -10.353,10.353 0,5.717 4.635,10.353 10.353,10.353 h 55.906 c 5.718,0 10.353,-4.636 10.353,-10.353 0,-5.717 -4.635,-10.353 -10.353,-10.353 z" />
	<path
   id="XMLID_938_"
   d="m 317.76,266.716 c -4.043,-4.042 -10.599,-4.042 -14.642,0 -4.043,4.043 -4.043,10.599 0,14.642 l 39.531,39.531 c 4.044,4.043 10.599,4.042 14.642,0 4.043,-4.043 4.043,-10.599 0,-14.642 z" />
</g></g></g></g></g></svg>
