<?xml version="1.0" encoding="UTF-8" standalone="no"?>
<!-- Created with Inkscape (http://www.inkscape.org/) -->

<svg
   width="1050"
   height="700"
   viewBox="0 0 277.81249 185.20833"
   version="1.1"
   id="svg5"
   inkscape:version="1.2.2 (732a01da63, 2022-12-09)"
   sodipodi:docname="016_DiscreteData.svg"
   xml:space="preserve"
   inkscape:export-filename="016_DiscreteData.png"
   inkscape:export-xdpi="300"
   inkscape:export-ydpi="300"
   xmlns:inkscape="http://www.inkscape.org/namespaces/inkscape"
   xmlns:sodipodi="http://sodipodi.sourceforge.net/DTD/sodipodi-0.dtd"
   xmlns:xlink="http://www.w3.org/1999/xlink"
   xmlns="http://www.w3.org/2000/svg"
   xmlns:svg="http://www.w3.org/2000/svg"><sodipodi:namedview
     id="namedview7"
     pagecolor="#ffffff"
     bordercolor="#666666"
     borderopacity="1.0"
     inkscape:showpageshadow="2"
     inkscape:pageopacity="0.0"
     inkscape:pagecheckerboard="0"
     inkscape:deskcolor="#d1d1d1"
     inkscape:document-units="mm"
     showgrid="false"
     inkscape:zoom="0.72515434"
     inkscape:cx="506.09916"
     inkscape:cy="344.75419"
     inkscape:window-width="1920"
     inkscape:window-height="1017"
     inkscape:window-x="1912"
     inkscape:window-y="-8"
     inkscape:window-maximized="1"
     inkscape:current-layer="g2584" /><defs
     id="defs2"><linearGradient
       id="linearGradient6703"><stop
         style="stop-color:#000000;stop-opacity:1.0000000;"
         offset="0.0000000"
         id="stop6704" /><stop
         style="stop-color:#7f7f7f;stop-opacity:1.0000000;"
         offset="0.50000000"
         id="stop6705" /><stop
         style="stop-color:#ffffff;stop-opacity:1.0000000;"
         offset="1.0000000"
         id="stop6706" /></linearGradient><linearGradient
       id="linearGradient879"><stop
         style="stop-color:#c3c3c3;stop-opacity:0.54918033;"
         offset="0.0000000"
         id="stop880" /><stop
         style="stop-color:#d4e1e4;stop-opacity:1.0000000;"
         offset="0.50000000"
         id="stop884" /><stop
         style="stop-color:#ddf0f0;stop-opacity:0.59016395;"
         offset="1.0000000"
         id="stop881" /></linearGradient><linearGradient
       x1="1453.8076"
       y1="384.45894"
       x2="1583.5951"
       y2="383.24872"
       id="linearGradient882"
       xlink:href="#linearGradient879"
       gradientTransform="scale(0.55994156,1.7859006)"
       gradientUnits="userSpaceOnUse" /><linearGradient
       x1="568.58307"
       y1="1189.8646"
       x2="567.13932"
       y2="1038.1013"
       id="linearGradient883"
       xlink:href="#linearGradient879"
       spreadMethod="pad"
       gradientTransform="scale(1.4640424,0.68304032)"
       gradientUnits="userSpaceOnUse" /><clipPath
       id="clip0_525_147"><rect
         width="24"
         height="24"
         fill="white"
         id="rect26341" /></clipPath><style
       id="style4881">.cls-1{fill:none;stroke:#020202;stroke-miterlimit:10;stroke-width:1.91px;}</style><style
       id="style7143">.cls-1{fill:#010002;}</style></defs><g
     inkscape:label="Ebene 1"
     inkscape:groupmode="layer"
     id="layer1"><g
       id="g6749"
       transform="matrix(1.1741575,0,0,1.2056485,82.236622,41.654623)"><g
         fill="#434343"
         id="g2584"
         style="fill-rule:evenodd;stroke:none;stroke-width:1"
         transform="matrix(3.5794698,0,0,3.4859755,81.160034,-22.713896)"><g
           id="g12429"
           transform="matrix(0.02420449,0,0,0.02420449,-36.06601,-0.85064729)">
	<path
   class="st0"
   d="m 412.578,198.174 c -11.158,6.083 -20.201,20.053 -20.201,31.21 0,11.151 9.043,15.266 20.201,9.191 11.15,-6.082 20.2,-20.06 20.2,-31.211 0,-11.157 -9.05,-15.273 -20.2,-9.19 z"
   id="path12399" />
	<path
   class="st0"
   d="m 412.578,263.945 c -11.158,6.083 -20.201,20.053 -20.201,31.21 0,11.158 9.043,15.273 20.201,9.191 11.15,-6.082 20.2,-20.059 20.2,-31.21 0,-11.151 -9.05,-15.273 -20.2,-9.191 z"
   id="path12401" />
	<path
   class="st0"
   d="m 314.4,296.257 c 11.151,-6.083 20.201,-20.053 20.201,-31.211 0,-11.158 -9.05,-15.273 -20.201,-9.191 -11.164,6.083 -20.201,20.053 -20.201,31.211 0,11.158 9.037,15.273 20.201,9.191 z"
   id="path12403" />
	<path
   class="st0"
   d="m 412.578,329.723 c -11.158,6.076 -20.201,20.053 -20.201,31.204 0,11.158 9.043,15.273 20.201,9.19 11.15,-6.082 20.2,-20.053 20.2,-31.21 0,-11.151 -9.05,-15.266 -20.2,-9.184 z"
   id="path12405" />
	<path
   class="st0"
   d="m 314.4,387.399 c -11.164,6.089 -20.201,20.06 -20.201,31.21 0,11.158 9.036,15.273 20.201,9.19 11.151,-6.075 20.201,-20.052 20.201,-31.21 0,-11.151 -9.05,-15.266 -20.201,-9.19 z"
   id="path12407" />
	<path
   class="st0"
   d="m 315.602,321.627 c -11.157,6.083 -20.194,20.053 -20.194,31.211 0,11.158 9.036,15.273 20.194,9.191 11.158,-6.083 20.208,-20.053 20.208,-31.211 0,-11.158 -9.05,-15.274 -20.208,-9.191 z"
   id="path12409" />
	<path
   class="st0"
   d="M 449.528,105.602 288.466,8.989 C 278.476,2.994 267.232,0 256,0 244.775,0 233.524,2.994 223.54,8.989 L 62.472,105.602 C 43.46,117.008 31.825,137.551 31.825,159.719 v 192.562 c 0,22.168 11.634,42.711 30.647,54.117 l 161.069,96.613 c 9.983,5.988 21.234,8.989 32.459,8.989 11.232,0 22.476,-3.001 32.466,-8.989 l 161.062,-96.613 c 19.006,-11.406 30.647,-31.95 30.647,-54.117 V 159.719 c 0,-22.168 -11.641,-42.711 -30.647,-54.117 z M 250.589,492.733 c -6.016,-0.745 -11.923,-2.719 -17.314,-5.949 L 72.206,390.171 C 58.893,382.182 50.75,367.802 50.75,352.281 V 159.719 c 0,-6.022 1.242,-11.862 3.512,-17.234 L 250.59,260.245 V 492.733 Z M 59.658,133.114 c 3.371,-4.464 7.6,-8.318 12.548,-11.286 L 233.275,25.215 c 6.996,-4.196 14.857,-6.29 22.725,-6.29 7.868,0 15.723,2.095 22.725,6.29 l 161.068,96.613 c 4.948,2.968 9.177,6.821 12.547,11.286 L 256,250.881 Z m 401.586,219.167 c 0,15.521 -8.137,29.901 -21.45,37.89 l -161.068,96.613 c -5.391,3.23 -11.292,5.204 -17.314,5.949 V 260.246 L 457.74,142.486 c 2.269,5.371 3.505,11.212 3.505,17.234 v 192.561 z"
   id="path12411" />
	<path
   class="st0"
   d="m 275.522,44.678 c -9.828,-7.27 -26.028,-7.459 -36.172,-0.403 -10.144,7.049 -10.399,18.677 -0.57,25.948 9.835,7.277 26.022,7.465 36.166,0.41 10.137,-7.057 10.405,-18.672 0.576,-25.955 z"
   id="path12413" />
	<path
   class="st0"
   d="m 382.34,115.78 c -9.828,-7.284 -26.021,-7.466 -36.165,-0.417 -10.137,7.049 -10.399,18.677 -0.57,25.948 9.835,7.277 26.021,7.459 36.165,0.416 10.144,-7.063 10.405,-18.67 0.57,-25.947 z"
   id="path12415" />
	<path
   class="st0"
   d="m 165.617,113.564 c -9.829,-7.278 -26.021,-7.459 -36.165,-0.41 -10.151,7.056 -10.406,18.67 -0.577,25.948 9.828,7.284 26.022,7.459 36.172,0.41 10.136,-7.056 10.398,-18.67 0.57,-25.948 z"
   id="path12417" />
	<path
   class="st0"
   d="m 272.441,184.653 c -9.836,-7.278 -26.028,-7.459 -36.165,-0.41 -10.144,7.056 -10.406,18.67 -0.572,25.947 9.836,7.284 26.015,7.466 36.166,0.41 10.138,-7.049 10.4,-18.663 0.571,-25.947 z"
   id="path12419" />
	<path
   class="st0"
   d="m 273.354,115.102 c -9.5,-7.029 -25.135,-7.21 -34.944,-0.396 -9.802,6.814 -10.043,18.039 -0.551,25.068 9.5,7.028 25.142,7.21 34.95,0.396 9.796,-6.814 10.045,-18.039 0.545,-25.068 z"
   id="path12421" />
	<path
   class="st0"
   d="m 89.278,248.303 c 11.158,6.083 20.208,1.961 20.208,-9.19 0,-11.158 -9.05,-25.129 -20.208,-31.211 -11.15,-6.082 -20.194,-1.967 -20.194,9.191 0,11.15 9.044,25.127 20.194,31.21 z"
   id="path12423" />
	<path
   class="st0"
   d="m 202.064,422.55 c 11.157,6.082 20.194,1.967 20.194,-9.191 0,-11.151 -9.037,-25.128 -20.194,-31.211 -11.158,-6.076 -20.194,-1.96 -20.194,9.191 0,11.158 9.036,25.129 20.194,31.211 z"
   id="path12425" />
	<path
   class="st0"
   d="m 145.672,335.423 c 11.157,6.083 20.2,1.968 20.2,-9.19 0,-11.151 -9.043,-25.128 -20.2,-31.204 -11.158,-6.082 -20.194,-1.967 -20.194,9.184 0,11.157 9.036,25.128 20.194,31.21 z"
   id="path12427" />
</g><g
           style="fill:#000000"
           id="g13913"
           transform="matrix(0.04611406,0,0,0.04611406,-14.378898,1.1367598)"><path
             d="m 64.552,332.042 c -4.418,0 -8,-3.582 -8,-8 v -29.46 H 44.534 c -4.418,0 -8,-3.582 -8,-8 0,-4.418 3.582,-8 8,-8 h 19.842 c 0.117,-0.002 0.235,-0.002 0.353,0 h 261.189 c 4.418,0 8,3.582 8,8 0,4.418 -3.582,8 -8,8 H 72.552 v 29.46 c 0,4.418 -3.581,8 -8,8 z M 7.999,294.587 c -1.001,0 -2.02,-0.189 -3.005,-0.589 C 0.9,292.337 -1.072,287.671 0.589,283.577 L 22.331,229.992 C 31.935,206.328 49.15,174.868 87.61,174.868 h 28.838 c 20.719,0 37.778,9.221 50.701,27.406 0.344,0.465 3.79,4.936 6.83,8.881 2.19,2.843 4.543,5.895 6.5,8.44 2.693,3.503 2.036,8.525 -1.467,11.219 -3.503,2.694 -8.525,2.036 -11.218,-1.467 -1.954,-2.541 -4.302,-5.589 -6.489,-8.427 -5.854,-7.598 -6.933,-9.003 -7.213,-9.399 -6.237,-8.777 -13.234,-14.635 -21.414,-17.804 l -24.187,33.144 c -1.506,2.063 -3.908,3.284 -6.462,3.284 -2.554,0 -4.956,-1.221 -6.462,-3.284 L 71.38,193.717 c -14.029,5.446 -24.739,18.92 -34.224,42.291 l -21.741,53.584 c -1.261,3.11 -4.255,4.995 -7.416,4.995 z m 81.11,-103.718 12.921,17.706 12.921,-17.706 z m 136.488,72.516 h -87.934 c -4.418,0 -8,-3.582 -8,-8 0,-4.418 3.582,-8 8,-8 h 87.934 c 4.418,0 8,3.582 8,8 0,4.418 -3.581,8 -8,8 z m 109.905,-66.523 c -3.161,0 -6.155,-1.885 -7.416,-4.994 L 310.11,147.564 c -7.448,-18.352 -15.785,-29.147 -26.546,-33.775 l -19.345,26.509 c -1.506,2.063 -3.907,3.284 -6.462,3.284 -2.555,0 -4.956,-1.221 -6.462,-3.284 L 231.942,113.78 c -6.102,2.61 -11.376,7.17 -16.115,13.838 -0.486,0.683 -13.385,17.904 -17.485,23.241 -2.692,3.504 -7.714,4.161 -11.218,1.47 -3.503,-2.692 -4.161,-7.715 -1.469,-11.218 4.09,-5.323 16.519,-21.926 17.173,-22.82 10.917,-15.363 25.4,-23.184 43.006,-23.184 h 23.844 c 32.636,0 47.167,26.504 55.259,46.44 l 17.976,44.305 c 1.661,4.094 -0.311,8.76 -4.405,10.421 -0.986,0.399 -2.005,0.589 -3.006,0.589 z m -85.703,-85.755 7.958,10.903 7.957,-10.903 z m 47.709,69.532 H 177.147 c -4.418,0 -8,-3.582 -8,-8 0,-4.418 3.582,-8 8,-8 h 120.361 c 4.418,0 8,3.582 8,8 0,4.418 -3.582,8 -8,8 z M 102.03,160.667 c -23.977,0 -43.483,-19.507 -43.483,-43.484 0,-19.743 13.228,-36.456 31.285,-41.742 0.093,-0.03 0.188,-0.059 0.283,-0.086 2.178,-0.619 4.402,-1.066 6.651,-1.338 1.402,-0.17 2.827,-0.273 4.267,-0.306 0.017,-0.011 0.03,-0.001 0.046,-0.002 0.015,-0.001 0.031,0 0.045,-0.001 0.013,0 0.027,0 0.04,0 0.011,-0.001 0.021,-0.001 0.035,-0.001 0.256,-0.005 0.518,-0.012 0.769,-0.008 0.016,-0.001 0.034,-0.001 0.054,0 0.004,0 0.009,0 0.009,0 0.011,0 0.019,-0.001 0.031,0 0.022,0 0.043,0 0.065,0 v 0 c 0.012,0 0.024,0.001 0.034,0 0.011,0 0.022,0 0.034,0 0.012,0 0.027,0 0.036,0 0.012,0 0.026,0.001 0.038,0.001 0.013,0 0.027,0 0.04,0 0.001,0 0.004,0 0.005,0 22.137,0.14 40.463,16.636 42.925,38.576 0.182,1.61 0.275,3.248 0.275,4.906 -0.002,23.979 -19.508,43.485 -43.484,43.485 z M 86.71,94.375 c -7.333,4.941 -12.164,13.32 -12.164,22.808 0,15.155 12.329,27.484 27.483,27.484 13.166,0 24.198,-9.305 26.867,-21.685 -0.429,0.013 -0.859,0.019 -1.289,0.019 -18.758,0 -34.826,-11.747 -40.897,-28.626 z M 102.053,89.7 c 4.037,10.228 13.96,17.281 25.504,17.302 -4.022,-10.049 -13.814,-17.189 -25.256,-17.301 -0.013,0 -0.027,0 -0.04,0 -0.012,0.001 -0.025,0.001 -0.039,0 -0.012,-10e-4 -0.026,-0.002 -0.04,-10e-4 -0.013,0 -0.026,0 -0.039,0 -0.014,0 -0.027,0 -0.04,0 -0.016,-0.001 -0.032,-0.001 -0.05,0 z m 155.704,-3.564 c -20.588,0 -37.338,-16.75 -37.338,-37.338 0,-20.589 16.75,-37.34 37.338,-37.34 20.589,0 37.339,16.751 37.339,37.34 0,20.588 -16.751,37.338 -37.339,37.338 z m 0,-58.678 c -11.766,0 -21.338,9.573 -21.338,21.34 0,11.766 9.572,21.338 21.338,21.338 11.767,0 21.339,-9.572 21.339,-21.338 0,-11.766 -9.573,-21.34 -21.339,-21.34 z"
             id="path13905" /></g><g
           style="fill:#000000"
           id="g15401"
           transform="matrix(0.36475625,0,0,0.36475628,-35.301377,17.818986)"><g
             id="g15384">
	<g
   id="_x33_8_89_">
		<g
   id="g15381">
			<path
   d="m 7.452,24.152 h 3.435 v 5.701 h 0.633 c 0.001,0 0.001,0 0.002,0 h 0.636 v -5.701 h 3.51 v -1.059 h 17.124 v 1.104 h 3.178 v 5.656 h 0.619 c 0,0 0,0 0.002,0 h 0.619 v -5.656 h 3.736 v -0.856 c 0,-0.012 0.006,-0.021 0.006,-0.032 0,-0.072 0,-0.143 0,-0.215 h 5.721 v -1.316 h -5.721 c 0,-0.054 0,-0.108 0,-0.164 0,-0.011 -0.006,-0.021 -0.006,-0.032 V 20.75 h -8.154 v 1.028 h -7.911 v -2.652 h -0.689 c -0.001,0 -0.001,0 -0.002,0 h -0.678 v 2.652 H 15.666 V 20.674 H 7.452 v 1.104 H 1.114 v 1.316 h 6.338 z"
   id="path15367" />
			<path
   d="m 21.484,16.849 h 5.204 v -2.611 h 7.133 V 1.555 H 14.588 v 12.683 h 6.896 z M 16.537,12.288 V 3.505 h 15.335 v 8.783 z"
   id="path15369" />
			<rect
   x="18.681999"
   y="16.898001"
   width="10.809"
   height="0.537"
   id="rect15371" />
			<path
   d="m 0,43.971 h 6.896 v 2.611 H 12.1 v -2.611 h 7.134 V 31.287 H 0 Z M 1.95,33.236 h 15.334 v 8.785 H 1.95 Z"
   id="path15373" />
			<rect
   x="4.0949998"
   y="46.631001"
   width="10.808"
   height="0.537"
   id="rect15375" />
			<path
   d="m 29.491,30.994 v 12.684 h 6.895 v 2.611 h 5.205 v -2.611 h 7.133 V 30.994 Z M 46.774,41.729 H 31.44 v -8.783 h 15.334 z"
   id="path15377" />
			<rect
   x="33.584"
   y="46.338001"
   width="10.809"
   height="0.537"
   id="rect15379" />
		</g>
	</g>
</g></g><g
           style="fill:none"
           id="g17596"
           transform="matrix(0.84592579,0,0,0.84592579,-4.1234117,19.182336)"><path
             d="m 21,16 v 4 c 0,0.5523 -0.4477,1 -1,1 H 4 C 3.44772,21 3,20.5523 3,20 V 18 M 21,16 V 4 C 21,3.44772 20.5523,3 20,3 H 4 C 3.44772,3 3,3.44772 3,4 v 14 m 18,-2 -5.5171,-3.6781 c -0.2986,-0.1991 -0.681,-0.2229 -1.002,-0.0624 L 3,18"
             stroke="#000000"
             stroke-linejoin="round"
             id="path17583" /><circle
             cx="8"
             cy="9"
             r="2"
             stroke="#000000"
             stroke-linejoin="round"
             id="circle17585" /></g></g></g></g><style
     type="text/css"
     id="style12397">
	.st0{fill:#000000;}
</style></svg>
