<?xml version="1.0" encoding="UTF-8" standalone="no"?>
<!-- Created with Inkscape (http://www.inkscape.org/) -->

<svg
   width="1050"
   height="700"
   viewBox="0 0 277.81249 185.20833"
   version="1.1"
   id="svg5"
   inkscape:version="1.2.2 (732a01da63, 2022-12-09)"
   sodipodi:docname="017_ContinousData.svg"
   xml:space="preserve"
   inkscape:export-filename="017_ContinousData.png"
   inkscape:export-xdpi="300"
   inkscape:export-ydpi="300"
   xmlns:inkscape="http://www.inkscape.org/namespaces/inkscape"
   xmlns:sodipodi="http://sodipodi.sourceforge.net/DTD/sodipodi-0.dtd"
   xmlns:xlink="http://www.w3.org/1999/xlink"
   xmlns="http://www.w3.org/2000/svg"
   xmlns:svg="http://www.w3.org/2000/svg"><sodipodi:namedview
     id="namedview7"
     pagecolor="#ffffff"
     bordercolor="#666666"
     borderopacity="1.0"
     inkscape:showpageshadow="2"
     inkscape:pageopacity="0.0"
     inkscape:pagecheckerboard="0"
     inkscape:deskcolor="#d1d1d1"
     inkscape:document-units="mm"
     showgrid="false"
     inkscape:zoom="0.72515434"
     inkscape:cx="506.09916"
     inkscape:cy="344.75419"
     inkscape:window-width="1920"
     inkscape:window-height="1017"
     inkscape:window-x="1912"
     inkscape:window-y="-8"
     inkscape:window-maximized="1"
     inkscape:current-layer="g22080" /><defs
     id="defs2"><linearGradient
       id="linearGradient6703"><stop
         style="stop-color:#000000;stop-opacity:1.0000000;"
         offset="0.0000000"
         id="stop6704" /><stop
         style="stop-color:#7f7f7f;stop-opacity:1.0000000;"
         offset="0.50000000"
         id="stop6705" /><stop
         style="stop-color:#ffffff;stop-opacity:1.0000000;"
         offset="1.0000000"
         id="stop6706" /></linearGradient><linearGradient
       id="linearGradient879"><stop
         style="stop-color:#c3c3c3;stop-opacity:0.54918033;"
         offset="0.0000000"
         id="stop880" /><stop
         style="stop-color:#d4e1e4;stop-opacity:1.0000000;"
         offset="0.50000000"
         id="stop884" /><stop
         style="stop-color:#ddf0f0;stop-opacity:0.59016395;"
         offset="1.0000000"
         id="stop881" /></linearGradient><linearGradient
       x1="1453.8076"
       y1="384.45894"
       x2="1583.5951"
       y2="383.24872"
       id="linearGradient882"
       xlink:href="#linearGradient879"
       gradientTransform="scale(0.55994156,1.7859006)"
       gradientUnits="userSpaceOnUse" /><linearGradient
       x1="568.58307"
       y1="1189.8646"
       x2="567.13932"
       y2="1038.1013"
       id="linearGradient883"
       xlink:href="#linearGradient879"
       spreadMethod="pad"
       gradientTransform="scale(1.4640424,0.68304032)"
       gradientUnits="userSpaceOnUse" /><clipPath
       id="clip0_525_147"><rect
         width="24"
         height="24"
         fill="white"
         id="rect26341" /></clipPath><style
       id="style4881">.cls-1{fill:none;stroke:#020202;stroke-miterlimit:10;stroke-width:1.91px;}</style><style
       id="style7143">.cls-1{fill:#010002;}</style></defs><g
     inkscape:label="Ebene 1"
     inkscape:groupmode="layer"
     id="layer1"><g
       id="g6749"
       transform="matrix(1.1741575,0,0,1.2056485,82.236622,41.654623)"><g
         fill="#434343"
         id="g2584"
         style="fill-rule:evenodd;stroke:none;stroke-width:1"
         transform="matrix(3.5794698,0,0,3.4859755,81.160034,-22.713896)"><g
           style="fill:none"
           id="g19891"
           transform="matrix(0.79623651,0,0,0.79623651,-39.988786,-2.1659019)"><path
             d="m 15,4 h 5 m -5,4 h 5 m -3,4 h 3 M 8,15.9998 c -0.55228,0 -1,0.4477 -1,1 0,0.5523 0.44772,1 1,1 0.55228,0 1,-0.4477 1,-1 0,-0.5523 -0.44772,-1 -1,-1 z m 0,0 V 9 m 0,7.9998 0.00707,0.0071 M 12,16.9998 c 0,2.2092 -1.7909,4 -4,4 -2.20914,0 -4,-1.7908 -4,-4 0,-1.0144 0.37764,-1.9407 1,-2.6458 V 6 C 5,4.34315 6.34315,3 8,3 c 1.65685,0 3,1.34315 3,3 v 8.354 c 0.6224,0.7051 1,1.6314 1,2.6458 z"
             stroke="#000000"
             stroke-width="2"
             stroke-linecap="round"
             stroke-linejoin="round"
             id="path19882"
             style="stroke-width:1.34260816;stroke-dasharray:none" /></g><g
           style="fill:#000000"
           id="g22080"
           transform="matrix(0.62743256,0,0,0.62743259,-13.264714,-1.9778061)"><path
             id="path22071"
             d="M 3.6542969,1.2851562 C 2.8664033,1.659248 3.2649272,2.9148139 4.1195312,2.7988281 4.7237916,2.7922352 5.485365,2.6097932 5.2985487,3.4779118 5.6101173,6.2315589 6.4169242,9.0565449 8.5234375,10.998047 6.3947601,13.099706 5.7548312,16.21523 5.3897672,19.060286 c -0.086554,0.722075 -0.1286375,1.413002 -0.1749234,2.140886 -0.6881923,0.03081 -1.8591351,-0.236602 -1.9882813,0.723047 -0.081988,0.87831 0.9555773,0.951511 1.5929687,0.874609 5.0852811,-0.01496 10.1773528,0.02991 15.2583938,-0.02241 0.928769,-0.04059 0.901637,-1.541994 -0.02459,-1.558491 -0.482253,-0.144645 -1.476539,0.319788 -1.301009,-0.503643 -0.22591,-3.127387 -0.714015,-6.507914 -2.691777,-9.089284 -0.512951,-0.421727 -0.687864,-0.795605 -0.02299,-1.191822 1.853841,-2.1137757 2.490677,-4.8984373 2.731974,-7.6343499 0.692515,-0.034003 1.872105,0.2421462 2.003907,-0.7230469 0.08199,-0.87831 -0.955578,-0.9515109 -1.592969,-0.8746093 -5.085281,0.014962 -10.1773531,-0.02991 -15.2583944,0.02241 -0.089259,0.020525 -0.1785185,0.04105 -0.2677777,0.061575 z m 3.4042969,1.5136719 c 3.3691402,0 6.7382812,0 10.1074222,0 -0.261111,2.5403904 -0.833642,5.352941 -2.873504,7.0891902 -0.489483,0.3411147 -1.316283,0.7667027 -0.91002,1.4812447 0.468278,0.530984 1.214052,0.818231 1.597977,1.464721 1.532895,2.250213 1.917052,5.050606 2.154389,7.703713 0.32407,0.817994 -0.37465,0.689658 -0.964155,0.663475 -3.119401,0 -6.238802,0 -9.358203,0 0.2170551,-2.844771 0.5494395,-5.854999 2.1532307,-8.293696 0.39065,-0.636616 1.0542963,-0.996711 1.6163003,-1.440679 C 11.043563,10.824265 10.379343,10.259335 9.8398438,9.9921875 7.6935591,8.2830426 7.0999888,5.3882103 6.8339844,2.7988281 c 0.07487,0 0.1497396,0 0.2246094,0 z M 11.664062,13.544922 c -0.918303,0.878276 -2.0416926,1.718567 -2.4550776,2.964844 -0.018563,1.095661 -0.00236,2.192832 -0.00781,3.289062 1.8658851,0 3.7317711,0 5.5976561,0 -0.04586,-1.159849 0.08981,-2.345212 -0.06383,-3.490334 C 14.146783,15.056176 13.014931,14.164069 12,13.263672 c -0.111979,0.09375 -0.223958,0.1875 -0.335938,0.28125 z" /></g><g
           style="fill:#000000"
           id="g23546"
           transform="matrix(0.74848909,0,0,0.74848912,-38.330649,18.137834)"><path
             d="M 2,2 V 4 H 22 V 2 Z M 2,6 V 8 H 7 V 6 Z m 7,0 v 2 h 6 V 6 Z m 8,0 v 2 h 5 V 6 Z"
             id="path23534" /><path
             d="M 14.6,10.9 H 17 L 13.2,22 H 10.6 L 6.9,10.9 H 9.3 L 12,20 Z"
             id="path23536" /></g><g
           style="fill:#000000"
           id="g23557"
           transform="matrix(0.77019244,0,0,0.77019248,-15.281681,22.376189)"><path
             d="M 2,2 V 4 H 22 V 2 Z M 2,6 V 8 H 7 V 6 Z m 7,0 v 2 h 6 V 6 Z m 8,0 v 2 h 5 V 6 Z M 14.8,22.1 14,19.5 H 10 L 9.2,22.1 H 6.7 L 10.6,11 h 2.9 l 3.9,11.1 z M 13.5,17.5 C 13.4324,17.5 12,12.7 12,12.7 l -1.4,4.8 z"
             id="path23548" /></g><g
           style="fill:#000000"
           id="g25028"
           transform="matrix(0.29479781,0,0,0.29479782,4.8937622,8.5719596)"><g
             id="g25017">
	<g
   id="g25015">
		<path
   id="path25011"
   d="m 51.835938,3.8164062 c -1.392694,0.1372877 -2.10596,1.6627876 -1.875,2.9277344 0,7.6503904 -10e-7,15.3007814 0,22.9511714 -2.200672,1.265423 -4.312666,2.7038 -6.572606,3.852072 -1.313447,0.412727 -2.611342,-0.271297 -3.641815,-1.032282 -1.914547,-1.177631 -3.766372,-2.737261 -6.132732,-2.855361 -1.959235,-0.196436 -3.875395,0.50148 -5.506035,1.540581 -1.593236,0.796132 -3.095564,1.814734 -4.764,2.43249 -1.310141,0.283026 -2.534983,-0.416787 -3.526157,-1.195117 -1.80788,-1.220201 -3.645318,-2.724076 -5.938879,-2.763581 C 11.950563,29.49515 10.10609,30.272976 8.5083103,31.2793 7.387001,31.889884 6.2665742,32.502091 5.1445312,33.111328 5.1392727,23.951022 5.1636784,14.788182 5.1190557,5.6294664 4.945955,4.0205319 2.738036,3.1952616 1.5800781,4.3554688 0.78318281,5.0267803 0.79024701,6.1106624 0.85541029,7.0570312 0.86676098,20.290435 0.82326492,33.525381 0.88671875,46.757812 1.160877,49.452591 3.8254651,51.576773 6.5109375,51.292996 20.912049,51.281547 35.314703,51.325375 49.714844,51.261719 52.409148,50.988922 54.532746,48.322445 54.250029,45.6375 54.245762,32.300428 54.267261,18.961118 54.225347,5.6254493 54.102532,4.5030753 52.923694,3.7044377 51.835938,3.8164062 Z M 32.818359,33.935547 c 1.723798,-0.100566 2.966391,1.293007 4.382312,2.038685 1.605654,1.092023 3.417205,2.114543 5.429342,1.972663 1.674207,0.01243 3.250348,-0.667685 4.603006,-1.607888 0.909954,-0.54595 1.819594,-1.092425 2.729872,-1.637835 -3.67e-4,4.101562 -0.0015,8.203125 -0.002,12.304687 -14.938803,0 -29.877605,0 -44.8164068,0 10e-8,-3.002604 0,-6.005208 0,-9.007812 2.4851195,-1.304584 4.8966128,-2.771246 7.4428288,-3.961305 1.297114,-0.349296 2.5785,0.300836 3.565165,1.096124 1.815845,1.19616 3.513979,2.673189 5.766278,2.808434 1.927912,0.223277 3.835649,-0.434534 5.442315,-1.463667 1.614982,-0.807553 3.140338,-1.837362 4.828444,-2.473309 0.20647,-0.04493 0.418488,-0.05743 0.628797,-0.06878 z" />
		<path
   d="m 29.686,6.723 h -4.264 c -1.177,0 -2.132,0.954 -2.132,2.132 v 6.396 h -3.152 c -1.177,0 -1.457,0.675 -0.624,1.508 l 6.533,6.533 c 0.833,0.833 2.182,0.833 3.014,0 l 6.533,-6.533 c 0.834,-0.833 0.554,-1.508 -0.623,-1.508 H 31.819 V 8.855 C 31.817,7.677 30.862,6.723 29.686,6.723 Z"
   id="path25013" />
	</g>
</g></g></g></g></g><style
     type="text/css"
     id="style12397">
	.st0{fill:#000000;}
</style></svg>
