<?xml version="1.0" encoding="UTF-8" standalone="no"?>
<!-- Created with Inkscape (http://www.inkscape.org/) -->

<svg
   width="1033.2263"
   height="572.25012"
   viewBox="0 0 273.37445 151.40784"
   version="1.1"
   id="svg5"
   inkscape:version="1.3.2 (091e20e, 2023-11-25, custom)"
   sodipodi:docname="PDF_000.svg"
   xml:space="preserve"
   inkscape:export-filename="PDF_000.png"
   inkscape:export-xdpi="300"
   inkscape:export-ydpi="300"
   xmlns:inkscape="http://www.inkscape.org/namespaces/inkscape"
   xmlns:sodipodi="http://sodipodi.sourceforge.net/DTD/sodipodi-0.dtd"
   xmlns:xlink="http://www.w3.org/1999/xlink"
   xmlns="http://www.w3.org/2000/svg"
   xmlns:svg="http://www.w3.org/2000/svg"><sodipodi:namedview
     id="namedview7"
     pagecolor="#ffffff"
     bordercolor="#666666"
     borderopacity="1.0"
     inkscape:showpageshadow="2"
     inkscape:pageopacity="0.0"
     inkscape:pagecheckerboard="0"
     inkscape:deskcolor="#d1d1d1"
     inkscape:document-units="mm"
     showgrid="false"
     inkscape:zoom="0.72515434"
     inkscape:cx="239.94892"
     inkscape:cy="356.47584"
     inkscape:window-width="1920"
     inkscape:window-height="1017"
     inkscape:window-x="3832"
     inkscape:window-y="1300"
     inkscape:window-maximized="1"
     inkscape:current-layer="layer1" /><defs
     id="defs2"><inkscape:path-effect
   effect="bspline"
   id="path-effect1"
   is_visible="true"
   lpeversion="1.3"
   weight="33.333333"
   steps="2"
   helper_size="0"
   apply_no_weight="true"
   apply_with_weight="true"
   only_selected="false"
   uniform="false" /><inkscape:path-effect
   effect="bspline"
   id="path-effect92"
   is_visible="true"
   lpeversion="1.3"
   weight="33.333333"
   steps="2"
   helper_size="0"
   apply_no_weight="true"
   apply_with_weight="true"
   only_selected="false"
   uniform="false" /><marker
   style="overflow:visible"
   id="marker91"
   refX="0"
   refY="0"
   orient="auto-start-reverse"
   inkscape:stockid="Concave triangle arrow"
   markerWidth="1"
   markerHeight="1"
   viewBox="0 0 1 1"
   inkscape:isstock="true"
   inkscape:collect="always"
   preserveAspectRatio="xMidYMid"><path
     transform="scale(0.7)"
     d="M -2,-4 9,0 -2,4 c 2,-2.33 2,-5.66 0,-8 z"
     style="fill:context-stroke;fill-rule:evenodd;stroke:none"
     id="path91" /></marker><inkscape:path-effect
   effect="bspline"
   id="path-effect90"
   is_visible="true"
   lpeversion="1.3"
   weight="33.333333"
   steps="2"
   helper_size="0"
   apply_no_weight="true"
   apply_with_weight="true"
   only_selected="false"
   uniform="false" /><inkscape:path-effect
   effect="bspline"
   id="path-effect79"
   is_visible="true"
   lpeversion="1.3"
   weight="33.333333"
   steps="2"
   helper_size="0"
   apply_no_weight="true"
   apply_with_weight="true"
   only_selected="false"
   uniform="false" /><clipPath
   clipPathUnits="userSpaceOnUse"
   id="clipPath51"><path
     id="path51"
     style="stroke-width:0.0999999;stroke-linecap:square;paint-order:markers fill stroke;stop-color:#000000"
     d="m 1806.4991,-753.5228 h 1637.2646 v 66.90533 H 1806.4991 Z" /></clipPath><clipPath
   clipPathUnits="userSpaceOnUse"
   id="clipPath25"><rect
     style="fill:#ff0000;stroke:none;stroke-width:3;stroke-linecap:square;stroke-linejoin:miter;paint-order:stroke markers fill;stop-color:#000000"
     id="rect25-8"
     width="78"
     height="45.033199"
     x="763.61322"
     y="452.82422" /></clipPath><linearGradient
   id="swatch56"
   inkscape:swatch="solid"><stop
     style="stop-color:#000000;stop-opacity:1;"
     offset="0"
     id="stop57" /></linearGradient><inkscape:path-effect
   effect="bspline"
   id="path-effect48"
   is_visible="true"
   lpeversion="1.3"
   weight="33.333333"
   steps="2"
   helper_size="0"
   apply_no_weight="true"
   apply_with_weight="true"
   only_selected="false"
   uniform="false" /><linearGradient
   id="linearGradient12025"
   inkscape:swatch="solid"><stop
     style="stop-color:#c0c0c0;stop-opacity:1;"
     offset="0"
     id="stop12023" /></linearGradient><linearGradient
   id="linearGradient6703"><stop
     style="stop-color:#000000;stop-opacity:1.0000000;"
     offset="0.0000000"
     id="stop6704" /><stop
     style="stop-color:#7f7f7f;stop-opacity:1.0000000;"
     offset="0.50000000"
     id="stop6705" /><stop
     style="stop-color:#ffffff;stop-opacity:1.0000000;"
     offset="1.0000000"
     id="stop6706" /></linearGradient><linearGradient
   id="linearGradient879"><stop
     style="stop-color:#c3c3c3;stop-opacity:0.54918033;"
     offset="0.0000000"
     id="stop880" /><stop
     style="stop-color:#d4e1e4;stop-opacity:1.0000000;"
     offset="0.50000000"
     id="stop884" /><stop
     style="stop-color:#ddf0f0;stop-opacity:0.59016395;"
     offset="1.0000000"
     id="stop881" /></linearGradient><linearGradient
   x1="1453.8076"
   y1="384.45895"
   x2="1583.5951"
   y2="383.24872"
   id="linearGradient882"
   xlink:href="#linearGradient879"
   gradientTransform="scale(0.55994156,1.7859006)"
   gradientUnits="userSpaceOnUse" /><linearGradient
   x1="568.58307"
   y1="1189.8646"
   x2="567.13934"
   y2="1038.1013"
   id="linearGradient883"
   xlink:href="#linearGradient879"
   spreadMethod="pad"
   gradientTransform="scale(1.4640424,0.68304032)"
   gradientUnits="userSpaceOnUse" /><clipPath
   id="clip0_525_147"><rect
     width="24"
     height="24"
     fill="#ffffff"
     id="rect26341"
     x="0"
     y="0" /></clipPath><style
   id="style4881">.cls-1{fill:none;stroke:#020202;stroke-miterlimit:10;stroke-width:1.91px;}</style><clipPath
   id="clipPath1983">
      <path
   clip-rule="nonzero"
   d="M 0,0 H 6 V 6.226563 H 0 Z m 0,0"
   id="path4278" />
    </clipPath>
  <clipPath
   id="clipPath3454">
      <path
   clip-rule="nonzero"
   d="M 0,1 H 6 V 7.75 H 0 Z m 0,0"
   id="path4704" />
    </clipPath>
  <clipPath
   id="clipPath3049">
      <path
   clip-rule="nonzero"
   d="M 0,1 H 6 V 7.75 H 0 Z m 0,0"
   id="path363" />
    </clipPath>
  
  
  <clipPath
   id="clipPath6213">
      <path
   clip-rule="nonzero"
   d="M 0,3 H 10 V 14.445313 H 0 Z m 0,0"
   id="path2614" />
    </clipPath>
  <clipPath
   id="clipPath4535">
      <path
   clip-rule="nonzero"
   d="M 0,3 H 10 V 14.445313 H 0 Z m 0,0"
   id="path4179" />
    </clipPath>
  <clipPath
   id="clipPath4555">
      <path
   clip-rule="nonzero"
   d="M 0,3 H 10 V 14.445313 H 0 Z m 0,0"
   id="path9849" />
    </clipPath>
  <clipPath
   id="clipPath6568">
      <path
   clip-rule="nonzero"
   d="M 0,3 H 10 V 14.445313 H 0 Z m 0,0"
   id="path4298" />
    </clipPath>
  
  

  
  


  
  

    
  
    
  
    
  
    
  
    
  
    
  
    
  
      
    
      
    
      
    
      
    
      
    
      
    
      
    
        
      <clipPath
   clipPathUnits="userSpaceOnUse"
   id="clipPath16"><g
     id="g19"><g
       id="g18"><g
         id="g17"><path
           clip-rule="nonzero"
           d="m 166.93856,132.06177 h 5.00289 v 5.6986 h -5.00289 z m 0,0"
           id="path16"
           style="stroke-width:0.500289" /></g></g></g></clipPath>
        
      <clipPath
   clipPathUnits="userSpaceOnUse"
   id="clipPath20"><g
     id="g23"><g
       id="g22"><g
         id="g21"><path
           clip-rule="nonzero"
           d="m 205.61254,132.7573 h 5.00289 v 5.52663 h -5.00289 z m 0,0"
           id="path20"
           style="stroke-width:0.500289" /></g></g></g></clipPath>
        
      <clipPath
   clipPathUnits="userSpaceOnUse"
   id="clipPath24"><g
     id="g27"><g
       id="g26"><g
         id="g25"><path
           clip-rule="nonzero"
           d="m 193.92754,132.33146 h 5.00289 v 5.38397 h -5.00289 z m 0,0"
           id="path24"
           style="stroke-width:0.500289" /></g></g></g></clipPath>
      
    
      
    
      
    <filter
   inkscape:label="Fill Background"
   inkscape:menu="Fill and Transparency"
   inkscape:menu-tooltip="Adds a colorizable opaque background"
   style="color-interpolation-filters:sRGB"
   id="filter50"
   x="0"
   y="0"
   width="1"
   height="1"><feFlood
     result="result1"
     flood-color="rgb(255,255,255)"
     flood-opacity="0.88235294117647056"
     id="feFlood49" /><feImage
     xlink:href=""
     result="result2"
     id="feImage49" /><feBlend
     result="result4"
     in2="result1"
     mode="multiply"
     id="feBlend49" /><feMerge
     result="result3"
     id="feMerge50"><feMergeNode
       in="result1"
       id="feMergeNode49" /><feMergeNode
       in="SourceGraphic"
       id="feMergeNode50" /></feMerge></filter><inkscape:path-effect
   effect="bspline"
   id="path-effect48-6"
   is_visible="true"
   lpeversion="1.3"
   weight="33.333333"
   steps="2"
   helper_size="0"
   apply_no_weight="true"
   apply_with_weight="true"
   only_selected="false"
   uniform="false" /><filter
   inkscape:label="Fill Background"
   inkscape:menu="Fill and Transparency"
   inkscape:menu-tooltip="Adds a colorizable opaque background"
   style="color-interpolation-filters:sRGB"
   id="filter50-3"
   x="0"
   y="0"
   width="1"
   height="1"><feFlood
     result="result1"
     flood-color="rgb(255,255,255)"
     flood-opacity="0.88235294117647056"
     id="feFlood49-6" /><feImage
     xlink:href=""
     result="result2"
     id="feImage49-6" /><feBlend
     result="result4"
     in2="result1"
     mode="multiply"
     id="feBlend49-5" /><feMerge
     result="result3"
     id="feMerge50-3"><feMergeNode
       in="result1"
       id="feMergeNode49-3" /><feMergeNode
       in="SourceGraphic"
       id="feMergeNode50-1" /></feMerge></filter><inkscape:path-effect
   effect="bspline"
   id="path-effect48-8"
   is_visible="true"
   lpeversion="1.3"
   weight="33.333333"
   steps="2"
   helper_size="0"
   apply_no_weight="true"
   apply_with_weight="true"
   only_selected="false"
   uniform="false" /><inkscape:path-effect
   effect="bspline"
   id="path-effect92-7"
   is_visible="true"
   lpeversion="1.3"
   weight="33.333333"
   steps="2"
   helper_size="0"
   apply_no_weight="true"
   apply_with_weight="true"
   only_selected="false"
   uniform="false" /><marker
   style="overflow:visible"
   id="marker91-4"
   refX="0"
   refY="0"
   orient="auto-start-reverse"
   inkscape:stockid="Concave triangle arrow"
   markerWidth="1"
   markerHeight="1"
   viewBox="0 0 1 1"
   inkscape:isstock="true"
   inkscape:collect="always"
   preserveAspectRatio="xMidYMid"><path
     transform="scale(0.7)"
     d="M -2,-4 9,0 -2,4 c 2,-2.33 2,-5.66 0,-8 z"
     style="fill:context-stroke;fill-rule:evenodd;stroke:none"
     id="path91-4" /></marker><inkscape:path-effect
   effect="bspline"
   id="path-effect1-9"
   is_visible="true"
   lpeversion="1.3"
   weight="33.333333"
   steps="2"
   helper_size="0"
   apply_no_weight="true"
   apply_with_weight="true"
   only_selected="false"
   uniform="false" /></defs><g
     inkscape:label="Ebene 1"
     inkscape:groupmode="layer"
     id="layer1"
     transform="translate(-1.13612, -29.3687)"><line
       style="fill:none;stroke:#000000;stroke-width:0.453819;stroke-linecap:round;stroke-linejoin:round;stroke-miterlimit:10"
       id="line2443"
       y2="133.07253"
       x2="250.77074"
       y1="133.07253"
       x1="28.171978"
       stroke-miterlimit="10" /><path
       style="fill:#ececec;fill-opacity:1;stroke:#000000;stroke-width:1.50001;stroke-linecap:round;stroke-linejoin:round;stroke-miterlimit:10;stroke-dasharray:none"
       id="tst"
       d="m 28.258518,133.04226 c 5.021649,-0.0211 10.043283,-0.0616 15.062514,-0.19303 4.799567,-0.12641 9.617309,-0.33036 14.386629,-0.93182 5.049477,-0.63718 10.008791,-1.69427 14.761768,-3.61786 4.736047,-1.91753 8.92327,-4.82499 12.791612,-8.22378 3.760634,-3.30379 7.051118,-7.36394 9.94586,-11.49429 2.978266,-4.25014 5.739889,-8.658238 8.301839,-13.194598 2.64123,-4.676134 5.1693,-9.416412 7.67679,-14.171209 2.45727,-4.660406 4.91876,-9.315364 7.47468,-13.917679 2.49781,-4.499451 5.19771,-8.967438 8.3581,-12.995522 1.63738,-2.086957 3.44115,-3.948213 5.46094,-5.62613 1.96473,-1.632533 4.33729,-2.552874 6.81997,-2.747713 2.51778,-0.197259 4.90789,1.091582 6.93916,2.487527 2.0779,1.428011 3.80543,3.435701 5.41134,5.392563 3.30864,4.028689 5.97346,8.620719 8.57715,13.16071 2.52322,4.400216 4.85525,8.92145 7.22357,13.413639 2.49418,4.731806 4.98715,9.464821 7.61506,14.118567 2.54984,4.515784 5.22133,8.969255 8.18747,13.201255 3.04179,4.34031 6.371,8.42104 10.19698,12.03162 3.75882,3.54764 8.05495,6.31471 12.70993,8.37927 4.48008,1.98774 9.39583,3.07085 14.21356,3.67896 4.95084,0.62446 9.92106,0.89373 14.90398,1.04379 4.92725,0.14824 9.85933,0.18274 14.7884,0.20391 0.25051,3.9e-4 0.4998,0.001 0.75032,0.002"
       stroke-miterlimit="10" /><path
       style="fill:#000000;stroke:#000000;stroke-width:0.5;stroke-dasharray:none;stroke-opacity:1;marker-end:url(#marker91)"
       d="m 8.0685522,138.09843 c 0,-9.24325 0,-18.48649 0,-27.72973"
       id="path1"
       inkscape:path-effect="#path-effect1"
       inkscape:original-d="m 8.0685522,138.09843 c 0,-9.24325 0,-18.48649 0,-27.72973"
       transform="translate(13.673916,-19.865878)" /><path
       style="fill:#000000;stroke:#000000;stroke-width:0.5;stroke-dasharray:none;stroke-opacity:1;marker-end:url(#marker91-4)"
       d="m 8.0685522,138.09843 c 0,-9.24325 0,-18.48649 0,-27.72973"
       id="path1-7"
       inkscape:path-effect="#path-effect1-9"
       inkscape:original-d="m 8.0685522,138.09843 c 0,-9.24325 0,-18.48649 0,-27.72973"
       transform="rotate(90,24.83845,133.60245)" /><g
       inkscape:label=""
       transform="rotate(-90,61.484822,50.582584)"
       id="g1"><g
   fill="#000000"
   fill-opacity="1"
   id="g6"
   transform="matrix(0.881944,0,0,0.881944,-81.5137,-68.4007)">
    <g
   id="use5"
   transform="translate(91.925003,81.962997)">
      <path
   d="M 1.6875,1.6875 C 1.65625,1.828125 1.640625,1.84375 1.640625,1.890625 c 0,0.21875 0.1875,0.28125 0.296875,0.28125 0.046875,0 0.265625,-0.03125 0.359375,-0.265625 C 2.328125,1.828125 2.375,1.5 2.65625,0.09375 c 0.078125,0 0.15625,0.015625 0.328125,0.015625 1.65625,0 3.1875,-1.5625 3.1875,-3.140625 0,-0.78125 -0.390625,-1.375 -1.140625,-1.375 -1.4375,0 -2.046875,1.9375 -2.640625,3.875 C 1.3125,-0.734375 0.75,-1.28125 0.75,-2 c 0,-0.28125 0.234375,-1.375 0.828125,-2.0625 0.09375,-0.09375 0.09375,-0.109375 0.09375,-0.140625 0,-0.03125 -0.03125,-0.09375 -0.125,-0.09375 -0.28125,0 -1.046875,1.453125 -1.046875,2.40625 0,0.9375 0.65625,1.65625 1.71875,1.90625 z m 1.390625,-2.15625 c -0.09375,0 -0.109375,0 -0.1875,-0.015625 -0.125,0 -0.125,0 -0.125,-0.03125 0,-0.015625 0.171875,-0.9375 0.1875,-1.078125 0.3125,-1.28125 1.09375,-2.234375 1.984375,-2.234375 0.6875,0 0.953125,0.53125 0.953125,1.015625 0,1.125 -1.28125,2.34375 -2.8125,2.34375 z m 0,0"
   id="path9" />
    </g>
  </g>
  <g
   fill="#000000"
   fill-opacity="1"
   id="g8"
   transform="matrix(0.881944,0,0,0.881944,-81.5137,-68.4007)">
    <g
   id="use6"
   transform="translate(98.442001,83.734001)">
      <path
   d="M 0.375,1.125 C 0.34375,1.21875 0.34375,1.265625 0.34375,1.265625 c 0,0.15625 0.125,0.21875 0.234375,0.21875 0.265625,0 0.3125,-0.21875 0.34375,-0.34375 0.015625,-0.03125 0.15625,-0.59375 0.3125,-1.265625 0.21875,0.140625 0.5,0.1875 0.75,0.1875 0.59375,0 0.984375,-0.484375 1,-0.5 0.140625,0.484375 0.625,0.5 0.71875,0.5 0.25,0 0.421875,-0.140625 0.5625,-0.359375 C 4.40625,-0.578125 4.5,-0.96875 4.5,-1 c 0,-0.09375 -0.09375,-0.09375 -0.109375,-0.09375 -0.09375,0 -0.109375,0.03125 -0.15625,0.21875 -0.078125,0.34375 -0.21875,0.75 -0.5,0.75 C 3.546875,-0.125 3.5,-0.28125 3.5,-0.46875 c 0,-0.109375 0.046875,-0.375 0.109375,-0.546875 0.046875,-0.1875 0.109375,-0.46875 0.140625,-0.625 l 0.171875,-0.625 C 3.953125,-2.4375 4.03125,-2.75 4.03125,-2.78125 4.03125,-2.921875 3.921875,-3 3.8125,-3 3.734375,-3 3.59375,-2.96875 3.515625,-2.84375 3.5,-2.796875 3.4375,-2.578125 3.40625,-2.4375 l -0.140625,0.578125 -0.21875,0.875 C 3,-0.8125 3,-0.796875 2.9375,-0.703125 2.71875,-0.390625 2.40625,-0.125 2.015625,-0.125 1.4375,-0.125 1.4375,-0.625 1.4375,-0.75 c 0,-0.171875 0.03125,-0.265625 0.125,-0.640625 0.0625,-0.3125 0.078125,-0.359375 0.15625,-0.625 L 1.8125,-2.40625 c 0.03125,-0.15625 0.109375,-0.421875 0.109375,-0.4375 0,-0.125 -0.109375,-0.234375 -0.25,-0.234375 -0.25,0 -0.3125,0.25 -0.328125,0.328125 z m 0,0"
   id="path10" />
    </g>
    <g
   id="use7"
   transform="translate(103.286,83.734001)">
      <path
   d="m 1.46875,-0.109375 c 0,0.375 -0.0625,0.828125 -0.546875,1.265625 C 0.90625,1.1875 0.875,1.21875 0.875,1.25 c 0,0.046875 0.0625,0.09375 0.09375,0.09375 0.109375,0 0.703125,-0.5625 0.703125,-1.390625 0,-0.421875 -0.171875,-0.75 -0.5,-0.75 -0.21875,0 -0.390625,0.171875 -0.390625,0.390625 C 0.78125,-0.1875 0.9375,0 1.1875,0 1.359375,0 1.46875,-0.109375 1.46875,-0.109375 Z m 0,0"
   id="path11" />
    </g>
    <g
   id="use8"
   transform="translate(105.65221,83.734001)">
      <path
   d="m 4.078125,-2.53125 c 0.109375,0 0.1875,0 0.25,-0.046875 0.09375,-0.078125 0.125,-0.1875 0.125,-0.234375 C 4.453125,-3 4.265625,-3 4.140625,-3 H 2.359375 C 1.25,-3 0.40625,-1.90625 0.40625,-1.0625 c 0,0.640625 0.484375,1.125 1.203125,1.125 0.875,0 1.875,-0.78125 1.875,-1.859375 0,-0.109375 0,-0.421875 -0.203125,-0.734375 z M 1.609375,-0.125 c -0.375,0 -0.6875,-0.25 -0.6875,-0.75 0,-0.203125 0.125,-1.65625 1.328125,-1.65625 0.34375,0 0.71875,0.140625 0.71875,0.65625 0,0.140625 -0.0625,0.765625 -0.40625,1.234375 C 2.265625,-0.265625 1.875,-0.125 1.609375,-0.125 Z m 0,0"
   id="path12" />
    </g>
  </g>
  <g
   fill="#000000"
   fill-opacity="1"
   id="g9"
   transform="matrix(0.881944,0,0,0.881944,-81.5137,-68.4007)">
    <g
   id="use9"
   transform="translate(110.52,81.740997)">
      <path
   d="M 2.9375,-0.96875 H 2.71875 c 0,0.09375 -0.0625,0.40625 -0.140625,0.453125 -0.03125,0.03125 -0.453125,0.03125 -0.53125,0.03125 H 1.078125 C 1.40625,-0.71875 1.765625,-1 2.0625,-1.203125 c 0.453125,-0.3125 0.875,-0.59375 0.875,-1.125 0,-0.640625 -0.609375,-0.984375 -1.3125,-0.984375 -0.671875,0 -1.171875,0.375 -1.171875,0.875 0,0.25 0.21875,0.296875 0.296875,0.296875 0.125,0 0.28125,-0.09375 0.28125,-0.296875 0,-0.171875 -0.125,-0.28125 -0.28125,-0.28125 0.140625,-0.234375 0.4375,-0.375 0.765625,-0.375 0.484375,0 0.890625,0.28125 0.890625,0.765625 0,0.421875 -0.296875,0.75 -0.671875,1.0625 l -1.21875,1.03125 C 0.46875,-0.1875 0.453125,-0.1875 0.453125,-0.15625 V 0 h 2.3125 z m 0,0"
   id="path13" />
    </g>
  </g>
</g><g
       inkscape:label=""
       transform="translate(33.598214,119.28092)"
       id="g5"><g
   fill="#000000"
   fill-opacity="1"
   id="g4"
   transform="matrix(0.881944,0,0,0.881944,-81.3346,-68.4007)">
    <g
   id="g3"
   transform="translate(91.925003,81.962997)">
      <path
   d="M 3.328125,-3.015625 C 3.390625,-3.265625 3.625,-4.1875 4.3125,-4.1875 c 0.046875,0 0.296875,0 0.5,0.125 C 4.53125,-4 4.34375,-3.765625 4.34375,-3.515625 c 0,0.15625 0.109375,0.34375 0.375,0.34375 0.21875,0 0.53125,-0.171875 0.53125,-0.578125 0,-0.515625 -0.578125,-0.65625 -0.921875,-0.65625 -0.578125,0 -0.921875,0.53125 -1.046875,0.75 -0.25,-0.65625 -0.78125,-0.75 -1.078125,-0.75 -1.03125,0 -1.609375,1.28125 -1.609375,1.53125 0,0.109375 0.109375,0.109375 0.125,0.109375 0.078125,0 0.109375,-0.03125 0.125,-0.109375 0.34375,-1.0625 1,-1.3125 1.34375,-1.3125 0.1875,0 0.53125,0.09375 0.53125,0.671875 0,0.3125 -0.171875,0.96875 -0.53125,2.375 -0.15625,0.609375 -0.515625,1.03125 -0.953125,1.03125 -0.0625,0 -0.28125,0 -0.5,-0.125 0.25,-0.0625 0.46875,-0.265625 0.46875,-0.546875 0,-0.265625 -0.21875,-0.34375 -0.359375,-0.34375 -0.3125,0 -0.546875,0.25 -0.546875,0.578125 0,0.453125 0.484375,0.65625 0.921875,0.65625 0.671875,0 1.03125,-0.703125 1.046875,-0.75 0.125,0.359375 0.484375,0.75 1.078125,0.75 1.03125,0 1.59375,-1.28125 1.59375,-1.53125 0,-0.109375 -0.078125,-0.109375 -0.109375,-0.109375 -0.09375,0 -0.109375,0.046875 -0.140625,0.109375 -0.328125,1.078125 -1,1.3125 -1.3125,1.3125 -0.390625,0 -0.546875,-0.3125 -0.546875,-0.65625 0,-0.21875 0.046875,-0.4375 0.15625,-0.875 z m 0,0"
   id="path3" />
    </g>
  </g>
</g></g></svg>
