<?xml version="1.0" encoding="UTF-8" standalone="no"?>
<!-- Created with Inkscape (http://www.inkscape.org/) -->

<svg
   width="1050"
   height="700"
   viewBox="0 0 277.81249 185.20833"
   version="1.1"
   id="svg5"
   inkscape:version="1.2.2 (732a01da63, 2022-12-09)"
   sodipodi:docname="002_Population.svg"
   xml:space="preserve"
   inkscape:export-filename="002_Population.png"
   inkscape:export-xdpi="96"
   inkscape:export-ydpi="96"
   xmlns:inkscape="http://www.inkscape.org/namespaces/inkscape"
   xmlns:sodipodi="http://sodipodi.sourceforge.net/DTD/sodipodi-0.dtd"
   xmlns:xlink="http://www.w3.org/1999/xlink"
   xmlns="http://www.w3.org/2000/svg"
   xmlns:svg="http://www.w3.org/2000/svg"><sodipodi:namedview
     id="namedview7"
     pagecolor="#ffffff"
     bordercolor="#666666"
     borderopacity="1.0"
     inkscape:showpageshadow="2"
     inkscape:pageopacity="0.0"
     inkscape:pagecheckerboard="0"
     inkscape:deskcolor="#d1d1d1"
     inkscape:document-units="mm"
     showgrid="false"
     inkscape:zoom="1.0255231"
     inkscape:cx="550.45079"
     inkscape:cy="321.29944"
     inkscape:window-width="1920"
     inkscape:window-height="1001"
     inkscape:window-x="-9"
     inkscape:window-y="-9"
     inkscape:window-maximized="1"
     inkscape:current-layer="layer1" /><defs
     id="defs2"><linearGradient
   id="linearGradient12025"
   inkscape:swatch="solid"><stop
     style="stop-color:#c0c0c0;stop-opacity:1;"
     offset="0"
     id="stop12023" /></linearGradient><linearGradient
   id="linearGradient6703"><stop
     style="stop-color:#000000;stop-opacity:1.0000000;"
     offset="0.0000000"
     id="stop6704" /><stop
     style="stop-color:#7f7f7f;stop-opacity:1.0000000;"
     offset="0.50000000"
     id="stop6705" /><stop
     style="stop-color:#ffffff;stop-opacity:1.0000000;"
     offset="1.0000000"
     id="stop6706" /></linearGradient><linearGradient
   id="linearGradient879"><stop
     style="stop-color:#c3c3c3;stop-opacity:0.54918033;"
     offset="0.0000000"
     id="stop880" /><stop
     style="stop-color:#d4e1e4;stop-opacity:1.0000000;"
     offset="0.50000000"
     id="stop884" /><stop
     style="stop-color:#ddf0f0;stop-opacity:0.59016395;"
     offset="1.0000000"
     id="stop881" /></linearGradient><linearGradient
   x1="1453.8076"
   y1="384.45894"
   x2="1583.5951"
   y2="383.24872"
   id="linearGradient882"
   xlink:href="#linearGradient879"
   gradientTransform="scale(0.55994156,1.7859006)"
   gradientUnits="userSpaceOnUse" /><linearGradient
   x1="568.58307"
   y1="1189.8646"
   x2="567.13932"
   y2="1038.1013"
   id="linearGradient883"
   xlink:href="#linearGradient879"
   spreadMethod="pad"
   gradientTransform="scale(1.4640424,0.68304032)"
   gradientUnits="userSpaceOnUse" /><clipPath
   id="clip0_525_147"><rect
     width="24"
     height="24"
     fill="white"
     id="rect26341" /></clipPath><style
   id="style4881">.cls-1{fill:none;stroke:#020202;stroke-miterlimit:10;stroke-width:1.91px;}</style><clipPath
   id="clipPath1983">
      <path
   clip-rule="nonzero"
   d="M 0,0 H 6 V 6.226563 H 0 Z m 0,0"
   id="path4278" />
    </clipPath>
  <clipPath
   id="clipPath3454">
      <path
   clip-rule="nonzero"
   d="M 0,1 H 6 V 7.75 H 0 Z m 0,0"
   id="path4704" />
    </clipPath>
  <clipPath
   id="clipPath3049">
      <path
   clip-rule="nonzero"
   d="M 0,1 H 6 V 7.75 H 0 Z m 0,0"
   id="path363" />
    </clipPath>
  <clipPath
   id="clipPath5165">
      <path
   clip-rule="nonzero"
   d="M 0,0 H 10 V 10.761719 H 0 Z m 0,0"
   id="path1626" />
    </clipPath>
  <clipPath
   id="clipPath2469">
      <path
   clip-rule="nonzero"
   d="M 0,2 H 10 V 13.046875 H 0 Z m 0,0"
   id="path6884" />
    </clipPath>
  <clipPath
   id="clipPath6213">
      <path
   clip-rule="nonzero"
   d="M 0,3 H 10 V 14.445313 H 0 Z m 0,0"
   id="path2614" />
    </clipPath>
  <clipPath
   id="clipPath4535">
      <path
   clip-rule="nonzero"
   d="M 0,3 H 10 V 14.445313 H 0 Z m 0,0"
   id="path4179" />
    </clipPath>
  <clipPath
   id="clipPath4555">
      <path
   clip-rule="nonzero"
   d="M 0,3 H 10 V 14.445313 H 0 Z m 0,0"
   id="path9849" />
    </clipPath>
  <clipPath
   id="clipPath6568">
      <path
   clip-rule="nonzero"
   d="M 0,3 H 10 V 14.445313 H 0 Z m 0,0"
   id="path4298" />
    </clipPath>
  <clipPath
   id="clipPath5697">
      <path
   clip-rule="nonzero"
   d="M 0,2 H 10 V 13.390625 H 0 Z m 0,0"
   id="path1288" />
    </clipPath>
  </defs><g
     inkscape:label="Ebene 1"
     inkscape:groupmode="layer"
     id="layer1"><path
       d="m 86.967244,57.446693 c 3.171157,0 5.742128,2.570959 5.742128,5.742113 0,3.171147 -2.570971,5.742116 -5.742128,5.742116 -3.171151,0 -5.742119,-2.570969 -5.742119,-5.742116 0,-3.171154 2.570968,-5.742113 5.742119,-5.742113 z m -7.075108,14.28693 c 3.17115,0 5.742118,2.57096 5.742118,5.74212 0,3.17114 -2.570968,5.74211 -5.742118,5.74211 -3.171164,0 -5.742132,-2.57097 -5.742132,-5.74211 0,-3.17116 2.570968,-5.74212 5.742132,-5.74212 z m -9.160052,12.54378 h -6.459891 -6.459884 c -3.930615,0 -6.39153,3.24704 -6.39153,7.31437 V 101.6063 h 4.409135 v -8.852437 c 0,-0.41016 0.34179,-0.68359 0.683579,-0.68359 0.410151,0 0.683585,0.27343 0.683585,0.68359 v 8.818247 h 14.184411 v -8.818247 c 0,-0.41016 0.341795,-0.68359 0.683585,-0.68359 0.410151,0 0.683585,0.34179 0.683585,0.68359 v 8.818247 h 4.409128 v -9.946157 c 0.0684,-4.10151 -2.426734,-7.34855 -6.425703,-7.34855 z m 1.606424,-26.83071 c 3.171157,0 5.742124,2.570959 5.742124,5.742113 0,3.171147 -2.570967,5.742116 -5.742124,5.742116 -3.17115,0 -5.742118,-2.570969 -5.742118,-5.742116 0,-3.171154 2.570968,-5.742113 5.742118,-5.742113 z m 16.884571,20.02905 c 0,3.17866 2.563443,5.74211 5.742123,5.74211 3.17867,0 5.742118,-2.56345 5.742118,-5.74211 0,-3.17867 -2.563448,-5.74212 -5.742118,-5.74212 -3.17868,0 -5.742123,2.56345 -5.742123,5.74212 z m -0.581049,6.80166 c -3.930615,0 -6.39153,3.24704 -6.39153,7.31437 V 101.6063 h 4.409129 v -8.852437 c 0,-0.41016 0.341795,-0.68359 0.683585,-0.68359 0.410151,0 0.683585,0.27343 0.683585,0.68359 v 8.818247 H 102.2112 v -8.818247 c 0,-0.41016 0.34179,-0.68359 0.68359,-0.68359 0.41015,0 0.68359,0.34179 0.68359,0.68359 v 8.818247 h 4.40913 v -9.946157 c 0.0684,-4.13569 -2.42674,-7.38273 -6.39153,-7.38273 H 95.136092 88.64203 Z M 34.775469,71.733623 c 3.171157,0 5.742125,2.57096 5.742125,5.74212 0,3.17114 -2.570968,5.74211 -5.742125,5.74211 -3.17115,0 -5.742118,-2.57097 -5.742118,-5.74211 0,-3.17116 2.570968,-5.74212 5.742118,-5.74212 z m -8.544822,29.838487 v -8.818247 c 0,-0.41016 0.34179,-0.68359 0.683586,-0.68359 0.410151,0 0.683586,0.27343 0.683586,0.68359 v 8.818247 h 14.184403 v -8.818247 c 0,-0.41016 0.341795,-0.68359 0.683585,-0.68359 0.410151,0 0.683585,0.34179 0.683585,0.68359 v 8.818247 h 4.409128 v -9.946157 c 0.0684,-4.13569 -2.426726,-7.38273 -6.391522,-7.38273 h -6.459884 -6.459891 c -3.930615,0 -6.391532,3.24704 -6.391532,7.31436 V 101.57211 Z M 58.530082,77.475743 c 0,3.17866 2.563437,5.74211 5.742111,5.74211 3.178674,0 5.742118,-2.56345 5.742118,-5.74211 0,-3.17867 -2.563444,-5.74212 -5.742118,-5.74212 -3.178674,0 -5.742111,2.56345 -5.742111,5.74212 z M 42.124017,57.446693 c 3.17115,0 5.742118,2.570959 5.742118,5.742113 0,3.171147 -2.570968,5.742116 -5.742118,5.742116 -3.171157,0 -5.742117,-2.570969 -5.742117,-5.742116 0,-3.171154 2.57096,-5.742113 5.742117,-5.742113 z m 15.517401,0 c 3.17115,0 5.742117,2.570959 5.742117,5.742113 0,3.171147 -2.570967,5.742116 -5.742117,5.742116 -3.171165,0 -5.742132,-2.570969 -5.742132,-5.742116 0,-3.171154 2.570967,-5.742113 5.742132,-5.742113 z m -7.724526,14.28693 c 3.17115,0 5.742117,2.57096 5.742117,5.74212 0,3.17114 -2.570967,5.74211 -5.742117,5.74211 -3.171151,0 -5.742118,-2.57097 -5.742118,-5.74211 0,-3.17116 2.570967,-5.74212 5.742118,-5.74212 z"
       id="path425"
       style="fill:#000000;stroke-width:0.341793"
       sodipodi:nodetypes="ssssssssssscssccsssccssscccssssssssssscsccsssccssscccscccssssscsssccssscccscssccssssssssssssssssssss" /><path
       id="path425-7"
       style="fill:#000000;stroke-width:0.341793"
       d="m 64.026456,17.728516 c -6.03544,0.261659 -11.74621,3.981145 -14.45345,9.375748 -2.9117,5.538349 -2.41832,12.655818 1.2351,17.735658 3.38473,4.916908 9.45858,7.813253 15.41212,7.299673 6.24405,-0.398688 12.03552,-4.537548 14.49507,-10.279947 2.55289,-5.672412 1.66473,-12.695876 -2.23433,-17.545641 -3.38656,-4.374826 -8.92838,-6.903176 -14.45451,-6.585491 z m 6.70898,3.029296 c 3.56394,1.439636 6.46148,4.294047 8.13084,7.738061 0.0126,0.379367 -1.14171,0.0694 -1.60076,0.170143 -1.47682,0 -2.95365,0 -4.43047,0 -0.5771,-2.873561 -1.62733,-5.673105 -3.35125,-8.061657 -0.75985,-0.88213 0.23062,-0.272473 0.74538,-0.06827 0.16875,0.07391 0.33751,0.147814 0.50626,0.221721 z m -10.97265,0.769532 c -1.42573,2.146181 -2.22381,4.636099 -2.75391,7.138672 -2.04167,0 -4.08333,0 -6.125,0 1.62932,-3.398556 4.40816,-6.273766 7.8939,-7.764964 0.64215,-0.281458 1.28428,-0.562942 1.92641,-0.844411 -0.3138,0.490234 -0.6276,0.980468 -0.9414,1.470703 z m 5.1582,-1.423828 c 1.94517,0.07618 3.25812,1.830188 4.13086,3.384765 0.89473,1.613566 1.42011,3.395213 1.85937,5.177735 -3.99284,0 -7.98567,0 -11.97851,0 0.69816,-2.784683 1.61465,-5.760139 3.85303,-7.707014 0.60204,-0.486993 1.34567,-0.858834 2.13525,-0.855486 z m -14.29883,10.466796 c 2.02148,0 4.04297,10e-7 6.06445,0 -0.36392,2.970068 -0.35971,6.046362 0.0391,9.056641 -2.14128,0 -4.28256,0 -6.42383,0 -0.921,-2.926421 -0.9564,-6.112517 -0.0918,-9.056641 0.13737,10e-7 0.27474,0 0.41211,0 z m 8.45898,0 c 4.05209,10e-7 8.10417,0 12.15625,0 0.39314,3.003783 0.37807,6.056907 -0.0449,9.056641 -4.18099,0 -8.36198,0 -12.54297,0 -0.42456,-2.999775 -0.43526,-6.052835 -0.043,-9.056641 0.15821,10e-7 0.31641,0 0.47461,0 z m 14.66016,0 c 1.96419,0 3.92839,10e-7 5.89258,0 0.86066,2.944859 0.82794,6.129565 -0.0918,9.056641 -2.14193,0 -4.28385,0 -6.42578,0 0.39895,-3.009515 0.40518,-6.087611 0.041,-9.056641 0.19466,0 0.38932,0 0.58398,0 z m -21.80859,10.958985 c 1.71093,0 3.42187,0 5.13281,0 0.59207,2.803411 1.6614,5.517832 3.34989,7.846861 0.72764,0.850259 -0.46767,0.07082 -0.8916,-0.05487 -3.59062,-1.367696 -6.59963,-4.102873 -8.3497,-7.518862 -0.5227,-0.527602 0.52901,-0.167408 0.7586,-0.273129 z m 7.75781,0 c 3.72005,0 7.4401,0 11.16016,0 -0.72869,2.723899 -1.65628,5.654471 -3.91586,7.506719 -1.05881,0.915994 -2.69272,1.013279 -3.81657,0.15539 -2.1564,-1.601922 -3.16148,-4.259224 -3.8724,-6.756142 -0.15828,-0.632719 -0.50638,-1.092317 0.44467,-0.905967 z m 13.50195,0.002 c 1.87891,0 3.75782,0 5.63672,0 -1.60105,3.130904 -4.15704,5.805652 -7.36957,7.288978 -0.77258,0.349799 -1.55543,0.677512 -2.3316,1.019616 1.382,-1.971723 2.55558,-4.108809 3.17279,-6.450335 0.18859,-0.635019 0.32122,-1.20767 0.47369,-1.858259 0.13933,0 0.27865,0 0.41797,0 z" /><g
       id="g10012"
       transform="matrix(1.2250542,0,0,1.2250542,-72.370052,0.61242138)"><g
         style="overflow:visible"
         id="g876"
         transform="matrix(0.264583,0,0,0.264583,140.756,92.0704)"><line
           style="fill:none;stroke:#000000;stroke-width:1.18453;stroke-linecap:round;stroke-linejoin:round;stroke-miterlimit:10"
           id="line2443"
           y2="133.96146"
           x2="500.86969"
           y1="133.96146"
           x1="-80.143524"
           stroke-miterlimit="10" /><path
           style="fill:#ececec;stroke:#000000;stroke-width:9.49796;stroke-linecap:round;stroke-linejoin:round;stroke-miterlimit:10;stroke-dasharray:none;fill-opacity:1"
           id="path2445"
           d="m -79.917677,133.88248 c 13.107177,-0.0553 26.214353,-0.16111 39.315212,-0.50383 12.527549,-0.33009 25.102478,-0.86233 37.5510572,-2.43222 C 10.12842,129.28334 23.072922,126.5242 35.478859,121.50338 47.840568,116.49837 58.769801,108.9095 68.866703,100.03819 78.682472,91.414841 87.271071,80.817275 94.826776,70.036511 102.60043,58.943036 109.80866,47.437333 116.49571,35.59681 c 6.89393,-12.205356 13.49254,-24.578127 20.03744,-36.9888015 6.41381,-12.1642935 12.83867,-24.3143725 19.50993,-36.3270465 6.51962,-11.744182 13.56677,-23.406237 21.81581,-33.92009 4.27377,-5.447241 8.98187,-10.305377 14.2538,-14.684966 5.12821,-4.261135 11.32091,-6.663354 17.80106,-7.171909 6.57174,-0.514875 12.81024,2.849179 18.11218,6.492781 5.42356,3.727309 9.93265,8.967652 14.1243,14.07533 8.63598,10.515432 15.59152,22.501258 22.38755,34.351256 6.58595,11.485165 12.67284,23.286205 18.85449,35.0114341 6.51016,12.3506592 13.01715,24.7044759 19.87634,36.8513969 6.65546,11.786825 13.62838,23.410974 21.37044,34.45708 7.93948,11.328802 16.62917,21.980065 26.6155,31.404157 9.81104,9.259828 21.02456,16.482278 33.17464,21.871088 11.69364,5.18822 24.52442,8.01529 37.09935,9.60255 12.9224,1.62991 25.89533,2.33273 38.90143,2.72442 12.86079,0.38693 25.73421,0.47697 38.59975,0.53224 0.65386,10e-4 1.30455,0.005 1.95842,0.007"
           stroke-miterlimit="10" /><line
           style="fill:none;stroke:#000000;stroke-width:1.01221;stroke-linejoin:round;stroke-miterlimit:10;stroke-dasharray:none"
           id="line2451"
           y2="-3.3515155"
           x2="137.92299"
           y1="142.97963"
           x1="137.92299"
           stroke-miterlimit="10" /><line
           style="fill:none;stroke:#000000;stroke-width:1.14995;stroke-linejoin:round;stroke-miterlimit:10;stroke-dasharray:none"
           id="line2453"
           y2="-91.857727"
           x2="210.53603"
           y1="142.97963"
           x1="210.53603"
           stroke-miterlimit="10" /><line
           style="fill:none;stroke:#000000;stroke-width:1.02851;stroke-linejoin:round;stroke-miterlimit:10;stroke-dasharray:none"
           id="line2455"
           y2="-6.8893585"
           x2="283.14902"
           y1="142.97963"
           x1="283.14902"
           stroke-miterlimit="10" /><g
           id="Layer_2">
</g><g
           inkscape:label=""
           transform="matrix(5.3599088,0,0,5.3599088,201.87944,151.82621)"
           id="g3715"><g
   clip-path="url(#clipPath5165)"
   id="g17"
   transform="matrix(0.352778,0,0,0.352778,-0.170877,0.0637645)">
    <g
   fill="#000000"
   fill-opacity="1"
   id="g15">
      <g
   id="use13"
   transform="translate(0,7.4130001)">
        <path
   d="m 2.484375,-0.375 c 0.421875,0.390625 1.0625,0.546875 1.640625,0.546875 1.109375,0 1.859375,-0.734375 2.265625,-1.28125 0.171875,0.921875 0.890625,1.28125 1.5,1.28125 0.515625,0 0.921875,-0.3125 1.234375,-0.921875 0.28125,-0.59375 0.515625,-1.640625 0.515625,-1.71875 0,-0.078125 -0.0625,-0.15625 -0.171875,-0.15625 -0.15625,0 -0.171875,0.09375 -0.234375,0.359375 -0.265625,1.015625 -0.59375,2.09375 -1.296875,2.09375 -0.5,0 -0.53125,-0.453125 -0.53125,-0.796875 0,-0.390625 0.15625,-1.015625 0.265625,-1.53125 L 8.15625,-4.359375 C 8.234375,-4.6875 8.421875,-5.453125 8.5,-5.765625 c 0.109375,-0.421875 0.296875,-1.15625 0.296875,-1.21875 0,-0.265625 -0.203125,-0.4375 -0.46875,-0.4375 -0.15625,0 -0.515625,0.0625 -0.65625,0.59375 l -1.203125,4.78125 c -0.078125,0.34375 -0.078125,0.375 -0.296875,0.65625 -0.21875,0.28125 -0.890625,1.21875 -1.96875,1.21875 -0.96875,0 -1.28125,-0.703125 -1.28125,-1.515625 0,-0.5 0.15625,-1.109375 0.234375,-1.390625 L 3.921875,-6.1875 c 0.09375,-0.328125 0.234375,-0.875 0.234375,-0.96875 0,-0.28125 -0.234375,-0.4375 -0.453125,-0.4375 -0.15625,0 -0.53125,0.046875 -0.671875,0.609375 l -2.5,9.96875 c -0.015625,0.078125 -0.046875,0.1875 -0.046875,0.28125 0,0.265625 0.203125,0.4375 0.46875,0.4375 0.5,0 0.59375,-0.390625 0.71875,-0.875 z m 0,0"
   id="path23" />
      </g>
    </g>
  </g>
</g><g
           inkscape:label=""
           transform="matrix(5.3599088,0,0,5.3599088,246.0433,150.01936)"
           id="g4582"><g
   clip-path="url(#clipPath2469)"
   id="g24"
   transform="matrix(0.352778,0,0,0.352778,-0.170877,-0.00440966)">
    <g
   fill="#000000"
   fill-opacity="1"
   id="g22">
      <g
   id="use20"
   transform="translate(0,9.6999998)">
        <path
   d="m 2.484375,-0.375 c 0.421875,0.390625 1.0625,0.546875 1.640625,0.546875 1.109375,0 1.859375,-0.734375 2.265625,-1.28125 0.171875,0.921875 0.890625,1.28125 1.5,1.28125 0.515625,0 0.921875,-0.3125 1.234375,-0.921875 0.28125,-0.59375 0.515625,-1.640625 0.515625,-1.71875 0,-0.078125 -0.0625,-0.15625 -0.171875,-0.15625 -0.15625,0 -0.171875,0.09375 -0.234375,0.359375 -0.265625,1.015625 -0.59375,2.09375 -1.296875,2.09375 -0.5,0 -0.53125,-0.453125 -0.53125,-0.796875 0,-0.390625 0.15625,-1.015625 0.265625,-1.53125 L 8.15625,-4.359375 C 8.234375,-4.6875 8.421875,-5.453125 8.5,-5.765625 c 0.109375,-0.421875 0.296875,-1.15625 0.296875,-1.21875 0,-0.265625 -0.203125,-0.4375 -0.46875,-0.4375 -0.15625,0 -0.515625,0.0625 -0.65625,0.59375 l -1.203125,4.78125 c -0.078125,0.34375 -0.078125,0.375 -0.296875,0.65625 -0.21875,0.28125 -0.890625,1.21875 -1.96875,1.21875 -0.96875,0 -1.28125,-0.703125 -1.28125,-1.515625 0,-0.5 0.15625,-1.109375 0.234375,-1.390625 L 3.921875,-6.1875 c 0.09375,-0.328125 0.234375,-0.875 0.234375,-0.96875 0,-0.28125 -0.234375,-0.4375 -0.453125,-0.4375 -0.15625,0 -0.53125,0.046875 -0.671875,0.609375 l -2.5,9.96875 c -0.015625,0.078125 -0.046875,0.1875 -0.046875,0.28125 0,0.265625 0.203125,0.4375 0.46875,0.4375 0.5,0 0.59375,-0.390625 0.71875,-0.875 z m 0,0"
   id="path38" />
      </g>
    </g>
  </g>
  <g
   fill="#000000"
   fill-opacity="1"
   id="g28"
   transform="matrix(0.352778,0,0,0.352778,-0.170877,-0.00440966)">
    <g
   id="use26"
   transform="translate(13.967,9.6999998)">
      <path
   d="m 6.484375,-4 h 4.5625 c 0.25,0 0.546875,0 0.546875,-0.28125 0,-0.3125 -0.28125,-0.3125 -0.546875,-0.3125 h -4.5625 v -4.5625 c 0,-0.25 0,-0.53125 -0.28125,-0.53125 -0.3125,0 -0.3125,0.265625 -0.3125,0.53125 v 4.5625 h -4.5625 c -0.25,0 -0.53125,0 -0.53125,0.28125 C 0.796875,-4 1.0625,-4 1.328125,-4 h 4.5625 v 4.5625 c 0,0.25 0,0.546875 0.296875,0.546875 0.296875,0 0.296875,-0.28125 0.296875,-0.546875 z m 0,0"
   id="path42" />
    </g>
  </g>
  <g
   fill="#000000"
   fill-opacity="1"
   id="g32"
   transform="matrix(0.352778,0,0,0.352778,-0.170877,-0.00440966)">
    <g
   id="use30"
   transform="translate(30.184999,9.6999998)">
      <path
   d="m 8.75,-6.484375 c 0.21875,0 0.796875,0 0.796875,-0.5625 0,-0.375 -0.328125,-0.375 -0.640625,-0.375 h -3.8125 c -2.578125,0 -4.4375,2.875 -4.4375,4.90625 0,1.46875 0.9375,2.6875 2.5,2.6875 2.03125,0 4.25,-2.1875 4.25,-4.765625 0,-0.671875 -0.15625,-1.328125 -0.578125,-1.890625 z m -5.578125,6.3125 c -0.875,0 -1.515625,-0.671875 -1.515625,-1.859375 0,-1.03125 0.609375,-4.453125 3.140625,-4.453125 0.75,0 1.578125,0.359375 1.578125,1.6875 C 6.375,-4.203125 6.09375,-2.75 5.5,-1.75 4.875,-0.734375 3.9375,-0.171875 3.171875,-0.171875 Z m 0,0"
   id="path46" />
    </g>
  </g>
</g><g
           inkscape:label=""
           transform="matrix(5.3599088,0,0,5.3599088,99.873728,151.99814)"
           id="g9461"><g
   clip-path="url(#clipPath5697)"
   id="g9447"
   transform="matrix(0.352778,0,0,0.352778,-0.170877,-0.864041)">
    <g
   fill="#000000"
   fill-opacity="1"
   id="g9445">
      <g
   id="g9443"
   transform="translate(0,10.043)">
        <path
   d="m 2.484375,-0.375 c 0.421875,0.390625 1.0625,0.546875 1.640625,0.546875 1.109375,0 1.859375,-0.734375 2.265625,-1.28125 0.171875,0.921875 0.890625,1.28125 1.5,1.28125 0.515625,0 0.921875,-0.3125 1.234375,-0.921875 0.28125,-0.59375 0.515625,-1.640625 0.515625,-1.71875 0,-0.078125 -0.0625,-0.15625 -0.171875,-0.15625 -0.15625,0 -0.171875,0.09375 -0.234375,0.359375 -0.265625,1.015625 -0.59375,2.09375 -1.296875,2.09375 -0.5,0 -0.53125,-0.453125 -0.53125,-0.796875 0,-0.390625 0.15625,-1.015625 0.265625,-1.53125 L 8.15625,-4.359375 C 8.234375,-4.6875 8.421875,-5.453125 8.5,-5.765625 c 0.109375,-0.421875 0.296875,-1.15625 0.296875,-1.21875 0,-0.265625 -0.203125,-0.4375 -0.46875,-0.4375 -0.15625,0 -0.515625,0.0625 -0.65625,0.59375 l -1.203125,4.78125 c -0.078125,0.34375 -0.078125,0.375 -0.296875,0.65625 -0.21875,0.28125 -0.890625,1.21875 -1.96875,1.21875 -0.96875,0 -1.28125,-0.703125 -1.28125,-1.515625 0,-0.5 0.15625,-1.109375 0.234375,-1.390625 L 3.921875,-6.1875 c 0.09375,-0.328125 0.234375,-0.875 0.234375,-0.96875 0,-0.28125 -0.234375,-0.4375 -0.453125,-0.4375 -0.15625,0 -0.53125,0.046875 -0.671875,0.609375 l -2.5,9.96875 c -0.015625,0.078125 -0.046875,0.1875 -0.046875,0.28125 0,0.265625 0.203125,0.4375 0.46875,0.4375 0.5,0 0.59375,-0.390625 0.71875,-0.875 z m 0,0"
   id="path9441" />
      </g>
    </g>
  </g>
  <g
   fill="#000000"
   fill-opacity="1"
   id="g9453"
   transform="matrix(0.352778,0,0,0.352778,-0.170877,-0.864041)">
    <g
   id="g9451"
   transform="translate(13.967,10.043)">
      <path
   d="m 11.34375,-3.953125 c 0.296875,0 0.609375,0 0.609375,-0.359375 0,-0.34375 -0.3125,-0.34375 -0.609375,-0.34375 h -9.3125 c -0.296875,0 -0.609375,0 -0.609375,0.34375 0,0.359375 0.3125,0.359375 0.609375,0.359375 z m 0,0"
   id="path9449" />
    </g>
  </g>
  <g
   fill="#000000"
   fill-opacity="1"
   id="g9459"
   transform="matrix(0.352778,0,0,0.352778,-0.170877,-0.864041)">
    <g
   id="g9457"
   transform="translate(31.183001,10.043)">
      <path
   d="m 8.75,-6.484375 c 0.21875,0 0.796875,0 0.796875,-0.5625 0,-0.375 -0.328125,-0.375 -0.640625,-0.375 h -3.8125 c -2.578125,0 -4.4375,2.875 -4.4375,4.90625 0,1.46875 0.9375,2.6875 2.5,2.6875 2.03125,0 4.25,-2.1875 4.25,-4.765625 0,-0.671875 -0.15625,-1.328125 -0.578125,-1.890625 z m -5.578125,6.3125 c -0.875,0 -1.515625,-0.671875 -1.515625,-1.859375 0,-1.03125 0.609375,-4.453125 3.140625,-4.453125 0.75,0 1.578125,0.359375 1.578125,1.6875 C 6.375,-4.203125 6.09375,-2.75 5.5,-1.75 4.875,-0.734375 3.9375,-0.171875 3.171875,-0.171875 Z m 0,0"
   id="path9455" />
    </g>
  </g>
</g></g></g></g></svg>
