<?xml version="1.0" encoding="UTF-8" standalone="no"?>
<!-- Created with Inkscape (http://www.inkscape.org/) -->

<svg
   width="1050"
   height="700"
   viewBox="0 0 277.81249 185.20833"
   version="1.1"
   id="svg5"
   inkscape:version="1.2.2 (732a01da63, 2022-12-09)"
   sodipodi:docname="003_Sample.svg"
   xml:space="preserve"
   inkscape:export-filename="002_Sample.png"
   inkscape:export-xdpi="96"
   inkscape:export-ydpi="96"
   xmlns:inkscape="http://www.inkscape.org/namespaces/inkscape"
   xmlns:sodipodi="http://sodipodi.sourceforge.net/DTD/sodipodi-0.dtd"
   xmlns:xlink="http://www.w3.org/1999/xlink"
   xmlns="http://www.w3.org/2000/svg"
   xmlns:svg="http://www.w3.org/2000/svg"><sodipodi:namedview
     id="namedview7"
     pagecolor="#ffffff"
     bordercolor="#666666"
     borderopacity="1.0"
     inkscape:showpageshadow="2"
     inkscape:pageopacity="0.0"
     inkscape:pagecheckerboard="0"
     inkscape:deskcolor="#d1d1d1"
     inkscape:document-units="mm"
     showgrid="false"
     inkscape:zoom="1.0255231"
     inkscape:cx="550.45079"
     inkscape:cy="321.29944"
     inkscape:window-width="1920"
     inkscape:window-height="1001"
     inkscape:window-x="-9"
     inkscape:window-y="-9"
     inkscape:window-maximized="1"
     inkscape:current-layer="layer1" /><defs
     id="defs2"><linearGradient
   id="linearGradient12025"
   inkscape:swatch="solid"><stop
     style="stop-color:#c0c0c0;stop-opacity:1;"
     offset="0"
     id="stop12023" /></linearGradient><linearGradient
   id="linearGradient6703"><stop
     style="stop-color:#000000;stop-opacity:1.0000000;"
     offset="0.0000000"
     id="stop6704" /><stop
     style="stop-color:#7f7f7f;stop-opacity:1.0000000;"
     offset="0.50000000"
     id="stop6705" /><stop
     style="stop-color:#ffffff;stop-opacity:1.0000000;"
     offset="1.0000000"
     id="stop6706" /></linearGradient><linearGradient
   id="linearGradient879"><stop
     style="stop-color:#c3c3c3;stop-opacity:0.54918033;"
     offset="0.0000000"
     id="stop880" /><stop
     style="stop-color:#d4e1e4;stop-opacity:1.0000000;"
     offset="0.50000000"
     id="stop884" /><stop
     style="stop-color:#ddf0f0;stop-opacity:0.59016395;"
     offset="1.0000000"
     id="stop881" /></linearGradient><linearGradient
   x1="1453.8076"
   y1="384.45894"
   x2="1583.5951"
   y2="383.24872"
   id="linearGradient882"
   xlink:href="#linearGradient879"
   gradientTransform="scale(0.55994156,1.7859006)"
   gradientUnits="userSpaceOnUse" /><linearGradient
   x1="568.58307"
   y1="1189.8646"
   x2="567.13932"
   y2="1038.1013"
   id="linearGradient883"
   xlink:href="#linearGradient879"
   spreadMethod="pad"
   gradientTransform="scale(1.4640424,0.68304032)"
   gradientUnits="userSpaceOnUse" /><clipPath
   id="clip0_525_147"><rect
     width="24"
     height="24"
     fill="white"
     id="rect26341" /></clipPath><style
   id="style4881">.cls-1{fill:none;stroke:#020202;stroke-miterlimit:10;stroke-width:1.91px;}</style><clipPath
   id="clipPath1983">
      <path
   clip-rule="nonzero"
   d="M 0,0 H 6 V 6.226563 H 0 Z m 0,0"
   id="path4278" />
    </clipPath>
  <clipPath
   id="clipPath3454">
      <path
   clip-rule="nonzero"
   d="M 0,1 H 6 V 7.75 H 0 Z m 0,0"
   id="path4704" />
    </clipPath>
  <clipPath
   id="clipPath3049">
      <path
   clip-rule="nonzero"
   d="M 0,1 H 6 V 7.75 H 0 Z m 0,0"
   id="path363" />
    </clipPath>
  <clipPath
   id="clipPath5165">
      <path
   clip-rule="nonzero"
   d="M 0,0 H 10 V 10.761719 H 0 Z m 0,0"
   id="path1626" />
    </clipPath>
  <clipPath
   id="clipPath2469">
      <path
   clip-rule="nonzero"
   d="M 0,2 H 10 V 13.046875 H 0 Z m 0,0"
   id="path6884" />
    </clipPath>
  <clipPath
   id="clipPath6213">
      <path
   clip-rule="nonzero"
   d="M 0,3 H 10 V 14.445313 H 0 Z m 0,0"
   id="path2614" />
    </clipPath>
  <clipPath
   id="clipPath4535">
      <path
   clip-rule="nonzero"
   d="M 0,3 H 10 V 14.445313 H 0 Z m 0,0"
   id="path4179" />
    </clipPath>
  <clipPath
   id="clipPath4555">
      <path
   clip-rule="nonzero"
   d="M 0,3 H 10 V 14.445313 H 0 Z m 0,0"
   id="path9849" />
    </clipPath>
  <clipPath
   id="clipPath6568">
      <path
   clip-rule="nonzero"
   d="M 0,3 H 10 V 14.445313 H 0 Z m 0,0"
   id="path4298" />
    </clipPath>
  <clipPath
   id="clipPath5697">
      <path
   clip-rule="nonzero"
   d="M 0,2 H 10 V 13.390625 H 0 Z m 0,0"
   id="path1288" />
    </clipPath>
  
  <clipPath
   id="clipPath7404">
      <path
   clip-rule="nonzero"
   d="M 14,2 H 25 V 13.046875 H 14 Z m 0,0"
   id="path115" />
    </clipPath>
    <clipPath
   id="clipPath7434">
      <path
   clip-rule="nonzero"
   d="M 30,0 H 46.320313 V 13 H 30 Z m 0,0"
   id="path1614" />
    </clipPath>
  <clipPath
   id="clipPath9728">
      <path
   clip-rule="nonzero"
   d="M 31,0 H 47.320313 V 13 H 31 Z m 0,0"
   id="path103" />
    </clipPath>
  
  

    
  <clipPath
   clipPathUnits="userSpaceOnUse"
   id="clipPath13030"><g
     id="g13034"
     transform="matrix(1.5041976,0,0,1.5041976,-250.02149,-242.64525)"><path
       clip-rule="nonzero"
       d="m 166.21585,162.64169 h 5.98326 v 5.07434 h -5.98326 z m 0,0"
       id="path13032"
       style="stroke-width:0.664806" /></g></clipPath>
    
  <clipPath
   id="clipPath5129">
      <path
   clip-rule="nonzero"
   d="M 0,2 H 9 V 9.632813 H 0 Z m 0,0"
   id="path4203" />
    </clipPath>
  </defs><g
     inkscape:label="Ebene 1"
     inkscape:groupmode="layer"
     id="layer1"><path
   style="fill:#ffffff;stroke-width:0.341793;fill-opacity:1;stroke:#000000;stroke-opacity:1"
   d="m 49.916892,71.733623 c 3.17115,0 5.742117,2.57096 5.742117,5.74212 0,3.17114 -2.570967,5.74211 -5.742117,5.74211 -3.171151,0 -5.742118,-2.57097 -5.742118,-5.74211 0,-3.17116 2.570967,-5.74212 5.742118,-5.74212 z"
   id="path13265" /><path
   style="fill:#000000;stroke-width:0.341793"
   d="m 57.641418,57.446693 c 3.17115,0 5.742117,2.570959 5.742117,5.742113 0,3.171147 -2.570967,5.742116 -5.742117,5.742116 -3.171165,0 -5.742132,-2.570969 -5.742132,-5.742116 0,-3.171154 2.570967,-5.742113 5.742132,-5.742113 z"
   id="path13263" /><path
   style="fill:#000000;stroke-width:0.341793"
   d="m 42.124017,57.446693 c 3.17115,0 5.742118,2.570959 5.742118,5.742113 0,3.171147 -2.570968,5.742116 -5.742118,5.742116 -3.171157,0 -5.742117,-2.570969 -5.742117,-5.742116 0,-3.171154 2.57096,-5.742113 5.742117,-5.742113 z"
   id="path13261" /><path
   style="fill:#000000;stroke-width:0.341793"
   d="m 58.530082,77.475743 c 0,3.17866 2.563437,5.74211 5.742111,5.74211 3.178674,0 5.742118,-2.56345 5.742118,-5.74211 0,-3.17867 -2.563444,-5.74212 -5.742118,-5.74212 -3.178674,0 -5.742111,2.56345 -5.742111,5.74212 z"
   id="path13259" /><path
   style="fill:#000000;stroke-width:0.341793"
   d="m 26.230647,101.57211 v -8.818247 c 0,-0.41016 0.34179,-0.68359 0.683586,-0.68359 0.410151,0 0.683586,0.27343 0.683586,0.68359 v 8.818247 h 14.184403 v -8.818247 c 0,-0.41016 0.341795,-0.68359 0.683585,-0.68359 0.410151,0 0.683585,0.34179 0.683585,0.68359 v 8.818247 h 4.409128 v -9.946157 c 0.0684,-4.13569 -2.426726,-7.38273 -6.391522,-7.38273 h -6.459884 -6.459891 c -3.930615,0 -6.391532,3.24704 -6.391532,7.31436 v 10.014527 z"
   id="path13257" /><path
   style="fill:#000000;stroke-width:0.341793"
   d="m 34.775469,71.733623 c 3.171157,0 5.742125,2.57096 5.742125,5.74212 0,3.17114 -2.570968,5.74211 -5.742125,5.74211 -3.17115,0 -5.742118,-2.57097 -5.742118,-5.74211 0,-3.17116 2.570968,-5.74212 5.742118,-5.74212 z"
   id="path13255" /><path
   style="fill:#ffffff;stroke-width:0.341793;stroke:#000000;stroke-opacity:1;fill-opacity:1"
   d="m 88.64203,84.277403 c -3.930615,0 -6.39153,3.24704 -6.39153,7.31437 V 101.6063 h 4.409129 v -8.852437 c 0,-0.41016 0.341795,-0.68359 0.683585,-0.68359 0.410151,0 0.683585,0.27343 0.683585,0.68359 v 8.818247 H 102.2112 v -8.818247 c 0,-0.41016 0.34179,-0.68359 0.68359,-0.68359 0.41015,0 0.68359,0.34179 0.68359,0.68359 v 8.818247 h 4.40913 v -9.946157 c 0.0684,-4.13569 -2.42674,-7.38273 -6.39153,-7.38273 H 95.136092 88.64203 Z"
   id="path13253" /><path
   style="fill:#ffffff;stroke-width:0.341793;stroke:#000000;stroke-opacity:1;fill-opacity:1"
   d="m 89.223079,77.475743 c 0,3.17866 2.563443,5.74211 5.742123,5.74211 3.17867,0 5.742118,-2.56345 5.742118,-5.74211 0,-3.17867 -2.563448,-5.74212 -5.742118,-5.74212 -3.17868,0 -5.742123,2.56345 -5.742123,5.74212 z"
   id="path13251" /><path
   style="fill:#ffffff;stroke-width:0.341793;stroke:#000000;stroke-opacity:1;fill-opacity:1"
   d="m 72.338508,57.446693 c 3.171157,0 5.742124,2.570959 5.742124,5.742113 0,3.171147 -2.570967,5.742116 -5.742124,5.742116 -3.17115,0 -5.742118,-2.570969 -5.742118,-5.742116 0,-3.171154 2.570968,-5.742113 5.742118,-5.742113 z"
   id="path13249" /><path
   style="fill:#000000;stroke-width:0.341793"
   d="m 70.732084,84.277403 h -6.459891 -6.459884 c -3.930615,0 -6.39153,3.24704 -6.39153,7.31437 V 101.6063 h 4.409135 v -8.852437 c 0,-0.41016 0.34179,-0.68359 0.683579,-0.68359 0.410151,0 0.683585,0.27343 0.683585,0.68359 v 8.818247 h 14.184411 v -8.818247 c 0,-0.41016 0.341795,-0.68359 0.683585,-0.68359 0.410151,0 0.683585,0.34179 0.683585,0.68359 v 8.818247 h 4.409128 v -9.946157 c 0.0684,-4.10151 -2.426734,-7.34855 -6.425703,-7.34855 z"
   id="path13247" /><path
   style="fill:#000000;stroke-width:0.341793"
   d="m 79.892136,71.733623 c 3.17115,0 5.742118,2.57096 5.742118,5.74212 0,3.17114 -2.570968,5.74211 -5.742118,5.74211 -3.171164,0 -5.742132,-2.57097 -5.742132,-5.74211 0,-3.17116 2.570968,-5.74212 5.742132,-5.74212 z"
   id="path13245" /><path
   style="fill:#000000;stroke-width:0.341793"
   d="m 86.967244,57.446693 c 3.171157,0 5.742128,2.570959 5.742128,5.742113 0,3.171147 -2.570971,5.742116 -5.742128,5.742116 -3.171151,0 -5.742119,-2.570969 -5.742119,-5.742116 0,-3.171154 2.570968,-5.742113 5.742119,-5.742113 z"
   id="path425" /><path
   id="path425-7"
   style="fill:#000000;stroke-width:0.341793"
   d="m 64.026456,17.728516 c -6.03544,0.261659 -11.74621,3.981145 -14.45345,9.375748 -2.9117,5.538349 -2.41832,12.655818 1.2351,17.735658 3.38473,4.916908 9.45858,7.813253 15.41212,7.299673 6.24405,-0.398688 12.03552,-4.537548 14.49507,-10.279947 2.55289,-5.672412 1.66473,-12.695876 -2.23433,-17.545641 -3.38656,-4.374826 -8.92838,-6.903176 -14.45451,-6.585491 z m 6.70898,3.029296 c 3.56394,1.439636 6.46148,4.294047 8.13084,7.738061 0.0126,0.379367 -1.14171,0.0694 -1.60076,0.170143 -1.47682,0 -2.95365,0 -4.43047,0 -0.5771,-2.873561 -1.62733,-5.673105 -3.35125,-8.061657 -0.75985,-0.88213 0.23062,-0.272473 0.74538,-0.06827 0.16875,0.07391 0.33751,0.147814 0.50626,0.221721 z m -10.97265,0.769532 c -1.42573,2.146181 -2.22381,4.636099 -2.75391,7.138672 -2.04167,0 -4.08333,0 -6.125,0 1.62932,-3.398556 4.40816,-6.273766 7.8939,-7.764964 0.64215,-0.281458 1.28428,-0.562942 1.92641,-0.844411 -0.3138,0.490234 -0.6276,0.980468 -0.9414,1.470703 z m 5.1582,-1.423828 c 1.94517,0.07618 3.25812,1.830188 4.13086,3.384765 0.89473,1.613566 1.42011,3.395213 1.85937,5.177735 -3.99284,0 -7.98567,0 -11.97851,0 0.69816,-2.784683 1.61465,-5.760139 3.85303,-7.707014 0.60204,-0.486993 1.34567,-0.858834 2.13525,-0.855486 z m -14.29883,10.466796 c 2.02148,0 4.04297,10e-7 6.06445,0 -0.36392,2.970068 -0.35971,6.046362 0.0391,9.056641 -2.14128,0 -4.28256,0 -6.42383,0 -0.921,-2.926421 -0.9564,-6.112517 -0.0918,-9.056641 0.13737,10e-7 0.27474,0 0.41211,0 z m 8.45898,0 c 4.05209,10e-7 8.10417,0 12.15625,0 0.39314,3.003783 0.37807,6.056907 -0.0449,9.056641 -4.18099,0 -8.36198,0 -12.54297,0 -0.42456,-2.999775 -0.43526,-6.052835 -0.043,-9.056641 0.15821,10e-7 0.31641,0 0.47461,0 z m 14.66016,0 c 1.96419,0 3.92839,10e-7 5.89258,0 0.86066,2.944859 0.82794,6.129565 -0.0918,9.056641 -2.14193,0 -4.28385,0 -6.42578,0 0.39895,-3.009515 0.40518,-6.087611 0.041,-9.056641 0.19466,0 0.38932,0 0.58398,0 z m -21.80859,10.958985 c 1.71093,0 3.42187,0 5.13281,0 0.59207,2.803411 1.6614,5.517832 3.34989,7.846861 0.72764,0.850259 -0.46767,0.07082 -0.8916,-0.05487 -3.59062,-1.367696 -6.59963,-4.102873 -8.3497,-7.518862 -0.5227,-0.527602 0.52901,-0.167408 0.7586,-0.273129 z m 7.75781,0 c 3.72005,0 7.4401,0 11.16016,0 -0.72869,2.723899 -1.65628,5.654471 -3.91586,7.506719 -1.05881,0.915994 -2.69272,1.013279 -3.81657,0.15539 -2.1564,-1.601922 -3.16148,-4.259224 -3.8724,-6.756142 -0.15828,-0.632719 -0.50638,-1.092317 0.44467,-0.905967 z m 13.50195,0.002 c 1.87891,0 3.75782,0 5.63672,0 -1.60105,3.130904 -4.15704,5.805652 -7.36957,7.288978 -0.77258,0.349799 -1.55543,0.677512 -2.3316,1.019616 1.382,-1.971723 2.55558,-4.108809 3.17279,-6.450335 0.18859,-0.635019 0.32122,-1.20767 0.47369,-1.858259 0.13933,0 0.27865,0 0.41797,0 z" /><line
   style="fill:none;stroke:#000000;stroke-width:0.38394;stroke-linecap:round;stroke-linejoin:round;stroke-miterlimit:10"
   id="line2443"
   y2="156.82437"
   x2="262.40982"
   y1="156.82437"
   x1="74.086876"
   stroke-miterlimit="10" /><path
   style="fill:#ececec;fill-opacity:1;stroke:#000000;stroke-width:3.07856;stroke-linecap:round;stroke-linejoin:round;stroke-miterlimit:10;stroke-dasharray:none"
   id="path2445"
   d="m 74.160082,156.79878 c 4.24841,-0.0179 8.496819,-0.0522 12.743181,-0.16331 4.060536,-0.10699 8.136429,-0.2795 12.171369,-0.78835 4.271958,-0.53905 8.467638,-1.43337 12.488758,-3.06076 4.00678,-1.62227 7.54926,-4.08203 10.82195,-6.95748 3.18157,-2.79507 5.96538,-6.23005 8.4144,-9.7244 2.51967,-3.59571 4.85606,-7.32504 7.02352,-11.16289 2.23452,-3.9561 4.37332,-7.96647 6.49471,-11.98912 2.0789,-3.9428 4.16138,-7.88099 6.32372,-11.77464 2.1132,-3.80662 4.39738,-7.586625 7.07113,-10.994465 1.38525,-1.765606 2.91128,-3.340266 4.62006,-4.759816 1.6622,-1.381155 3.66943,-2.159783 5.76983,-2.32462 2.13009,-0.166886 4.15217,0.9235 5.87068,2.104495 1.75793,1.208128 3.21945,2.906672 4.57809,4.562216 2.79916,3.408352 5.05365,7.2933 7.25644,11.13422 2.13469,3.72267 4.10763,7.54773 6.11128,11.34821 2.11013,4.0032 4.21923,8.00742 6.44249,11.94459 2.15722,3.82044 4.41734,7.58816 6.92676,11.16852 2.57342,3.67199 5.38999,7.12436 8.62685,10.17898 3.18004,3.00137 6.81466,5.34238 10.75284,7.08904 3.79025,1.68165 7.94907,2.59799 12.02496,3.11246 4.18852,0.5283 8.39342,0.75611 12.60906,0.88307 4.16855,0.12541 8.3412,0.1546 12.51128,0.17251 0.21194,3.2e-4 0.42285,0.002 0.63478,0.002"
   stroke-miterlimit="10" /><line
   style="fill:none;stroke:#000000;stroke-width:0.328086;stroke-linejoin:round;stroke-miterlimit:10;stroke-dasharray:none"
   id="line2451"
   y2="112.31733"
   x2="144.76845"
   y1="159.74742"
   x1="144.76845"
   stroke-miterlimit="10" /><line
   style="fill:none;stroke:#000000;stroke-width:0.372732;stroke-linejoin:round;stroke-miterlimit:10;stroke-dasharray:none"
   id="line2453"
   y2="83.629944"
   x2="168.30441"
   y1="159.74742"
   x1="168.30441"
   stroke-miterlimit="10" /><line
   style="fill:none;stroke:#000000;stroke-width:0.333369;stroke-linejoin:round;stroke-miterlimit:10;stroke-dasharray:none"
   id="line2455"
   y2="111.17062"
   x2="191.84035"
   y1="159.74742"
   x1="191.84035"
   stroke-miterlimit="10" /><g
   id="Layer_2"
   transform="matrix(0.32412852,0,0,0.32412852,100.06368,113.40365)">
</g>
      
    <g
   inkscape:label=""
   transform="matrix(1.4331834,0,0,1.4331834,180.26294,160.74777)"
   id="g12729"><g
   fill="#000000"
   fill-opacity="1"
   id="g31"
   transform="matrix(0.352778,0,0,0.352778,-0.170877,-3.08847e-4)">
    <g
   id="use29"
   transform="translate(1.3099999,11.954)">
      <path
   d="m 6.875,-9.515625 v -0.40625 H 1.015625 v 0.40625 z m 0,0"
   id="path55" />
    </g>
  </g>
  <g
   fill="#000000"
   fill-opacity="1"
   id="g35"
   transform="matrix(0.352778,0,0,0.352778,-0.170877,-3.08847e-4)">
    <g
   id="use33"
   transform="translate(0,11.954)">
      <path
   d="m 8.15625,-7.03125 c -0.546875,0.109375 -0.75,0.515625 -0.75,0.84375 0,0.421875 0.328125,0.5625 0.5625,0.5625 0.515625,0 0.875,-0.453125 0.875,-0.921875 0,-0.71875 -0.8125,-1.046875 -1.546875,-1.046875 -1.046875,0 -1.625,1.03125 -1.78125,1.359375 -0.40625,-1.296875 -1.46875,-1.359375 -1.78125,-1.359375 -1.75,0 -2.6875,2.25 -2.6875,2.640625 0,0.0625 0.078125,0.15625 0.1875,0.15625 0.140625,0 0.171875,-0.109375 0.21875,-0.171875 C 2.03125,-6.890625 3.1875,-7.25 3.6875,-7.25 c 0.765625,0 0.921875,0.71875 0.921875,1.140625 0,0.375 -0.09375,0.765625 -0.296875,1.59375 L 3.71875,-2.15625 c -0.25,1.03125 -0.75,1.984375 -1.671875,1.984375 -0.078125,0 -0.515625,0 -0.875,-0.21875 0.625,-0.125 0.75,-0.640625 0.75,-0.84375 0,-0.34375 -0.25,-0.5625 -0.578125,-0.5625 -0.40625,0 -0.859375,0.375 -0.859375,0.921875 0,0.71875 0.8125,1.046875 1.546875,1.046875 0.828125,0 1.40625,-0.65625 1.78125,-1.359375 0.265625,1.015625 1.125,1.359375 1.765625,1.359375 1.75,0 2.6875,-2.25 2.6875,-2.640625 0,-0.078125 -0.0625,-0.15625 -0.171875,-0.15625 -0.15625,0 -0.171875,0.09375 -0.21875,0.234375 -0.46875,1.515625 -1.46875,2.21875 -2.25,2.21875 -0.59375,0 -0.921875,-0.453125 -0.921875,-1.15625 0,-0.375 0.0625,-0.65625 0.34375,-1.78125 l 0.59375,-2.34375 C 5.90625,-6.484375 6.484375,-7.25 7.28125,-7.25 c 0.03125,0 0.515625,0 0.875,0.21875 z m 0,0"
   id="path59" />
    </g>
  </g>
  <g
   clip-path="url(#clipPath7404)"
   id="g41"
   transform="matrix(0.352778,0,0,0.352778,-0.170877,-3.08847e-4)">
    <g
   fill="#000000"
   fill-opacity="1"
   id="g39">
      <g
   id="use37"
   transform="translate(13.405,11.954)">
        <path
   d="m 6.484375,-4 h 4.5625 c 0.25,0 0.546875,0 0.546875,-0.28125 0,-0.3125 -0.28125,-0.3125 -0.546875,-0.3125 h -4.5625 v -4.5625 c 0,-0.25 0,-0.53125 -0.28125,-0.53125 -0.3125,0 -0.3125,0.265625 -0.3125,0.53125 v 4.5625 h -4.5625 c -0.25,0 -0.53125,0 -0.53125,0.28125 C 0.796875,-4 1.0625,-4 1.328125,-4 h 4.5625 v 4.5625 c 0,0.25 0,0.546875 0.296875,0.546875 0.296875,0 0.296875,-0.28125 0.296875,-0.546875 z m 0,0"
   id="path63" />
      </g>
    </g>
  </g>
  <g
   clip-path="url(#clipPath7434)"
   id="g49"
   transform="matrix(0.352778,0,0,0.352778,-0.170877,-3.08847e-4)">
    <g
   fill="#000000"
   fill-opacity="1"
   id="g47">
      <g
   id="use43"
   transform="translate(29.622999,11.954)">
        <path
   d="m 3.921875,-3.4375 c 0.296875,0.046875 0.765625,0.15625 0.859375,0.171875 0.234375,0.0625 1,0.34375 1,1.171875 0,0.53125 -0.484375,1.921875 -2.46875,1.921875 -0.375,0 -1.65625,-0.046875 -2,-1 C 2,-1.078125 2.34375,-1.625 2.34375,-2 c 0,-0.359375 -0.25,-0.546875 -0.59375,-0.546875 -0.375,0 -0.875,0.296875 -0.875,1.0625 0,1.015625 1.03125,1.65625 2.40625,1.65625 2.625,0 3.40625,-1.921875 3.40625,-2.828125 0,-0.25 0,-0.734375 -0.5625,-1.28125 C 5.703125,-4.359375 5.28125,-4.4375 4.359375,-4.625 3.890625,-4.734375 3.15625,-4.890625 3.15625,-5.671875 c 0,-0.34375 0.3125,-1.578125 1.9375,-1.578125 0.71875,0 1.4375,0.28125 1.609375,0.890625 -0.765625,0 -0.796875,0.65625 -0.796875,0.671875 0,0.359375 0.328125,0.46875 0.484375,0.46875 0.234375,0 0.71875,-0.1875 0.71875,-0.90625 0,-0.734375 -0.65625,-1.46875 -2,-1.46875 -2.25,0 -2.859375,1.78125 -2.859375,2.484375 0,1.296875 1.28125,1.578125 1.671875,1.671875 z m 0,0"
   id="path67" />
      </g>
      <g
   id="use45"
   transform="translate(37.56274,11.954)">
        <path
   d="m 8.65625,-11.515625 c 0.015625,-0.07813 0.0625,-0.171875 0.0625,-0.265625 0,-0.171875 -0.171875,-0.171875 -0.21875,-0.171875 -0.015625,0 -0.859375,0.07813 -0.9375,0.09375 -0.296875,0.01563 -0.546875,0.04687 -0.859375,0.0625 -0.4375,0.03125 -0.5625,0.04687 -0.5625,0.359375 0,0.171875 0.140625,0.171875 0.390625,0.171875 0.84375,0 0.859375,0.15625 0.859375,0.328125 0,0.109375 -0.03125,0.25 -0.0625,0.296875 l -1.046875,4.1875 C 6.09375,-6.90625 5.625,-7.59375 4.734375,-7.59375 c -1.9375,0 -4.046875,2.515625 -4.046875,5.0625 0,1.703125 1,2.703125 2.171875,2.703125 0.953125,0 1.75,-0.734375 2.234375,-1.3125 0.171875,1.015625 0.984375,1.3125 1.5,1.3125 0.515625,0 0.9375,-0.3125 1.234375,-0.921875 C 8.109375,-1.34375 8.34375,-2.390625 8.34375,-2.46875 8.34375,-2.546875 8.28125,-2.625 8.171875,-2.625 8.03125,-2.625 8,-2.53125 7.9375,-2.265625 7.671875,-1.25 7.359375,-0.171875 6.640625,-0.171875 c -0.5,0 -0.53125,-0.453125 -0.53125,-0.796875 0,-0.0625 0,-0.421875 0.125,-0.90625 z M 5.1875,-2.046875 C 5.09375,-1.75 5.09375,-1.71875 4.859375,-1.390625 c -0.375,0.484375 -1.140625,1.21875 -1.953125,1.21875 -0.703125,0 -1.09375,-0.640625 -1.09375,-1.65625 0,-0.9375 0.53125,-2.875 0.859375,-3.59375 C 3.25,-6.625 4.0625,-7.25 4.734375,-7.25 c 1.140625,0 1.359375,1.40625 1.359375,1.546875 0,0.015625 -0.046875,0.25 -0.0625,0.28125 z m 0,0"
   id="path71" />
      </g>
    </g>
  </g>
</g><g
   inkscape:label=""
   transform="matrix(1.5420463,0,0,1.5420463,132.04045,160.74777)"
   id="g12987"><g
   fill="#000000"
   fill-opacity="1"
   id="g29"
   transform="matrix(0.352778,0,0,0.352778,-0.170877,-6.6143e-4)">
    <g
   id="use27"
   transform="translate(1.3099999,11.954)">
      <path
   d="m 6.875,-9.515625 v -0.40625 H 1.015625 v 0.40625 z m 0,0"
   id="path51" />
    </g>
  </g>
  <g
   fill="#000000"
   fill-opacity="1"
   id="g33"
   transform="matrix(0.352778,0,0,0.352778,-0.170877,-6.6143e-4)">
    <g
   id="use31"
   transform="translate(0,11.955)">
      <path
   d="m 8.15625,-7.03125 c -0.546875,0.109375 -0.75,0.515625 -0.75,0.84375 0,0.421875 0.328125,0.5625 0.5625,0.5625 0.515625,0 0.875,-0.453125 0.875,-0.921875 0,-0.71875 -0.8125,-1.046875 -1.546875,-1.046875 -1.046875,0 -1.625,1.03125 -1.78125,1.359375 -0.40625,-1.296875 -1.46875,-1.359375 -1.78125,-1.359375 -1.75,0 -2.6875,2.25 -2.6875,2.640625 0,0.0625 0.078125,0.15625 0.1875,0.15625 0.140625,0 0.171875,-0.109375 0.21875,-0.171875 C 2.03125,-6.890625 3.1875,-7.25 3.6875,-7.25 c 0.765625,0 0.921875,0.71875 0.921875,1.140625 0,0.375 -0.09375,0.765625 -0.296875,1.59375 L 3.71875,-2.15625 c -0.25,1.03125 -0.75,1.984375 -1.671875,1.984375 -0.078125,0 -0.515625,0 -0.875,-0.21875 0.625,-0.125 0.75,-0.640625 0.75,-0.84375 0,-0.34375 -0.25,-0.5625 -0.578125,-0.5625 -0.40625,0 -0.859375,0.375 -0.859375,0.921875 0,0.71875 0.8125,1.046875 1.546875,1.046875 0.828125,0 1.40625,-0.65625 1.78125,-1.359375 0.265625,1.015625 1.125,1.359375 1.765625,1.359375 1.75,0 2.6875,-2.25 2.6875,-2.640625 0,-0.078125 -0.0625,-0.15625 -0.171875,-0.15625 -0.15625,0 -0.171875,0.09375 -0.21875,0.234375 -0.46875,1.515625 -1.46875,2.21875 -2.25,2.21875 -0.59375,0 -0.921875,-0.453125 -0.921875,-1.15625 0,-0.375 0.0625,-0.65625 0.34375,-1.78125 l 0.59375,-2.34375 C 5.90625,-6.484375 6.484375,-7.25 7.28125,-7.25 c 0.03125,0 0.515625,0 0.875,0.21875 z m 0,0"
   id="path12971" />
    </g>
  </g>
  <g
   fill="#000000"
   fill-opacity="1"
   id="g37"
   transform="matrix(0.352778,0,0,0.352778,-0.170877,-6.6143e-4)">
    <g
   id="use35"
   transform="translate(13.405,11.955)">
      <path
   d="m 11.34375,-3.953125 c 0.296875,0 0.609375,0 0.609375,-0.359375 0,-0.34375 -0.3125,-0.34375 -0.609375,-0.34375 h -9.3125 c -0.296875,0 -0.609375,0 -0.609375,0.34375 0,0.359375 0.3125,0.359375 0.609375,0.359375 z m 0,0"
   id="path12975" />
    </g>
  </g>
  <g
   clip-path="url(#clipPath9728)"
   id="g45"
   transform="matrix(0.352778,0,0,0.352778,-0.170877,-6.6143e-4)">
    <g
   fill="#000000"
   fill-opacity="1"
   id="g43">
      <g
   id="use39"
   transform="translate(30.620001,11.955)">
        <path
   d="m 3.921875,-3.4375 c 0.296875,0.046875 0.765625,0.15625 0.859375,0.171875 0.234375,0.0625 1,0.34375 1,1.171875 0,0.53125 -0.484375,1.921875 -2.46875,1.921875 -0.375,0 -1.65625,-0.046875 -2,-1 C 2,-1.078125 2.34375,-1.625 2.34375,-2 c 0,-0.359375 -0.25,-0.546875 -0.59375,-0.546875 -0.375,0 -0.875,0.296875 -0.875,1.0625 0,1.015625 1.03125,1.65625 2.40625,1.65625 2.625,0 3.40625,-1.921875 3.40625,-2.828125 0,-0.25 0,-0.734375 -0.5625,-1.28125 C 5.703125,-4.359375 5.28125,-4.4375 4.359375,-4.625 3.890625,-4.734375 3.15625,-4.890625 3.15625,-5.671875 c 0,-0.34375 0.3125,-1.578125 1.9375,-1.578125 0.71875,0 1.4375,0.28125 1.609375,0.890625 -0.765625,0 -0.796875,0.65625 -0.796875,0.671875 0,0.359375 0.328125,0.46875 0.484375,0.46875 0.234375,0 0.71875,-0.1875 0.71875,-0.90625 0,-0.734375 -0.65625,-1.46875 -2,-1.46875 -2.25,0 -2.859375,1.78125 -2.859375,2.484375 0,1.296875 1.28125,1.578125 1.671875,1.671875 z m 0,0"
   id="path12979" />
      </g>
      <g
   id="use41"
   transform="translate(38.559742,11.955)">
        <path
   d="m 8.65625,-11.515625 c 0.015625,-0.07813 0.0625,-0.171875 0.0625,-0.265625 0,-0.171875 -0.171875,-0.171875 -0.21875,-0.171875 -0.015625,0 -0.859375,0.07813 -0.9375,0.09375 -0.296875,0.01563 -0.546875,0.04687 -0.859375,0.0625 -0.4375,0.03125 -0.5625,0.04687 -0.5625,0.359375 0,0.171875 0.140625,0.171875 0.390625,0.171875 0.84375,0 0.859375,0.15625 0.859375,0.328125 0,0.109375 -0.03125,0.25 -0.0625,0.296875 l -1.046875,4.1875 C 6.09375,-6.90625 5.625,-7.59375 4.734375,-7.59375 c -1.9375,0 -4.046875,2.515625 -4.046875,5.0625 0,1.703125 1,2.703125 2.171875,2.703125 0.953125,0 1.75,-0.734375 2.234375,-1.3125 0.171875,1.015625 0.984375,1.3125 1.5,1.3125 0.515625,0 0.9375,-0.3125 1.234375,-0.921875 C 8.109375,-1.34375 8.34375,-2.390625 8.34375,-2.46875 8.34375,-2.546875 8.28125,-2.625 8.171875,-2.625 8.03125,-2.625 8,-2.53125 7.9375,-2.265625 7.671875,-1.25 7.359375,-0.171875 6.640625,-0.171875 c -0.5,0 -0.53125,-0.453125 -0.53125,-0.796875 0,-0.0625 0,-0.421875 0.125,-0.90625 z M 5.1875,-2.046875 C 5.09375,-1.75 5.09375,-1.71875 4.859375,-1.390625 c -0.375,0.484375 -1.140625,1.21875 -1.953125,1.21875 -0.703125,0 -1.09375,-0.640625 -1.09375,-1.65625 0,-0.9375 0.53125,-2.875 0.859375,-3.59375 C 3.25,-6.625 4.0625,-7.25 4.734375,-7.25 c 1.140625,0 1.359375,1.40625 1.359375,1.546875 0,0.015625 -0.046875,0.25 -0.0625,0.28125 z m 0,0"
   id="path12982" />
      </g>
    </g>
  </g>
</g><g
   inkscape:label=""
   transform="matrix(1.7873798,0,0,1.7873798,165.66892,160.91772)"
   id="g13229"><g
   fill="#000000"
   fill-opacity="1"
   id="g19"
   transform="matrix(0.352778,0,0,0.352778,-0.170877,0.101909)">
    <g
   id="use17"
   transform="translate(1.3099999,9.6330004)">
      <path
   d="m 6.875,-9.515625 v -0.40625 H 1.015625 v 0.40625 z m 0,0"
   id="path31" />
    </g>
  </g>
  <g
   clip-path="url(#clipPath5129)"
   id="g25"
   transform="matrix(0.352778,0,0,0.352778,-0.170877,0.101909)">
    <g
   fill="#000000"
   fill-opacity="1"
   id="g23">
      <g
   id="use21"
   transform="translate(0,9.6339998)">
        <path
   d="m 8.15625,-7.03125 c -0.546875,0.109375 -0.75,0.515625 -0.75,0.84375 0,0.421875 0.328125,0.5625 0.5625,0.5625 0.515625,0 0.875,-0.453125 0.875,-0.921875 0,-0.71875 -0.8125,-1.046875 -1.546875,-1.046875 -1.046875,0 -1.625,1.03125 -1.78125,1.359375 -0.40625,-1.296875 -1.46875,-1.359375 -1.78125,-1.359375 -1.75,0 -2.6875,2.25 -2.6875,2.640625 0,0.0625 0.078125,0.15625 0.1875,0.15625 0.140625,0 0.171875,-0.109375 0.21875,-0.171875 C 2.03125,-6.890625 3.1875,-7.25 3.6875,-7.25 c 0.765625,0 0.921875,0.71875 0.921875,1.140625 0,0.375 -0.09375,0.765625 -0.296875,1.59375 L 3.71875,-2.15625 c -0.25,1.03125 -0.75,1.984375 -1.671875,1.984375 -0.078125,0 -0.515625,0 -0.875,-0.21875 0.625,-0.125 0.75,-0.640625 0.75,-0.84375 0,-0.34375 -0.25,-0.5625 -0.578125,-0.5625 -0.40625,0 -0.859375,0.375 -0.859375,0.921875 0,0.71875 0.8125,1.046875 1.546875,1.046875 0.828125,0 1.40625,-0.65625 1.78125,-1.359375 0.265625,1.015625 1.125,1.359375 1.765625,1.359375 1.75,0 2.6875,-2.25 2.6875,-2.640625 0,-0.078125 -0.0625,-0.15625 -0.171875,-0.15625 -0.15625,0 -0.171875,0.09375 -0.21875,0.234375 -0.46875,1.515625 -1.46875,2.21875 -2.25,2.21875 -0.59375,0 -0.921875,-0.453125 -0.921875,-1.15625 0,-0.375 0.0625,-0.65625 0.34375,-1.78125 l 0.59375,-2.34375 C 5.90625,-6.484375 6.484375,-7.25 7.28125,-7.25 c 0.03125,0 0.515625,0 0.875,0.21875 z m 0,0"
   id="path35" />
      </g>
    </g>
  </g>
</g></g></svg>
