<?xml version="1.0" encoding="UTF-8" standalone="no"?>
<!-- Created with Inkscape (http://www.inkscape.org/) -->

<svg
   width="746.74872"
   height="621.94604"
   viewBox="0 0 197.57726 164.55655"
   version="1.1"
   id="svg5"
   inkscape:version="1.2.2 (732a01da63, 2022-12-09)"
   sodipodi:docname="023_CoinToss.svg"
   xml:space="preserve"
   inkscape:export-filename="023_CoinToss.png"
   inkscape:export-xdpi="300"
   inkscape:export-ydpi="300"
   xmlns:inkscape="http://www.inkscape.org/namespaces/inkscape"
   xmlns:sodipodi="http://sodipodi.sourceforge.net/DTD/sodipodi-0.dtd"
   xmlns:xlink="http://www.w3.org/1999/xlink"
   xmlns="http://www.w3.org/2000/svg"
   xmlns:svg="http://www.w3.org/2000/svg"><sodipodi:namedview
     id="namedview7"
     pagecolor="#ffffff"
     bordercolor="#666666"
     borderopacity="1.0"
     inkscape:showpageshadow="2"
     inkscape:pageopacity="0.0"
     inkscape:pagecheckerboard="0"
     inkscape:deskcolor="#d1d1d1"
     inkscape:document-units="mm"
     showgrid="false"
     inkscape:zoom="0.82226417"
     inkscape:cx="379.4401"
     inkscape:cy="430.51858"
     inkscape:window-width="1346"
     inkscape:window-height="791"
     inkscape:window-x="2144"
     inkscape:window-y="0"
     inkscape:window-maximized="0"
     inkscape:current-layer="g6749" /><defs
     id="defs2"><marker
   style="overflow:visible"
   id="Arrow2"
   refX="6"
   refY="0"
   orient="auto-start-reverse"
   inkscape:stockid="Arrow2"
   markerWidth="7.6999998"
   markerHeight="5.5999999"
   viewBox="0 0 7.7 5.6"
   inkscape:isstock="true"
   inkscape:collect="always"
   preserveAspectRatio="xMidYMid"><path
     transform="scale(0.7)"
     d="M -2,-4 9,0 -2,4 c 2,-2.33 2,-5.66 0,-8 z"
     style="fill:context-stroke;fill-rule:evenodd;stroke:none"
     id="arrow2L" /></marker><linearGradient
   id="linearGradient6703"><stop
     style="stop-color:#000000;stop-opacity:1.0000000;"
     offset="0.0000000"
     id="stop6704" /><stop
     style="stop-color:#7f7f7f;stop-opacity:1.0000000;"
     offset="0.50000000"
     id="stop6705" /><stop
     style="stop-color:#ffffff;stop-opacity:1.0000000;"
     offset="1.0000000"
     id="stop6706" /></linearGradient><linearGradient
   id="linearGradient879"><stop
     style="stop-color:#c3c3c3;stop-opacity:0.54918033;"
     offset="0.0000000"
     id="stop880" /><stop
     style="stop-color:#d4e1e4;stop-opacity:1.0000000;"
     offset="0.50000000"
     id="stop884" /><stop
     style="stop-color:#ddf0f0;stop-opacity:0.59016395;"
     offset="1.0000000"
     id="stop881" /></linearGradient><linearGradient
   x1="1453.8076"
   y1="384.45895"
   x2="1583.5951"
   y2="383.24872"
   id="linearGradient882"
   xlink:href="#linearGradient879"
   gradientTransform="scale(0.55994156,1.7859006)"
   gradientUnits="userSpaceOnUse" /><linearGradient
   x1="568.58307"
   y1="1189.8646"
   x2="567.13934"
   y2="1038.1013"
   id="linearGradient883"
   xlink:href="#linearGradient879"
   spreadMethod="pad"
   gradientTransform="scale(1.4640424,0.68304032)"
   gradientUnits="userSpaceOnUse" /><clipPath
   id="clip0_525_147"><rect
     width="24"
     height="24"
     fill="#ffffff"
     id="rect26341"
     x="0"
     y="0" /></clipPath><style
   id="style4881">.cls-1{fill:none;stroke:#020202;stroke-miterlimit:10;stroke-width:1.91px;}</style><style
   id="style226">.c{fill:none;stroke:#000000;stroke-linecap:round;stroke-linejoin:round;}</style><style
   id="style245">.a{fill:none;stroke:#000000;stroke-linecap:round;stroke-linejoin:round;}</style><clipPath
   id="clipPath1002">
      <path
   clip-rule="nonzero"
   d="M 17,8 H 66.714844 V 25.613281 H 17 Z m 0,0"
   id="path494" />
    </clipPath>
  <clipPath
   id="clipPath999">
      <path
   clip-rule="nonzero"
   d="M 17,10 H 67 V 27.242188 H 17 Z m 0,0"
   id="path8352" />
    </clipPath>
  <clipPath
   id="clipPath8123">
      <path
   clip-rule="nonzero"
   d="M 16,10 H 52 V 27.242188 H 16 Z m 0,0"
   id="path1569" />
    </clipPath>
    <clipPath
   id="clipPath838">
      <path
   clip-rule="nonzero"
   d="M 54,16 H 64 V 27.242188 H 54 Z m 0,0"
   id="path4541" />
    </clipPath>
  <clipPath
   id="clipPath8519">
      <path
   clip-rule="nonzero"
   d="M 17,10 H 77 V 27.242188 H 17 Z m 0,0"
   id="path4296" />
    </clipPath>
  <clipPath
   id="clipPath8519-7">
      <path
   clip-rule="nonzero"
   d="M 17,10 H 77 V 27.242188 H 17 Z m 0,0"
   id="path4296-3" />
    </clipPath></defs><g
     inkscape:label="Ebene 1"
     inkscape:groupmode="layer"
     id="layer1"
     transform="translate(-40.117713,-9.6799995)"><g
       id="g6749"
       transform="matrix(1.17416,0,0,1.20565,82.2366,41.6546)"><g
         id="g182"
         transform="matrix(0.1320345,0,0,0.12858581,14.463249,-26.520761)">
	<path
   class="st0"
   d="m 405.835,328.689 c -6.672,0 -29.906,0 -63.75,0 -27.219,0 -32.438,-4.578 -32.438,-11.906 0,-8.375 13.609,-23.016 16.734,-28.25 3.156,-5.234 23.031,-23.016 27.219,-49.188 4.188,-26.156 -27.219,-45 -37.672,-27.188 -6.203,10.563 -21.969,41.844 -40.797,55.438 -34.969,25.25 -63.859,80.188 -100.25,80.188 v 118.406 c 29.984,0 97.953,33.344 122.031,38.188 27.266,5.438 62.891,17.5 81.797,-8.188 11.656,-15.828 29.922,-58.469 43.625,-102.063 34.783,-33.405 10.768,-65.437 -16.499,-65.437 z"
   id="path170" />
	<rect
   x="348.367"
   y="106.376"
   class="st0"
   width="7.4840002"
   height="61.280998"
   id="rect172" />
	<polygon
   class="st0"
   points="371.914,126.282 372.164,187.563 379.664,187.532 379.414,126.267 "
   id="polygon174" />
	<path
   class="st0"
   d="m 72.367,378.658 v 100.469 c 0,14.75 11.953,26.688 26.703,26.688 h 31.844 c 9.828,0 17.797,-7.953 17.797,-17.781 V 351.971 H 99.07 c -14.75,0 -26.703,11.937 -26.703,26.687 z"
   id="path176" />
	<path
   class="st0"
   d="m 360.726,54.22 c 0.25,0.438 0.531,0.906 0.813,1.344 0.297,0.438 0.594,0.891 0.906,1.328 0.328,0.438 0.672,0.875 1,1.297 0.344,0.422 0.703,0.859 1.063,1.281 l 0.563,0.656 6.953,-1.625 -1.188,-1.156 c -0.359,-0.375 -0.688,-0.719 -1.031,-1.125 -0.344,-0.344 -0.656,-0.734 -0.938,-1.125 -0.328,-0.406 -0.609,-0.781 -0.875,-1.188 -0.266,-0.407 -0.516,-0.797 -0.75,-1.219 -0.688,-1.188 -1.234,-2.375 -1.609,-3.578 -0.375,-1.188 -0.609,-2.359 -0.641,-3.469 -0.063,-1.125 0.016,-2.203 0.266,-3.219 0.25,-1 0.672,-1.938 1.234,-2.813 l 8.063,14.031 5.547,-0.047 -9.875,-17.156 0.484,-0.219 0.5,-0.172 0.531,-0.156 0.5,-0.156 0.219,-0.047 0.219,-0.031 0.203,-0.031 0.25,-0.031 10.328,17.969 5.531,-0.063 -10.141,-17.625 c 1.438,0.328 2.844,0.844 4.234,1.516 1.39,0.672 2.719,1.484 3.969,2.406 1.25,0.922 2.422,1.984 3.484,3.141 1.031,1.188 1.953,2.406 2.719,3.734 0.281,0.469 0.5,0.922 0.719,1.375 0.234,0.484 0.422,0.922 0.594,1.406 0.188,0.469 0.328,0.938 0.469,1.391 0.094,0.5 0.219,0.969 0.281,1.438 l 0.203,1.156 7.328,-0.094 -0.188,-0.813 c -0.125,-0.609 -0.297,-1.219 -0.484,-1.844 -0.187,-0.625 -0.422,-1.234 -0.656,-1.844 -0.234,-0.625 -0.5,-1.234 -0.813,-1.844 -0.297,-0.625 -0.609,-1.234 -0.953,-1.828 -1.328,-2.281 -2.953,-4.422 -4.813,-6.344 -1.844,-1.922 -3.906,-3.672 -6.141,-5.141 -2.203,-1.469 -4.563,-2.672 -6.984,-3.563 -2.391,-0.906 -4.844,-1.484 -7.266,-1.688 l -2.281,-3.969 -4.906,1.125 1.75,3.031 -0.219,0.031 -0.234,0.047 -0.203,0.047 -0.203,0.031 -0.516,0.156 -0.516,0.141 -0.5,0.172 -0.547,0.188 -1.781,-3.156 -4.938,1.109 2.563,4.453 c -1.438,1.219 -2.547,2.656 -3.313,4.328 -0.781,1.641 -1.234,3.484 -1.344,5.422 -0.141,1.969 0.094,4.047 0.656,6.156 0.564,2.129 1.455,4.301 2.705,6.473 z"
   id="path178" />
	<path
   class="st0"
   d="m 344.304,87.673 c 13.813,12.031 30.594,19.203 44.891,19.203 9.625,0 17.438,-3.141 22.641,-9.094 L 423.242,84.704 C 436.539,69.423 427.914,40.048 404.008,19.22 390.21,7.188 373.429,0.001 359.117,0.001 c -9.625,0 -17.453,3.156 -22.625,9.094 l -11.406,13.078 c -13.313,15.281 -4.688,44.672 19.218,65.5 z m -0.187,-71.938 c 3.234,-3.719 8.406,-5.672 14.938,-5.672 11.75,0 26.422,6.422 38.297,16.75 9.453,8.25 16.563,18.266 20,28.219 3.375,9.688 2.75,17.859 -1.75,23.016 -3.234,3.734 -8.406,5.688 -14.953,5.688 -11.734,0 -26.406,-6.422 -38.266,-16.766 C 343.007,50.063 334.648,26.595 344.117,15.735 Z"
   id="path180" />
</g><g
         id="g243"
         transform="matrix(1.1892439,0,0,1.1581813,73.575694,56.690864)"><circle
           class="c"
           cx="24"
           cy="24"
           r="21.5"
           id="circle230" /><circle
           class="c"
           cx="24"
           cy="24"
           r="14.5"
           id="circle232" /><path
           class="c"
           d="m 24,15.0654 c 4.9344,0 8.9346,4.0001 8.9346,8.9346"
           id="path234" /></g><g
         id="g263"
         transform="matrix(1.1892439,0,0,1.1581813,-34.131249,56.690864)"><circle
           class="a"
           cx="24"
           cy="24"
           r="21.5"
           id="circle249" /><path
           class="a"
           d="m 20.9381,35.5 a 8.3256,8.3256 0 0 1 -0.8828,-5.2227 c 0,0 -3.5308,-1.3609 -4.1193,-2.0965 -0.5885,-0.7356 0.4414,-1.8022 0.3678,-4.0457"
           id="path251" /><path
           class="a"
           d="m 17.444,22.9949 c 0.4781,0.9808 -2.2068,1.3241 -2.3907,0.1471 -0.1839,-1.177 2.06,-2.4275 2.17,-3.7515 0.11,-1.324 1.6883,-7.5029 8.2754,-6.8411 7.687,0.7724 6.8043,8.6065 6.694,10.0409 a 2.9114,2.9114 0 0 1 -1.5448,4.8182 8.1786,8.1786 0 0 0 0.0368,4.6342"
           id="path253" /></g><path
         style="fill:none;fill-rule:evenodd;stroke:#000000;stroke-width:0.840478;stroke-linecap:butt;stroke-linejoin:miter;stroke-dasharray:none;stroke-opacity:1;marker-end:url(#Arrow2)"
         d="M 26.270217,38.289321 8.6661363,63.816043"
         id="path486"
         inkscape:connector-type="polyline"
         inkscape:connector-curvature="0"
         inkscape:connection-start="#g182"
         inkscape:connection-end="#g263" /><path
         style="fill:none;fill-rule:evenodd;stroke:#000000;stroke-width:0.840478;stroke-linecap:butt;stroke-linejoin:miter;stroke-dasharray:none;stroke-opacity:1;marker-end:url(#Arrow2)"
         d="M 66.737029,33.183845 87.862016,63.816042"
         id="path488"
         inkscape:connector-type="polyline"
         inkscape:connector-curvature="0"
         inkscape:connection-start="#g182"
         inkscape:connection-end="#g243" /><g
         id="g4961"
         transform="translate(0,-0.8201989)"><rect
           style="fill:#ffffff;fill-opacity:1;fill-rule:evenodd;stroke-width:0.222376"
           id="rect4589-1"
           width="60.56422"
           height="10.408651"
           x="71.835434"
           y="45.002808" /><g
           inkscape:label=""
           transform="matrix(0.851673,0,0,0.829428,74.743851,46.222353)"
           id="g3096"><g
   fill="#000000"
   fill-opacity="1"
   id="g55"
   transform="matrix(0.352778,0,0,0.352778,-0.413411,-0.00194056)">
    <g
   id="g3040"
   transform="translate(0,18.568001)">
      <path
   d="M 7.328125,-7.875 H 11.5 c 3.421875,0 6.84375,-2.53125 6.84375,-5.359375 0,-1.9375 -1.640625,-3.6875 -4.765625,-3.6875 h -7.65625 c -0.46875,0 -0.6875,0 -0.6875,0.46875 0,0.25 0.21875,0.25 0.59375,0.25 1.5,0 1.5,0.1875 1.5,0.46875 0,0.04687 0,0.203125 -0.09375,0.5625 l -3.34375,13.34375 c -0.21875,0.859375 -0.265625,1.109375 -2,1.109375 -0.484375,0 -0.71875,0 -0.71875,0.453125 C 1.171875,0 1.390625,0 1.53125,0 2,0 2.5,-0.046875 2.96875,-0.046875 H 5.875 C 6.34375,-0.046875 6.859375,0 7.328125,0 7.53125,0 7.8125,0 7.8125,-0.46875 c 0,-0.25 -0.234375,-0.25 -0.59375,-0.25 -1.5,0 -1.515625,-0.171875 -1.515625,-0.421875 0,-0.125 0.015625,-0.296875 0.046875,-0.421875 z M 9.125,-15.234375 c 0.21875,-0.921875 0.3125,-0.96875 1.28125,-0.96875 h 2.453125 c 1.859375,0 3.390625,0.59375 3.390625,2.453125 0,0.640625 -0.3125,2.75 -1.453125,3.890625 -0.421875,0.4375 -1.609375,1.390625 -3.875,1.390625 H 7.4375 Z m 0,0"
   id="path3038" />
    </g>
  </g>
  <g
   clip-path="url(#clipPath8123)"
   id="g67"
   transform="matrix(0.352778,0,0,0.352778,-0.413411,-0.00194056)">
    <g
   fill="#000000"
   fill-opacity="1"
   id="g3057">
      <g
   id="g3045"
   transform="translate(15.644,27.243)">
        <path
   d="m 4.984375,-9.96875 h 2.28125 c 0.46875,0 0.71875,0 0.71875,-0.4375 0,-0.28125 -0.15625,-0.28125 -0.65625,-0.28125 H 5.15625 l 0.921875,-3.609375 c 0.09375,-0.34375 0.09375,-0.390625 0.09375,-0.578125 0,-0.390625 -0.328125,-0.609375 -0.640625,-0.609375 -0.203125,0 -0.765625,0.07813 -0.96875,0.859375 l -0.96875,3.9375 H 1.265625 c -0.5,0 -0.71875,0 -0.71875,0.484375 0,0.234375 0.171875,0.234375 0.640625,0.234375 h 2.203125 l -1.625,6.546875 c -0.203125,0.875 -0.28125,1.125 -0.28125,1.4375 0,1.171875 0.8125,2.234375 2.203125,2.234375 2.5,0 3.84375,-3.625 3.84375,-3.796875 0,-0.140625 -0.09375,-0.21875 -0.25,-0.21875 -0.046875,0 -0.140625,0 -0.1875,0.09375 C 7.0625,-3.640625 7.03125,-3.625 6.859375,-3.21875 6.34375,-1.984375 5.203125,-0.25 3.765625,-0.25 c -0.75,0 -0.796875,-0.625 -0.796875,-1.15625 0,-0.03125 0,-0.5 0.078125,-0.796875 z m 0,0"
   id="path3043" />
      </g>
      <g
   id="use59"
   transform="translate(24.408718,27.243)">
        <path
   d="m 7.453125,-2.953125 c -0.125,0.421875 -0.125,0.46875 -0.46875,0.953125 -0.546875,0.6875 -1.625,1.75 -2.796875,1.75 -1.015625,0 -1.578125,-0.921875 -1.578125,-2.375 0,-1.359375 0.765625,-4.140625 1.234375,-5.1875 0.84375,-1.734375 2,-2.625 2.96875,-2.625 1.640625,0 1.953125,2.03125 1.953125,2.234375 0,0.03125 -0.0625,0.34375 -0.09375,0.390625 z m 1.59375,-6.34375 c -0.28125,-0.640625 -0.9375,-1.625 -2.234375,-1.625 -2.796875,0 -5.828125,3.609375 -5.828125,7.28125 0,2.453125 1.4375,3.890625 3.125,3.890625 1.375,0 2.53125,-1.0625 3.21875,-1.890625 C 7.578125,-0.171875 8.75,0.25 9.484375,0.25 c 0.75,0 1.34375,-0.453125 1.796875,-1.34375 0.390625,-0.84375 0.734375,-2.34375 0.734375,-2.453125 0,-0.125 -0.09375,-0.21875 -0.25,-0.21875 -0.21875,0 -0.25,0.125 -0.34375,0.5 C 11.046875,-1.8125 10.578125,-0.25 9.5625,-0.25 c -0.71875,0 -0.765625,-0.640625 -0.765625,-1.140625 0,-0.5625 0.078125,-0.84375 0.296875,-1.8125 0.171875,-0.609375 0.296875,-1.15625 0.5,-1.875 0.90625,-3.71875 1.140625,-4.609375 1.140625,-4.765625 0,-0.34375 -0.28125,-0.609375 -0.640625,-0.609375 -0.796875,0 -1,0.859375 -1.046875,1.15625 z m 0,0"
   id="path3047" />
      </g>
      <g
   id="use61"
   transform="translate(37.149288,27.243)">
        <path
   d="m 7.015625,-3.546875 c 0,-0.125 -0.109375,-0.21875 -0.25,-0.21875 -0.21875,0 -0.25,0.078125 -0.375,0.5 C 5.75,-1.015625 4.734375,-0.25 3.921875,-0.25 c -0.296875,0 -0.65625,-0.078125 -0.65625,-0.8125 0,-0.671875 0.296875,-1.421875 0.578125,-2.15625 l 1.734375,-4.609375 c 0.078125,-0.203125 0.25,-0.640625 0.25,-1.125 0,-1.03125 -0.75,-1.96875 -1.96875,-1.96875 -2.265625,0 -3.1875,3.59375 -3.1875,3.78125 0,0.109375 0.09375,0.234375 0.265625,0.234375 0.234375,0 0.25,-0.109375 0.34375,-0.453125 0.609375,-2.078125 1.546875,-3.078125 2.515625,-3.078125 0.21875,0 0.640625,0.03125 0.640625,0.828125 0,0.640625 -0.328125,1.453125 -0.515625,2 L 2.1875,-3 c -0.15625,0.390625 -0.296875,0.796875 -0.296875,1.234375 0,1.125 0.765625,2.015625 1.953125,2.015625 2.28125,0 3.171875,-3.625 3.171875,-3.796875 z M 6.8125,-15.46875 c 0,-0.359375 -0.296875,-0.8125 -0.84375,-0.8125 -0.5625,0 -1.203125,0.546875 -1.203125,1.1875 0,0.625 0.515625,0.8125 0.8125,0.8125 0.671875,0 1.234375,-0.640625 1.234375,-1.1875 z m 0,0"
   id="path3050" />
      </g>
      <g
   id="g3055"
   transform="translate(45.428181,27.243)">
        <path
   d="m 6.296875,-16.578125 c 0.015625,-0.09375 0.078125,-0.25 0.078125,-0.375 0,-0.25 -0.25,-0.25 -0.296875,-0.25 -0.03125,0 -0.921875,0.07813 -1.375,0.125 -0.421875,0.03125 -0.78125,0.07813 -1.234375,0.109375 -0.59375,0.04687 -0.765625,0.0625 -0.765625,0.515625 0,0.25 0.25,0.25 0.5,0.25 1.25,0 1.25,0.21875 1.25,0.46875 0,0.09375 0,0.140625 -0.109375,0.59375 L 1.265625,-2.84375 c -0.078125,0.265625 -0.125,0.46875 -0.125,0.859375 0,1.234375 0.921875,2.234375 2.1875,2.234375 0.8125,0 1.359375,-0.546875 1.75,-1.3125 C 5.5,-1.890625 5.84375,-3.4375 5.84375,-3.546875 c 0,-0.125 -0.09375,-0.21875 -0.25,-0.21875 -0.21875,0 -0.234375,0.125 -0.34375,0.5 C 4.8125,-1.5625 4.359375,-0.25 3.375,-0.25 c -0.75,0 -0.75,-0.796875 -0.75,-1.140625 0,-0.09375 0,-0.609375 0.171875,-1.3125 z m 0,0"
   id="path3053" />
      </g>
    </g>
  </g>
  <g
   clip-path="url(#clipPath838)"
   id="g3064"
   transform="matrix(0.352778,0,0,0.352778,-0.413411,-0.00194056)">
    <g
   fill="#000000"
   fill-opacity="1"
   id="g71">
      <g
   id="use69"
   transform="translate(53.203892,27.243)">
        <path
   d="m 5.65625,-4.953125 c 0.421875,0.078125 1.078125,0.21875 1.234375,0.25 0.328125,0.09375 1.4375,0.484375 1.4375,1.6875 C 8.328125,-2.25 7.625,-0.25 4.765625,-0.25 4.234375,-0.25 2.375,-0.328125 1.890625,-1.6875 2.875,-1.5625 3.375,-2.328125 3.375,-2.875 c 0,-0.515625 -0.359375,-0.796875 -0.84375,-0.796875 -0.546875,0 -1.265625,0.421875 -1.265625,1.546875 0,1.453125 1.484375,2.375 3.46875,2.375 3.765625,0 4.875,-2.78125 4.875,-4.0625 0,-0.375 0,-1.0625 -0.78125,-1.859375 -0.625,-0.59375 -1.21875,-0.71875 -2.5625,-1 C 5.59375,-6.8125 4.53125,-7.03125 4.53125,-8.15625 c 0,-0.5 0.453125,-2.28125 2.796875,-2.28125 1.046875,0 2.0625,0.40625 2.3125,1.296875 -1.09375,0 -1.140625,0.9375 -1.140625,0.96875 0,0.515625 0.46875,0.65625 0.6875,0.65625 0.359375,0 1.046875,-0.265625 1.046875,-1.3125 0,-1.03125 -0.9375,-2.09375 -2.875,-2.09375 -3.25,0 -4.109375,2.546875 -4.109375,3.5625 0,1.875 1.828125,2.28125 2.40625,2.40625 z m 0,0"
   id="path3060" />
      </g>
    </g>
  </g>
  <g
   fill="#000000"
   fill-opacity="1"
   id="g77"
   transform="matrix(0.352778,0,0,0.352778,-0.413411,-0.00194056)">
    <g
   id="g3068"
   transform="translate(72.018997,18.568001)">
      <path
   d="m 15.9375,-7.953125 c 0.375,0 0.734375,0 0.734375,-0.421875 0,-0.453125 -0.421875,-0.453125 -0.84375,-0.453125 H 1.984375 c -0.421875,0 -0.84375,0 -0.84375,0.453125 0,0.421875 0.375,0.421875 0.75,0.421875 z m -0.109375,4.40625 c 0.421875,0 0.84375,0 0.84375,-0.4375 0,-0.421875 -0.359375,-0.421875 -0.734375,-0.421875 H 1.890625 c -0.375,0 -0.75,0 -0.75,0.421875 0,0.4375 0.421875,0.4375 0.84375,0.4375 z m 0,0"
   id="path3066" />
    </g>
  </g>
  <g
   fill="#000000"
   fill-opacity="1"
   id="g81"
   transform="matrix(0.352778,0,0,0.352778,-0.413411,-0.00194056)">
    <g
   id="g3073"
   transform="translate(96.751572,18.568001)">
      <path
   d="m 10.40625,-7.953125 c 0,-1.515625 -0.01563,-4.09375 -1.0625,-6.078125 -0.921875,-1.734375 -2.375,-2.34375 -3.671875,-2.34375 -1.1875,0 -2.703125,0.546875 -3.640625,2.328125 -0.984375,1.859375 -1.09375,4.15625 -1.09375,6.09375 0,1.40625 0.03125,3.5625 0.796875,5.453125 1.0625,2.546875 2.96875,2.890625 3.9375,2.890625 1.140625,0 2.875,-0.46875 3.890625,-2.8125 0.75,-1.71875 0.84375,-3.71875 0.84375,-5.53125 z M 5.671875,0 C 4.09375,0 3.140625,-1.359375 2.796875,-3.25 2.53125,-4.703125 2.53125,-6.84375 2.53125,-8.234375 c 0,-1.90625 0,-3.484375 0.3125,-5 0.484375,-2.109375 1.859375,-2.75 2.828125,-2.75 1.015625,0 2.328125,0.671875 2.796875,2.703125 0.328125,1.40625 0.359375,3.078125 0.359375,5.046875 0,1.625 0,3.59375 -0.296875,5.0625 C 8,-0.46875 6.546875,0 5.671875,0 Z m 0,0"
   id="path3071" />
    </g>
  </g>
  <g
   fill="#000000"
   fill-opacity="1"
   id="g85"
   transform="matrix(0.352778,0,0,0.352778,-0.413411,-0.00194056)">
    <g
   id="g3078"
   transform="translate(108.114,18.568001)">
      <path
   d="m 4.5625,-1.1875 c 0,-0.71875 -0.59375,-1.21875 -1.1875,-1.21875 -0.71875,0 -1.21875,0.59375 -1.21875,1.1875 C 2.15625,-0.5 2.75,0 3.34375,0 4.0625,0 4.5625,-0.59375 4.5625,-1.1875 Z m 0,0"
   id="path3076" />
    </g>
  </g>
  <g
   fill="#000000"
   fill-opacity="1"
   id="g99"
   transform="matrix(0.352778,0,0,0.352778,-0.413411,-0.00194056)">
    <g
   id="use87"
   transform="translate(114.856,18.568001)">
      <path
   d="m 2.828125,-14.5 c 0.25,0.109375 1.265625,0.421875 2.296875,0.421875 2.3125,0 3.578125,-1.234375 4.296875,-1.953125 0,-0.203125 0,-0.328125 -0.15625,-0.328125 -0.015625,0 -0.078125,0 -0.265625,0.109375 -0.875,0.359375 -1.890625,0.65625 -3.125,0.65625 -0.75,0 -1.859375,-0.09375 -3.078125,-0.640625 -0.265625,-0.125 -0.3125,-0.125 -0.34375,-0.125 -0.125,0 -0.15625,0.03125 -0.15625,0.53125 v 7.171875 c 0,0.453125 0,0.578125 0.25,0.578125 0.125,0 0.171875,-0.046875 0.296875,-0.21875 0.796875,-1.125 1.890625,-1.59375 3.125,-1.59375 0.875,0 2.734375,0.546875 2.734375,4.78125 0,0.796875 0,2.234375 -0.75,3.375 -0.625,1.015625 -1.578125,1.53125 -2.65625,1.53125 C 3.671875,-0.203125 2,-1.34375 1.5625,-3.25 c 0.09375,0.03125 0.296875,0.078125 0.390625,0.078125 0.328125,0 0.953125,-0.171875 0.953125,-0.9375 0,-0.671875 -0.484375,-0.953125 -0.953125,-0.953125 -0.5625,0 -0.9375,0.359375 -0.9375,1.046875 0,2.15625 1.703125,4.40625 4.34375,4.40625 2.546875,0 4.96875,-2.203125 4.96875,-5.390625 0,-2.984375 -1.921875,-5.28125 -4.328125,-5.28125 -1.265625,0 -2.328125,0.46875 -3.171875,1.359375 z m 0,0"
   id="path3081" />
    </g>
    <g
   id="use89"
   transform="translate(126.22337,18.568001)">
      <path
   d="m 7.578125,6.046875 c 0,-0.03125 0,-0.078125 -0.0625,-0.15625 -1.140625,-1.15625 -4.1875,-4.328125 -4.1875,-12.0625 0,-7.734375 2.984375,-10.875 4.203125,-12.109375 0,-0.03125 0.046875,-0.07813 0.046875,-0.15625 0,-0.07813 -0.0625,-0.125 -0.171875,-0.125 -0.265625,0 -2.375,1.828125 -3.59375,4.5625 -1.234375,2.75 -1.578125,5.421875 -1.578125,7.8125 0,1.78125 0.171875,4.796875 1.65625,8 1.1875,2.578125 3.21875,4.375 3.515625,4.375 0.125,0 0.171875,-0.046875 0.171875,-0.140625 z m 0,0"
   id="path3084" />
    </g>
    <g
   id="use91"
   transform="translate(135.00047,18.568001)">
      <path
   d="m 2.828125,-14.5 c 0.25,0.109375 1.265625,0.421875 2.296875,0.421875 2.3125,0 3.578125,-1.234375 4.296875,-1.953125 0,-0.203125 0,-0.328125 -0.15625,-0.328125 -0.015625,0 -0.078125,0 -0.265625,0.109375 -0.875,0.359375 -1.890625,0.65625 -3.125,0.65625 -0.75,0 -1.859375,-0.09375 -3.078125,-0.640625 -0.265625,-0.125 -0.3125,-0.125 -0.34375,-0.125 -0.125,0 -0.15625,0.03125 -0.15625,0.53125 v 7.171875 c 0,0.453125 0,0.578125 0.25,0.578125 0.125,0 0.171875,-0.046875 0.296875,-0.21875 0.796875,-1.125 1.890625,-1.59375 3.125,-1.59375 0.875,0 2.734375,0.546875 2.734375,4.78125 0,0.796875 0,2.234375 -0.75,3.375 -0.625,1.015625 -1.578125,1.53125 -2.65625,1.53125 C 3.671875,-0.203125 2,-1.34375 1.5625,-3.25 c 0.09375,0.03125 0.296875,0.078125 0.390625,0.078125 0.328125,0 0.953125,-0.171875 0.953125,-0.9375 0,-0.671875 -0.484375,-0.953125 -0.953125,-0.953125 -0.5625,0 -0.9375,0.359375 -0.9375,1.046875 0,2.15625 1.703125,4.40625 4.34375,4.40625 2.546875,0 4.96875,-2.203125 4.96875,-5.390625 0,-2.984375 -1.921875,-5.28125 -4.328125,-5.28125 -1.265625,0 -2.328125,0.46875 -3.171875,1.359375 z m 0,0"
   id="path149" />
    </g>
    <g
   id="use93"
   transform="translate(146.36784,18.568001)">
      <path
   d="m 10.40625,-7.953125 c 0,-1.515625 -0.01563,-4.09375 -1.0625,-6.078125 -0.921875,-1.734375 -2.375,-2.34375 -3.671875,-2.34375 -1.1875,0 -2.703125,0.546875 -3.640625,2.328125 -0.984375,1.859375 -1.09375,4.15625 -1.09375,6.09375 0,1.40625 0.03125,3.5625 0.796875,5.453125 1.0625,2.546875 2.96875,2.890625 3.9375,2.890625 1.140625,0 2.875,-0.46875 3.890625,-2.8125 0.75,-1.71875 0.84375,-3.71875 0.84375,-5.53125 z M 5.671875,0 C 4.09375,0 3.140625,-1.359375 2.796875,-3.25 2.53125,-4.703125 2.53125,-6.84375 2.53125,-8.234375 c 0,-1.90625 0,-3.484375 0.3125,-5 0.484375,-2.109375 1.859375,-2.75 2.828125,-2.75 1.015625,0 2.328125,0.671875 2.796875,2.703125 0.328125,1.40625 0.359375,3.078125 0.359375,5.046875 0,1.625 0,3.59375 -0.296875,5.0625 C 8,-0.46875 6.546875,0 5.671875,0 Z m 0,0"
   id="path153" />
    </g>
    <g
   id="use95"
   transform="translate(157.7352,18.568001)">
      <path
   d="m 17.96875,-3.625 c 0,-2.875 -1.421875,-4.96875 -3.078125,-4.96875 -1.6875,0 -3.390625,1.953125 -3.390625,4.96875 0,3.03125 1.6875,4.984375 3.390625,4.984375 1.65625,0 3.078125,-2.078125 3.078125,-4.984375 z m -3.046875,4.59375 c -0.640625,0 -2.265625,-0.59375 -2.265625,-4.59375 0,-4 1.625,-4.578125 2.265625,-4.578125 1.359375,0 2.59375,1.953125 2.59375,4.578125 0,2.640625 -1.234375,4.59375 -2.59375,4.59375 z M 15.8125,-17.6875 c 0.171875,-0.28125 0.203125,-0.296875 0.203125,-0.421875 0,-0.296875 -0.234375,-0.453125 -0.421875,-0.453125 -0.25,0 -0.359375,0.171875 -0.53125,0.375 -1.4375,2.0625 -3.421875,2.28125 -4.4375,2.28125 -2.46875,0 -3.984375,-1.4375 -4.453125,-1.890625 C 5.84375,-18.09375 5.375,-18.5625 4.53125,-18.5625 c -1.6875,0 -3.390625,1.953125 -3.390625,4.984375 0,3.015625 1.6875,4.984375 3.390625,4.984375 1.65625,0 3.078125,-2.09375 3.078125,-4.984375 0,-1.71875 -0.515625,-2.875 -0.59375,-3.03125 1.515625,0.96875 3,1.09375 3.640625,1.09375 1.578125,0 2.71875,-0.59375 3.34375,-1.015625 L 14.03125,-16.5 3.328125,0.453125 C 3.09375,0.796875 3.09375,0.84375 3.09375,0.921875 c 0,0.265625 0.234375,0.4375 0.453125,0.4375 0.21875,0 0.296875,-0.125 0.46875,-0.390625 z M 4.5625,-9 c -0.640625,0 -2.265625,-0.59375 -2.265625,-4.578125 0,-4.015625 1.625,-4.59375 2.265625,-4.59375 1.359375,0 2.59375,1.96875 2.59375,4.59375 C 7.15625,-10.953125 5.921875,-9 4.5625,-9 Z m 0,0"
   id="path157" />
    </g>
    <g
   id="use97"
   transform="translate(176.87332,18.568001)">
      <path
   d="m 6.515625,-6.171875 c 0,-1.78125 -0.171875,-4.8125 -1.65625,-8 C 3.671875,-16.75 1.640625,-18.5625 1.34375,-18.5625 c -0.078125,0 -0.171875,0.03125 -0.171875,0.15625 0,0.04687 0.015625,0.0625 0.046875,0.125 1.1875,1.234375 4.203125,4.375 4.203125,12.09375 0,7.71875 -3,10.875 -4.203125,12.109375 C 1.1875,5.96875 1.171875,6 1.171875,6.046875 c 0,0.125 0.09375,0.140625 0.171875,0.140625 0.265625,0 2.375,-1.828125 3.59375,-4.546875 1.234375,-2.75 1.578125,-5.4375 1.578125,-7.8125 z m 0,0"
   id="path161" />
    </g>
  </g>
</g></g><g
         id="g4630"
         transform="translate(26.76791,41.634606)"><rect
           style="fill:#ffffff;fill-opacity:1;fill-rule:evenodd;stroke-width:0.222376"
           id="rect4589"
           width="60.56422"
           height="10.408651"
           x="-62.639416"
           y="2.5480027" /><g
           inkscape:label=""
           transform="matrix(0.851673,0,0,0.829428,-61.68589,3.7675472)"
           id="g4109"><g
   fill="#000000"
   fill-opacity="1"
   id="g52"
   transform="matrix(0.352778,0,0,0.352778,-0.413411,-0.00194056)">
    <g
   id="use50"
   transform="translate(0,18.568001)">
      <path
   d="M 7.328125,-7.875 H 11.5 c 3.421875,0 6.84375,-2.53125 6.84375,-5.359375 0,-1.9375 -1.640625,-3.6875 -4.765625,-3.6875 h -7.65625 c -0.46875,0 -0.6875,0 -0.6875,0.46875 0,0.25 0.21875,0.25 0.59375,0.25 1.5,0 1.5,0.1875 1.5,0.46875 0,0.04687 0,0.203125 -0.09375,0.5625 l -3.34375,13.34375 c -0.21875,0.859375 -0.265625,1.109375 -2,1.109375 -0.484375,0 -0.71875,0 -0.71875,0.453125 C 1.171875,0 1.390625,0 1.53125,0 2,0 2.5,-0.046875 2.96875,-0.046875 H 5.875 C 6.34375,-0.046875 6.859375,0 7.328125,0 7.53125,0 7.8125,0 7.8125,-0.46875 c 0,-0.25 -0.234375,-0.25 -0.59375,-0.25 -1.5,0 -1.515625,-0.171875 -1.515625,-0.421875 0,-0.125 0.015625,-0.296875 0.046875,-0.421875 z M 9.125,-15.234375 c 0.21875,-0.921875 0.3125,-0.96875 1.28125,-0.96875 h 2.453125 c 1.859375,0 3.390625,0.59375 3.390625,2.453125 0,0.640625 -0.3125,2.75 -1.453125,3.890625 -0.421875,0.4375 -1.609375,1.390625 -3.875,1.390625 H 7.4375 Z m 0,0"
   id="path98" />
    </g>
  </g>
  <g
   clip-path="url(#clipPath8519)"
   id="g66"
   transform="matrix(0.352778,0,0,0.352778,-0.413411,-0.00194056)">
    <g
   fill="#000000"
   fill-opacity="1"
   id="g64">
      <g
   id="use54"
   transform="translate(15.644,27.243)">
        <path
   d="m 6.96875,-16.578125 c 0.015625,-0.09375 0.0625,-0.25 0.0625,-0.375 0,-0.25 -0.234375,-0.25 -0.296875,-0.25 -0.015625,0 -1.234375,0.109375 -1.359375,0.125 -0.421875,0.03125 -0.796875,0.07813 -1.234375,0.109375 -0.625,0.04687 -0.796875,0.0625 -0.796875,0.515625 0,0.25 0.203125,0.25 0.546875,0.25 1.21875,0 1.234375,0.21875 1.234375,0.46875 0,0.140625 -0.046875,0.34375 -0.0625,0.421875 L 1.46875,-0.96875 c -0.109375,0.375 -0.109375,0.421875 -0.109375,0.578125 0,0.546875 0.421875,0.640625 0.671875,0.640625 0.421875,0 0.75,-0.328125 0.875,-0.59375 l 1.109375,-4.484375 c 0.125,-0.546875 0.265625,-1.0625 0.390625,-1.609375 0.28125,-1.046875 0.28125,-1.078125 0.75,-1.796875 0.46875,-0.71875 1.578125,-2.203125 3.5,-2.203125 0.984375,0 1.328125,0.75 1.328125,1.734375 0,1.390625 -0.96875,4.09375 -1.515625,5.578125 C 8.25,-2.53125 8.125,-2.203125 8.125,-1.765625 c 0,1.125 0.765625,2.015625 1.96875,2.015625 2.296875,0 3.171875,-3.640625 3.171875,-3.796875 0,-0.125 -0.109375,-0.21875 -0.25,-0.21875 -0.234375,0 -0.25,0.078125 -0.375,0.5 C 12.0625,-1.28125 11.15625,-0.25 10.15625,-0.25 c -0.25,0 -0.640625,-0.015625 -0.640625,-0.8125 0,-0.640625 0.296875,-1.4375 0.390625,-1.71875 0.453125,-1.1875 1.5625,-4.109375 1.5625,-5.546875 0,-1.484375 -0.859375,-2.59375 -2.75,-2.59375 -1.40625,0 -2.640625,0.65625 -3.65625,1.953125 z m 0,0"
   id="path102" />
      </g>
      <g
   id="use56"
   transform="translate(29.616488,27.243)">
        <path
   d="m 4.4375,-5.75 c 0.671875,0 2.359375,-0.046875 3.546875,-0.5 1.875,-0.71875 2.046875,-2.15625 2.046875,-2.59375 0,-1.09375 -0.9375,-2.078125 -2.578125,-2.078125 -2.59375,0 -6.34375,2.34375 -6.34375,6.765625 0,2.59375 1.5,4.40625 3.75,4.40625 3.375,0 5.5,-2.625 5.5,-2.953125 0,-0.140625 -0.15625,-0.265625 -0.25,-0.265625 -0.07813,0 -0.09375,0.015625 -0.328125,0.25 C 8.203125,-0.625 5.84375,-0.25 4.90625,-0.25 3.5,-0.25 2.75,-1.359375 2.75,-3.203125 2.75,-3.546875 2.75,-4.15625 3.125,-5.75 Z M 3.25,-6.25 c 1.0625,-3.8125 3.421875,-4.1875 4.203125,-4.1875 1.09375,0 1.84375,0.65625 1.84375,1.59375 0,2.59375 -3.96875,2.59375 -5.015625,2.59375 z m 0,0"
   id="path106" />
      </g>
      <g
   id="use58"
   transform="translate(40.864876,27.243)">
        <path
   d="m 7.453125,-2.953125 c -0.125,0.421875 -0.125,0.46875 -0.46875,0.953125 -0.546875,0.6875 -1.625,1.75 -2.796875,1.75 -1.015625,0 -1.578125,-0.921875 -1.578125,-2.375 0,-1.359375 0.765625,-4.140625 1.234375,-5.1875 0.84375,-1.734375 2,-2.625 2.96875,-2.625 1.640625,0 1.953125,2.03125 1.953125,2.234375 0,0.03125 -0.0625,0.34375 -0.09375,0.390625 z m 1.59375,-6.34375 c -0.28125,-0.640625 -0.9375,-1.625 -2.234375,-1.625 -2.796875,0 -5.828125,3.609375 -5.828125,7.28125 0,2.453125 1.4375,3.890625 3.125,3.890625 1.375,0 2.53125,-1.0625 3.21875,-1.890625 C 7.578125,-0.171875 8.75,0.25 9.484375,0.25 c 0.75,0 1.34375,-0.453125 1.796875,-1.34375 0.390625,-0.84375 0.734375,-2.34375 0.734375,-2.453125 0,-0.125 -0.09375,-0.21875 -0.25,-0.21875 -0.21875,0 -0.25,0.125 -0.34375,0.5 C 11.046875,-1.8125 10.578125,-0.25 9.5625,-0.25 c -0.71875,0 -0.765625,-0.640625 -0.765625,-1.140625 0,-0.5625 0.078125,-0.84375 0.296875,-1.8125 0.171875,-0.609375 0.296875,-1.15625 0.5,-1.875 0.90625,-3.71875 1.140625,-4.609375 1.140625,-4.765625 0,-0.34375 -0.28125,-0.609375 -0.640625,-0.609375 -0.796875,0 -1,0.859375 -1.046875,1.15625 z m 0,0"
   id="path110" />
      </g>
      <g
   id="use60"
   transform="translate(53.605446,27.243)">
        <path
   d="m 12.46875,-16.578125 c 0.01563,-0.09375 0.07813,-0.25 0.07813,-0.375 0,-0.25 -0.25,-0.25 -0.3125,-0.25 -0.01563,0 -1.234375,0.109375 -1.359375,0.125 -0.421875,0.03125 -0.78125,0.07813 -1.234375,0.109375 -0.625,0.04687 -0.796875,0.0625 -0.796875,0.515625 0,0.25 0.203125,0.25 0.546875,0.25 1.21875,0 1.234375,0.21875 1.234375,0.46875 0,0.140625 -0.04687,0.34375 -0.0625,0.421875 L 9.04688,-9.296875 c -0.28125,-0.640625 -0.9375,-1.625 -2.234375,-1.625 -2.796875,0 -5.828125,3.609375 -5.828125,7.28125 0,2.453125 1.4375,3.890625 3.125,3.890625 1.375,0 2.53125,-1.0625 3.21875,-1.890625 C 7.578125,-0.171875 8.75,0.25 9.484375,0.25 c 0.75,0 1.34375,-0.453125 1.796875,-1.34375 0.390625,-0.84375 0.734375,-2.34375 0.734375,-2.453125 0,-0.125 -0.09375,-0.21875 -0.25,-0.21875 -0.21875,0 -0.25,0.125 -0.34375,0.5 C 11.046875,-1.8125 10.578125,-0.25 9.5625,-0.25 c -0.71875,0 -0.765625,-0.640625 -0.765625,-1.140625 0,-0.09375 0,-0.609375 0.171875,-1.3125 z m -5.015625,13.625 c -0.125,0.421875 -0.125,0.46875 -0.46875,0.953125 -0.546875,0.6875 -1.625,1.75 -2.796875,1.75 -1.015625,0 -1.578125,-0.921875 -1.578125,-2.375 0,-1.359375 0.765625,-4.140625 1.234375,-5.1875 0.84375,-1.734375 2,-2.625 2.96875,-2.625 1.640625,0 1.953125,2.03125 1.953125,2.234375 0,0.03125 -0.0625,0.34375 -0.09375,0.390625 z m 0,0"
   id="path114" />
      </g>
      <g
   id="use62"
   transform="translate(66.217117,27.243)">
        <path
   d="m 5.65625,-4.953125 c 0.421875,0.078125 1.078125,0.21875 1.234375,0.25 0.328125,0.09375 1.4375,0.484375 1.4375,1.6875 C 8.328125,-2.25 7.625,-0.25 4.765625,-0.25 4.234375,-0.25 2.375,-0.328125 1.890625,-1.6875 2.875,-1.5625 3.375,-2.328125 3.375,-2.875 c 0,-0.515625 -0.359375,-0.796875 -0.84375,-0.796875 -0.546875,0 -1.265625,0.421875 -1.265625,1.546875 0,1.453125 1.484375,2.375 3.46875,2.375 3.765625,0 4.875,-2.78125 4.875,-4.0625 0,-0.375 0,-1.0625 -0.78125,-1.859375 -0.625,-0.59375 -1.21875,-0.71875 -2.5625,-1 C 5.59375,-6.8125 4.53125,-7.03125 4.53125,-8.15625 c 0,-0.5 0.453125,-2.28125 2.796875,-2.28125 1.046875,0 2.0625,0.40625 2.3125,1.296875 -1.09375,0 -1.140625,0.9375 -1.140625,0.96875 0,0.515625 0.46875,0.65625 0.6875,0.65625 0.359375,0 1.046875,-0.265625 1.046875,-1.3125 0,-1.03125 -0.9375,-2.09375 -2.875,-2.09375 -3.25,0 -4.109375,2.546875 -4.109375,3.5625 0,1.875 1.828125,2.28125 2.40625,2.40625 z m 0,0"
   id="path118" />
      </g>
    </g>
  </g>
  <g
   fill="#000000"
   fill-opacity="1"
   id="g70"
   transform="matrix(0.352778,0,0,0.352778,-0.413411,-0.00194056)">
    <g
   id="use68"
   transform="translate(85.031998,18.568001)">
      <path
   d="m 15.9375,-7.953125 c 0.375,0 0.734375,0 0.734375,-0.421875 0,-0.453125 -0.421875,-0.453125 -0.84375,-0.453125 H 1.984375 c -0.421875,0 -0.84375,0 -0.84375,0.453125 0,0.421875 0.375,0.421875 0.75,0.421875 z m -0.109375,4.40625 c 0.421875,0 0.84375,0 0.84375,-0.4375 0,-0.421875 -0.359375,-0.421875 -0.734375,-0.421875 H 1.890625 c -0.375,0 -0.75,0 -0.75,0.421875 0,0.4375 0.421875,0.4375 0.84375,0.4375 z m 0,0"
   id="path122" />
    </g>
  </g>
  <g
   fill="#000000"
   fill-opacity="1"
   id="g74"
   transform="matrix(0.352778,0,0,0.352778,-0.413411,-0.00194056)">
    <g
   id="use72"
   transform="translate(109.76456,18.568001)">
      <path
   d="m 10.40625,-7.953125 c 0,-1.515625 -0.01563,-4.09375 -1.0625,-6.078125 -0.921875,-1.734375 -2.375,-2.34375 -3.671875,-2.34375 -1.1875,0 -2.703125,0.546875 -3.640625,2.328125 -0.984375,1.859375 -1.09375,4.15625 -1.09375,6.09375 0,1.40625 0.03125,3.5625 0.796875,5.453125 1.0625,2.546875 2.96875,2.890625 3.9375,2.890625 1.140625,0 2.875,-0.46875 3.890625,-2.8125 0.75,-1.71875 0.84375,-3.71875 0.84375,-5.53125 z M 5.671875,0 C 4.09375,0 3.140625,-1.359375 2.796875,-3.25 2.53125,-4.703125 2.53125,-6.84375 2.53125,-8.234375 c 0,-1.90625 0,-3.484375 0.3125,-5 0.484375,-2.109375 1.859375,-2.75 2.828125,-2.75 1.015625,0 2.328125,0.671875 2.796875,2.703125 0.328125,1.40625 0.359375,3.078125 0.359375,5.046875 0,1.625 0,3.59375 -0.296875,5.0625 C 8,-0.46875 6.546875,0 5.671875,0 Z m 0,0"
   id="path126" />
    </g>
  </g>
  <g
   fill="#000000"
   fill-opacity="1"
   id="g78"
   transform="matrix(0.352778,0,0,0.352778,-0.413411,-0.00194056)">
    <g
   id="use76"
   transform="translate(121.127,18.568001)">
      <path
   d="m 4.5625,-1.1875 c 0,-0.71875 -0.59375,-1.21875 -1.1875,-1.21875 -0.71875,0 -1.21875,0.59375 -1.21875,1.1875 C 2.15625,-0.5 2.75,0 3.34375,0 4.0625,0 4.5625,-0.59375 4.5625,-1.1875 Z m 0,0"
   id="path130" />
    </g>
  </g>
  <g
   fill="#000000"
   fill-opacity="1"
   id="g92"
   transform="matrix(0.352778,0,0,0.352778,-0.413411,-0.00194056)">
    <g
   id="use80"
   transform="translate(127.869,18.568001)">
      <path
   d="m 2.828125,-14.5 c 0.25,0.109375 1.265625,0.421875 2.296875,0.421875 2.3125,0 3.578125,-1.234375 4.296875,-1.953125 0,-0.203125 0,-0.328125 -0.15625,-0.328125 -0.015625,0 -0.078125,0 -0.265625,0.109375 -0.875,0.359375 -1.890625,0.65625 -3.125,0.65625 -0.75,0 -1.859375,-0.09375 -3.078125,-0.640625 -0.265625,-0.125 -0.3125,-0.125 -0.34375,-0.125 -0.125,0 -0.15625,0.03125 -0.15625,0.53125 v 7.171875 c 0,0.453125 0,0.578125 0.25,0.578125 0.125,0 0.171875,-0.046875 0.296875,-0.21875 0.796875,-1.125 1.890625,-1.59375 3.125,-1.59375 0.875,0 2.734375,0.546875 2.734375,4.78125 0,0.796875 0,2.234375 -0.75,3.375 -0.625,1.015625 -1.578125,1.53125 -2.65625,1.53125 C 3.671875,-0.203125 2,-1.34375 1.5625,-3.25 c 0.09375,0.03125 0.296875,0.078125 0.390625,0.078125 0.328125,0 0.953125,-0.171875 0.953125,-0.9375 0,-0.671875 -0.484375,-0.953125 -0.953125,-0.953125 -0.5625,0 -0.9375,0.359375 -0.9375,1.046875 0,2.15625 1.703125,4.40625 4.34375,4.40625 2.546875,0 4.96875,-2.203125 4.96875,-5.390625 0,-2.984375 -1.921875,-5.28125 -4.328125,-5.28125 -1.265625,0 -2.328125,0.46875 -3.171875,1.359375 z m 0,0"
   id="path134" />
    </g>
    <g
   id="use82"
   transform="translate(139.23636,18.568001)">
      <path
   d="m 7.578125,6.046875 c 0,-0.03125 0,-0.078125 -0.0625,-0.15625 -1.140625,-1.15625 -4.1875,-4.328125 -4.1875,-12.0625 0,-7.734375 2.984375,-10.875 4.203125,-12.109375 0,-0.03125 0.046875,-0.07813 0.046875,-0.15625 0,-0.07813 -0.0625,-0.125 -0.171875,-0.125 -0.265625,0 -2.375,1.828125 -3.59375,4.5625 -1.234375,2.75 -1.578125,5.421875 -1.578125,7.8125 0,1.78125 0.171875,4.796875 1.65625,8 1.1875,2.578125 3.21875,4.375 3.515625,4.375 0.125,0 0.171875,-0.046875 0.171875,-0.140625 z m 0,0"
   id="path138" />
    </g>
    <g
   id="use84"
   transform="translate(148.01347,18.568001)">
      <path
   d="m 2.828125,-14.5 c 0.25,0.109375 1.265625,0.421875 2.296875,0.421875 2.3125,0 3.578125,-1.234375 4.296875,-1.953125 0,-0.203125 0,-0.328125 -0.15625,-0.328125 -0.015625,0 -0.078125,0 -0.265625,0.109375 -0.875,0.359375 -1.890625,0.65625 -3.125,0.65625 -0.75,0 -1.859375,-0.09375 -3.078125,-0.640625 -0.265625,-0.125 -0.3125,-0.125 -0.34375,-0.125 -0.125,0 -0.15625,0.03125 -0.15625,0.53125 v 7.171875 c 0,0.453125 0,0.578125 0.25,0.578125 0.125,0 0.171875,-0.046875 0.296875,-0.21875 0.796875,-1.125 1.890625,-1.59375 3.125,-1.59375 0.875,0 2.734375,0.546875 2.734375,4.78125 0,0.796875 0,2.234375 -0.75,3.375 -0.625,1.015625 -1.578125,1.53125 -2.65625,1.53125 C 3.671875,-0.203125 2,-1.34375 1.5625,-3.25 c 0.09375,0.03125 0.296875,0.078125 0.390625,0.078125 0.328125,0 0.953125,-0.171875 0.953125,-0.9375 0,-0.671875 -0.484375,-0.953125 -0.953125,-0.953125 -0.5625,0 -0.9375,0.359375 -0.9375,1.046875 0,2.15625 1.703125,4.40625 4.34375,4.40625 2.546875,0 4.96875,-2.203125 4.96875,-5.390625 0,-2.984375 -1.921875,-5.28125 -4.328125,-5.28125 -1.265625,0 -2.328125,0.46875 -3.171875,1.359375 z m 0,0"
   id="path142" />
    </g>
    <g
   id="use86"
   transform="translate(159.38084,18.568001)">
      <path
   d="m 10.40625,-7.953125 c 0,-1.515625 -0.01563,-4.09375 -1.0625,-6.078125 -0.921875,-1.734375 -2.375,-2.34375 -3.671875,-2.34375 -1.1875,0 -2.703125,0.546875 -3.640625,2.328125 -0.984375,1.859375 -1.09375,4.15625 -1.09375,6.09375 0,1.40625 0.03125,3.5625 0.796875,5.453125 1.0625,2.546875 2.96875,2.890625 3.9375,2.890625 1.140625,0 2.875,-0.46875 3.890625,-2.8125 0.75,-1.71875 0.84375,-3.71875 0.84375,-5.53125 z M 5.671875,0 C 4.09375,0 3.140625,-1.359375 2.796875,-3.25 2.53125,-4.703125 2.53125,-6.84375 2.53125,-8.234375 c 0,-1.90625 0,-3.484375 0.3125,-5 0.484375,-2.109375 1.859375,-2.75 2.828125,-2.75 1.015625,0 2.328125,0.671875 2.796875,2.703125 0.328125,1.40625 0.359375,3.078125 0.359375,5.046875 0,1.625 0,3.59375 -0.296875,5.0625 C 8,-0.46875 6.546875,0 5.671875,0 Z m 0,0"
   id="path146" />
    </g>
    <g
   id="use88"
   transform="translate(170.7482,18.568001)">
      <path
   d="m 17.96875,-3.625 c 0,-2.875 -1.421875,-4.96875 -3.078125,-4.96875 -1.6875,0 -3.390625,1.953125 -3.390625,4.96875 0,3.03125 1.6875,4.984375 3.390625,4.984375 1.65625,0 3.078125,-2.078125 3.078125,-4.984375 z m -3.046875,4.59375 c -0.640625,0 -2.265625,-0.59375 -2.265625,-4.59375 0,-4 1.625,-4.578125 2.265625,-4.578125 1.359375,0 2.59375,1.953125 2.59375,4.578125 0,2.640625 -1.234375,4.59375 -2.59375,4.59375 z M 15.8125,-17.6875 c 0.171875,-0.28125 0.203125,-0.296875 0.203125,-0.421875 0,-0.296875 -0.234375,-0.453125 -0.421875,-0.453125 -0.25,0 -0.359375,0.171875 -0.53125,0.375 -1.4375,2.0625 -3.421875,2.28125 -4.4375,2.28125 -2.46875,0 -3.984375,-1.4375 -4.453125,-1.890625 C 5.84375,-18.09375 5.375,-18.5625 4.53125,-18.5625 c -1.6875,0 -3.390625,1.953125 -3.390625,4.984375 0,3.015625 1.6875,4.984375 3.390625,4.984375 1.65625,0 3.078125,-2.09375 3.078125,-4.984375 0,-1.71875 -0.515625,-2.875 -0.59375,-3.03125 1.515625,0.96875 3,1.09375 3.640625,1.09375 1.578125,0 2.71875,-0.59375 3.34375,-1.015625 L 14.03125,-16.5 3.328125,0.453125 C 3.09375,0.796875 3.09375,0.84375 3.09375,0.921875 c 0,0.265625 0.234375,0.4375 0.453125,0.4375 0.21875,0 0.296875,-0.125 0.46875,-0.390625 z M 4.5625,-9 c -0.640625,0 -2.265625,-0.59375 -2.265625,-4.578125 0,-4.015625 1.625,-4.59375 2.265625,-4.59375 1.359375,0 2.59375,1.96875 2.59375,4.59375 C 7.15625,-10.953125 5.921875,-9 4.5625,-9 Z m 0,0"
   id="path150" />
    </g>
    <g
   id="use90"
   transform="translate(189.88632,18.568001)">
      <path
   d="m 6.515625,-6.171875 c 0,-1.78125 -0.171875,-4.8125 -1.65625,-8 C 3.671875,-16.75 1.640625,-18.5625 1.34375,-18.5625 c -0.078125,0 -0.171875,0.03125 -0.171875,0.15625 0,0.04687 0.015625,0.0625 0.046875,0.125 1.1875,1.234375 4.203125,4.375 4.203125,12.09375 0,7.71875 -3,10.875 -4.203125,12.109375 C 1.1875,5.96875 1.171875,6 1.171875,6.046875 c 0,0.125 0.09375,0.140625 0.171875,0.140625 0.265625,0 2.375,-1.828125 3.59375,-4.546875 1.234375,-2.75 1.578125,-5.4375 1.578125,-7.8125 z m 0,0"
   id="path154" />
    </g>
  </g>
</g></g></g></g><style
     type="text/css"
     id="style168">
<![CDATA[
	.st0{fill:#000000;}
]]>
</style><style
     type="text/css"
     id="style197">
<![CDATA[
	.st0{fill:#000000;}
]]>
</style></svg>
