<?xml version="1.0" encoding="UTF-8" standalone="no"?>
<!-- Created with Inkscape (http://www.inkscape.org/) -->

<svg
   width="1050"
   height="700"
   viewBox="0 0 277.81249 185.20833"
   version="1.1"
   id="svg5"
   inkscape:version="1.2.2 (732a01da63, 2022-12-09)"
   sodipodi:docname="025_ANOVA.svg"
   xml:space="preserve"
   inkscape:export-filename="025_ANOVA.png"
   inkscape:export-xdpi="300"
   inkscape:export-ydpi="300"
   xmlns:inkscape="http://www.inkscape.org/namespaces/inkscape"
   xmlns:sodipodi="http://sodipodi.sourceforge.net/DTD/sodipodi-0.dtd"
   xmlns:xlink="http://www.w3.org/1999/xlink"
   xmlns="http://www.w3.org/2000/svg"
   xmlns:svg="http://www.w3.org/2000/svg"><sodipodi:namedview
     id="namedview7"
     pagecolor="#ffffff"
     bordercolor="#666666"
     borderopacity="1.0"
     inkscape:showpageshadow="2"
     inkscape:pageopacity="0.0"
     inkscape:pagecheckerboard="0"
     inkscape:deskcolor="#d1d1d1"
     inkscape:document-units="mm"
     showgrid="false"
     inkscape:zoom="0.51276155"
     inkscape:cx="320.81189"
     inkscape:cy="366.64216"
     inkscape:window-width="1920"
     inkscape:window-height="1017"
     inkscape:window-x="1912"
     inkscape:window-y="-8"
     inkscape:window-maximized="1"
     inkscape:current-layer="g6749" /><defs
     id="defs2"><inkscape:path-effect
   effect="bspline"
   id="path-effect1915"
   is_visible="true"
   lpeversion="1"
   weight="33.333333"
   steps="2"
   helper_size="0"
   apply_no_weight="true"
   apply_with_weight="true"
   only_selected="false" /><inkscape:path-effect
   effect="bspline"
   id="path-effect1899"
   is_visible="true"
   lpeversion="1"
   weight="33.333333"
   steps="2"
   helper_size="0"
   apply_no_weight="true"
   apply_with_weight="true"
   only_selected="false" /><inkscape:path-effect
   effect="bspline"
   id="path-effect1883"
   is_visible="true"
   lpeversion="1"
   weight="33.333333"
   steps="2"
   helper_size="0"
   apply_no_weight="true"
   apply_with_weight="true"
   only_selected="false" /><inkscape:path-effect
   effect="bspline"
   id="path-effect1867"
   is_visible="true"
   lpeversion="1"
   weight="33.333333"
   steps="2"
   helper_size="0"
   apply_no_weight="true"
   apply_with_weight="true"
   only_selected="false" /><marker
   style="overflow:visible"
   id="Arrow2"
   refX="0"
   refY="0"
   orient="auto-start-reverse"
   inkscape:stockid="Arrow2"
   markerWidth="7.6999998"
   markerHeight="5.5999999"
   viewBox="0 0 7.7 5.6"
   inkscape:isstock="true"
   inkscape:collect="always"
   preserveAspectRatio="xMidYMid"><path
     transform="scale(0.7)"
     d="M -2,-4 9,0 -2,4 c 2,-2.33 2,-5.66 0,-8 z"
     style="fill:context-stroke;fill-rule:evenodd;stroke:none"
     id="arrow2L" /></marker><inkscape:path-effect
   effect="bspline"
   id="path-effect638"
   is_visible="true"
   lpeversion="1"
   weight="33.333333"
   steps="2"
   helper_size="0"
   apply_no_weight="true"
   apply_with_weight="true"
   only_selected="false" /><linearGradient
   id="linearGradient6703"><stop
     style="stop-color:#000000;stop-opacity:1.0000000;"
     offset="0.0000000"
     id="stop6704" /><stop
     style="stop-color:#7f7f7f;stop-opacity:1.0000000;"
     offset="0.50000000"
     id="stop6705" /><stop
     style="stop-color:#ffffff;stop-opacity:1.0000000;"
     offset="1.0000000"
     id="stop6706" /></linearGradient><linearGradient
   id="linearGradient879"><stop
     style="stop-color:#c3c3c3;stop-opacity:0.54918033;"
     offset="0.0000000"
     id="stop880" /><stop
     style="stop-color:#d4e1e4;stop-opacity:1.0000000;"
     offset="0.50000000"
     id="stop884" /><stop
     style="stop-color:#ddf0f0;stop-opacity:0.59016395;"
     offset="1.0000000"
     id="stop881" /></linearGradient><linearGradient
   x1="1453.8076"
   y1="384.45894"
   x2="1583.5951"
   y2="383.24872"
   id="linearGradient882"
   xlink:href="#linearGradient879"
   gradientTransform="scale(0.55994156,1.7859006)"
   gradientUnits="userSpaceOnUse" /><linearGradient
   x1="568.58307"
   y1="1189.8646"
   x2="567.13932"
   y2="1038.1013"
   id="linearGradient883"
   xlink:href="#linearGradient879"
   spreadMethod="pad"
   gradientTransform="scale(1.4640424,0.68304032)"
   gradientUnits="userSpaceOnUse" /><clipPath
   id="clip0_525_147"><rect
     width="24"
     height="24"
     fill="white"
     id="rect26341" /></clipPath><style
   id="style4881">.cls-1{fill:none;stroke:#020202;stroke-miterlimit:10;stroke-width:1.91px;}</style><marker
   style="overflow:visible"
   id="Arrow2-1"
   refX="0"
   refY="0"
   orient="auto-start-reverse"
   inkscape:stockid="Arrow2"
   markerWidth="7.6999998"
   markerHeight="5.5999999"
   viewBox="0 0 7.7 5.6"
   inkscape:isstock="true"
   inkscape:collect="always"
   preserveAspectRatio="xMidYMid"><path
     transform="scale(0.7)"
     d="M -2,-4 9,0 -2,4 c 2,-2.33 2,-5.66 0,-8 z"
     style="fill:context-stroke;fill-rule:evenodd;stroke:none"
     id="arrow2L-5" /></marker><inkscape:path-effect
   effect="bspline"
   id="path-effect638-2"
   is_visible="true"
   lpeversion="1"
   weight="33.333333"
   steps="2"
   helper_size="0"
   apply_no_weight="true"
   apply_with_weight="true"
   only_selected="false" /><clipPath
   id="clipPath8531">
      <path
   clip-rule="nonzero"
   d="M 79,2 H 96 V 18.511719 H 79 Z m 0,0"
   id="path7976" />
    </clipPath>
    <clipPath
   id="clipPath4859">
      <path
   clip-rule="nonzero"
   d="m 103,6 h 8.83984 V 18 H 103 Z m 0,0"
   id="path1119" />
    </clipPath>
  </defs><g
     inkscape:label="Ebene 1"
     inkscape:groupmode="layer"
     id="layer1"><g
       id="g6749"
       transform="matrix(1.17416 0 0 1.20565 82.2366 41.6546)"><path
         style="fill:#ececec;fill-opacity:1;stroke:#000000;stroke-width:0.840695;stroke-linecap:round;stroke-linejoin:round;stroke-miterlimit:10;stroke-dasharray:none"
         id="path2445"
         d="m -30.518798,2.6401494 c 0.0049,1.1449076 0.01445,2.2898159 0.04519,3.4341722 0.0296,1.0942775 0.07734,2.1926938 0.218151,3.2800743 0.149166,1.1512541 0.396641,2.2819511 0.846969,3.3656061 0.448914,1.079791 1.129575,2.034456 1.925267,2.916416 0.773448,0.857404 1.723971,1.607615 2.690923,2.267603 0.995,0.679028 2.026976,1.308664 3.088981,1.892774 1.094727,0.602183 2.204472,1.17857 3.317615,1.750265 1.091046,0.560246 2.180818,1.121455 3.258263,1.704186 1.053363,0.569488 2.099361,1.185055 3.042375,1.905606 0.488576,0.373312 0.924315,0.784563 1.317131,1.245065 0.382191,0.447947 0.597652,0.988878 0.643266,1.554917 0.04618,0.57404 -0.25555,1.118972 -0.582354,1.582095 -0.334311,0.473746 -0.80433,0.867612 -1.26245,1.233753 -0.943156,0.754349 -2.018194,1.361915 -3.081049,1.955548 -1.030132,0.575279 -2.088598,1.106968 -3.140262,1.646934 -1.10776,0.568659 -2.215803,1.137044 -3.305292,1.736191 -1.057187,0.581352 -2.099786,1.190434 -3.090538,1.866701 -1.01611,0.693512 -1.971445,1.452555 -2.816716,2.324859 -0.830535,0.856992 -1.478336,1.836489 -1.96167,2.897793 -0.465344,1.021439 -0.718912,2.142203 -0.861276,3.240618 -0.14619,1.128767 -0.20923,2.261951 -0.244362,3.398027 -0.03471,1.123388 -0.04278,2.24788 -0.04774,3.371678 -9e-5,0.05712 -5.68e-4,0.113954 -5.68e-4,0.171069"
         stroke-miterlimit="10" /><path
         style="fill:#ececec;fill-opacity:1;stroke:#000000;stroke-width:0.840695;stroke-linecap:round;stroke-linejoin:round;stroke-miterlimit:10;stroke-dasharray:none"
         id="path2445-5"
         d="m 40.538472,-18.518454 c 0.0049,1.144907 0.01445,2.289816 0.04519,3.434172 0.0296,1.094278 0.07734,2.192694 0.218151,3.280074 0.149166,1.151255 0.396641,2.2819526 0.84697,3.3656092 0.448913,1.0797919 1.129575,2.0344585 1.925266,2.9164201 0.773448,0.8574046 1.723971,1.6076169 2.690923,2.2676055 0.995,0.6790293 2.026976,1.3086659 3.088981,1.8927772 1.094727,0.60218355 2.204472,1.1785718 3.317615,1.750267 1.091046,0.56024505 2.180818,1.1214543 3.258263,1.7041852 1.053364,0.569489 2.099362,1.1850551 3.042375,1.9056071 0.488576,0.373311 0.924314,0.784563 1.317131,1.245064 0.382191,0.4479469 0.597652,0.9888779 0.643265,1.554917 0.04618,0.5740399 -0.25555,1.1189719 -0.582353,1.5820949 -0.334312,0.473746 -0.80433,0.867613 -1.26245,1.233754 -0.943156,0.7543478 -2.018193,1.3619138 -3.081049,1.9555468 -1.030132,0.575278 -2.088598,1.106967 -3.140262,1.646932 -1.10776,0.568659 -2.215803,1.137044 -3.305292,1.73619 -1.057187,0.581352 -2.099786,1.190434 -3.090538,1.8667 -1.01611,0.693511 -1.971444,1.452554 -2.816716,2.324857 -0.830535,0.856992 -1.478336,1.836488 -1.961669,2.897793 -0.465345,1.021438 -0.718913,2.142202 -0.861277,3.240617 -0.14619,1.128768 -0.20923,2.261952 -0.244362,3.398027 -0.03471,1.123388 -0.04278,2.24788 -0.04774,3.371678 -8.9e-5,0.05712 -5.68e-4,0.113954 -5.68e-4,0.171069"
         stroke-miterlimit="10" /><path
         style="fill:#ececec;fill-opacity:1;stroke:#000000;stroke-width:0.840695;stroke-linecap:round;stroke-linejoin:round;stroke-miterlimit:10;stroke-dasharray:none"
         id="path2445-9"
         d="m 76.067108,26.573351 c 0.0049,1.144907 0.01445,2.289816 0.04519,3.434172 0.0296,1.094277 0.07734,2.192694 0.218151,3.280078 0.149166,1.151253 0.396641,2.281948 0.84697,3.365604 0.448913,1.07979 1.129575,2.034456 1.925266,2.916422 0.773448,0.857404 1.723971,1.607613 2.690923,2.267602 0.995,0.679029 2.026976,1.308662 3.088981,1.892776 1.094727,0.602179 2.204472,1.17857 3.317615,1.750267 1.091046,0.560245 2.180818,1.121453 3.258263,1.704184 1.053364,0.569486 2.099362,1.185057 3.042371,1.905602 0.48858,0.373317 0.92432,0.784568 1.31713,1.245067 0.3822,0.447946 0.59766,0.988878 0.64327,1.554917 0.0462,0.574044 -0.25555,1.118969 -0.58235,1.582098 -0.33431,0.473744 -0.80433,0.867611 -1.26245,1.233751 -0.943159,0.754348 -2.018196,1.361913 -3.081052,1.955542 -1.030132,0.575281 -2.088598,1.106971 -3.140262,1.646939 -1.10776,0.568658 -2.215803,1.137044 -3.305292,1.736195 -1.057187,0.581348 -2.099786,1.190432 -3.090538,1.866695 -1.01611,0.69351 -1.971444,1.452552 -2.816716,2.324857 -0.830535,0.856995 -1.478336,1.836495 -1.961669,2.897801 -0.465345,1.021435 -0.718913,2.142196 -0.861277,3.240616 -0.14619,1.128767 -0.20923,2.261945 -0.244362,3.398025 -0.03471,1.123391 -0.04278,2.247882 -0.04774,3.371681 -8.9e-5,0.05717 -5.68e-4,0.113954 -5.68e-4,0.171062"
         stroke-miterlimit="10" /><path
         style="fill:#ececec;fill-opacity:1;stroke:#000000;stroke-width:1.57067;stroke-linecap:round;stroke-linejoin:round;stroke-miterlimit:10;stroke-dasharray:none"
         id="path2445-9-0"
         d="m 124.59783,96.923868 c 0.009,-2.139023 0.0271,-4.278063 0.0844,-6.416066 0.0553,-2.044428 0.14442,-4.096605 0.40757,-6.128167 0.2787,-2.150887 0.74104,-4.263362 1.5824,-6.287957 0.83869,-2.017371 2.11037,-3.800971 3.59698,-5.448747 1.44501,-1.601887 3.22089,-3.003504 5.02744,-4.236561 1.85896,-1.268627 3.78699,-2.44497 5.77114,-3.536269 2.04528,-1.125053 4.11861,-2.201924 6.19829,-3.270025 2.0384,-1.046703 4.07442,-2.095209 6.08742,-3.183925 1.96799,-1.06397 3.92223,-2.214039 5.68406,-3.560233 0.91281,-0.69747 1.7269,-1.465808 2.46079,-2.326157 0.71404,-0.836898 1.11661,-1.847522 1.20182,-2.905051 0.0863,-1.072487 -0.47744,-2.09057 -1.088,-2.955832 -0.62461,-0.885097 -1.50273,-1.620957 -2.35864,-2.305016 -1.7621,-1.409348 -3.7706,-2.544461 -5.75632,-3.653537 -1.92461,-1.074797 -3.90213,-2.068153 -5.86697,-3.076975 -2.06962,-1.062425 -4.13977,-2.12434 -6.17527,-3.243732 -1.97512,-1.086133 -3.92301,-2.224085 -5.77405,-3.487544 -1.8984,-1.295684 -3.68324,-2.713804 -5.26246,-4.343531 -1.55169,-1.601123 -2.76198,-3.431122 -3.66498,-5.413957 -0.86942,-1.908345 -1.34314,-4.00226 -1.60913,-6.054438 -0.27313,-2.10887 -0.39091,-4.225985 -0.45654,-6.3485219 -0.0648,-2.09883 -0.08,-4.1997159 -0.0891,-6.2993109 -1.6e-4,-0.10681 -0.001,-0.2128981 -0.001,-0.3195951"
         stroke-miterlimit="10" /><path
         style="opacity:0.135417;fill:#ececec;fill-opacity:1;stroke:#000000;stroke-width:1.57067;stroke-linecap:round;stroke-linejoin:round;stroke-miterlimit:10;stroke-dasharray:none"
         id="path2445-9-0-8"
         d="m 124.59783,73.621268 c 0.009,-2.139023 0.0271,-4.278063 0.0844,-6.416066 0.0553,-2.044428 0.14442,-4.096605 0.40757,-6.128167 0.2787,-2.150887 0.74104,-4.263362 1.5824,-6.287957 0.83869,-2.017371 2.11037,-3.800971 3.59698,-5.448747 1.44501,-1.601887 3.22089,-3.003504 5.02744,-4.236561 1.85896,-1.268627 3.78699,-2.44497 5.77114,-3.536269 2.04528,-1.125053 4.11861,-2.201924 6.19829,-3.270025 2.0384,-1.046703 4.07442,-2.095209 6.08742,-3.183925 1.96799,-1.06397 3.92223,-2.214039 5.68406,-3.560233 0.91281,-0.69747 1.7269,-1.465808 2.46079,-2.326157 0.71404,-0.836898 1.11661,-1.847522 1.20182,-2.905051 0.0863,-1.072487 -0.47744,-2.09057 -1.088,-2.955832 -0.62461,-0.885097 -1.50273,-1.620957 -2.35864,-2.305016 -1.7621,-1.409347 -3.7706,-2.54446 -5.75632,-3.653535 -1.92461,-1.074796 -3.90213,-2.068152 -5.86697,-3.076973 -2.06962,-1.062424 -4.13977,-2.124339 -6.17527,-3.24373 -1.97512,-1.086132 -3.92301,-2.2240843 -5.77405,-3.4875432 -1.8984,-1.295684 -3.68324,-2.7138041 -5.26246,-4.343531 -1.55169,-1.6011231 -2.76198,-3.431122 -3.66498,-5.4139584 -0.86942,-1.9083472 -1.34314,-4.0022657 -1.60913,-6.0544459 -0.27313,-2.1088735 -0.39091,-4.2259895 -0.45654,-6.3485265 -0.0648,-2.09883 -0.08,-4.199716 -0.0891,-6.299311 -1.6e-4,-0.10681 -0.001,-0.212898 -0.001,-0.319595"
         stroke-miterlimit="10" /><g
         id="g1591"
         transform="translate(6.5256679,-1.5131477)"><path
           style="fill:none;stroke:#000000;stroke-width:0.840478;stroke-linecap:butt;stroke-linejoin:miter;stroke-dasharray:none;stroke-opacity:1;marker-end:url(#Arrow2)"
           d="m -61.027197,105.26529 c 0,0 208.199877,0 208.199877,0"
           id="path636"
           inkscape:path-effect="#path-effect638"
           inkscape:original-d="M -61.027197,105.26529 H 147.17268"
           sodipodi:nodetypes="cc" /><path
           style="fill:none;stroke:#000000;stroke-width:0.840478;stroke-linecap:butt;stroke-linejoin:miter;stroke-dasharray:none;stroke-opacity:1;marker-end:url(#Arrow2-1)"
           d="m -58.673859,107.61863 c 0,0 0,-134.064882 0,-134.064882"
           id="path636-9"
           inkscape:path-effect="#path-effect638-2"
           inkscape:original-d="M -58.673859,107.61863 V -26.446252"
           sodipodi:nodetypes="cc" /></g><text
         xml:space="preserve"
         style="font-size:3.55802px;line-height:1.25;font-family:sans-serif;-inkscape-font-specification:'sans-serif, Normal';text-align:center;text-anchor:middle;stroke-width:0.222377"
         x="-36.897743"
         y="-55.984489"
         id="text1661"
         transform="matrix(0,-0.98685382,1.0133213,0,0,0)"><tspan
           sodipodi:role="line"
           id="tspan1659"
           style="font-style:normal;font-variant:normal;font-weight:normal;font-stretch:normal;font-size:10.6741px;font-family:Bahnschrift;-inkscape-font-specification:'Bahnschrift, @wght=300,wdth=87.0';font-variant-ligatures:normal;font-variant-caps:normal;font-variant-numeric:normal;font-variant-east-asian:normal;font-variation-settings:'wdth' 87, 'wght' 300;stroke-width:0.222377"
           x="-36.897743"
           y="-55.984489">Response (Y)</tspan></text><text
         xml:space="preserve"
         style="font-size:3.55802px;line-height:1.25;font-family:sans-serif;-inkscape-font-specification:'sans-serif, Normal';text-align:center;text-anchor:middle;stroke-width:0.222377"
         x="51.572109"
         y="115.90499"
         id="text1661-7"
         transform="scale(1.0133213,0.98685382)"><tspan
           sodipodi:role="line"
           id="tspan1659-0"
           style="font-style:normal;font-variant:normal;font-weight:normal;font-stretch:normal;font-size:10.6741px;font-family:Bahnschrift;-inkscape-font-specification:'Bahnschrift, @wght=300,wdth=87.0';font-variant-ligatures:normal;font-variant-caps:normal;font-variant-numeric:normal;font-variant-east-asian:normal;font-variation-settings:'wdth' 87, 'wght' 300;stroke-width:0.222377"
           x="51.572109"
           y="115.90499">Predictor (X)</tspan></text><path
         style="fill:#ececec;fill-opacity:1;stroke:#000000;stroke-width:0.840695;stroke-linecap:round;stroke-linejoin:round;stroke-miterlimit:10;stroke-dasharray:none"
         id="path2445-7"
         d="m 5.0098363,38.98116 c 0.00493,1.144907 0.014447,2.289816 0.04519,3.434172 0.029603,1.094277 0.07734,2.192694 0.218151,3.280074 0.1491661,1.151254 0.3966411,2.281952 0.8469694,3.365608 0.4489135,1.079791 1.1295755,2.034457 1.9252661,2.916418 0.773448,0.857404 1.723971,1.607616 2.6909232,2.267604 0.995,0.679029 2.026976,1.308665 3.088981,1.892776 1.094727,0.602183 2.204472,1.178571 3.317615,1.750266 1.091046,0.560245 2.180818,1.121454 3.258263,1.704185 1.053364,0.569489 2.099362,1.185055 3.042375,1.905607 0.488576,0.373312 0.924314,0.784563 1.31713,1.245064 0.382192,0.447947 0.597653,0.988878 0.643266,1.554917 0.04618,0.57404 -0.25555,1.118972 -0.582354,1.582095 -0.334311,0.473746 -0.804329,0.867613 -1.262449,1.233754 -0.943156,0.754348 -2.018193,1.361914 -3.081049,1.955547 -1.030132,0.575279 -2.088598,1.106968 -3.140262,1.646934 -1.10776,0.568659 -2.215803,1.137044 -3.305292,1.736191 -1.057187,0.581352 -2.099786,1.190435 -3.090538,1.866701 -1.0161102,0.693512 -1.9714442,1.452555 -2.8167162,2.324859 -0.8305346,0.856993 -1.4783357,1.836489 -1.9616691,2.897794 -0.4653446,1.021438 -0.7189127,2.142202 -0.8612762,3.240617 -0.1461904,1.128768 -0.20923,2.261952 -0.2443626,3.398027 -0.034707,1.123388 -0.042777,2.24788 -0.047737,3.371678 -8.93e-5,0.05712 -5.678e-4,0.113954 -5.678e-4,0.171069"
         stroke-miterlimit="10" /><path
         style="fill:none;stroke:#000000;stroke-width:0.222377px;stroke-linecap:butt;stroke-linejoin:miter;stroke-dasharray:0.444754, 0.222377;stroke-dashoffset:0;stroke-opacity:1"
         d="m 40.117978,6.8525315 c 0,0 84.196572,0 84.196572,0"
         id="path1865"
         inkscape:path-effect="#path-effect1867"
         inkscape:original-d="M 40.117978,6.8525315 H 124.31455"
         sodipodi:nodetypes="cc" /><path
         style="fill:none;stroke:#000000;stroke-width:0.222377px;stroke-linecap:butt;stroke-linejoin:miter;stroke-dasharray:0.444754, 0.222377;stroke-dashoffset:0;stroke-opacity:1"
         d="m -30.939292,28.011121 c 51.865564,0 103.730675,0 155.596012,0"
         id="path1881"
         inkscape:path-effect="#path-effect1883"
         inkscape:original-d="m -30.939292,28.011121 c 51.865564,2.19e-4 155.596012,0 155.596012,0"
         sodipodi:nodetypes="cc" /><path
         style="fill:none;stroke:#000000;stroke-width:0.222377px;stroke-linecap:butt;stroke-linejoin:miter;stroke-dasharray:0.444754, 0.222377;stroke-dashoffset:0;stroke-opacity:1"
         d="m 75.646614,51.944327 c 16.348414,0 32.696606,0 49.044566,0"
         id="path1897"
         inkscape:path-effect="#path-effect1899"
         inkscape:original-d="m 75.646614,51.944327 c 16.348414,2.19e-4 32.696606,2.19e-4 49.044566,0"
         sodipodi:nodetypes="cc" /><path
         style="fill:none;stroke:#000000;stroke-width:0.222377px;stroke-linecap:butt;stroke-linejoin:miter;stroke-dasharray:0.444754, 0.222377;stroke-dashoffset:0;stroke-opacity:1"
         d="m 4.5893456,64.352139 c 39.9724794,0 79.9445094,0 119.9167644,0"
         id="path1913"
         inkscape:path-effect="#path-effect1915"
         inkscape:original-d="m 4.5893456,64.352139 c 39.9724794,2.19e-4 119.9167644,0 119.9167644,0"
         sodipodi:nodetypes="cc" /><g
         inkscape:label=""
         transform="matrix(0.851674,0,0,0.829429,-28.070188,-14.862283)"
         id="g9499"><g
   fill="#000000"
   fill-opacity="1"
   id="g31"
   transform="matrix(0.352778,0,0,0.352778,-0.286632,-0.00568845)">
    <g
   id="use29"
   transform="translate(0,16.938)">
      <path
   d="m 14.578125,-14.171875 0.5625,-0.578125 c 1.09375,-1.109375 2.015625,-1.375 2.875,-1.453125 0.265625,-0.03125 0.5,-0.04687 0.5,-0.46875 0,-0.25 -0.25,-0.25 -0.296875,-0.25 -0.296875,0 -0.625,0.04687 -0.921875,0.04687 H 16.28125 c -0.71875,0 -1.484375,-0.04687 -2.1875,-0.04687 -0.171875,0 -0.4375,0 -0.4375,0.46875 0,0.21875 0.25,0.25 0.328125,0.25 0.734375,0.04687 0.734375,0.421875 0.734375,0.5625 0,0.28125 -0.203125,0.640625 -0.6875,1.21875 L 8.125,-7.65625 5.328125,-15.1875 c -0.15625,-0.34375 -0.15625,-0.40625 -0.15625,-0.453125 0,-0.515625 1.015625,-0.5625 1.328125,-0.5625 0.296875,0 0.5625,0 0.5625,-0.453125 0,-0.265625 -0.21875,-0.265625 -0.375,-0.265625 -0.421875,0 -0.90625,0.04687 -1.328125,0.04687 h -2.75 c -0.453125,0 -0.921875,-0.04687 -1.34375,-0.04687 -0.171875,0 -0.453125,0 -0.453125,0.46875 0,0.25 0.234375,0.25 0.59375,0.25 1.21875,0 1.4375,0.21875 1.671875,0.796875 l 3.0625,8.25 C 6.171875,-7.09375 6.25,-6.8125 6.25,-6.734375 c 0,0.0625 -1.21875,4.953125 -1.296875,5.203125 -0.1875,0.65625 -0.4375,0.78125 -2.03125,0.8125 -0.421875,0 -0.625,0 -0.625,0.46875 0,0.25 0.28125,0.25 0.359375,0.25 0.4375,0 0.96875,-0.046875 1.4375,-0.046875 h 2.921875 c 0.4375,0 0.96875,0.046875 1.40625,0.046875 0.171875,0 0.46875,0 0.46875,-0.453125 0,-0.265625 -0.171875,-0.265625 -0.59375,-0.265625 -1.53125,0 -1.53125,-0.171875 -1.53125,-0.453125 C 6.765625,-1.34375 6.96875,-2.125 7.09375,-2.625 L 7.984375,-6.1875 C 8.125,-6.71875 8.125,-6.765625 8.34375,-7.015625 Z m 0,0"
   id="path57" />
    </g>
  </g>
  <g
   fill="#000000"
   fill-opacity="1"
   id="g35"
   transform="matrix(0.352778,0,0,0.352778,-0.286632,-0.00568845)">
    <g
   id="use33"
   transform="translate(26.360001,16.938)">
      <path
   d="m 15.9375,-7.953125 c 0.375,0 0.734375,0 0.734375,-0.421875 0,-0.453125 -0.421875,-0.453125 -0.84375,-0.453125 H 1.984375 c -0.421875,0 -0.84375,0 -0.84375,0.453125 0,0.421875 0.375,0.421875 0.75,0.421875 z m -0.109375,4.40625 c 0.421875,0 0.84375,0 0.84375,-0.4375 0,-0.421875 -0.359375,-0.421875 -0.734375,-0.421875 H 1.890625 c -0.375,0 -0.75,0 -0.75,0.421875 0,0.4375 0.421875,0.4375 0.84375,0.4375 z m 0,0"
   id="path61" />
    </g>
  </g>
  <g
   fill="#000000"
   fill-opacity="1"
   id="g39"
   transform="matrix(0.352778,0,0,0.352778,-0.286632,-0.00568845)">
    <g
   id="use37"
   transform="translate(51.088001,16.938)">
      <path
   d="M 11.765625,-10.0625 9.4375,-15.484375 c 0.328125,-0.59375 1.0625,-0.703125 1.359375,-0.71875 0.15625,0 0.421875,-0.03125 0.421875,-0.453125 0,-0.265625 -0.21875,-0.265625 -0.359375,-0.265625 -0.421875,0 -0.921875,0.04687 -1.34375,0.04687 h -1.4375 c -1.515625,0 -2.59375,-0.04687 -2.625,-0.04687 -0.203125,0 -0.453125,0 -0.453125,0.46875 0,0.25 0.234375,0.25 0.546875,0.25 1.4375,0 1.546875,0.25 1.78125,0.84375 l 2.953125,6.890625 -5.375,5.75 c -0.890625,0.953125 -1.953125,1.90625 -3.796875,2 C 0.8125,-0.6875 0.625,-0.6875 0.625,-0.25 0.625,-0.171875 0.640625,0 0.921875,0 c 0.34375,0 0.71875,-0.046875 1.0625,-0.046875 h 1.15625 C 3.9375,-0.046875 4.8125,0 5.578125,0 5.75,0 6.046875,0 6.046875,-0.453125 6.046875,-0.6875 5.875,-0.71875 5.71875,-0.71875 5.234375,-0.765625 4.90625,-1.046875 4.90625,-1.4375 c 0,-0.421875 0.296875,-0.71875 1.015625,-1.46875 L 8.125,-5.296875 C 8.671875,-5.875 9.984375,-7.3125 10.53125,-7.859375 l 2.609375,6.09375 c 0.01563,0.0625 0.125,0.296875 0.125,0.328125 0,0.21875 -0.546875,0.671875 -1.34375,0.71875 C 11.765625,-0.71875 11.5,-0.6875 11.5,-0.25 11.5,0 11.75,0 11.875,0 c 0.421875,0 0.90625,-0.046875 1.328125,-0.046875 H 15.9375 C 16.375,-0.046875 16.84375,0 17.265625,0 c 0.1875,0 0.453125,0 0.453125,-0.46875 0,-0.25 -0.25,-0.25 -0.46875,-0.25 C 15.765625,-0.75 15.71875,-0.875 15.296875,-1.78125 l -3.28125,-7.6875 3.15625,-3.375 c 0.234375,-0.234375 0.8125,-0.859375 1.03125,-1.109375 1.0625,-1.109375 2.0625,-2.125 4.0625,-2.25 0.25,-0.03125 0.5,-0.03125 0.5,-0.453125 0,-0.265625 -0.21875,-0.265625 -0.328125,-0.265625 -0.34375,0 -0.71875,0.04687 -1.0625,0.04687 h -1.140625 c -0.78125,0 -1.65625,-0.04687 -2.421875,-0.04687 -0.171875,0 -0.46875,0 -0.46875,0.4375 0,0.25 0.171875,0.28125 0.3125,0.28125 0.40625,0.04687 0.828125,0.25 0.828125,0.71875 l -0.03125,0.04687 c -0.01563,0.171875 -0.07813,0.421875 -0.34375,0.71875 z m 0,0"
   id="path65" />
    </g>
  </g>
  <g
   clip-path="url(#clipPath8531)"
   id="g45"
   transform="matrix(0.352778,0,0,0.352778,-0.286632,-0.00568845)">
    <g
   fill="#000000"
   fill-opacity="1"
   id="g43">
      <g
   id="use41"
   transform="translate(78.688004,16.938)">
        <path
   d="m 9.34375,-5.75 h 6.5625 c 0.34375,0 0.765625,0 0.765625,-0.421875 0,-0.4375 -0.390625,-0.4375 -0.765625,-0.4375 H 9.34375 V -13.1875 c 0,-0.34375 0,-0.765625 -0.421875,-0.765625 -0.453125,0 -0.453125,0.390625 -0.453125,0.765625 v 6.578125 h -6.5625 c -0.34375,0 -0.765625,0 -0.765625,0.421875 0,0.4375 0.390625,0.4375 0.765625,0.4375 h 6.5625 v 6.5625 c 0,0.359375 0,0.78125 0.421875,0.78125 0.453125,0 0.453125,-0.40625 0.453125,-0.78125 z m 0,0"
   id="path69" />
      </g>
    </g>
  </g>
  <g
   clip-path="url(#clipPath4859)"
   id="g51"
   transform="matrix(0.352778,0,0,0.352778,-0.286632,-0.00568845)">
    <g
   fill="#000000"
   fill-opacity="1"
   id="g49">
      <g
   id="use47"
   transform="translate(102.039,16.938)">
        <path
   d="M 7.21875,-5.625 C 7.578125,-5.625 8,-5.625 8,-6.015625 8,-6.34375 7.75,-6.34375 7.3125,-6.34375 H 3.296875 c 0.625,-2.25 2.078125,-3.625 4.28125,-3.625 h 0.71875 c 0.421875,0 0.796875,0 0.796875,-0.390625 0,-0.328125 -0.265625,-0.328125 -0.71875,-0.328125 H 7.53125 c -3.046875,0 -6.390625,2.4375 -6.390625,6.328125 0,2.75 1.859375,4.609375 4.3125,4.609375 1.578125,0 3.140625,-1 3.140625,-1.234375 0,-0.15625 -0.0625,-0.296875 -0.21875,-0.296875 -0.078125,0 -0.125,0.015625 -0.25,0.109375 C 7.1875,-0.546875 6.265625,-0.25 5.53125,-0.25 c -1.3125,0 -2.703125,-0.859375 -2.703125,-3.265625 0,-0.46875 0.046875,-1.125 0.265625,-2.109375 z m 0,0"
   id="path73" />
      </g>
    </g>
  </g>
</g></g></g></svg>
