<?xml version="1.0" encoding="UTF-8" standalone="no"?>
<!-- Created with Inkscape (http://www.inkscape.org/) -->

<svg
   width="1050"
   height="700"
   viewBox="0 0 277.81249 185.20833"
   version="1.1"
   id="svg5"
   inkscape:version="1.2.2 (732a01da63, 2022-12-09)"
   sodipodi:docname="029_lm_principle.svg"
   xml:space="preserve"
   inkscape:export-filename="029_lm_principle.png"
   inkscape:export-xdpi="300"
   inkscape:export-ydpi="300"
   xmlns:inkscape="http://www.inkscape.org/namespaces/inkscape"
   xmlns:sodipodi="http://sodipodi.sourceforge.net/DTD/sodipodi-0.dtd"
   xmlns:xlink="http://www.w3.org/1999/xlink"
   xmlns="http://www.w3.org/2000/svg"
   xmlns:svg="http://www.w3.org/2000/svg"><sodipodi:namedview
     id="namedview7"
     pagecolor="#ffffff"
     bordercolor="#666666"
     borderopacity="1.0"
     inkscape:showpageshadow="2"
     inkscape:pageopacity="0.0"
     inkscape:pagecheckerboard="0"
     inkscape:deskcolor="#d1d1d1"
     inkscape:document-units="mm"
     showgrid="false"
     inkscape:zoom="0.72515434"
     inkscape:cx="288.90402"
     inkscape:cy="337.85911"
     inkscape:window-width="1920"
     inkscape:window-height="1017"
     inkscape:window-x="1912"
     inkscape:window-y="-8"
     inkscape:window-maximized="1"
     inkscape:current-layer="svg5" /><defs
     id="defs2"><linearGradient
   id="linearGradient6703"><stop
     style="stop-color:#000000;stop-opacity:1.0000000;"
     offset="0.0000000"
     id="stop6704" /><stop
     style="stop-color:#7f7f7f;stop-opacity:1.0000000;"
     offset="0.50000000"
     id="stop6705" /><stop
     style="stop-color:#ffffff;stop-opacity:1.0000000;"
     offset="1.0000000"
     id="stop6706" /></linearGradient><linearGradient
   id="linearGradient879"><stop
     style="stop-color:#c3c3c3;stop-opacity:0.54918033;"
     offset="0.0000000"
     id="stop880" /><stop
     style="stop-color:#d4e1e4;stop-opacity:1.0000000;"
     offset="0.50000000"
     id="stop884" /><stop
     style="stop-color:#ddf0f0;stop-opacity:0.59016395;"
     offset="1.0000000"
     id="stop881" /></linearGradient><linearGradient
   x1="1453.8076"
   y1="384.45894"
   x2="1583.5951"
   y2="383.24872"
   id="linearGradient882"
   xlink:href="#linearGradient879"
   gradientTransform="scale(0.55994156,1.7859006)"
   gradientUnits="userSpaceOnUse" /><linearGradient
   x1="568.58307"
   y1="1189.8646"
   x2="567.13932"
   y2="1038.1013"
   id="linearGradient883"
   xlink:href="#linearGradient879"
   spreadMethod="pad"
   gradientTransform="scale(1.4640424,0.68304032)"
   gradientUnits="userSpaceOnUse" /><clipPath
   id="clip0_525_147"><rect
     width="24"
     height="24"
     fill="white"
     id="rect26341" /></clipPath><style
   id="style4881">.cls-1{fill:none;stroke:#020202;stroke-miterlimit:10;stroke-width:1.91px;}</style><clipPath
   clipPathUnits="userSpaceOnUse"
   id="clipPath2471"><path
     d="M 0,0 H 56.693 V 272.126 H 0 Z"
     id="path2469" /></clipPath><linearGradient
   x1="0"
   y1="0"
   x2="0"
   y2="272.12964"
   gradientUnits="userSpaceOnUse"
   id="linearGradient2477"
   gradientTransform="matrix(2.3384702,0,0,2.3384702,753.59705,-989.93593)"><stop
     style="stop-opacity:1;stop-color:#ebebf7"
     offset="0"
     id="stop2473" /><stop
     style="stop-opacity:1;stop-color:#ccccec"
     offset="1"
     id="stop2475" /></linearGradient><clipPath
   clipPathUnits="userSpaceOnUse"
   id="clipPath2719"><path
     d="m -17.00807,-24.09476 v 9.92137 h 34.01614 v -9.92137 z"
     id="path2717" /></clipPath><clipPath
   clipPathUnits="userSpaceOnUse"
   id="clipPath2743"><path
     d="m 209.76639,-26.92943 v 9.92137 h 34.01616 v -9.92137 z"
     id="path2741" /></clipPath><clipPath
   clipPathUnits="userSpaceOnUse"
   id="clipPath3023"><path
     d="m -17.00807,-24.09476 v 9.92137 h 34.01614 v -9.92137 z"
     id="path3021" /></clipPath><clipPath
   clipPathUnits="userSpaceOnUse"
   id="clipPath3043"><path
     d="m 209.76639,-24.09476 v 9.92137 h 34.01616 v -9.92137 z"
     id="path3041" /></clipPath><clipPath
   clipPathUnits="userSpaceOnUse"
   id="clipPath9141"><path
     d="m -17.00807,-24.09476 v 9.92137 h 34.01614 v -9.92137 z"
     id="path9139" /></clipPath><clipPath
   clipPathUnits="userSpaceOnUse"
   id="clipPath9165"><path
     d="m 209.76639,-26.92943 v 9.92137 h 34.01616 v -9.92137 z"
     id="path9163" /></clipPath><clipPath
   clipPathUnits="userSpaceOnUse"
   id="clipPath11751"><g
     id="g11755"><path
       d="m 753.59705,-989.93593 h 132.57489 v 636.35854 H 753.59705 Z"
       id="path11753"
       style="stroke-width:2.33847" /></g></clipPath><inkscape:path-effect
   effect="bspline"
   id="path-effect638"
   is_visible="true"
   lpeversion="1"
   weight="33.333333"
   steps="2"
   helper_size="0"
   apply_no_weight="true"
   apply_with_weight="true"
   only_selected="false" /><inkscape:path-effect
   effect="bspline"
   id="path-effect638-2"
   is_visible="true"
   lpeversion="1"
   weight="33.333333"
   steps="2"
   helper_size="0"
   apply_no_weight="true"
   apply_with_weight="true"
   only_selected="false" /><inkscape:path-effect
   effect="bspline"
   id="path-effect1867"
   is_visible="true"
   lpeversion="1"
   weight="33.333333"
   steps="2"
   helper_size="0"
   apply_no_weight="true"
   apply_with_weight="true"
   only_selected="false" /><inkscape:path-effect
   effect="bspline"
   id="path-effect1883"
   is_visible="true"
   lpeversion="1"
   weight="33.333333"
   steps="2"
   helper_size="0"
   apply_no_weight="true"
   apply_with_weight="true"
   only_selected="false" /><inkscape:path-effect
   effect="bspline"
   id="path-effect1899"
   is_visible="true"
   lpeversion="1"
   weight="33.333333"
   steps="2"
   helper_size="0"
   apply_no_weight="true"
   apply_with_weight="true"
   only_selected="false" /><inkscape:path-effect
   effect="bspline"
   id="path-effect1915"
   is_visible="true"
   lpeversion="1"
   weight="33.333333"
   steps="2"
   helper_size="0"
   apply_no_weight="true"
   apply_with_weight="true"
   only_selected="false" /><clipPath
   id="clipPath4348">
      <path
   clip-rule="nonzero"
   d="M 81,2 H 97 V 18.511719 H 81 Z m 0,0"
   id="path5274" />
    </clipPath><marker
   style="overflow:visible"
   id="Arrow2"
   refX="0"
   refY="0"
   orient="auto-start-reverse"
   inkscape:stockid="Arrow2"
   markerWidth="7.6999998"
   markerHeight="5.5999999"
   viewBox="0 0 7.7 5.6"
   inkscape:isstock="true"
   inkscape:collect="always"
   preserveAspectRatio="xMidYMid"><path
     transform="scale(0.7)"
     d="M -2,-4 9,0 -2,4 c 2,-2.33 2,-5.66 0,-8 z"
     style="fill:context-stroke;fill-rule:evenodd;stroke:none"
     id="arrow2L" /></marker><inkscape:path-effect
   effect="bspline"
   id="path-effect638-6"
   is_visible="true"
   lpeversion="1"
   weight="33.333333"
   steps="2"
   helper_size="0"
   apply_no_weight="true"
   apply_with_weight="true"
   only_selected="false" /><marker
   style="overflow:visible"
   id="Arrow2-1"
   refX="0"
   refY="0"
   orient="auto-start-reverse"
   inkscape:stockid="Arrow2"
   markerWidth="7.6999998"
   markerHeight="5.5999999"
   viewBox="0 0 7.7 5.6"
   inkscape:isstock="true"
   inkscape:collect="always"
   preserveAspectRatio="xMidYMid"><path
     transform="scale(0.7)"
     d="M -2,-4 9,0 -2,4 c 2,-2.33 2,-5.66 0,-8 z"
     style="fill:context-stroke;fill-rule:evenodd;stroke:none"
     id="arrow2L-5" /></marker><inkscape:path-effect
   effect="bspline"
   id="path-effect638-2-5"
   is_visible="true"
   lpeversion="1"
   weight="33.333333"
   steps="2"
   helper_size="0"
   apply_no_weight="true"
   apply_with_weight="true"
   only_selected="false" /><clipPath
   id="clipPath1649">
      <path
   clip-rule="nonzero"
   d="m 121,21 h 7 v 16.449219 h -7 z m 0,0"
   id="path8279" />
    </clipPath><clipPath
   id="clipPath500">
      <path
   clip-rule="nonzero"
   d="m 130,21 h 27 v 16.449219 h -27 z m 0,0"
   id="path9540" />
    </clipPath><clipPath
   id="clipPath4380">
      <path
   clip-rule="nonzero"
   d="m 12,2 h 7 v 16.386719 h -7 z m 0,0"
   id="path8791" />
    </clipPath><clipPath
   id="clipPath3479">
      <path
   clip-rule="nonzero"
   d="m 12,8 h 7 v 16.925781 h -7 z m 0,0"
   id="path1423" />
    </clipPath><clipPath
   id="clipPath5816">
      <path
   clip-rule="nonzero"
   d="m 2,0 h 8 V 15.976563 H 2 Z m 0,0"
   id="path5408" />
    </clipPath><clipPath
   id="clipPath9914">
      <path
   clip-rule="nonzero"
   d="M 1,0 H 11 V 15.976563 H 1 Z m 0,0"
   id="path9121" />
    </clipPath><clipPath
   id="clipPath1139">
      <path
   clip-rule="nonzero"
   d="M 0,0 H 11 V 15.976563 H 0 Z m 0,0"
   id="path559" />
    </clipPath><clipPath
   id="clipPath8260">
      <path
   clip-rule="nonzero"
   d="M 0,0 H 11 V 15.976563 H 0 Z m 0,0"
   id="path9275" />
    </clipPath><clipPath
   id="clipPath5701">
      <path
   clip-rule="nonzero"
   d="M 1,0 H 11 V 15.976563 H 1 Z m 0,0"
   id="path7636" />
    </clipPath><clipPath
   id="clipPath7881">
      <path
   clip-rule="nonzero"
   d="M 0,0 H 11 V 15.976563 H 0 Z m 0,0"
   id="path6891" />
    </clipPath><clipPath
   id="clipPath402">
      <path
   clip-rule="nonzero"
   d="M 1,0 H 11.367188 V 15.976563 H 1 Z m 0,0"
   id="path1399" />
    </clipPath><clipPath
   id="clipPath8071">
      <path
   clip-rule="nonzero"
   d="M 0,0 H 11 V 15.976563 H 0 Z m 0,0"
   id="path8487" />
    </clipPath><clipPath
   id="clipPath6234">
      <path
   clip-rule="nonzero"
   d="m 96,8 h 8 v 16.925781 h -8 z m 0,0"
   id="path3953" />
    </clipPath>
  <clipPath
   id="clipPath8250">
      <path
   clip-rule="nonzero"
   d="M 65,8 H 76 V 24.652344 H 65 Z m 0,0"
   id="path1559" />
    </clipPath>
    <clipPath
   id="clipPath9135">
      <path
   clip-rule="nonzero"
   d="m 121,8 h 8 v 16.652344 h -8 z m 0,0"
   id="path2922" />
    </clipPath>
  <clipPath
   id="clipPath7137">
      <path
   clip-rule="nonzero"
   d="M 0,4 H 12 V 20.066406 H 0 Z m 0,0"
   id="path2335" />
    </clipPath>
    <clipPath
   id="clipPath341">
      <path
   clip-rule="nonzero"
   d="m 126,0 h 8.88281 V 16 H 126 Z m 0,0"
   id="path2907" />
    </clipPath>
  </defs><path
     style="fill:none;stroke:#000000;stroke-width:0.800002;stroke-linecap:butt;stroke-linejoin:miter;stroke-dasharray:none;stroke-opacity:1"
     d="M 38.155643,144.33434 246.3256,32.882289"
     id="path10264"
     sodipodi:nodetypes="cc" /><path
     style="fill:none;stroke:#000000;stroke-width:0.800002;stroke-linecap:butt;stroke-linejoin:miter;stroke-dasharray:3.20000792,0.80000198;stroke-opacity:1;stroke-dashoffset:0"
     d="M 41.61656,160.21522 221.81585,7.622618"
     id="path10264-5"
     sodipodi:nodetypes="cc" /><path
     style="fill:none;stroke:#000000;stroke-width:0.800002;stroke-linecap:butt;stroke-linejoin:miter;stroke-dasharray:0.80000198,0.80000198;stroke-opacity:1;stroke-dashoffset:0"
     d="M 32.276989,114.43497 255.96625,38.808268"
     id="path10264-5-6"
     sodipodi:nodetypes="cc" /><g
     id="g1591"
     transform="matrix(1.1741625,0,0,1.2056514,86.257498,42.211239)"><path
       style="fill:none;stroke:#000000;stroke-width:0.840478;stroke-linecap:butt;stroke-linejoin:miter;stroke-dasharray:none;stroke-opacity:1;marker-end:url(#Arrow2)"
       d="m -61.027197,105.26529 c 0,0 208.199877,0 208.199877,0"
       id="path636"
       inkscape:path-effect="#path-effect638-6"
       inkscape:original-d="M -61.027197,105.26529 H 147.17268"
       sodipodi:nodetypes="cc" /><path
       style="fill:none;stroke:#000000;stroke-width:0.840478;stroke-linecap:butt;stroke-linejoin:miter;stroke-dasharray:none;stroke-opacity:1;marker-end:url(#Arrow2-1)"
       d="m -58.673859,107.61863 c 0,0 0,-134.064882 0,-134.064882"
       id="path636-9"
       inkscape:path-effect="#path-effect638-2-5"
       inkscape:original-d="M -58.673859,107.61863 V -26.446252"
       sodipodi:nodetypes="cc" /></g><text
     xml:space="preserve"
     style="font-size:4.23335px;line-height:1.25;font-family:sans-serif;-inkscape-font-specification:'sans-serif, Normal';text-align:center;text-anchor:middle;stroke-width:0.264584"
     x="-87.936638"
     y="11.984746"
     id="text1661"
     transform="matrix(0,-0.99999918,1.0000008,0,0,0)"><tspan
       sodipodi:role="line"
       id="tspan1659"
       style="font-style:normal;font-variant:normal;font-weight:normal;font-stretch:normal;font-size:12.7001px;font-family:Bahnschrift;-inkscape-font-specification:'Bahnschrift, @wght=300,wdth=87.0';font-variant-ligatures:normal;font-variant-caps:normal;font-variant-numeric:normal;font-variant-east-asian:normal;font-variation-settings:'wdth' 87, 'wght' 300;stroke-width:0.264584"
       x="-87.936638"
       y="11.984746">Response (Y)</tspan></text><text
     xml:space="preserve"
     style="font-size:4.23335px;line-height:1.25;font-family:sans-serif;-inkscape-font-specification:'sans-serif, Normal';text-align:center;text-anchor:middle;stroke-width:0.264584"
     x="139.95593"
     y="181.93968"
     id="text1661-7"><tspan
       sodipodi:role="line"
       id="tspan1659-0"
       style="font-style:normal;font-variant:normal;font-weight:normal;font-stretch:normal;font-size:12.7001px;font-family:Bahnschrift;-inkscape-font-specification:'Bahnschrift, @wght=300,wdth=87.0';font-variant-ligatures:normal;font-variant-caps:normal;font-variant-numeric:normal;font-variant-east-asian:normal;font-variation-settings:'wdth' 87, 'wght' 300;stroke-width:0.264584"
       x="139.95593"
       y="181.93968">Predictor (X)</tspan></text><text
     xml:space="preserve"
     style="font-size:4.23335px;line-height:1.25;font-family:sans-serif;-inkscape-font-specification:'sans-serif, Normal';text-align:center;text-anchor:middle;stroke-width:0.264584"
     id="text1661-7-1"
     transform="translate(79.905404,-45.608107)"><textPath
       xlink:href="#path10264"
       startOffset="50%"
       id="textPath27835"><tspan
         id="tspan1659-0-7"
         style="font-style:normal;font-variant:normal;font-weight:normal;font-stretch:normal;font-size:12.7001px;font-family:Bahnschrift;-inkscape-font-specification:'Bahnschrift, @wght=300,wdth=87.0';font-variant-ligatures:normal;font-variant-caps:normal;font-variant-numeric:normal;font-variant-east-asian:normal;font-variation-settings:'wdth' 87, 'wght' 300;stroke-width:0.264584">line 1</tspan></textPath></text><text
     xml:space="preserve"
     style="font-size:4.23335px;line-height:1.25;font-family:sans-serif;-inkscape-font-specification:'sans-serif, Normal';text-align:center;text-anchor:middle;stroke-width:0.264584"
     id="text1661-7-1-7"
     transform="translate(71.513512,-65.310809)"><textPath
       xlink:href="#path10264-5"
       startOffset="50%"
       id="textPath27838"><tspan
         id="tspan1659-0-7-2"
         style="font-style:normal;font-variant:normal;font-weight:normal;font-stretch:normal;font-size:12.7001px;font-family:Bahnschrift;-inkscape-font-specification:'Bahnschrift, @wght=300,wdth=87.0';font-variant-ligatures:normal;font-variant-caps:normal;font-variant-numeric:normal;font-variant-east-asian:normal;font-variation-settings:'wdth' 87, 'wght' 300;stroke-width:0.264584">line 2</tspan></textPath></text><text
     xml:space="preserve"
     style="font-size:4.23335px;line-height:1.25;font-family:sans-serif;-inkscape-font-specification:'sans-serif, Normal';text-align:center;text-anchor:middle;stroke-width:0.264584"
     id="text1661-7-1-3"
     transform="translate(86.472966,-17.513513)"><textPath
       xlink:href="#path10264-5-6"
       startOffset="50%"
       id="textPath27841"><tspan
         id="tspan1659-0-7-5"
         style="font-style:normal;font-variant:normal;font-weight:normal;font-stretch:normal;font-size:12.7001px;font-family:Bahnschrift;-inkscape-font-specification:'Bahnschrift, @wght=300,wdth=87.0';font-variant-ligatures:normal;font-variant-caps:normal;font-variant-numeric:normal;font-variant-east-asian:normal;font-variation-settings:'wdth' 87, 'wght' 300;stroke-width:0.264584">line 3</tspan></textPath></text><ellipse
     style="font-variation-settings:'wdth' 87, 'wght' 300;fill:#4a4a4a;fill-opacity:1;fill-rule:evenodd;stroke:none;stroke-width:0.28723;stroke-linecap:round;stroke-opacity:1"
     id="path10144"
     cx="35.764366"
     cy="130.99315"
     rx="2.3582788"
     ry="2.3544755" /><ellipse
     style="font-variation-settings:'wdth' 87, 'wght' 300;fill:#4a4a4a;fill-opacity:1;fill-rule:evenodd;stroke:none;stroke-width:0.28723;stroke-linecap:round;stroke-opacity:1"
     id="path10144-7"
     cx="76.994179"
     cy="135.91881"
     rx="2.3582788"
     ry="2.3544755" /><ellipse
     style="font-variation-settings:'wdth' 87, 'wght' 300;fill:#4a4a4a;fill-opacity:1;fill-rule:evenodd;stroke:none;stroke-width:0.28723;stroke-linecap:round;stroke-opacity:1"
     id="path10144-6"
     cx="64.532639"
     cy="93.378845"
     rx="2.3582788"
     ry="2.3544755" /><ellipse
     style="font-variation-settings:'wdth' 87, 'wght' 300;fill:#4a4a4a;fill-opacity:1;fill-rule:evenodd;stroke:none;stroke-width:0.28723;stroke-linecap:round;stroke-opacity:1"
     id="path10144-64"
     cx="102.72909"
     cy="95.733322"
     rx="2.3582788"
     ry="2.3544755" /><ellipse
     style="font-variation-settings:'wdth' 87, 'wght' 300;fill:#4a4a4a;fill-opacity:1;fill-rule:evenodd;stroke:none;stroke-width:0.28723;stroke-linecap:round;stroke-opacity:1"
     id="path10144-68"
     cx="205.42688"
     cy="71.70253"
     rx="2.3582788"
     ry="2.3544755" /><ellipse
     style="font-variation-settings:'wdth' 87, 'wght' 300;fill:#4a4a4a;fill-opacity:1;fill-rule:evenodd;stroke:none;stroke-width:0.28723;stroke-linecap:round;stroke-opacity:1"
     id="path10144-5"
     cx="234.25128"
     cy="27.188959"
     rx="2.358279"
     ry="2.3544755" /><ellipse
     style="font-variation-settings:'wdth' 87, 'wght' 300;fill:#4a4a4a;fill-opacity:1;fill-rule:evenodd;stroke:none;stroke-width:0.28723;stroke-linecap:round;stroke-opacity:1"
     id="path10144-17"
     cx="179.88629"
     cy="56.74305"
     rx="2.3582788"
     ry="2.3544755" /><ellipse
     style="font-variation-settings:'wdth' 87, 'wght' 300;fill:#4a4a4a;fill-opacity:1;fill-rule:evenodd;stroke:none;stroke-width:0.28723;stroke-linecap:round;stroke-opacity:1"
     id="path10144-1"
     cx="130.90308"
     cy="62.637051"
     rx="2.3582788"
     ry="2.3544755" /><g
     inkscape:label=""
     transform="translate(32.655403,41.229739)"
     id="g28920"><g
   fill="#000000"
   fill-opacity="1"
   id="g32"
   transform="matrix(0.352778,0,0,0.352778,-0.402387,-0.00348345)">
    <g
   id="use30"
   transform="translate(0,17.215)">
      <path
   d="M 7.21875,-5.625 C 7.578125,-5.625 8,-5.625 8,-6.015625 8,-6.34375 7.75,-6.34375 7.3125,-6.34375 H 3.296875 c 0.625,-2.25 2.078125,-3.625 4.28125,-3.625 h 0.71875 c 0.421875,0 0.796875,0 0.796875,-0.390625 0,-0.328125 -0.265625,-0.328125 -0.71875,-0.328125 H 7.53125 c -3.046875,0 -6.390625,2.4375 -6.390625,6.328125 0,2.75 1.859375,4.609375 4.3125,4.609375 1.578125,0 3.140625,-1 3.140625,-1.234375 0,-0.15625 -0.0625,-0.296875 -0.21875,-0.296875 -0.078125,0 -0.125,0.015625 -0.25,0.109375 C 7.1875,-0.546875 6.265625,-0.25 5.53125,-0.25 c -1.3125,0 -2.703125,-0.859375 -2.703125,-3.265625 0,-0.46875 0.046875,-1.125 0.265625,-2.109375 z m 0,0"
   id="path64" />
    </g>
  </g>
  <g
   fill="#000000"
   fill-opacity="1"
   id="g36"
   transform="matrix(0.352778,0,0,0.352778,-0.402387,-0.00348345)">
    <g
   id="use34"
   transform="translate(16.684999,17.215)">
      <path
   d="m 15.9375,-7.953125 c 0.375,0 0.734375,0 0.734375,-0.421875 0,-0.453125 -0.421875,-0.453125 -0.84375,-0.453125 H 1.984375 c -0.421875,0 -0.84375,0 -0.84375,0.453125 0,0.421875 0.375,0.421875 0.75,0.421875 z m -0.109375,4.40625 c 0.421875,0 0.84375,0 0.84375,-0.4375 0,-0.421875 -0.359375,-0.421875 -0.734375,-0.421875 H 1.890625 c -0.375,0 -0.75,0 -0.75,0.421875 0,0.4375 0.421875,0.4375 0.84375,0.4375 z m 0,0"
   id="path68" />
    </g>
  </g>
  <g
   fill="#000000"
   fill-opacity="1"
   id="g40"
   transform="matrix(0.352778,0,0,0.352778,-0.402387,-0.00348345)">
    <g
   id="use38"
   transform="translate(43.438999,17.212999)">
      <path
   d="m 5.671875,-17.203125 -3.046875,3.375 0.296875,0.296875 2.75,-2.671875 2.75,2.671875 0.296875,-0.296875 z m 0,0"
   id="path72" />
    </g>
  </g>
  <g
   fill="#000000"
   fill-opacity="1"
   id="g44"
   transform="matrix(0.352778,0,0,0.352778,-0.402387,-0.00348345)">
    <g
   id="use42"
   transform="translate(41.412998,17.215)">
      <path
   d="M 6.515625,2.78125 C 5.84375,3.71875 4.875,4.5625 3.671875,4.5625 3.375,4.5625 2.1875,4.515625 1.8125,3.375 1.890625,3.390625 2,3.390625 2.0625,3.390625 2.796875,3.390625 3.296875,2.75 3.296875,2.1875 3.296875,1.609375 2.828125,1.40625 2.453125,1.40625 2.0625,1.40625 1.1875,1.703125 1.1875,2.921875 1.1875,4.1875 2.25,5.0625 3.671875,5.0625 c 2.46875,0 4.984375,-2.28125 5.671875,-5.03125 l 2.421875,-9.671875 c 0.03125,-0.125 0.07813,-0.265625 0.07813,-0.421875 0,-0.375 -0.296875,-0.625 -0.671875,-0.625 -0.21875,0 -0.734375,0.109375 -0.9375,0.84375 l -1.82813,7.296875 c -0.125,0.4375 -0.125,0.484375 -0.328125,0.765625 -0.5,0.6875 -1.3125,1.53125 -2.5,1.53125 C 4.1875,-0.25 4.0625,-1.609375 4.0625,-2.28125 c 0,-1.40625 0.671875,-3.3125 1.34375,-5.109375 0.265625,-0.71875 0.421875,-1.0625 0.421875,-1.5625 0,-1.03125 -0.75,-1.96875 -1.96875,-1.96875 -2.265625,0 -3.1875,3.59375 -3.1875,3.78125 0,0.109375 0.09375,0.234375 0.265625,0.234375 0.234375,0 0.25,-0.109375 0.34375,-0.453125 0.609375,-2.078125 1.546875,-3.078125 2.515625,-3.078125 0.21875,0 0.640625,0 0.640625,0.828125 0,0.640625 -0.28125,1.359375 -0.640625,2.296875 -1.21875,3.25 -1.21875,4.0625 -1.21875,4.65625 0,2.359375 1.6875,2.90625 2.921875,2.90625 0.71875,0 1.609375,-0.21875 2.484375,-1.140625 L 8,-0.875 C 7.625,0.59375 7.390625,1.5625 6.515625,2.78125 Z m 0,0"
   id="path76" />
    </g>
  </g>
  <g
   fill="#000000"
   fill-opacity="1"
   id="g48"
   transform="matrix(0.352778,0,0,0.352778,-0.402387,-0.00348345)">
    <g
   id="use46"
   transform="translate(59.645,17.215)">
      <path
   d="m 16.328125,-5.703125 c 0.421875,0 0.875,0 0.875,-0.484375 0,-0.5 -0.453125,-0.5 -0.875,-0.5 H 2.921875 c -0.421875,0 -0.859375,0 -0.859375,0.5 0,0.484375 0.4375,0.484375 0.859375,0.484375 z m 0,0"
   id="path80" />
    </g>
  </g>
  <g
   fill="#000000"
   fill-opacity="1"
   id="g52"
   transform="matrix(0.352778,0,0,0.352778,-0.402387,-0.00348345)">
    <g
   id="use50"
   transform="translate(84.431999,17.215)">
      <path
   d="M 6.515625,2.78125 C 5.84375,3.71875 4.875,4.5625 3.671875,4.5625 3.375,4.5625 2.1875,4.515625 1.8125,3.375 1.890625,3.390625 2,3.390625 2.0625,3.390625 2.796875,3.390625 3.296875,2.75 3.296875,2.1875 3.296875,1.609375 2.828125,1.40625 2.453125,1.40625 2.0625,1.40625 1.1875,1.703125 1.1875,2.921875 1.1875,4.1875 2.25,5.0625 3.671875,5.0625 c 2.46875,0 4.984375,-2.28125 5.671875,-5.03125 l 2.421875,-9.671875 c 0.03125,-0.125 0.07813,-0.265625 0.07813,-0.421875 0,-0.375 -0.296875,-0.625 -0.671875,-0.625 -0.21875,0 -0.734375,0.109375 -0.9375,0.84375 l -1.82813,7.296875 c -0.125,0.4375 -0.125,0.484375 -0.328125,0.765625 -0.5,0.6875 -1.3125,1.53125 -2.5,1.53125 C 4.1875,-0.25 4.0625,-1.609375 4.0625,-2.28125 c 0,-1.40625 0.671875,-3.3125 1.34375,-5.109375 0.265625,-0.71875 0.421875,-1.0625 0.421875,-1.5625 0,-1.03125 -0.75,-1.96875 -1.96875,-1.96875 -2.265625,0 -3.1875,3.59375 -3.1875,3.78125 0,0.109375 0.09375,0.234375 0.265625,0.234375 0.234375,0 0.25,-0.109375 0.34375,-0.453125 0.609375,-2.078125 1.546875,-3.078125 2.515625,-3.078125 0.21875,0 0.640625,0 0.640625,0.828125 0,0.640625 -0.28125,1.359375 -0.640625,2.296875 -1.21875,3.25 -1.21875,4.0625 -1.21875,4.65625 0,2.359375 1.6875,2.90625 2.921875,2.90625 0.71875,0 1.609375,-0.21875 2.484375,-1.140625 L 8,-0.875 C 7.625,0.59375 7.390625,1.5625 6.515625,2.78125 Z m 0,0"
   id="path84" />
    </g>
  </g>
  <g
   clip-path="url(#clipPath6234)"
   id="g58"
   transform="matrix(0.352778,0,0,0.352778,-0.402387,-0.00348345)">
    <g
   fill="#000000"
   fill-opacity="1"
   id="g56">
      <g
   id="use54"
   transform="translate(96.265999,24.927)">
        <path
   d="m 7.015625,-3.546875 c 0,-0.125 -0.109375,-0.21875 -0.25,-0.21875 -0.21875,0 -0.25,0.078125 -0.375,0.5 C 5.75,-1.015625 4.734375,-0.25 3.921875,-0.25 c -0.296875,0 -0.65625,-0.078125 -0.65625,-0.8125 0,-0.671875 0.296875,-1.421875 0.578125,-2.15625 l 1.734375,-4.609375 c 0.078125,-0.203125 0.25,-0.640625 0.25,-1.125 0,-1.03125 -0.75,-1.96875 -1.96875,-1.96875 -2.265625,0 -3.1875,3.59375 -3.1875,3.78125 0,0.109375 0.09375,0.234375 0.265625,0.234375 0.234375,0 0.25,-0.109375 0.34375,-0.453125 0.609375,-2.078125 1.546875,-3.078125 2.515625,-3.078125 0.21875,0 0.640625,0.03125 0.640625,0.828125 0,0.640625 -0.328125,1.453125 -0.515625,2 L 2.1875,-3 c -0.15625,0.390625 -0.296875,0.796875 -0.296875,1.234375 0,1.125 0.765625,2.015625 1.953125,2.015625 2.28125,0 3.171875,-3.625 3.171875,-3.796875 z M 6.8125,-15.46875 c 0,-0.359375 -0.296875,-0.8125 -0.84375,-0.8125 -0.5625,0 -1.203125,0.546875 -1.203125,1.1875 0,0.625 0.515625,0.8125 0.8125,0.8125 0.671875,0 1.234375,-0.640625 1.234375,-1.1875 z m 0,0"
   id="path88" />
      </g>
    </g>
  </g>
</g><g
     inkscape:label=""
     transform="translate(32.655403,22.621631)"
     id="g29994"><g
   fill="#000000"
   fill-opacity="1"
   id="g41"
   transform="matrix(0.352778,0,0,0.352778,-0.286632,0.0902231)">
    <g
   id="use39"
   transform="translate(0,17.212999)">
      <path
   d="m 14.578125,-14.171875 0.5625,-0.578125 c 1.09375,-1.109375 2.015625,-1.375 2.875,-1.453125 0.265625,-0.03125 0.5,-0.04687 0.5,-0.46875 0,-0.25 -0.25,-0.25 -0.296875,-0.25 -0.296875,0 -0.625,0.04687 -0.921875,0.04687 H 16.28125 c -0.71875,0 -1.484375,-0.04687 -2.1875,-0.04687 -0.171875,0 -0.4375,0 -0.4375,0.46875 0,0.21875 0.25,0.25 0.328125,0.25 0.734375,0.04687 0.734375,0.421875 0.734375,0.5625 0,0.28125 -0.203125,0.640625 -0.6875,1.21875 L 8.125,-7.65625 5.328125,-15.1875 c -0.15625,-0.34375 -0.15625,-0.40625 -0.15625,-0.453125 0,-0.515625 1.015625,-0.5625 1.328125,-0.5625 0.296875,0 0.5625,0 0.5625,-0.453125 0,-0.265625 -0.21875,-0.265625 -0.375,-0.265625 -0.421875,0 -0.90625,0.04687 -1.328125,0.04687 h -2.75 c -0.453125,0 -0.921875,-0.04687 -1.34375,-0.04687 -0.171875,0 -0.453125,0 -0.453125,0.46875 0,0.25 0.234375,0.25 0.59375,0.25 1.21875,0 1.4375,0.21875 1.671875,0.796875 l 3.0625,8.25 C 6.171875,-7.09375 6.25,-6.8125 6.25,-6.734375 c 0,0.0625 -1.21875,4.953125 -1.296875,5.203125 -0.1875,0.65625 -0.4375,0.78125 -2.03125,0.8125 -0.421875,0 -0.625,0 -0.625,0.46875 0,0.25 0.28125,0.25 0.359375,0.25 0.4375,0 0.96875,-0.046875 1.4375,-0.046875 h 2.921875 c 0.4375,0 0.96875,0.046875 1.40625,0.046875 0.171875,0 0.46875,0 0.46875,-0.453125 0,-0.265625 -0.171875,-0.265625 -0.59375,-0.265625 -1.53125,0 -1.53125,-0.171875 -1.53125,-0.453125 C 6.765625,-1.34375 6.96875,-2.125 7.09375,-2.625 L 7.984375,-6.1875 C 8.125,-6.71875 8.125,-6.765625 8.34375,-7.015625 Z m 0,0"
   id="path83" />
    </g>
  </g>
  <g
   fill="#000000"
   fill-opacity="1"
   id="g45"
   transform="matrix(0.352778,0,0,0.352778,-0.286632,0.0902231)">
    <g
   id="use43"
   transform="translate(26.360001,17.212999)">
      <path
   d="m 15.9375,-7.953125 c 0.375,0 0.734375,0 0.734375,-0.421875 0,-0.453125 -0.421875,-0.453125 -0.84375,-0.453125 H 1.984375 c -0.421875,0 -0.84375,0 -0.84375,0.453125 0,0.421875 0.375,0.421875 0.75,0.421875 z m -0.109375,4.40625 c 0.421875,0 0.84375,0 0.84375,-0.4375 0,-0.421875 -0.359375,-0.421875 -0.734375,-0.421875 H 1.890625 c -0.375,0 -0.75,0 -0.75,0.421875 0,0.4375 0.421875,0.4375 0.84375,0.4375 z m 0,0"
   id="path87" />
    </g>
  </g>
  <g
   fill="#000000"
   fill-opacity="1"
   id="g49"
   transform="matrix(0.352778,0,0,0.352778,-0.286632,0.0902231)">
    <g
   id="use47"
   transform="translate(51.088001,17.212999)">
      <path
   d="m 14.03125,-14.421875 c 0,-1.484375 -1.265625,-3.046875 -3.53125,-3.046875 -3.1875,0 -5.21875,3.90625 -5.859375,6.484375 L 0.71875,4.5625 c -0.046875,0.203125 0.09375,0.25 0.21875,0.25 0.171875,0 0.296875,-0.03125 0.328125,-0.15625 L 3,-2.28125 C 3.25,-0.890625 4.609375,0.25 6.078125,0.25 c 3.53125,0 6.875,-2.78125 6.875,-6.46875 0,-0.9375 -0.21875,-1.890625 -0.734375,-2.671875 -0.296875,-0.484375 -0.671875,-0.828125 -1.0625,-1.125 1.78125,-0.9375 2.875,-2.453125 2.875,-4.40625 z m -4.3125,4.390625 c -0.40625,0.140625 -0.796875,0.1875 -1.265625,0.1875 -0.34375,0 -0.671875,0.03125 -1.125,-0.125 0.25,-0.171875 0.625,-0.21875 1.140625,-0.21875 0.453125,0 0.90625,0.04687 1.25,0.15625 z m 3.015625,-4.609375 c 0,1.359375 -0.671875,3.34375 -2.28125,4.25 C 9.984375,-10.5625 9.34375,-10.6875 8.796875,-10.6875 c -0.515625,0 -2,-0.04687 -2,0.75 0,0.671875 1.359375,0.59375 1.78125,0.59375 0.640625,0 1.203125,-0.140625 1.8125,-0.328125 0.78125,0.65625 1.125,1.5 1.125,2.734375 0,1.4375 -0.390625,2.59375 -0.859375,3.671875 C 9.84375,-1.4375 7.90625,-0.25 6.1875,-0.25 c -1.796875,0 -2.75,-1.4375 -2.75,-3.125 0,-0.21875 0,-0.546875 0.109375,-0.90625 l 1.609375,-6.515625 c 0.8125,-3.25 2.890625,-6.171875 5.296875,-6.171875 1.78125,0 2.28125,1.234375 2.28125,2.328125 z m 0,0"
   id="path91" />
    </g>
  </g>
  <g
   clip-path="url(#clipPath8250)"
   id="g55"
   transform="matrix(0.352778,0,0,0.352778,-0.286632,0.0902231)">
    <g
   fill="#000000"
   fill-opacity="1"
   id="g53">
      <g
   id="use51"
   transform="translate(64.790001,24.653)">
        <path
   d="m 10.40625,-7.953125 c 0,-1.515625 -0.01563,-4.09375 -1.0625,-6.078125 -0.921875,-1.734375 -2.375,-2.34375 -3.671875,-2.34375 -1.1875,0 -2.703125,0.546875 -3.640625,2.328125 -0.984375,1.859375 -1.09375,4.15625 -1.09375,6.09375 0,1.40625 0.03125,3.5625 0.796875,5.453125 1.0625,2.546875 2.96875,2.890625 3.9375,2.890625 1.140625,0 2.875,-0.46875 3.890625,-2.8125 0.75,-1.71875 0.84375,-3.71875 0.84375,-5.53125 z M 5.671875,0 C 4.09375,0 3.140625,-1.359375 2.796875,-3.25 2.53125,-4.703125 2.53125,-6.84375 2.53125,-8.234375 c 0,-1.90625 0,-3.484375 0.3125,-5 0.484375,-2.109375 1.859375,-2.75 2.828125,-2.75 1.015625,0 2.328125,0.671875 2.796875,2.703125 0.328125,1.40625 0.359375,3.078125 0.359375,5.046875 0,1.625 0,3.59375 -0.296875,5.0625 C 8,-0.46875 6.546875,0 5.671875,0 Z m 0,0"
   id="path95" />
      </g>
    </g>
  </g>
  <g
   fill="#000000"
   fill-opacity="1"
   id="g59"
   transform="matrix(0.352778,0,0,0.352778,-0.286632,0.0902231)">
    <g
   id="use57"
   transform="translate(82.164001,17.212999)">
      <path
   d="m 9.34375,-5.75 h 6.5625 c 0.34375,0 0.765625,0 0.765625,-0.421875 0,-0.4375 -0.390625,-0.4375 -0.765625,-0.4375 H 9.34375 V -13.1875 c 0,-0.34375 0,-0.765625 -0.421875,-0.765625 -0.453125,0 -0.453125,0.390625 -0.453125,0.765625 v 6.578125 h -6.5625 c -0.34375,0 -0.765625,0 -0.765625,0.421875 0,0.4375 0.390625,0.4375 0.765625,0.4375 h 6.5625 v 6.5625 c 0,0.359375 0,0.78125 0.421875,0.78125 0.453125,0 0.453125,-0.40625 0.453125,-0.78125 z m 0,0"
   id="path99" />
    </g>
  </g>
  <g
   fill="#000000"
   fill-opacity="1"
   id="g63"
   transform="matrix(0.352778,0,0,0.352778,-0.286632,0.0902231)">
    <g
   id="use61"
   transform="translate(105.515,17.212999)">
      <path
   d="m 14.03125,-14.421875 c 0,-1.484375 -1.265625,-3.046875 -3.53125,-3.046875 -3.1875,0 -5.21875,3.90625 -5.859375,6.484375 L 0.71875,4.5625 c -0.046875,0.203125 0.09375,0.25 0.21875,0.25 0.171875,0 0.296875,-0.03125 0.328125,-0.15625 L 3,-2.28125 C 3.25,-0.890625 4.609375,0.25 6.078125,0.25 c 3.53125,0 6.875,-2.78125 6.875,-6.46875 0,-0.9375 -0.21875,-1.890625 -0.734375,-2.671875 -0.296875,-0.484375 -0.671875,-0.828125 -1.0625,-1.125 1.78125,-0.9375 2.875,-2.453125 2.875,-4.40625 z m -4.3125,4.390625 c -0.40625,0.140625 -0.796875,0.1875 -1.265625,0.1875 -0.34375,0 -0.671875,0.03125 -1.125,-0.125 0.25,-0.171875 0.625,-0.21875 1.140625,-0.21875 0.453125,0 0.90625,0.04687 1.25,0.15625 z m 3.015625,-4.609375 c 0,1.359375 -0.671875,3.34375 -2.28125,4.25 C 9.984375,-10.5625 9.34375,-10.6875 8.796875,-10.6875 c -0.515625,0 -2,-0.04687 -2,0.75 0,0.671875 1.359375,0.59375 1.78125,0.59375 0.640625,0 1.203125,-0.140625 1.8125,-0.328125 0.78125,0.65625 1.125,1.5 1.125,2.734375 0,1.4375 -0.390625,2.59375 -0.859375,3.671875 C 9.84375,-1.4375 7.90625,-0.25 6.1875,-0.25 c -1.796875,0 -2.75,-1.4375 -2.75,-3.125 0,-0.21875 0,-0.546875 0.109375,-0.90625 l 1.609375,-6.515625 c 0.8125,-3.25 2.890625,-6.171875 5.296875,-6.171875 1.78125,0 2.28125,1.234375 2.28125,2.328125 z m 0,0"
   id="path103" />
    </g>
  </g>
  <g
   clip-path="url(#clipPath9135)"
   id="g69"
   transform="matrix(0.352778,0,0,0.352778,-0.286632,0.0902231)">
    <g
   fill="#000000"
   fill-opacity="1"
   id="g67">
      <g
   id="use65"
   transform="translate(119.216,24.653)">
        <path
   d="m 6.59375,-15.828125 c 0,-0.53125 -0.03125,-0.546875 -0.375,-0.546875 -0.96875,1.15625 -2.421875,1.53125 -3.8125,1.578125 -0.078125,0 -0.203125,0 -0.21875,0.04687 -0.03125,0.0625 -0.03125,0.109375 -0.03125,0.625 0.765625,0 2.0625,-0.15625 3.046875,-0.75 v 13.0625 c 0,0.875 -0.046875,1.171875 -2.1875,1.171875 H 2.28125 V 0 c 1.1875,-0.03125 2.421875,-0.046875 3.609375,-0.046875 1.203125,0 2.4375,0.015625 3.625,0.046875 v -0.640625 h -0.75 c -2.125,0 -2.171875,-0.28125 -2.171875,-1.171875 z m 0,0"
   id="path107" />
      </g>
    </g>
  </g>
  <g
   fill="#000000"
   fill-opacity="1"
   id="g73"
   transform="matrix(0.352778,0,0,0.352778,-0.286632,0.0902231)">
    <g
   id="use71"
   transform="translate(136.591,17.212999)">
      <path
   d="m 4.765625,-6.1875 c 0,-0.71875 -0.609375,-1.328125 -1.328125,-1.328125 -0.71875,0 -1.3125,0.609375 -1.3125,1.328125 0,0.703125 0.59375,1.3125 1.3125,1.3125 0.71875,0 1.328125,-0.609375 1.328125,-1.3125 z m 0,0"
   id="path111" />
    </g>
  </g>
  <g
   fill="#000000"
   fill-opacity="1"
   id="g77"
   transform="matrix(0.352778,0,0,0.352778,-0.286632,0.0902231)">
    <g
   id="use75"
   transform="translate(148.98399,17.212999)">
      <path
   d="M 11.765625,-10.0625 9.4375,-15.484375 c 0.328125,-0.59375 1.0625,-0.703125 1.359375,-0.71875 0.15625,0 0.421875,-0.03125 0.421875,-0.453125 0,-0.265625 -0.21875,-0.265625 -0.359375,-0.265625 -0.421875,0 -0.921875,0.04687 -1.34375,0.04687 h -1.4375 c -1.515625,0 -2.59375,-0.04687 -2.625,-0.04687 -0.203125,0 -0.453125,0 -0.453125,0.46875 0,0.25 0.234375,0.25 0.546875,0.25 1.4375,0 1.546875,0.25 1.78125,0.84375 l 2.953125,6.890625 -5.375,5.75 c -0.890625,0.953125 -1.953125,1.90625 -3.796875,2 C 0.8125,-0.6875 0.625,-0.6875 0.625,-0.25 0.625,-0.171875 0.640625,0 0.921875,0 c 0.34375,0 0.71875,-0.046875 1.0625,-0.046875 h 1.15625 C 3.9375,-0.046875 4.8125,0 5.578125,0 5.75,0 6.046875,0 6.046875,-0.453125 6.046875,-0.6875 5.875,-0.71875 5.71875,-0.71875 5.234375,-0.765625 4.90625,-1.046875 4.90625,-1.4375 c 0,-0.421875 0.296875,-0.71875 1.015625,-1.46875 L 8.125,-5.296875 C 8.671875,-5.875 9.984375,-7.3125 10.53125,-7.859375 l 2.609375,6.09375 c 0.01563,0.0625 0.125,0.296875 0.125,0.328125 0,0.21875 -0.546875,0.671875 -1.34375,0.71875 C 11.765625,-0.71875 11.5,-0.6875 11.5,-0.25 11.5,0 11.75,0 11.875,0 c 0.421875,0 0.90625,-0.046875 1.328125,-0.046875 H 15.9375 C 16.375,-0.046875 16.84375,0 17.265625,0 c 0.1875,0 0.453125,0 0.453125,-0.46875 0,-0.25 -0.25,-0.25 -0.46875,-0.25 C 15.765625,-0.75 15.71875,-0.875 15.296875,-1.78125 l -3.28125,-7.6875 3.15625,-3.375 c 0.234375,-0.234375 0.8125,-0.859375 1.03125,-1.109375 1.0625,-1.109375 2.0625,-2.125 4.0625,-2.25 0.25,-0.03125 0.5,-0.03125 0.5,-0.453125 0,-0.265625 -0.21875,-0.265625 -0.328125,-0.265625 -0.34375,0 -0.71875,0.04687 -1.0625,0.04687 h -1.140625 c -0.78125,0 -1.65625,-0.04687 -2.421875,-0.04687 -0.171875,0 -0.46875,0 -0.46875,0.4375 0,0.25 0.171875,0.28125 0.3125,0.28125 0.40625,0.04687 0.828125,0.25 0.828125,0.71875 l -0.03125,0.04687 c -0.01563,0.171875 -0.07813,0.421875 -0.34375,0.71875 z m 0,0"
   id="path115" />
    </g>
  </g>
</g><g
     inkscape:label=""
     transform="matrix(0.64,0,0,0.64,101.69588,23.926122)"
     id="g31165"><g
   clip-path="url(#clipPath7137)"
   id="g31132"
   transform="matrix(0.352778,0,0,0.352778,-0.237023,0.0840933)">
    <g
   fill="#000000"
   fill-opacity="1"
   id="g38">
      <g
   id="use36"
   transform="translate(0,15.246)">
        <path
   d="M 6.515625,2.78125 C 5.84375,3.71875 4.875,4.5625 3.671875,4.5625 3.375,4.5625 2.1875,4.515625 1.8125,3.375 1.890625,3.390625 2,3.390625 2.0625,3.390625 2.796875,3.390625 3.296875,2.75 3.296875,2.1875 3.296875,1.609375 2.828125,1.40625 2.453125,1.40625 2.0625,1.40625 1.1875,1.703125 1.1875,2.921875 1.1875,4.1875 2.25,5.0625 3.671875,5.0625 c 2.46875,0 4.984375,-2.28125 5.671875,-5.03125 l 2.421875,-9.671875 c 0.03125,-0.125 0.07813,-0.265625 0.07813,-0.421875 0,-0.375 -0.296875,-0.625 -0.671875,-0.625 -0.21875,0 -0.734375,0.109375 -0.9375,0.84375 l -1.82813,7.296875 c -0.125,0.4375 -0.125,0.484375 -0.328125,0.765625 -0.5,0.6875 -1.3125,1.53125 -2.5,1.53125 C 4.1875,-0.25 4.0625,-1.609375 4.0625,-2.28125 c 0,-1.40625 0.671875,-3.3125 1.34375,-5.109375 0.265625,-0.71875 0.421875,-1.0625 0.421875,-1.5625 0,-1.03125 -0.75,-1.96875 -1.96875,-1.96875 -2.265625,0 -3.1875,3.59375 -3.1875,3.78125 0,0.109375 0.09375,0.234375 0.265625,0.234375 0.234375,0 0.25,-0.109375 0.34375,-0.453125 0.609375,-2.078125 1.546875,-3.078125 2.515625,-3.078125 0.21875,0 0.640625,0 0.640625,0.828125 0,0.640625 -0.28125,1.359375 -0.640625,2.296875 -1.21875,3.25 -1.21875,4.0625 -1.21875,4.65625 0,2.359375 1.6875,2.90625 2.921875,2.90625 0.71875,0 1.609375,-0.21875 2.484375,-1.140625 L 8,-0.875 C 7.625,0.59375 7.390625,1.5625 6.515625,2.78125 Z m 0,0"
   id="path31128" />
      </g>
    </g>
  </g>
  <g
   fill="#000000"
   fill-opacity="1"
   id="g31138"
   transform="matrix(0.352778,0,0,0.352778,-0.237023,0.0840933)">
    <g
   id="g31136"
   transform="translate(19.608999,15.246)">
      <path
   d="m 15.9375,-7.953125 c 0.375,0 0.734375,0 0.734375,-0.421875 0,-0.453125 -0.421875,-0.453125 -0.84375,-0.453125 H 1.984375 c -0.421875,0 -0.84375,0 -0.84375,0.453125 0,0.421875 0.375,0.421875 0.75,0.421875 z m -0.109375,4.40625 c 0.421875,0 0.84375,0 0.84375,-0.4375 0,-0.421875 -0.359375,-0.421875 -0.734375,-0.421875 H 1.890625 c -0.375,0 -0.75,0 -0.75,0.421875 0,0.4375 0.421875,0.4375 0.84375,0.4375 z m 0,0"
   id="path31134" />
    </g>
  </g>
  <g
   fill="#000000"
   fill-opacity="1"
   id="g31144"
   transform="matrix(0.352778,0,0,0.352778,-0.237023,0.0840933)">
    <g
   id="g31142"
   transform="translate(44.335999,15.246)">
      <path
   d="M 5.109375,-7.265625 C 5.15625,-7.40625 5.78125,-8.65625 6.6875,-9.4375 c 0.640625,-0.59375 1.484375,-1 2.453125,-1 1,0 1.34375,0.75 1.34375,1.734375 0,0.15625 0,0.65625 -0.296875,1.8125 l -0.625,2.546875 c -0.1875,0.75 -0.671875,2.578125 -0.71875,2.859375 -0.09375,0.375 -0.25,1.015625 -0.25,1.109375 0,0.34375 0.28125,0.625 0.65625,0.625 0.734375,0 0.859375,-0.578125 1.078125,-1.46875 l 1.5,-5.921875 c 0.04687,-0.1875 1.328125,-3.296875 4.0625,-3.296875 0.984375,0 1.328125,0.75 1.328125,1.734375 0,1.390625 -0.96875,4.09375 -1.5,5.578125 -0.234375,0.59375 -0.359375,0.921875 -0.359375,1.359375 0,1.125 0.765625,2.015625 1.96875,2.015625 C 19.625,0.25 20.5,-3.390625 20.5,-3.546875 c 0,-0.125 -0.109375,-0.21875 -0.25,-0.21875 -0.234375,0 -0.25,0.078125 -0.375,0.5 C 19.296875,-1.28125 18.390625,-0.25 17.390625,-0.25 17.15625,-0.25 16.75,-0.265625 16.75,-1.0625 c 0,-0.640625 0.296875,-1.4375 0.40625,-1.71875 0.4375,-1.1875 1.546875,-4.109375 1.546875,-5.546875 0,-1.484375 -0.859375,-2.59375 -2.75,-2.59375 -1.65625,0 -3,0.9375 -3.984375,2.390625 -0.07813,-1.328125 -0.890625,-2.390625 -2.75,-2.390625 -2.203125,0 -3.375,1.546875 -3.8125,2.171875 -0.078125,-1.40625 -1.09375,-2.171875 -2.1875,-2.171875 -0.71875,0 -1.28125,0.34375 -1.75,1.28125 -0.453125,0.890625 -0.796875,2.40625 -0.796875,2.5 0,0.109375 0.09375,0.234375 0.265625,0.234375 0.203125,0 0.234375,-0.03125 0.375,-0.609375 0.375,-1.453125 0.84375,-2.921875 1.828125,-2.921875 0.578125,0 0.78125,0.40625 0.78125,1.140625 0,0.546875 -0.25,1.515625 -0.421875,2.28125 L 2.796875,-4.34375 c -0.09375,0.484375 -0.375,1.59375 -0.5,2.046875 C 2.125,-1.65625 1.859375,-0.5 1.859375,-0.375 1.859375,-0.03125 2.125,0.25 2.5,0.25 c 0.296875,0 0.640625,-0.15625 0.84375,-0.515625 0.046875,-0.125 0.28125,-1 0.390625,-1.5 l 0.546875,-2.21875 z m 0,0"
   id="path31140" />
    </g>
  </g>
  <g
   fill="#000000"
   fill-opacity="1"
   id="g31150"
   transform="matrix(0.352778,0,0,0.352778,-0.237023,0.0840933)">
    <g
   id="g31148"
   transform="translate(71.073997,15.246)">
      <path
   d="m 4.765625,-6.1875 c 0,-0.71875 -0.609375,-1.328125 -1.328125,-1.328125 -0.71875,0 -1.3125,0.609375 -1.3125,1.328125 0,0.703125 0.59375,1.3125 1.3125,1.3125 0.71875,0 1.328125,-0.609375 1.328125,-1.3125 z m 0,0"
   id="path31146" />
    </g>
  </g>
  <g
   fill="#000000"
   fill-opacity="1"
   id="g31156"
   transform="matrix(0.352778,0,0,0.352778,-0.237023,0.0840933)">
    <g
   id="g31154"
   transform="translate(83.468002,15.246)">
      <path
   d="m 11.75,-10.109375 c -0.796875,0.140625 -1.09375,0.734375 -1.09375,1.21875 0,0.59375 0.46875,0.78125 0.8125,0.78125 0.75,0 1.265625,-0.640625 1.265625,-1.3125 0,-1.03125 -1.1875,-1.5 -2.234375,-1.5 -1.5,0 -2.34375,1.484375 -2.5625,1.953125 -0.578125,-1.859375 -2.109375,-1.953125 -2.5625,-1.953125 -2.53125,0 -3.859375,3.234375 -3.859375,3.78125 0,0.109375 0.09375,0.234375 0.265625,0.234375 0.203125,0 0.25,-0.15625 0.296875,-0.25 0.84375,-2.75 2.5,-3.28125 3.21875,-3.28125 1.125,0 1.34375,1.046875 1.34375,1.640625 C 6.640625,-8.25 6.5,-7.6875 6.1875,-6.5 l -0.828125,3.40625 c -0.375,1.484375 -1.09375,2.84375 -2.40625,2.84375 -0.125,0 -0.75,0 -1.265625,-0.3125 0.890625,-0.1875 1.09375,-0.921875 1.09375,-1.21875 0,-0.5 -0.375,-0.796875 -0.84375,-0.796875 -0.59375,0 -1.25,0.515625 -1.25,1.3125 0,1.046875 1.171875,1.515625 2.234375,1.515625 1.1875,0 2.03125,-0.9375 2.5625,-1.953125 C 5.875,-0.25 7.109375,0.25 8.03125,0.25 c 2.53125,0 3.859375,-3.25 3.859375,-3.796875 0,-0.125 -0.09375,-0.21875 -0.25,-0.21875 -0.21875,0 -0.234375,0.125 -0.3125,0.328125 -0.671875,2.171875 -2.109375,3.1875 -3.21875,3.1875 -0.875,0 -1.34375,-0.640625 -1.34375,-1.65625 0,-0.546875 0.09375,-0.9375 0.5,-2.578125 L 8.125,-7.859375 C 8.5,-9.34375 9.34375,-10.4375 10.484375,-10.4375 c 0.04687,0 0.734375,0 1.265625,0.328125 z m 0,0"
   id="path31152" />
    </g>
  </g>
  <g
   fill="#000000"
   fill-opacity="1"
   id="g60"
   transform="matrix(0.352778,0,0,0.352778,-0.237023,0.0840933)">
    <g
   id="use58"
   transform="translate(102.768,15.246)">
      <path
   d="m 9.34375,-5.75 h 6.5625 c 0.34375,0 0.765625,0 0.765625,-0.421875 0,-0.4375 -0.390625,-0.4375 -0.765625,-0.4375 H 9.34375 V -13.1875 c 0,-0.34375 0,-0.765625 -0.421875,-0.765625 -0.453125,0 -0.453125,0.390625 -0.453125,0.765625 v 6.578125 h -6.5625 c -0.34375,0 -0.765625,0 -0.765625,0.421875 0,0.4375 0.390625,0.4375 0.765625,0.4375 h 6.5625 v 6.5625 c 0,0.359375 0,0.78125 0.421875,0.78125 0.453125,0 0.453125,-0.40625 0.453125,-0.78125 z m 0,0"
   id="path92" />
    </g>
  </g>
  <g
   clip-path="url(#clipPath341)"
   id="g66"
   transform="matrix(0.352778,0,0,0.352778,-0.237023,0.0840933)">
    <g
   fill="#000000"
   fill-opacity="1"
   id="g64">
      <g
   id="use62"
   transform="translate(126.119,15.246)">
        <path
   d="m 4.984375,-9.96875 h 2.28125 c 0.46875,0 0.71875,0 0.71875,-0.4375 0,-0.28125 -0.15625,-0.28125 -0.65625,-0.28125 H 5.15625 l 0.921875,-3.609375 c 0.09375,-0.34375 0.09375,-0.390625 0.09375,-0.578125 0,-0.390625 -0.328125,-0.609375 -0.640625,-0.609375 -0.203125,0 -0.765625,0.07813 -0.96875,0.859375 l -0.96875,3.9375 H 1.265625 c -0.5,0 -0.71875,0 -0.71875,0.484375 0,0.234375 0.171875,0.234375 0.640625,0.234375 h 2.203125 l -1.625,6.546875 c -0.203125,0.875 -0.28125,1.125 -0.28125,1.4375 0,1.171875 0.8125,2.234375 2.203125,2.234375 2.5,0 3.84375,-3.625 3.84375,-3.796875 0,-0.140625 -0.09375,-0.21875 -0.25,-0.21875 -0.046875,0 -0.140625,0 -0.1875,0.09375 C 7.0625,-3.640625 7.03125,-3.625 6.859375,-3.21875 6.34375,-1.984375 5.203125,-0.25 3.765625,-0.25 c -0.75,0 -0.796875,-0.625 -0.796875,-1.15625 0,-0.03125 0,-0.5 0.078125,-0.796875 z m 0,0"
   id="path96" />
      </g>
    </g>
  </g>
</g></svg>
