<?xml version="1.0" encoding="UTF-8"?>
<svg xmlns="http://www.w3.org/2000/svg" version="1.1" xmlns:cc="http://creativecommons.org/ns#" xmlns:dc="http://purl.org/dc/elements/1.1/" xmlns:inkscape="http://www.inkscape.org/namespaces/inkscape" xmlns:rdf="http://www.w3.org/1999/02/22-rdf-syntax-ns#" xmlns:sodipodi="http://sodipodi.sourceforge.net/DTD/sodipodi-0.dtd" xmlns:svg="http://www.w3.org/2000/svg" viewBox="0 0 1072 498">
  <!-- Generator: Adobe Illustrator 29.5.1, SVG Export Plug-In . SVG Version: 2.1.0 Build 141)  -->
  <defs>
    <style>
      .st0 {
        stroke-width: 5.12px;
      }

      .st0, .st1, .st2, .st3 {
        stroke-miterlimit: 20.47;
      }

      .st0, .st1, .st2, .st3, .st4 {
        stroke: #000;
      }

      .st0, .st4 {
        fill-rule: evenodd;
      }

      .st1 {
        stroke-dasharray: 10.85 2.71 1.36 2.71;
        stroke-width: 1.36px;
      }

      .st1, .st2, .st5, .st3 {
        fill: none;
      }

      .st2 {
        stroke-width: 1.35px;
      }

      .st3 {
        stroke-width: 2.56px;
      }

      .st4 {
        stroke-miterlimit: 2.17;
        stroke-width: .54px;
      }
    </style>
  </defs>
  <g id="svg8" inkscape:export-filename="005_DriveShaft.png" inkscape:export-ydpi="150" inkscape:version="1.2.2 (732a01da63, 2022-12-09)">
    <sodipodi:namedview id="base" bordercolor="#666666" borderopacity="1.0" inkscape:current-layer="layer1" inkscape:cx="312.64221" inkscape:cy="224.25386" inkscape:deskcolor="#d1d1d1" inkscape:document-rotation="0" inkscape:document-units="mm" inkscape:pagecheckerboard="0" inkscape:pageopacity="0.0" inkscape:pageshadow="2" inkscape:showpageshadow="2" inkscape:window-height="1017" inkscape:window-maximized="1" inkscape:window-width="1920" inkscape:window-x="1912" inkscape:window-y="-8" inkscape:zoom="0.98994949" pagecolor="#ffffff" showgrid="false"/>
    <g id="layer1" inkscape:groupmode="layer" inkscape:label="Ebene 1">
      <g id="g1546">
        <path id="path833" class="st1" d="M32.68,224.06h357.54" sodipodi:nodetypes="cc"/>
        <path id="rect835" class="st3" d="M32.68,149.19h211.96v149.74H32.68" sodipodi:nodetypes="cccc"/>
        <path id="rect838" class="st3" d="M245.93,167.82h112.65v113.62h-112.65" sodipodi:nodetypes="cccc"/>
        <path id="path841" class="st2" d="M358.58,167.82h62.64"/>
        <path id="path841-0" class="st2" d="M358.58,281.44h62.64"/>
        <path class="st5" d=""/>
        <path id="path909-3" class="st4" d="M407.68,272.72l-2.71-2.71,2.71,9.48,2.71-9.48-2.71,2.71Z"/>
        <path id="path912-4" class="st4" d="M407.68,176.78l2.71,2.71-2.71-9.48-2.71,9.48,2.71-2.71Z"/>
        <path id="path841-4-7" class="st0" d="M407.68,171.37" sodipodi:nodetypes="cc"/>
      </g>
      <g id="g1921" inkscape:label="">
        <g id="g30">
          <g id="use28">
            <path id="path1891" d="M417.64,257.79c-.32-.37-.49-.37-.6-.37-.49,0-.53.49-.53.53,0,.18.07.28.49.74l1.78,2.06c-.58.55-2.27,2.52-2.27,5.48,0,4.25,3.38,7.82,7.79,7.82,2.5,0,3.95-1.04,4.72-1.57.39.44.42.46,1.78,2.01.49.53.53.6.76.6.32,0,.53-.21.53-.53,0-.18,0-.25-.44-.72l-1.8-2.08c.25-.23,2.24-2.2,2.24-5.48,0-4.53-3.65-7.82-7.77-7.82-2.47,0-4,1.06-4.72,1.57-.05-.02-.16-.18-.28-.3l-1.69-1.94ZM428.32,271.69c-1.83,1.29-3.42,1.29-4,1.29-3.82,0-6.75-3.05-6.75-6.71,0-2.84,1.62-4.44,1.92-4.72l8.83,10.13ZM420.28,260.84c1.18-.86,2.5-1.32,4.02-1.32,3.82,0,6.73,3.05,6.73,6.71,0,2.84-1.62,4.44-1.9,4.72l-8.86-10.1Z"/>
          </g>
        </g>
        <g id="g1902">
          <g id="use32">
            <path id="path1895" d="M415.77,249.15c-.53,0-.55.02-.55.37,1.18.99,1.57,2.5,1.62,3.93,0,.07,0,.21.05.23.07.02.12.02.65.02,0-.79-.16-2.1-.76-3.12h13.43c.88,0,1.18.05,1.18,2.24v.76h.67c-.02-1.23-.05-2.5-.05-3.72s.02-2.5.05-3.72h-.67v.76c0,2.2-.28,2.24-1.18,2.24h-14.43Z"/>
          </g>
          <g id="g1900">
            <path id="path1898" d="M428.09,233.61v.46c1.8.25,2.13.46,2.27.58.21.12.21,1.94.21,2.31v4.88c-.99-.9-2.8-2.68-4.9-4.86-1.46-1.55-3.19-3.38-5.71-3.38-3.01,0-4.74,2.4-4.74,5.09s2.45,4.51,4.76,4.51c.99,0,1.11-.74,1.11-1.04,0-.25-.14-1.02-1.04-1.02-.79,0-1.02.65-1.02,1.02,0,.14.02.3.07.39-2.15-.49-3.24-1.97-3.24-3.51,0-2.22,1.76-3.65,4.09-3.65,2.2,0,4.12,1.29,5.78,2.75l5.73,5.06h.58v-8.97l-3.95-.62Z"/>
          </g>
        </g>
        <g id="g1908">
          <g id="g1906">
            <path id="path1904" d="M424.07,216.47v-7.08c0-.44,0-.9-.51-.9s-.51.46-.51.9v7.08h-7.03c-.42,0-.95,0-.95.51s.46.51.88.51h7.1v7.12c0,.44,0,.88.51.88s.51-.44.51-.88v-7.12h6.96v7.12c0,.44,0,.88.51.88s.51-.44.51-.88v-15.21c0-.44,0-.9-.51-.9s-.51.46-.51.9v7.08h-6.96Z"/>
          </g>
        </g>
        <g id="g1913">
          <g id="g1911">
            <path id="path74" d="M423.86,190.72c-1.55,0-4.21.02-6.24,1.11-1.78.92-2.4,2.43-2.4,3.77,0,1.23.55,2.77,2.38,3.75,1.92,1.02,4.28,1.11,6.27,1.11,1.46,0,3.68-.02,5.62-.81,2.61-1.11,2.98-3.05,2.98-4.05,0-1.18-.49-2.96-2.91-4-1.76-.76-3.82-.88-5.69-.88ZM432.04,195.6c0,1.62-1.41,2.59-3.33,2.94-1.5.3-3.7.3-5.13.3-1.97,0-3.58,0-5.13-.35-2.17-.49-2.84-1.9-2.84-2.89,0-1.06.69-2.4,2.77-2.89,1.46-.32,3.17-.35,5.2-.35,1.66,0,3.7,0,5.2.3,2.77.53,3.26,2.03,3.26,2.94Z"/>
          </g>
        </g>
        <g id="g48">
          <g id="use46">
            <path id="path78" d="M430.82,185.04c-.74,0-1.25.62-1.25,1.23,0,.74.62,1.25,1.23,1.25.74,0,1.25-.6,1.25-1.23,0-.74-.6-1.25-1.23-1.25Z"/>
          </g>
        </g>
        <g id="g52">
          <g id="use50">
            <path id="path82" d="M415.77,176.03c-.53,0-.55.02-.55.37,1.18.99,1.57,2.5,1.62,3.93,0,.07,0,.21.05.23.07.02.12.02.65.02,0-.79-.16-2.1-.76-3.12h13.43c.88,0,1.18.05,1.18,2.24v.76h.67c-.02-1.23-.05-2.5-.05-3.72s.02-2.5.05-3.72h-.67v.76c0,2.2-.28,2.24-1.18,2.24h-14.43Z"/>
          </g>
        </g>
      </g>
    </g>
  </g>
  <g id="Ebene_2">
    <g id="layer11" data-name="layer1" inkscape:groupmode="layer" inkscape:label="Ebene 1">
      <g id="g15461" data-name="g1546">
        <g>
          <g id="rect8351" data-name="rect835" sodipodi:nodetypes="cccc">
            <polyline class="st3" points="522.11 48.03 593.65 52.03 666.35 48.39 663.2 100.57 666.35 152.74 593.65 149.11 522.11 153.11"/>
          </g>
          <g id="rect8381" data-name="rect838" sodipodi:nodetypes="cccc">
            <polyline class="st3" points="666.06 60.61 704.08 64.61 743.53 61.2 740.11 100.95 743.53 140.71 704.08 137.3 666.06 141.3"/>
          </g>
        </g>
        <path class="st5" d=""/>
        <path id="path841-4-71" data-name="path841-4-7" class="st0" d="M857.11,106.92" sodipodi:nodetypes="cc"/>
        <g>
          <g id="rect8352" data-name="rect835" sodipodi:nodetypes="cccc">
            <polyline class="st3" points="522.33 177.03 539.77 183.01 557.88 181.02 575.99 183.01 593.65 177.02 611.31 183.01 629.43 181.02 648.08 183.2 667.49 177.74 662.79 192.61 665.2 206.26 663.22 219.24 669.2 231.56 663.22 243.88 665.2 256.86 662.79 270.52 667.49 285.38 648.08 279.93 629.44 282.1 611.32 280.12 593.66 286.1 575.99 280.12 557.89 282.1 539.78 280.12 522.33 286.09"/>
          </g>
          <g id="rect8382" data-name="rect838" sodipodi:nodetypes="cccc">
            <polyline class="st3" points="666.47 189.64 675.15 195.56 685.07 193.6 694.99 195.56 704.08 189.6 713.17 195.56 723.12 193.6 733.64 195.87 744.95 190.78 739.84 202.15 742.11 212.74 740.15 222.77 746.11 231.95 740.15 241.13 742.11 251.15 739.84 261.74 744.95 273.11 733.64 268.03 723.13 270.3 713.18 268.34 704.09 274.3 694.99 268.34 685.07 270.3 675.15 268.34 666.47 274.26"/>
          </g>
          <g>
            <g id="rect8353" data-name="rect835" sodipodi:nodetypes="cccc">
              <polyline class="st3" points="522.97 321.91 539.63 330.66 557.88 331.62 576.29 330.65 593.65 321.82 611 330.65 629.43 331.62 649.15 331.11 669.1 323.03 662.21 338.86 662.29 353.96 663.33 367.37 672.1 379.26 663.33 391.15 662.29 404.56 662.21 419.67 669.1 435.5 649.16 427.42 629.44 426.9 611.01 427.88 593.66 436.71 576.3 427.88 557.88 426.9 539.63 427.87 522.97 436.62"/>
            </g>
            <g id="rect8383" data-name="rect838" sodipodi:nodetypes="cccc">
              <polyline class="st3" points="667.11 335.86 675.01 343.19 685.07 342.92 695.29 343.17 704.08 335.69 712.86 343.17 723.12 342.92 734.42 343.76 746.09 337.35 739.66 349.08 740.49 360.45 740.23 370.78 747.72 379.65 740.23 388.52 740.49 398.85 739.66 410.22 746.09 421.95 734.42 415.54 723.12 416.39 712.87 416.13 704.09 423.61 695.29 416.13 685.07 416.39 675.01 416.12 667.11 423.45"/>
            </g>
          </g>
        </g>
      </g>
    </g>
    <g id="rect8354" data-name="rect835" sodipodi:nodetypes="cccc">
      <polyline class="st3" points="778.11 90.03 785.78 92.03 793.45 90.03 801.12 92.03 808.79 90.03 816.46 92.03 824.13 90.03 831.8 92.03 839.47 90.03 847.14 92.03 854.82 90.03 862.48 92.03 870.16 90.03 877.83 92.03 885.5 90.03 893.17 92.03 900.85 90.03 908.52 92.03 916.2 90.03 923.3 91.85 924.88 96.45 922.88 101.87 924.88 107.29 922.88 112.7 924.88 118.12 922.88 123.54 924.88 128.96 922.88 134.38 924.88 139.8 922.88 145.22 924.88 150.63 922.88 156.05 924.88 161.47 922.88 166.89 924.88 172.31 922.88 177.73 924.88 183.16 922.88 188.58 924.46 194.83 916.21 193.01 908.54 195.01 900.87 193.01 893.2 195.01 885.53 193.01 877.86 195.01 870.19 193.01 862.52 195.01 854.85 193.01 847.17 195.01 839.51 193.01 831.83 195.01 824.16 193.01 816.49 195.01 808.82 193.01 801.14 195.01 793.47 193.01 785.79 195.01 778.11 193.01"/>
    </g>
    <g id="rect8384" data-name="rect838" sodipodi:nodetypes="cccc">
      <polyline class="st3" points="924.76 102.85 928.83 104.85 932.91 102.85 936.99 104.85 941.06 102.85 945.14 104.85 949.21 102.85 953.29 104.85 957.36 102.85 961.44 104.85 965.51 102.85 969.59 104.85 973.67 102.85 977.75 104.85 981.82 102.85 985.9 104.85 989.98 102.85 994.06 104.85 998.14 102.85 1001.52 104.55 1003.23 107.96 1001.23 112.07 1003.23 116.18 1001.23 120.29 1003.23 124.4 1001.23 128.51 1003.23 132.62 1001.23 136.73 1003.23 140.84 1001.23 144.95 1003.23 149.06 1001.23 153.18 1003.23 157.29 1001.23 161.4 1003.23 165.52 1001.23 169.63 1003.23 173.74 1001.23 177.86 1002.94 182.69 998.15 180.98 994.08 182.98 990 180.98 985.93 182.98 981.85 180.98 977.78 182.98 973.7 180.98 969.63 182.98 965.55 180.98 961.48 182.98 957.4 180.98 953.32 182.98 949.24 180.98 945.16 182.98 941.09 180.98 937.01 182.98 932.93 180.98 928.84 182.98 924.76 180.98"/>
    </g>
    <path class="st5" d=""/>
    <path id="path841-4-72" data-name="path841-4-7" class="st0" d="M1030,63.79" sodipodi:nodetypes="cc"/>
    <g id="rect8355" data-name="rect835" sodipodi:nodetypes="cccc">
      <path class="st3" d="M778.11,276.23c12.15,0,12.15,2,24.29,2s12.15-2,24.29-2,12.15,2,24.29,2,12.15-2,24.29-2,12.15,2,24.3,2,14.95-8.83,24.87-1.82c7.01,4.95-1.58,9.4-1.58,17.98s2,8.58,2,17.16-2,8.58-2,17.16,2,8.58,2,17.16-2,8.58-2,17.17,8.59,13.03,1.58,17.98c-9.92,7.01-12.72-1.82-24.87-1.82-12.15,0-12.15,2-24.29,2-12.15,0-12.15-2-24.29-2s-12.15,2-24.29,2-12.15-2-24.3-2-12.15,2-24.3,2"/>
    </g>
    <g id="rect8385" data-name="rect838" sodipodi:nodetypes="cccc">
      <path class="st3" d="M924.76,289.05c6.45,0,6.45,2,12.91,2s6.45-2,12.91-2,6.46,2,12.91,2,6.45-2,12.91-2,6.46,2,12.92,2,9.08-6.29,13.63-1.7-1.71,7.21-1.71,13.72,2,6.51,2,13.02-2,6.51-2,13.02,2,6.51,2,13.02-2,6.51-2,13.03,6.29,9.1,1.71,13.73c-4.54,4.58-7.16-1.7-13.62-1.7s-6.45,2-12.91,2-6.46-2-12.91-2-6.45,2-12.91,2-6.46-2-12.92-2-6.46,2-12.92,2"/>
    </g>
    <path id="path841-4-73" data-name="path841-4-7" class="st0" d="M1024,297.36" sodipodi:nodetypes="cc"/>
  </g>
</svg>