<?xml version="1.0" encoding="UTF-8" standalone="no"?>
<!-- Created with Inkscape (http://www.inkscape.org/) -->

<svg
   width="1050"
   height="700"
   viewBox="0 0 277.81249 185.20833"
   version="1.1"
   id="svg5"
   inkscape:version="1.2.2 (732a01da63, 2022-12-09)"
   sodipodi:docname="032_log_reg.svg"
   xml:space="preserve"
   inkscape:export-filename="032_log_reg.png"
   inkscape:export-xdpi="300"
   inkscape:export-ydpi="300"
   xmlns:inkscape="http://www.inkscape.org/namespaces/inkscape"
   xmlns:sodipodi="http://sodipodi.sourceforge.net/DTD/sodipodi-0.dtd"
   xmlns:xlink="http://www.w3.org/1999/xlink"
   xmlns="http://www.w3.org/2000/svg"
   xmlns:svg="http://www.w3.org/2000/svg"><sodipodi:namedview
     id="namedview7"
     pagecolor="#ffffff"
     bordercolor="#666666"
     borderopacity="1.0"
     inkscape:showpageshadow="2"
     inkscape:pageopacity="0.0"
     inkscape:pagecheckerboard="0"
     inkscape:deskcolor="#d1d1d1"
     inkscape:document-units="mm"
     showgrid="false"
     inkscape:zoom="0.51276155"
     inkscape:cx="74.108521"
     inkscape:cy="635.7731"
     inkscape:window-width="1920"
     inkscape:window-height="1017"
     inkscape:window-x="1912"
     inkscape:window-y="-8"
     inkscape:window-maximized="1"
     inkscape:current-layer="svg5" /><defs
     id="defs2"><inkscape:path-effect
   effect="bspline"
   id="path-effect3871"
   is_visible="true"
   lpeversion="1"
   weight="33.333333"
   steps="2"
   helper_size="0"
   apply_no_weight="true"
   apply_with_weight="true"
   only_selected="false" /><linearGradient
   id="linearGradient6703"><stop
     style="stop-color:#000000;stop-opacity:1.0000000;"
     offset="0.0000000"
     id="stop6704" /><stop
     style="stop-color:#7f7f7f;stop-opacity:1.0000000;"
     offset="0.50000000"
     id="stop6705" /><stop
     style="stop-color:#ffffff;stop-opacity:1.0000000;"
     offset="1.0000000"
     id="stop6706" /></linearGradient><linearGradient
   id="linearGradient879"><stop
     style="stop-color:#c3c3c3;stop-opacity:0.54918033;"
     offset="0.0000000"
     id="stop880" /><stop
     style="stop-color:#d4e1e4;stop-opacity:1.0000000;"
     offset="0.50000000"
     id="stop884" /><stop
     style="stop-color:#ddf0f0;stop-opacity:0.59016395;"
     offset="1.0000000"
     id="stop881" /></linearGradient><linearGradient
   x1="1453.8076"
   y1="384.45894"
   x2="1583.5951"
   y2="383.24872"
   id="linearGradient882"
   xlink:href="#linearGradient879"
   gradientTransform="scale(0.55994156,1.7859006)"
   gradientUnits="userSpaceOnUse" /><linearGradient
   x1="568.58307"
   y1="1189.8646"
   x2="567.13932"
   y2="1038.1013"
   id="linearGradient883"
   xlink:href="#linearGradient879"
   spreadMethod="pad"
   gradientTransform="scale(1.4640424,0.68304032)"
   gradientUnits="userSpaceOnUse" /><clipPath
   id="clip0_525_147"><rect
     width="24"
     height="24"
     fill="white"
     id="rect26341" /></clipPath><style
   id="style4881">.cls-1{fill:none;stroke:#020202;stroke-miterlimit:10;stroke-width:1.91px;}</style><clipPath
   clipPathUnits="userSpaceOnUse"
   id="clipPath2471"><path
     d="M 0,0 H 56.693 V 272.126 H 0 Z"
     id="path2469" /></clipPath><linearGradient
   x1="0"
   y1="0"
   x2="0"
   y2="272.12964"
   gradientUnits="userSpaceOnUse"
   id="linearGradient2477"
   gradientTransform="matrix(2.3384702,0,0,2.3384702,753.59705,-989.93593)"><stop
     style="stop-opacity:1;stop-color:#ebebf7"
     offset="0"
     id="stop2473" /><stop
     style="stop-opacity:1;stop-color:#ccccec"
     offset="1"
     id="stop2475" /></linearGradient><clipPath
   clipPathUnits="userSpaceOnUse"
   id="clipPath2719"><path
     d="m -17.00807,-24.09476 v 9.92137 h 34.01614 v -9.92137 z"
     id="path2717" /></clipPath><clipPath
   clipPathUnits="userSpaceOnUse"
   id="clipPath2743"><path
     d="m 209.76639,-26.92943 v 9.92137 h 34.01616 v -9.92137 z"
     id="path2741" /></clipPath><clipPath
   clipPathUnits="userSpaceOnUse"
   id="clipPath3023"><path
     d="m -17.00807,-24.09476 v 9.92137 h 34.01614 v -9.92137 z"
     id="path3021" /></clipPath><clipPath
   clipPathUnits="userSpaceOnUse"
   id="clipPath3043"><path
     d="m 209.76639,-24.09476 v 9.92137 h 34.01616 v -9.92137 z"
     id="path3041" /></clipPath><clipPath
   clipPathUnits="userSpaceOnUse"
   id="clipPath9141"><path
     d="m -17.00807,-24.09476 v 9.92137 h 34.01614 v -9.92137 z"
     id="path9139" /></clipPath><clipPath
   clipPathUnits="userSpaceOnUse"
   id="clipPath9165"><path
     d="m 209.76639,-26.92943 v 9.92137 h 34.01616 v -9.92137 z"
     id="path9163" /></clipPath><clipPath
   clipPathUnits="userSpaceOnUse"
   id="clipPath11751"><g
     id="g11755"><path
       d="m 753.59705,-989.93593 h 132.57489 v 636.35854 H 753.59705 Z"
       id="path11753"
       style="stroke-width:2.33847" /></g></clipPath><inkscape:path-effect
   effect="bspline"
   id="path-effect638"
   is_visible="true"
   lpeversion="1"
   weight="33.333333"
   steps="2"
   helper_size="0"
   apply_no_weight="true"
   apply_with_weight="true"
   only_selected="false" /><inkscape:path-effect
   effect="bspline"
   id="path-effect638-2"
   is_visible="true"
   lpeversion="1"
   weight="33.333333"
   steps="2"
   helper_size="0"
   apply_no_weight="true"
   apply_with_weight="true"
   only_selected="false" /><inkscape:path-effect
   effect="bspline"
   id="path-effect1867"
   is_visible="true"
   lpeversion="1"
   weight="33.333333"
   steps="2"
   helper_size="0"
   apply_no_weight="true"
   apply_with_weight="true"
   only_selected="false" /><inkscape:path-effect
   effect="bspline"
   id="path-effect1883"
   is_visible="true"
   lpeversion="1"
   weight="33.333333"
   steps="2"
   helper_size="0"
   apply_no_weight="true"
   apply_with_weight="true"
   only_selected="false" /><inkscape:path-effect
   effect="bspline"
   id="path-effect1899"
   is_visible="true"
   lpeversion="1"
   weight="33.333333"
   steps="2"
   helper_size="0"
   apply_no_weight="true"
   apply_with_weight="true"
   only_selected="false" /><inkscape:path-effect
   effect="bspline"
   id="path-effect1915"
   is_visible="true"
   lpeversion="1"
   weight="33.333333"
   steps="2"
   helper_size="0"
   apply_no_weight="true"
   apply_with_weight="true"
   only_selected="false" /><clipPath
   id="clipPath4348">
      <path
   clip-rule="nonzero"
   d="M 81,2 H 97 V 18.511719 H 81 Z m 0,0"
   id="path5274" />
    </clipPath><inkscape:path-effect
   effect="bspline"
   id="path-effect638-2-6"
   is_visible="true"
   lpeversion="1"
   weight="33.333333"
   steps="2"
   helper_size="0"
   apply_no_weight="true"
   apply_with_weight="true"
   only_selected="false" /><marker
   style="overflow:visible"
   id="Arrow2"
   refX="0"
   refY="0"
   orient="auto-start-reverse"
   inkscape:stockid="Arrow2"
   markerWidth="7.6999998"
   markerHeight="5.5999999"
   viewBox="0 0 7.7 5.6"
   inkscape:isstock="true"
   inkscape:collect="always"
   preserveAspectRatio="xMidYMid"><path
     transform="scale(0.7)"
     d="M -2,-4 9,0 -2,4 c 2,-2.33 2,-5.66 0,-8 z"
     style="fill:context-stroke;fill-rule:evenodd;stroke:none"
     id="arrow2L" /></marker><inkscape:path-effect
   effect="bspline"
   id="path-effect638-24"
   is_visible="true"
   lpeversion="1"
   weight="33.333333"
   steps="2"
   helper_size="0"
   apply_no_weight="true"
   apply_with_weight="true"
   only_selected="false" /><marker
   style="overflow:visible"
   id="Arrow2-1"
   refX="0"
   refY="0"
   orient="auto-start-reverse"
   inkscape:stockid="Arrow2"
   markerWidth="7.6999998"
   markerHeight="5.5999999"
   viewBox="0 0 7.7 5.6"
   inkscape:isstock="true"
   inkscape:collect="always"
   preserveAspectRatio="xMidYMid"><path
     transform="scale(0.7)"
     d="M -2,-4 9,0 -2,4 c 2,-2.33 2,-5.66 0,-8 z"
     style="fill:context-stroke;fill-rule:evenodd;stroke:none"
     id="arrow2L-5" /></marker><inkscape:path-effect
   effect="bspline"
   id="path-effect638-2-9"
   is_visible="true"
   lpeversion="1"
   weight="33.333333"
   steps="2"
   helper_size="0"
   apply_no_weight="true"
   apply_with_weight="true"
   only_selected="false" /><clipPath
   id="clipPath1956">
      <path
   clip-rule="nonzero"
   d="M 47,25 H 74 V 43.9375 H 47 Z m 0,0"
   id="path1087" />
    </clipPath>
  </defs><path
     style="fill:none;stroke:#b2b2b2;stroke-width:0.5;stroke-linecap:butt;stroke-linejoin:miter;stroke-opacity:1;stroke-dasharray:0.5, 0.5;stroke-dashoffset:0"
     d="M 34.662162,166.37837 215.99999,23.716215"
     id="path2942"
     sodipodi:nodetypes="cc" /><path
     style="fill:none;stroke:#000000;stroke-width:1;stroke-linecap:butt;stroke-linejoin:miter;stroke-dasharray:none;stroke-opacity:1;marker-end:url(#Arrow2)"
     d="m 17.181906,169.40778 c 0,0 244.459964,0 244.459964,0"
     id="path636"
     inkscape:path-effect="#path-effect638-24"
     inkscape:original-d="M 17.181906,169.40778 H 261.64187"
     sodipodi:nodetypes="cc" /><path
     style="fill:none;stroke:#000000;stroke-width:1;stroke-linecap:butt;stroke-linejoin:miter;stroke-dasharray:none;stroke-opacity:1;marker-end:url(#Arrow2-1)"
     d="m 19.945102,172.24508 c 0,0 0,-161.635321 0,-161.635321"
     id="path636-9"
     inkscape:path-effect="#path-effect638-2-9"
     inkscape:original-d="M 19.945102,172.24508 V 10.609759"
     sodipodi:nodetypes="cc" /><text
     xml:space="preserve"
     style="font-size:4.23334px;line-height:1.25;font-family:sans-serif;-inkscape-font-specification:'sans-serif, Normal';text-align:center;text-anchor:middle;stroke-width:0.264584"
     x="-91.831955"
     y="13.017089"
     id="text1661"
     transform="rotate(-90)"><tspan
       sodipodi:role="line"
       id="tspan1659"
       style="font-style:normal;font-variant:normal;font-weight:normal;font-stretch:normal;font-size:12.7001px;font-family:Bahnschrift;-inkscape-font-specification:'Bahnschrift, @wght=300,wdth=87.0';font-variant-ligatures:normal;font-variant-caps:normal;font-variant-numeric:normal;font-variant-east-asian:normal;font-variation-settings:'wdth' 87, 'wght' 300;stroke-width:0.264584"
       x="-91.831955"
       y="13.017089">Response (Y)</tspan></text><text
     xml:space="preserve"
     style="font-size:4.23334px;line-height:1.25;font-family:sans-serif;-inkscape-font-specification:'sans-serif, Normal';text-align:center;text-anchor:middle;stroke-width:0.264584"
     x="233.24597"
     y="180.70587"
     id="text1661-7"><tspan
       sodipodi:role="line"
       id="tspan1659-0"
       style="font-style:normal;font-variant:normal;font-weight:normal;font-stretch:normal;font-size:12.7001px;font-family:Bahnschrift;-inkscape-font-specification:'Bahnschrift, @wght=300,wdth=87.0';font-variant-ligatures:normal;font-variant-caps:normal;font-variant-numeric:normal;font-variant-east-asian:normal;font-variation-settings:'wdth' 87, 'wght' 300;stroke-width:0.264584"
       x="233.24597"
       y="180.70587">Predictor (X<tspan
   style="font-size:8.25503px;baseline-shift:sub;stroke-width:0.264584"
   id="tspan8448">1</tspan>)</tspan></text><text
     xml:space="preserve"
     style="font-style:normal;font-variant:normal;font-weight:normal;font-stretch:normal;font-size:7.05556px;line-height:1.25;font-family:sans-serif;-inkscape-font-specification:'sans-serif, Normal';font-variant-ligatures:normal;font-variant-caps:normal;font-variant-numeric:normal;font-variant-east-asian:normal;text-align:center;text-anchor:middle;stroke-width:0.264584"
     x="8.7167501"
     y="39.475624"
     id="text1661-7-7"><tspan
       sodipodi:role="line"
       id="tspan1659-0-5"
       style="font-style:normal;font-variant:normal;font-weight:normal;font-stretch:normal;font-size:7.05556px;font-family:sans-serif;-inkscape-font-specification:'sans-serif, Normal';font-variant-ligatures:normal;font-variant-caps:normal;font-variant-numeric:normal;font-variant-east-asian:normal;stroke-width:0.264584"
       x="8.7167501"
       y="39.475624">Pass</tspan></text><text
     xml:space="preserve"
     style="font-style:normal;font-variant:normal;font-weight:normal;font-stretch:normal;font-size:7.05556px;line-height:1.25;font-family:sans-serif;-inkscape-font-specification:'sans-serif, Normal';font-variant-ligatures:normal;font-variant-caps:normal;font-variant-numeric:normal;font-variant-east-asian:normal;text-align:center;text-anchor:middle;stroke-width:0.264584"
     x="6.854075"
     y="156.45653"
     id="text1661-7-7-8"><tspan
       sodipodi:role="line"
       id="tspan1659-0-5-3"
       style="font-style:normal;font-variant:normal;font-weight:normal;font-stretch:normal;font-size:7.05556px;font-family:sans-serif;-inkscape-font-specification:'sans-serif, Normal';font-variant-ligatures:normal;font-variant-caps:normal;font-variant-numeric:normal;font-variant-east-asian:normal;stroke-width:0.264584"
       x="6.854075"
       y="156.45653">Fail</tspan></text><ellipse
     style="font-variation-settings:'wdth' 87, 'wght' 300;fill:#8d8a8a;fill-opacity:1;fill-rule:evenodd;stroke:none;stroke-width:0.28723;stroke-linecap:round;stroke-opacity:1"
     id="path10144-6"
     cx="37.581081"
     cy="149.22972"
     rx="2.3582788"
     ry="2.3544755" /><ellipse
     style="font-variation-settings:'wdth' 87, 'wght' 300;fill:#8d8a8a;fill-opacity:1;fill-rule:evenodd;stroke:none;stroke-width:0.28723;stroke-linecap:round;stroke-opacity:1"
     id="path10144-6-0"
     cx="43.783783"
     cy="149.22972"
     rx="2.3582788"
     ry="2.3544755" /><ellipse
     style="font-variation-settings:'wdth' 87, 'wght' 300;fill:#8d8a8a;fill-opacity:1;fill-rule:evenodd;stroke:none;stroke-width:0.28723;stroke-linecap:round;stroke-opacity:1"
     id="path10144-6-6"
     cx="50.351349"
     cy="149.22972"
     rx="2.3582788"
     ry="2.3544755" /><ellipse
     style="font-variation-settings:'wdth' 87, 'wght' 300;fill:#8d8a8a;fill-opacity:1;fill-rule:evenodd;stroke:none;stroke-width:0.28723;stroke-linecap:round;stroke-opacity:1"
     id="path10144-6-7"
     cx="60.93243"
     cy="149.22972"
     rx="2.3582788"
     ry="2.3544755" /><ellipse
     style="font-variation-settings:'wdth' 87, 'wght' 300;fill:#8d8a8a;fill-opacity:1;fill-rule:evenodd;stroke:none;stroke-width:0.28723;stroke-linecap:round;stroke-opacity:1"
     id="path10144-6-1"
     cx="76.256752"
     cy="149.22972"
     rx="2.3582788"
     ry="2.3544755" /><ellipse
     style="font-variation-settings:'wdth' 87, 'wght' 300;fill:#8d8a8a;fill-opacity:1;fill-rule:evenodd;stroke:none;stroke-width:0.28723;stroke-linecap:round;stroke-opacity:1"
     id="path10144-6-5"
     cx="91.945938"
     cy="149.22972"
     rx="2.3582788"
     ry="2.3544755" /><ellipse
     style="font-variation-settings:'wdth' 87, 'wght' 300;fill:#8d8a8a;fill-opacity:1;fill-rule:evenodd;stroke:none;stroke-width:0.28723;stroke-linecap:round;stroke-opacity:1"
     id="path10144-6-19"
     cx="162.36487"
     cy="41.959457"
     rx="2.3582788"
     ry="2.3544755" /><ellipse
     style="font-variation-settings:'wdth' 87, 'wght' 300;fill:#8d8a8a;fill-opacity:1;fill-rule:evenodd;stroke:none;stroke-width:0.28723;stroke-linecap:round;stroke-opacity:1"
     id="path10144-6-19-7"
     cx="237.10054"
     cy="41.959457"
     rx="2.3582788"
     ry="2.3544755" /><ellipse
     style="font-variation-settings:'wdth' 87, 'wght' 300;fill:#8d8a8a;fill-opacity:1;fill-rule:evenodd;stroke:none;stroke-width:0.28723;stroke-linecap:round;stroke-opacity:1"
     id="path10144-6-15"
     cx="175.49998"
     cy="41.959457"
     rx="2.3582788"
     ry="2.3544755" /><ellipse
     style="font-variation-settings:'wdth' 87, 'wght' 300;fill:#8d8a8a;fill-opacity:1;fill-rule:evenodd;stroke:none;stroke-width:0.28723;stroke-linecap:round;stroke-opacity:1"
     id="path10144-6-01"
     cx="190.45946"
     cy="41.959457"
     rx="2.3582788"
     ry="2.3544755" /><ellipse
     style="font-variation-settings:'wdth' 87, 'wght' 300;fill:#8d8a8a;fill-opacity:1;fill-rule:evenodd;stroke:none;stroke-width:0.28723;stroke-linecap:round;stroke-opacity:1"
     id="path10144-6-50"
     cx="198.85135"
     cy="41.959457"
     rx="2.3582788"
     ry="2.3544755" /><ellipse
     style="font-variation-settings:'wdth' 87, 'wght' 300;fill:#8d8a8a;fill-opacity:1;fill-rule:evenodd;stroke:none;stroke-width:0.28723;stroke-linecap:round;stroke-opacity:1"
     id="path10144-6-63"
     cx="207.97298"
     cy="41.959457"
     rx="2.3582788"
     ry="2.3544755" /><ellipse
     style="font-variation-settings:'wdth' 87, 'wght' 300;fill:#8d8a8a;fill-opacity:1;fill-rule:evenodd;stroke:none;stroke-width:0.28723;stroke-linecap:round;stroke-opacity:1"
     id="path10144-6-75"
     cx="222.2027"
     cy="41.959457"
     rx="2.3582788"
     ry="2.3544755" /><ellipse
     style="font-variation-settings:'wdth' 87, 'wght' 300;fill:#8d8a8a;fill-opacity:1;fill-rule:evenodd;stroke:none;stroke-width:0.28723;stroke-linecap:round;stroke-opacity:1"
     id="path10144-6-3"
     cx="105.44594"
     cy="149.22972"
     rx="2.3582788"
     ry="2.3544755" /><path
     style="fill:none;stroke:#000000;stroke-width:1;stroke-linecap:butt;stroke-linejoin:miter;stroke-dasharray:none;stroke-opacity:1"
     d="M 13.377534,149.22972 H 26.51267"
     id="path1928" /><path
     style="fill:none;stroke:#000000;stroke-width:1;stroke-linecap:butt;stroke-linejoin:miter;stroke-dasharray:none;stroke-opacity:1"
     d="M 13.377534,41.959459 H 26.51267"
     id="path1928-8" /><path
     style="fill:none;stroke:#000000;stroke-width:0.8;stroke-linecap:butt;stroke-linejoin:miter;stroke-opacity:1;stroke-dasharray:none"
     d="m 36.121619,149.59458 c 0.486751,0 0.973238,0 10.459903,-0.42569 9.486664,-0.42569 27.972781,-1.27702 46.884994,-14.41238 18.912214,-13.13536 38.249664,-38.553773 53.209254,-55.884974 14.95959,-17.331202 25.54046,-26.574255 39.77048,-31.499933 14.23003,-4.925679 32.10805,-5.533774 49.98617,-6.141873"
     id="path3869"
     inkscape:path-effect="#path-effect3871"
     inkscape:original-d="m 36.121619,149.59458 c 0.486751,2.7e-4 0.973238,2.7e-4 1.45946,0 18.48712,-0.8511 36.973237,-1.70243 55.459457,-2.55405 19.338484,-25.41916 38.675944,-50.837565 58.013514,-76.25675 10.58156,-9.243163 21.16242,-18.48622 31.74324,-27.729727 17.879,-0.607856 35.75702,-1.215951 53.63513,-1.824323" /><g
     inkscape:label=""
     transform="translate(43.85975,42.82777)"
     id="g4270"><g
   fill="#000000"
   fill-opacity="1"
   id="g55"
   transform="matrix(0.352778,0,0,0.352778,0.270095,0.140053)">
    <g
   id="use53"
   transform="translate(0,25.737)">
      <path
   d="m 1.0625,3.140625 c -0.171875,0.75 -0.265625,0.953125 -1.28125,0.953125 -0.296875,0 -0.546875,0 -0.546875,0.46875 0,0.046875 0.015625,0.25 0.296875,0.25 0.3125,0 0.671875,-0.046875 0.984375,-0.046875 H 1.59375 c 0.515625,0 1.78125,0.046875 2.296875,0.046875 0.15625,0 0.453125,0 0.453125,-0.453125 0,-0.265625 -0.1875,-0.265625 -0.609375,-0.265625 -1.125,0 -1.203125,-0.171875 -1.203125,-0.375 0,-0.296875 1.109375,-4.5625 1.265625,-5.125 0.265625,0.6875 0.9375,1.65625 2.21875,1.65625 2.8125,0 5.828125,-3.640625 5.828125,-7.28125 0,-2.28125 -1.28125,-3.890625 -3.140625,-3.890625 -1.59375,0 -2.921875,1.53125 -3.203125,1.875 -0.203125,-1.234375 -1.15625,-1.875 -2.15625,-1.875 -0.71875,0 -1.28125,0.34375 -1.75,1.28125 -0.453125,0.890625 -0.796875,2.40625 -0.796875,2.5 0,0.109375 0.09375,0.234375 0.265625,0.234375 0.203125,0 0.21875,-0.03125 0.375,-0.609375 0.375,-1.453125 0.84375,-2.921875 1.828125,-2.921875 0.578125,0 0.78125,0.40625 0.78125,1.140625 0,0.59375 -0.078125,0.84375 -0.1875,1.296875 z m 4.296875,-10.875 c 0.171875,-0.6875 0.859375,-1.40625 1.25,-1.75 0.28125,-0.25 1.09375,-0.953125 2.046875,-0.953125 1.078125,0 1.578125,1.09375 1.578125,2.390625 0,1.1875 -0.6875,3.984375 -1.3125,5.265625 C 8.296875,-1.4375 7.15625,-0.25 6.015625,-0.25 4.34375,-0.25 4.0625,-2.375 4.0625,-2.484375 4.0625,-2.546875 4.109375,-2.75 4.140625,-2.875 Z m 0,0"
   id="path119" />
    </g>
  </g>
  <g
   fill="#000000"
   fill-opacity="1"
   id="g59"
   transform="matrix(0.352778,0,0,0.352778,0.270095,0.140053)">
    <g
   id="use57"
   transform="translate(19.066,25.737)">
      <path
   d="m 15.9375,-7.953125 c 0.375,0 0.734375,0 0.734375,-0.421875 0,-0.453125 -0.421875,-0.453125 -0.84375,-0.453125 H 1.984375 c -0.421875,0 -0.84375,0 -0.84375,0.453125 0,0.421875 0.375,0.421875 0.75,0.421875 z m -0.109375,4.40625 c 0.421875,0 0.84375,0 0.84375,-0.4375 0,-0.421875 -0.359375,-0.421875 -0.734375,-0.421875 H 1.890625 c -0.375,0 -0.75,0 -0.75,0.421875 0,0.4375 0.421875,0.4375 0.84375,0.4375 z m 0,0"
   id="path123" />
    </g>
  </g>
  <g
   fill="#000000"
   fill-opacity="1"
   id="g63"
   transform="matrix(0.352778,0,0,0.352778,0.270095,0.140053)">
    <g
   id="use61"
   transform="translate(101.471,15.978)">
      <path
   d="m 6.59375,-15.828125 c 0,-0.53125 -0.03125,-0.546875 -0.375,-0.546875 -0.96875,1.15625 -2.421875,1.53125 -3.8125,1.578125 -0.078125,0 -0.203125,0 -0.21875,0.04687 -0.03125,0.0625 -0.03125,0.109375 -0.03125,0.625 0.765625,0 2.0625,-0.15625 3.046875,-0.75 v 13.0625 c 0,0.875 -0.046875,1.171875 -2.1875,1.171875 H 2.28125 V 0 c 1.1875,-0.03125 2.421875,-0.046875 3.609375,-0.046875 1.203125,0 2.4375,0.015625 3.625,0.046875 v -0.640625 h -0.75 c -2.125,0 -2.171875,-0.28125 -2.171875,-1.171875 z m 0,0"
   id="path127" />
    </g>
  </g>
  <path
   fill-rule="nonzero"
   fill="#000000"
   fill-opacity="1"
   d="M 45.753906,20.635281 H 170.08593 V 19.24075 H 45.753906 Z m 0,0"
   id="path65"
   transform="scale(0.352778)" />
  <g
   clip-path="url(#clipPath1956)"
   id="g73"
   transform="matrix(0.352778,0,0,0.352778,0.270095,0.140053)">
    <g
   fill="#000000"
   fill-opacity="1"
   id="g71">
      <g
   id="use67"
   transform="translate(44.990002,42.363998)">
        <path
   d="m 6.59375,-15.828125 c 0,-0.53125 -0.03125,-0.546875 -0.375,-0.546875 -0.96875,1.15625 -2.421875,1.53125 -3.8125,1.578125 -0.078125,0 -0.203125,0 -0.21875,0.04687 -0.03125,0.0625 -0.03125,0.109375 -0.03125,0.625 0.765625,0 2.0625,-0.15625 3.046875,-0.75 v 13.0625 c 0,0.875 -0.046875,1.171875 -2.1875,1.171875 H 2.28125 V 0 c 1.1875,-0.03125 2.421875,-0.046875 3.609375,-0.046875 1.203125,0 2.4375,0.015625 3.625,0.046875 v -0.640625 h -0.75 c -2.125,0 -2.171875,-0.28125 -2.171875,-1.171875 z m 0,0"
   id="path131" />
      </g>
      <g
   id="use69"
   transform="translate(56.357365,42.363998)">
        <path
   d="m 9.34375,-5.75 h 6.5625 c 0.34375,0 0.765625,0 0.765625,-0.421875 0,-0.4375 -0.390625,-0.4375 -0.765625,-0.4375 H 9.34375 V -13.1875 c 0,-0.34375 0,-0.765625 -0.421875,-0.765625 -0.453125,0 -0.453125,0.390625 -0.453125,0.765625 v 6.578125 h -6.5625 c -0.34375,0 -0.765625,0 -0.765625,0.421875 0,0.4375 0.390625,0.4375 0.765625,0.4375 h 6.5625 v 6.5625 c 0,0.359375 0,0.78125 0.421875,0.78125 0.453125,0 0.453125,-0.40625 0.453125,-0.78125 z m 0,0"
   id="path135" />
      </g>
    </g>
  </g>
  <g
   fill="#000000"
   fill-opacity="1"
   id="g77"
   transform="matrix(0.352778,0,0,0.352778,0.270095,0.140053)">
    <g
   id="use75"
   transform="translate(74.199997,42.363998)">
      <path
   d="m 4.4375,-5.75 c 0.671875,0 2.359375,-0.046875 3.546875,-0.5 1.875,-0.71875 2.046875,-2.15625 2.046875,-2.59375 0,-1.09375 -0.9375,-2.078125 -2.578125,-2.078125 -2.59375,0 -6.34375,2.34375 -6.34375,6.765625 0,2.59375 1.5,4.40625 3.75,4.40625 3.375,0 5.5,-2.625 5.5,-2.953125 0,-0.140625 -0.15625,-0.265625 -0.25,-0.265625 -0.07813,0 -0.09375,0.015625 -0.328125,0.25 C 8.203125,-0.625 5.84375,-0.25 4.90625,-0.25 3.5,-0.25 2.75,-1.359375 2.75,-3.203125 2.75,-3.546875 2.75,-4.15625 3.125,-5.75 Z M 3.25,-6.25 c 1.0625,-3.8125 3.421875,-4.1875 4.203125,-4.1875 1.09375,0 1.84375,0.65625 1.84375,1.59375 0,2.59375 -3.96875,2.59375 -5.015625,2.59375 z m 0,0"
   id="path139" />
    </g>
  </g>
  <g
   fill="#000000"
   fill-opacity="1"
   id="g81"
   transform="matrix(0.352778,0,0,0.352778,0.270095,0.140053)">
    <g
   id="use79"
   transform="translate(85.448997,34.528999)">
      <path
   d="m 11.34375,-3.953125 c 0.296875,0 0.609375,0 0.609375,-0.359375 0,-0.34375 -0.3125,-0.34375 -0.609375,-0.34375 h -9.3125 c -0.296875,0 -0.609375,0 -0.609375,0.34375 0,0.359375 0.3125,0.359375 0.609375,0.359375 z m 0,0"
   id="path143" />
    </g>
  </g>
  <g
   fill="#000000"
   fill-opacity="1"
   id="g85"
   transform="matrix(0.352778,0,0,0.352778,0.270095,0.140053)">
    <g
   id="use83"
   transform="translate(98.838997,34.528999)">
      <path
   d="m 5.265625,4.203125 c 0,-0.015625 0,-0.046875 -0.046875,-0.109375 -0.796875,-0.8125 -2.90625,-3.015625 -2.90625,-8.375 0,-5.375 2.078125,-7.5625 2.921875,-8.421875 0,-0.01563 0.03125,-0.0625 0.03125,-0.109375 0,-0.04687 -0.046875,-0.07813 -0.125,-0.07813 -0.1875,0 -1.640625,1.265625 -2.484375,3.15625 -0.859375,1.921875 -1.109375,3.78125 -1.109375,5.421875 0,1.25 0.125,3.34375 1.15625,5.5625 0.828125,1.796875 2.234375,3.0625 2.4375,3.0625 0.09375,0 0.125,-0.046875 0.125,-0.109375 z m 0,0"
   id="path147" />
    </g>
  </g>
  <g
   fill="#000000"
   fill-opacity="1"
   id="g89"
   transform="matrix(0.352778,0,0,0.352778,0.270095,0.140053)">
    <g
   id="use87"
   transform="translate(104.935,34.528999)">
      <path
   d="m 9.75,-10.015625 c 0,-1.03125 -0.875,-2.125 -2.453125,-2.125 -2.21875,0 -3.625,2.71875 -4.078125,4.515625 L 0.5,3.171875 C 0.46875,3.3125 0.5625,3.34375 0.65625,3.34375 c 0.125,0 0.203125,-0.015625 0.21875,-0.109375 l 1.203125,-4.8125 c 0.171875,0.953125 1.125,1.75 2.140625,1.75 C 6.6875,0.171875 9,-1.75 9,-4.328125 9,-4.96875 8.84375,-5.625 8.484375,-6.1875 8.28125,-6.515625 8.03125,-6.75 7.75,-6.953125 c 1.234375,-0.65625 2,-1.703125 2,-3.0625 z m -3,3.046875 c -0.28125,0.09375 -0.546875,0.140625 -0.875,0.140625 -0.25,0 -0.46875,0.015625 -0.78125,-0.09375 0.171875,-0.125 0.4375,-0.15625 0.796875,-0.15625 0.3125,0 0.625,0.03125 0.859375,0.109375 z m 2.09375,-3.203125 c 0,0.9375 -0.453125,2.3125 -1.578125,2.953125 -0.328125,-0.109375 -0.78125,-0.203125 -1.15625,-0.203125 -0.359375,0 -1.390625,-0.03125 -1.390625,0.515625 0,0.46875 0.953125,0.421875 1.234375,0.421875 0.453125,0 0.84375,-0.109375 1.265625,-0.234375 C 7.765625,-6.265625 8,-5.6875 8,-4.828125 c 0,1 -0.265625,1.8125 -0.59375,2.5625 C 6.828125,-1 5.5,-0.171875 4.3125,-0.171875 c -1.265625,0 -1.921875,-1 -1.921875,-2.171875 0,-0.15625 0,-0.375 0.078125,-0.640625 L 3.578125,-7.5 c 0.578125,-2.265625 2.015625,-4.296875 3.6875,-4.296875 1.234375,0 1.578125,0.859375 1.578125,1.625 z m 0,0"
   id="path151" />
    </g>
  </g>
  <g
   fill="#000000"
   fill-opacity="1"
   id="g93"
   transform="matrix(0.352778,0,0,0.352778,0.270095,0.140053)">
    <g
   id="use91"
   transform="translate(114.452,39.695999)">
      <path
   d="m 7.234375,-5.53125 c 0,-1.046875 -0.015625,-2.84375 -0.75,-4.21875 -0.625,-1.203125 -1.640625,-1.625 -2.546875,-1.625 -0.828125,0 -1.875,0.375 -2.53125,1.609375 -0.6875,1.296875 -0.75,2.890625 -0.75,4.234375 0,0.984375 0.015625,2.484375 0.546875,3.796875 0.75,1.765625 2.0625,2.015625 2.734375,2.015625 0.796875,0 2,-0.328125 2.703125,-1.96875 0.515625,-1.1875 0.59375,-2.578125 0.59375,-3.84375 z M 3.9375,0 C 2.84375,0 2.1875,-0.953125 1.953125,-2.25 1.75,-3.265625 1.75,-4.75 1.75,-5.71875 c 0,-1.328125 0,-2.421875 0.234375,-3.46875 0.328125,-1.46875 1.28125,-1.921875 1.953125,-1.921875 0.71875,0 1.625,0.46875 1.953125,1.875 C 6.109375,-8.25 6.125,-7.09375 6.125,-5.71875 c 0,1.125 0,2.5 -0.203125,3.515625 C 5.5625,-0.328125 4.546875,0 3.9375,0 Z m 0,0"
   id="path155" />
    </g>
  </g>
  <g
   fill="#000000"
   fill-opacity="1"
   id="g97"
   transform="matrix(0.352778,0,0,0.352778,0.270095,0.140053)">
    <g
   id="use95"
   transform="translate(122.845,34.528999)">
      <path
   d="m 6.484375,-4 h 4.5625 c 0.25,0 0.546875,0 0.546875,-0.28125 0,-0.3125 -0.28125,-0.3125 -0.546875,-0.3125 h -4.5625 v -4.5625 c 0,-0.25 0,-0.53125 -0.28125,-0.53125 -0.3125,0 -0.3125,0.265625 -0.3125,0.53125 v 4.5625 h -4.5625 c -0.25,0 -0.53125,0 -0.53125,0.28125 C 0.796875,-4 1.0625,-4 1.328125,-4 h 4.5625 v 4.5625 c 0,0.25 0,0.546875 0.296875,0.546875 0.296875,0 0.296875,-0.28125 0.296875,-0.546875 z m 0,0"
   id="path159" />
    </g>
  </g>
  <g
   fill="#000000"
   fill-opacity="1"
   id="g101"
   transform="matrix(0.352778,0,0,0.352778,0.270095,0.140053)">
    <g
   id="use99"
   transform="translate(135.237,34.528999)">
      <path
   d="m 9.75,-10.015625 c 0,-1.03125 -0.875,-2.125 -2.453125,-2.125 -2.21875,0 -3.625,2.71875 -4.078125,4.515625 L 0.5,3.171875 C 0.46875,3.3125 0.5625,3.34375 0.65625,3.34375 c 0.125,0 0.203125,-0.015625 0.21875,-0.109375 l 1.203125,-4.8125 c 0.171875,0.953125 1.125,1.75 2.140625,1.75 C 6.6875,0.171875 9,-1.75 9,-4.328125 9,-4.96875 8.84375,-5.625 8.484375,-6.1875 8.28125,-6.515625 8.03125,-6.75 7.75,-6.953125 c 1.234375,-0.65625 2,-1.703125 2,-3.0625 z m -3,3.046875 c -0.28125,0.09375 -0.546875,0.140625 -0.875,0.140625 -0.25,0 -0.46875,0.015625 -0.78125,-0.09375 0.171875,-0.125 0.4375,-0.15625 0.796875,-0.15625 0.3125,0 0.625,0.03125 0.859375,0.109375 z m 2.09375,-3.203125 c 0,0.9375 -0.453125,2.3125 -1.578125,2.953125 -0.328125,-0.109375 -0.78125,-0.203125 -1.15625,-0.203125 -0.359375,0 -1.390625,-0.03125 -1.390625,0.515625 0,0.46875 0.953125,0.421875 1.234375,0.421875 0.453125,0 0.84375,-0.109375 1.265625,-0.234375 C 7.765625,-6.265625 8,-5.6875 8,-4.828125 c 0,1 -0.265625,1.8125 -0.59375,2.5625 C 6.828125,-1 5.5,-0.171875 4.3125,-0.171875 c -1.265625,0 -1.921875,-1 -1.921875,-2.171875 0,-0.15625 0,-0.375 0.078125,-0.640625 L 3.578125,-7.5 c 0.578125,-2.265625 2.015625,-4.296875 3.6875,-4.296875 1.234375,0 1.578125,0.859375 1.578125,1.625 z m 0,0"
   id="path163" />
    </g>
  </g>
  <g
   fill="#000000"
   fill-opacity="1"
   id="g105"
   transform="matrix(0.352778,0,0,0.352778,0.270095,0.140053)">
    <g
   id="use103"
   transform="translate(144.75301,39.695999)">
      <path
   d="m 4.578125,-11 c 0,-0.359375 -0.015625,-0.375 -0.25,-0.375 -0.671875,0.796875 -1.6875,1.0625 -2.65625,1.09375 -0.046875,0 -0.140625,0 -0.15625,0.03125 C 1.5,-10.203125 1.5,-10.171875 1.5,-9.8125 c 0.53125,0 1.421875,-0.109375 2.109375,-0.515625 V -1.25 c 0,0.59375 -0.03125,0.796875 -1.515625,0.796875 H 1.578125 V 0 c 0.828125,-0.015625 1.6875,-0.03125 2.515625,-0.03125 0.828125,0 1.6875,0.015625 2.515625,0.03125 V -0.453125 H 6.09375 c -1.484375,0 -1.515625,-0.1875 -1.515625,-0.796875 z m 0,0"
   id="path167" />
    </g>
  </g>
  <g
   fill="#000000"
   fill-opacity="1"
   id="g109"
   transform="matrix(0.352778,0,0,0.352778,0.270095,0.140053)">
    <g
   id="use107"
   transform="translate(153.147,34.528999)">
      <path
   d="m 8.15625,-7.03125 c -0.546875,0.109375 -0.75,0.515625 -0.75,0.84375 0,0.421875 0.328125,0.5625 0.5625,0.5625 0.515625,0 0.875,-0.453125 0.875,-0.921875 0,-0.71875 -0.8125,-1.046875 -1.546875,-1.046875 -1.046875,0 -1.625,1.03125 -1.78125,1.359375 -0.40625,-1.296875 -1.46875,-1.359375 -1.78125,-1.359375 -1.75,0 -2.6875,2.25 -2.6875,2.640625 0,0.0625 0.078125,0.15625 0.1875,0.15625 0.140625,0 0.171875,-0.109375 0.21875,-0.171875 C 2.03125,-6.890625 3.1875,-7.25 3.6875,-7.25 c 0.765625,0 0.921875,0.71875 0.921875,1.140625 0,0.375 -0.09375,0.765625 -0.296875,1.59375 L 3.71875,-2.15625 c -0.25,1.03125 -0.75,1.984375 -1.671875,1.984375 -0.078125,0 -0.515625,0 -0.875,-0.21875 0.625,-0.125 0.75,-0.640625 0.75,-0.84375 0,-0.34375 -0.25,-0.5625 -0.578125,-0.5625 -0.40625,0 -0.859375,0.375 -0.859375,0.921875 0,0.71875 0.8125,1.046875 1.546875,1.046875 0.828125,0 1.40625,-0.65625 1.78125,-1.359375 0.265625,1.015625 1.125,1.359375 1.765625,1.359375 1.75,0 2.6875,-2.25 2.6875,-2.640625 0,-0.078125 -0.0625,-0.15625 -0.171875,-0.15625 -0.15625,0 -0.171875,0.09375 -0.21875,0.234375 -0.46875,1.515625 -1.46875,2.21875 -2.25,2.21875 -0.59375,0 -0.921875,-0.453125 -0.921875,-1.15625 0,-0.375 0.0625,-0.65625 0.34375,-1.78125 l 0.59375,-2.34375 C 5.90625,-6.484375 6.484375,-7.25 7.28125,-7.25 c 0.03125,0 0.515625,0 0.875,0.21875 z m 0,0"
   id="path171" />
    </g>
  </g>
  <g
   fill="#000000"
   fill-opacity="1"
   id="g113"
   transform="matrix(0.352778,0,0,0.352778,0.270095,0.140053)">
    <g
   id="use111"
   transform="translate(162.726,34.528999)">
      <path
   d="m 4.53125,-4.28125 c 0,-1.25 -0.125,-3.34375 -1.15625,-5.5625 -0.828125,-1.796875 -2.234375,-3.046875 -2.4375,-3.046875 -0.0625,0 -0.125,0.01563 -0.125,0.09375 0,0.03125 0.015625,0.0625 0.03125,0.09375 0.828125,0.859375 2.921875,3.046875 2.921875,8.390625 0,5.375 -2.078125,7.5625 -2.921875,8.421875 C 0.828125,4.15625 0.8125,4.171875 0.8125,4.203125 0.8125,4.28125 0.875,4.3125 0.9375,4.3125 1.125,4.3125 2.578125,3.03125 3.421875,1.140625 4.28125,-0.78125 4.53125,-2.640625 4.53125,-4.28125 Z m 0,0"
   id="path175" />
    </g>
  </g>
</g></svg>
