<?xml version="1.0" encoding="UTF-8"?>
<svg id="svg5" xmlns="http://www.w3.org/2000/svg" version="1.1" xmlns:inkscape="http://www.inkscape.org/namespaces/inkscape" xmlns:sodipodi="http://sodipodi.sourceforge.net/DTD/sodipodi-0.dtd" xmlns:svg="http://www.w3.org/2000/svg" xmlns:xlink="http://www.w3.org/1999/xlink" viewBox="0 0 840 610.22">
  <!-- Generator: Adobe Illustrator 29.8.2, SVG Export Plug-In . SVG Version: 2.1.1 Build 3)  -->
  <defs>
    <style>
      .st0 {
        fill: #bdbdbd;
        opacity: .82;
        stroke-linecap: round;
        stroke-width: 1.7px;
      }

      .st0, .st1 {
        stroke-miterlimit: 13.61;
      }

      .st0, .st2, .st3 {
        stroke: #000;
      }

      .st0, .st4 {
        isolation: isolate;
      }

      .st5, .st1, .st2, .st3 {
        fill: none;
      }

      .st1 {
        stroke: #acacac;
        stroke-width: .9px;
      }

      .st6 {
        clip-path: url(#clippath-1);
      }

      .st2 {
        stroke-miterlimit: 10;
        stroke-width: 2px;
      }

      .st7 {
        clip-path: url(#clippath-3);
      }

      .st3 {
        stroke-miterlimit: 20.13;
        stroke-width: 2.7px;
      }

      .st8 {
        clip-path: url(#clippath-2);
      }

      .st9 {
        clip-path: url(#clippath);
      }
    </style>
    <clipPath id="clippath">
      <rect class="st5" x="518.94" y="513.39" width="9.6" height="19.98"/>
    </clipPath>
    <clipPath id="clippath-1">
      <rect class="st5" x="365.74" y="136.3" width="9.6" height="20.03"/>
    </clipPath>
    <clipPath id="clippath-2">
      <rect class="st5" x="430.89" y="66.95" width="10.67" height="22.95"/>
    </clipPath>
    <clipPath id="clippath-3">
      <rect class="st5" x="442.89" y="66.95" width="36" height="22.95"/>
    </clipPath>
  </defs>
  <sodipodi:namedview id="namedview7" bordercolor="#666666" borderopacity="1.0" inkscape:current-layer="svg5" inkscape:cx="435.07979" inkscape:cy="276.49286" inkscape:deskcolor="#d1d1d1" inkscape:document-units="mm" inkscape:pagecheckerboard="0" inkscape:pageopacity="0.0" inkscape:showpageshadow="2" inkscape:window-height="1017" inkscape:window-maximized="1" inkscape:window-width="1920" inkscape:window-x="3832" inkscape:window-y="1300" inkscape:zoom="0.72515434" pagecolor="#ffffff" showgrid="false"/>
  <g id="_x3C_defs">
    <inkscape:path-effect id="path-effect38429" apply_no_weight="true" apply_with_weight="true" effect="bspline" helper_size="0" is_visible="true" lpeversion="1" only_selected="false" steps="2" uniform="false" weight="33.333333"/>
    <inkscape:path-effect id="path-effect638" apply_no_weight="true" apply_with_weight="true" effect="bspline" helper_size="0" is_visible="true" lpeversion="1" only_selected="false" steps="2" uniform="false" weight="33.333333"/>
    <inkscape:path-effect id="path-effect638-2" apply_no_weight="true" apply_with_weight="true" effect="bspline" helper_size="0" is_visible="true" lpeversion="1" only_selected="false" steps="2" uniform="false" weight="33.333333"/>
    <inkscape:path-effect id="path-effect1867" apply_no_weight="true" apply_with_weight="true" effect="bspline" helper_size="0" is_visible="true" lpeversion="1" only_selected="false" steps="2" uniform="false" weight="33.333333"/>
    <inkscape:path-effect id="path-effect1883" apply_no_weight="true" apply_with_weight="true" effect="bspline" helper_size="0" is_visible="true" lpeversion="1" only_selected="false" steps="2" uniform="false" weight="33.333333"/>
    <inkscape:path-effect id="path-effect1899" apply_no_weight="true" apply_with_weight="true" effect="bspline" helper_size="0" is_visible="true" lpeversion="1" only_selected="false" steps="2" uniform="false" weight="33.333333"/>
    <inkscape:path-effect id="path-effect1915" apply_no_weight="true" apply_with_weight="true" effect="bspline" helper_size="0" is_visible="true" lpeversion="1" only_selected="false" steps="2" uniform="false" weight="33.333333"/>
    <inkscape:path-effect id="path-effect638-7" apply_no_weight="true" apply_with_weight="true" effect="bspline" helper_size="0" is_visible="true" lpeversion="1" only_selected="false" steps="2" uniform="false" weight="33.333333"/>
    <inkscape:path-effect id="path-effect638-2-3" apply_no_weight="true" apply_with_weight="true" effect="bspline" helper_size="0" is_visible="true" lpeversion="1" only_selected="false" steps="2" uniform="false" weight="33.333333"/>
  </g>
  <g id="text1661-3" class="st4">
    <g class="st4">
      <path d="M14.71,423.94h25.36c.53,0,.94-.12,1.24-.35s.45-.57.45-.99v-2.05h4.15v2.57c0,1.64-.51,2.92-1.54,3.83-1.03.91-2.47,1.37-4.34,1.37H14.71v-4.36Z"/>
      <path d="M46.12,407.12c0,2.91-.84,5.16-2.53,6.76s-4.07,2.39-7.13,2.39h-3.61c-3.04,0-5.39-.8-7.06-2.39-1.67-1.6-2.5-3.85-2.5-6.76s.83-5.16,2.5-6.76c1.67-1.6,4.02-2.39,7.06-2.39h3.68c3.05,0,5.41.8,7.09,2.39s2.51,3.85,2.51,6.76ZM41.97,407.12c0-1.53-.48-2.71-1.43-3.54-.95-.83-2.29-1.25-4.02-1.25h-3.68c-1.72,0-3.06.42-4,1.25-.94.83-1.41,2.01-1.41,3.54s.47,2.69,1.41,3.53c.94.84,2.27,1.26,4,1.26h3.68c1.73,0,3.06-.42,4.02-1.26.96-.84,1.43-2.02,1.43-3.53Z"/>
      <path d="M46.12,383.92c0,1.97-.29,3.75-.87,5.36-.58,1.6-1.44,3.04-2.6,4.31l-3.19-2.59c.91-1.21,1.6-2.41,2.05-3.58.46-1.18.68-2.34.68-3.5,0-1.72-.27-3.02-.8-3.88-.53-.86-1.34-1.29-2.41-1.29-.83,0-1.41.29-1.75.87-.34.58-.57,1.33-.67,2.27s-.2,1.93-.27,3c-.07.9-.18,1.79-.33,2.67-.15.88-.42,1.69-.81,2.42-.39.73-.97,1.31-1.74,1.74-.77.44-1.8.65-3.1.65-2.35,0-4.11-.72-5.28-2.16-1.17-1.44-1.75-3.58-1.75-6.44,0-1.74.23-3.36.71-4.85.47-1.5,1.19-2.9,2.16-4.21l3.19,2.63c-.71,1.11-1.25,2.21-1.6,3.28-.36,1.08-.53,2.13-.53,3.15,0,1.48.25,2.59.76,3.33.51.74,1.26,1.11,2.28,1.11.67,0,1.15-.26,1.44-.77.29-.51.48-1.19.57-2.03.09-.84.16-1.75.24-2.71.06-.93.16-1.86.31-2.81.15-.95.44-1.82.87-2.62.43-.8,1.06-1.44,1.9-1.92.84-.48,1.99-.73,3.44-.73,2.38,0,4.16.77,5.35,2.32,1.18,1.55,1.77,3.87,1.77,6.98Z"/>
      <path d="M46.12,361.21c0,1.97-.29,3.75-.87,5.36-.58,1.6-1.44,3.04-2.6,4.31l-3.19-2.59c.91-1.21,1.6-2.41,2.05-3.58.46-1.18.68-2.34.68-3.5,0-1.72-.27-3.02-.8-3.88-.53-.86-1.34-1.29-2.41-1.29-.83,0-1.41.29-1.75.87-.34.58-.57,1.33-.67,2.27-.11.93-.2,1.94-.27,3-.07.9-.18,1.79-.33,2.67-.15.88-.42,1.69-.81,2.42-.39.73-.97,1.31-1.74,1.74-.77.43-1.8.65-3.1.65-2.35,0-4.11-.72-5.28-2.16-1.17-1.44-1.75-3.58-1.75-6.43,0-1.74.23-3.36.71-4.85.47-1.5,1.19-2.9,2.16-4.21l3.19,2.63c-.71,1.11-1.25,2.21-1.6,3.28-.36,1.08-.53,2.13-.53,3.15,0,1.48.25,2.59.76,3.33s1.26,1.11,2.28,1.11c.67,0,1.15-.26,1.44-.77.29-.51.48-1.19.57-2.03.09-.84.16-1.75.24-2.71.06-.93.16-1.86.31-2.81.15-.95.44-1.82.87-2.62.43-.8,1.06-1.44,1.9-1.92.84-.48,1.99-.73,3.44-.73,2.38,0,4.16.77,5.35,2.32,1.18,1.55,1.77,3.87,1.77,6.98Z"/>
      <path d="M45.8,333.96h-25.21c-1.95,0-3.42-.45-4.4-1.35s-1.48-2.29-1.48-4.19v-3.21h4.15v3.12c0,.44.17.76.5.96.33.2.73.3,1.19.3h25.25v4.36ZM27.33,336.31h-3.72v-11.1h3.72v11.1Z"/>
      <path d="M45.8,308.19h-22.19v-4.34h22.19v4.34ZM23.61,317.22h13.49c1.55,0,2.75-.4,3.6-1.19.85-.79,1.27-1.91,1.27-3.35s-.38-2.55-1.14-3.32c-.76-.78-1.83-1.17-3.22-1.17l4.64-.3c1,.4,1.89,1.1,2.68,2.1s1.19,2.3,1.19,3.91c0,2.45-.79,4.34-2.36,5.68-1.57,1.33-3.79,2-6.66,2h-13.49v-4.36Z"/>
      <path d="M45.8,283.76h-13.45c-1.57,0-2.78.4-3.63,1.21s-1.28,1.95-1.28,3.43.38,2.53,1.13,3.3c.76.78,1.82,1.17,3.19,1.17l-4.28.45c-1.34-.68-2.37-1.58-3.1-2.68-.73-1.1-1.09-2.33-1.09-3.67,0-2.41.79-4.27,2.36-5.59,1.58-1.32,3.8-1.98,6.68-1.98h13.47v4.36ZM45.8,297.23h-22.19v-4.36h22.19v4.36Z"/>
      <path d="M46.12,263.81c0,3.05-.84,5.41-2.52,7.09-1.68,1.68-4.05,2.51-7.12,2.51h-3.66c-3.04,0-5.38-.84-7.04-2.51-1.66-1.67-2.49-4.04-2.49-7.09,0-1.74.31-3.31.92-4.7.61-1.4,1.49-2.51,2.63-3.33l2.82,3.14c-.71.61-1.26,1.34-1.65,2.18-.38.84-.58,1.72-.58,2.65,0,1.68.47,2.99,1.41,3.91.94.93,2.27,1.39,3.98,1.39h3.66c1.75,0,3.11-.46,4.06-1.39.96-.93,1.43-2.23,1.43-3.91,0-.93-.21-1.81-.62-2.65-.41-.84-1-1.57-1.75-2.18l3.04-3.14c1.11.83,1.97,1.94,2.58,3.35s.91,2.97.91,4.69Z"/>
      <path d="M45.9,245.19c0,1.82-.51,3.15-1.52,3.97-1.01.82-2.47,1.23-4.36,1.23h-22.88v-4.36h22.92c.53,0,.94-.11,1.24-.32.3-.21.45-.53.45-.94v-2.1h4.15v2.52ZM27.54,252.67h-3.93v-10.01h3.93v10.01Z"/>
      <path d="M19.07,236.68h-4.36v-4.36h4.36v4.36ZM45.8,236.68h-22.19v-4.36h22.19v4.36Z"/>
      <path d="M46.12,217.18c0,2.91-.84,5.16-2.53,6.76-1.69,1.6-4.07,2.39-7.13,2.39h-3.61c-3.04,0-5.39-.8-7.06-2.39-1.67-1.6-2.5-3.85-2.5-6.76s.83-5.16,2.5-6.76c1.67-1.6,4.02-2.39,7.06-2.39h3.68c3.05,0,5.41.8,7.09,2.39,1.67,1.6,2.51,3.85,2.51,6.76ZM41.97,217.18c0-1.52-.48-2.7-1.43-3.54-.95-.83-2.29-1.25-4.02-1.25h-3.68c-1.72,0-3.06.42-4,1.25-.94.83-1.41,2.01-1.41,3.54s.47,2.69,1.41,3.53c.94.84,2.27,1.26,4,1.26h3.68c1.73,0,3.06-.42,4.02-1.26.96-.84,1.43-2.02,1.43-3.53Z"/>
      <path d="M45.8,188.36h-13.45c-1.57,0-2.78.4-3.63,1.21s-1.28,1.95-1.28,3.43.38,2.53,1.13,3.3c.76.78,1.82,1.17,3.19,1.17l-4.28.45c-1.34-.68-2.37-1.58-3.1-2.68-.73-1.1-1.09-2.33-1.09-3.67,0-2.41.79-4.27,2.36-5.59,1.58-1.32,3.8-1.98,6.68-1.98h13.47v4.36ZM45.8,201.83h-22.19v-4.36h22.19v4.36Z"/>
      <path d="M52.49,157.6c-2.75,2.54-5.83,4.44-9.25,5.7-3.41,1.26-7.18,1.89-11.3,1.89s-7.89-.63-11.3-1.89c-3.41-1.26-6.5-3.16-9.25-5.7l2.72-2.99c2.39,2.15,5.07,3.76,8.04,4.83,2.96,1.07,6.23,1.6,9.79,1.6s6.83-.53,9.79-1.6c2.96-1.07,5.65-2.68,8.06-4.83l2.69,2.99Z"/>
      <path d="M46.12,142.91c0,2.78-.58,4.92-1.74,6.44-1.16,1.51-2.8,2.27-4.91,2.27h-.02c-1.11,0-2.18-.34-3.2-1.02-1.02-.68-1.62-1.62-1.81-2.83-.44,1.05-1.16,1.87-2.15,2.46s-2.07.88-3.24.88h-.02c-1.85,0-3.27-.72-4.27-2.15-.99-1.43-1.49-3.45-1.49-6.06,0-1.88.3-3.48.9-4.8s1.5-2.35,2.69-3.11l2.59,3.16c-1.47,1.3-2.2,2.88-2.2,4.75,0,1.21.21,2.16.62,2.83.41.68,1,1.02,1.77,1.02h.02c.86,0,1.52-.2,1.99-.61.47-.41.71-.98.71-1.72v-3.7h4.25v3.7c0,.9.21,1.6.62,2.1.41.5,1,.75,1.75.75h.02c.98,0,1.75-.38,2.3-1.14.55-.76.82-1.83.82-3.2,0-.74-.2-1.55-.61-2.43s-1.02-1.72-1.85-2.53l2.93-2.97c1.17.91,2.05,2.03,2.63,3.35.58,1.32.88,2.85.88,4.59Z"/>
      <path d="M52.49,130.17l-2.69,2.99c-2.41-2.15-5.1-3.76-8.06-4.83-2.96-1.07-6.23-1.6-9.79-1.6s-6.83.53-9.79,1.6c-2.96,1.07-5.64,2.68-8.04,4.83l-2.72-2.99c2.75-2.54,5.83-4.44,9.25-5.7,3.41-1.26,7.18-1.89,11.3-1.89s7.89.63,11.3,1.89c3.41,1.26,6.5,3.16,9.25,5.7Z"/>
    </g>
  </g>
  <g id="text1661-7-88" class="st4">
    <g class="st4">
      <path d="M324.55,610.22v-31.21h4.36v31.21h-4.36ZM334.49,601.52c-1.38,0-2.59-.33-3.61-.99-1.03-.66-1.78-1.6-2.27-2.81l.3-4.64c0,.96.17,1.77.51,2.44.34.67.84,1.18,1.49,1.54s1.44.53,2.36.53c1.44,0,2.55-.44,3.35-1.31.79-.88,1.19-2.11,1.19-3.71v-4.81c0-1.62-.4-2.89-1.19-3.78-.79-.9-1.91-1.35-3.35-1.35-.93,0-1.71.17-2.36.51s-1.14.84-1.49,1.5c-.34.66-.51,1.45-.51,2.39l-.45-4.28c.67-1.3,1.55-2.3,2.63-3,1.08-.71,2.29-1.06,3.61-1.06,2.38,0,4.22.79,5.52,2.36,1.3,1.58,1.95,3.8,1.95,6.68v4.83c0,2.84-.67,5.04-2.01,6.61-1.34,1.57-3.23,2.35-5.67,2.35Z"/>
      <path d="M355.47,601.52c-2.72,0-4.76-.56-6.12-1.69-1.36-1.13-2.04-2.85-2.04-5.17s.62-3.86,1.87-4.95c1.25-1.09,3.12-1.64,5.61-1.64h6.31l.3,3.51h-6.58c-1.13,0-1.97.25-2.54.76-.57.51-.85,1.28-.85,2.32,0,1.13.38,1.96,1.13,2.5.75.54,1.89.81,3.4.81,1.65,0,2.89-.18,3.72-.53.83-.36,1.24-.91,1.24-1.67l.45,3.12c-.38.6-.86,1.09-1.43,1.47-.57.38-1.22.67-1.96.87-.73.19-1.56.29-2.49.29ZM360.9,601.2v-14.07c0-1.45-.39-2.58-1.17-3.39-.78-.8-1.88-1.21-3.3-1.21-.87,0-1.73.13-2.58.4s-1.61.65-2.28,1.14l-3.19-2.18c.84-1.01,1.95-1.8,3.32-2.36,1.38-.56,2.9-.84,4.59-.84,2.78,0,4.93.72,6.46,2.16,1.52,1.44,2.29,3.47,2.29,6.09v14.26h-4.15Z"/>
      <path d="M371.67,601.2v-22.19h4.36v22.19h-4.36ZM383.88,584.27c-.39-.47-.87-.83-1.45-1.07s-1.26-.36-2.03-.36c-1.38,0-2.46.38-3.22,1.14-.76.76-1.14,1.82-1.14,3.17l-.45-4.28c.67-1.31,1.55-2.34,2.64-3.08s2.29-1.11,3.6-1.11c1.01,0,1.93.15,2.75.44.82.29,1.54.72,2.15,1.29l-2.84,3.85Z"/>
      <path d="M397.46,601.52c-2.72,0-4.76-.56-6.12-1.69-1.36-1.13-2.04-2.85-2.04-5.17s.62-3.86,1.87-4.95c1.25-1.09,3.12-1.64,5.61-1.64h6.31l.3,3.51h-6.58c-1.13,0-1.97.25-2.54.76-.57.51-.85,1.28-.85,2.32,0,1.13.38,1.96,1.13,2.5.75.54,1.89.81,3.4.81,1.65,0,2.89-.18,3.72-.53.83-.36,1.24-.91,1.24-1.67l.45,3.12c-.38.6-.86,1.09-1.43,1.47-.57.38-1.22.67-1.96.87-.73.19-1.56.29-2.49.29ZM402.89,601.2v-14.07c0-1.45-.39-2.58-1.17-3.39-.78-.8-1.88-1.21-3.3-1.21-.87,0-1.73.13-2.58.4s-1.61.65-2.28,1.14l-3.19-2.18c.84-1.01,1.95-1.8,3.32-2.36,1.38-.56,2.9-.84,4.59-.84,2.78,0,4.93.72,6.46,2.16,1.52,1.44,2.29,3.47,2.29,6.09v14.26h-4.15Z"/>
      <path d="M413.66,601.2v-22.19h4.36v22.19h-4.36ZM426.92,601.2v-13.45c0-1.57-.38-2.78-1.15-3.63-.77-.86-1.86-1.28-3.27-1.28s-2.53.38-3.3,1.13-1.17,1.82-1.17,3.19l-.45-4.28c.68-1.34,1.58-2.37,2.68-3.1s2.33-1.09,3.67-1.09c2.34,0,4.15.79,5.43,2.36,1.28,1.58,1.92,3.8,1.92,6.68v13.47h-4.36ZM440.17,601.2v-13.45c0-1.57-.4-2.78-1.21-3.63-.81-.86-1.95-1.28-3.43-1.28-1.35,0-2.4.41-3.14,1.24-.74.83-1.11,2-1.11,3.51l-.88-4.28c.71-1.48,1.64-2.62,2.78-3.42,1.14-.8,2.4-1.2,3.78-1.2,2.41,0,4.27.79,5.59,2.36,1.32,1.58,1.98,3.8,1.98,6.68v13.47h-4.36Z"/>
      <path d="M460.25,601.52c-3.09,0-5.49-.86-7.18-2.59-1.7-1.72-2.54-4.18-2.54-7.35v-2.5c0-3.31.82-5.87,2.45-7.67,1.63-1.81,3.93-2.72,6.9-2.72,2.79,0,4.96,1.03,6.49,3.08,1.53,2.05,2.3,4.93,2.3,8.64v1.45h-14.97v-3.51h10.82c-.13-1.8-.6-3.2-1.4-4.21s-1.88-1.52-3.24-1.52c-1.64,0-2.92.54-3.83,1.62-.91,1.08-1.37,2.62-1.37,4.6v2.82c0,1.84.49,3.25,1.46,4.23.98.98,2.35,1.47,4.12,1.47.88,0,1.76-.18,2.63-.53s1.65-.86,2.33-1.5l2.87,2.87c-1.1,1.05-2.33,1.87-3.7,2.45-1.37.58-2.74.87-4.12.87Z"/>
      <path d="M472.92,582.94v-3.93h10v3.93h-10ZM480.41,601.31c-1.82,0-3.15-.5-3.97-1.52-.82-1.01-1.23-2.47-1.23-4.36v-22.88h4.36v22.92c0,.53.11.94.32,1.24.21.3.53.45.94.45h2.09v4.15h-2.52Z"/>
      <path d="M498,601.52c-3.09,0-5.49-.86-7.18-2.59-1.7-1.72-2.54-4.18-2.54-7.35v-2.5c0-3.31.82-5.87,2.45-7.67,1.63-1.81,3.93-2.72,6.9-2.72,2.79,0,4.96,1.03,6.49,3.08,1.53,2.05,2.3,4.93,2.3,8.64v1.45h-14.97v-3.51h10.82c-.13-1.8-.6-3.2-1.4-4.21s-1.88-1.52-3.24-1.52c-1.64,0-2.92.54-3.83,1.62-.91,1.08-1.37,2.62-1.37,4.6v2.82c0,1.84.49,3.25,1.46,4.23.98.98,2.35,1.47,4.12,1.47.88,0,1.76-.18,2.63-.53s1.65-.86,2.33-1.5l2.87,2.87c-1.1,1.05-2.33,1.87-3.7,2.45-1.37.58-2.74.87-4.12.87Z"/>
      <path d="M512.39,601.2v-22.19h4.36v22.19h-4.36ZM524.6,584.27c-.39-.47-.87-.83-1.46-1.07-.58-.24-1.26-.36-2.03-.36-1.38,0-2.46.38-3.22,1.14-.76.76-1.14,1.82-1.14,3.17l-.45-4.28c.67-1.31,1.55-2.34,2.64-3.08s2.29-1.11,3.6-1.11c1.01,0,1.93.15,2.75.44s1.54.72,2.15,1.29l-2.84,3.85Z"/>
      <path d="M550.85,607.89c-2.54-2.75-4.44-5.83-5.7-9.25s-1.89-7.18-1.89-11.3.63-7.89,1.89-11.3c1.26-3.41,3.16-6.5,5.7-9.25l2.99,2.72c-2.15,2.39-3.76,5.07-4.83,8.04-1.07,2.96-1.6,6.23-1.6,9.79s.54,6.83,1.6,9.79c1.07,2.96,2.68,5.65,4.83,8.06l-2.99,2.69Z"/>
      <path d="M568,601.52c-2.02,0-3.67-.51-4.93-1.54-1.26-1.03-2.01-2.77-2.25-5.24l1.24-1.28c0,1.24.48,2.2,1.43,2.87.95.67,2.1,1,3.44,1s2.45-.38,3.21-1.15,1.13-1.85,1.13-3.25v-.94c0-1.55-.36-2.75-1.08-3.6-.72-.85-1.74-1.27-3.05-1.27h-1.99v-4.15h1.99c1.16,0,2.05-.36,2.67-1.09.63-.73.94-1.75.94-3.08v-.96c0-1.23-.35-2.17-1.06-2.84-.71-.67-1.71-1-3-1-1.47,0-2.61.45-3.42,1.35-.81.9-1.22,2.17-1.22,3.81h-4.36c0-2.98.78-5.28,2.35-6.91s3.78-2.44,6.65-2.44,4.86.71,6.37,2.12c1.51,1.41,2.27,3.4,2.27,5.96v.51c0,1.55-.42,2.9-1.26,4.05-.84,1.15-2.03,1.99-3.57,2.53,1.7.36,3.01,1.19,3.95,2.49.93,1.3,1.4,2.96,1.4,4.97v.51c0,2.72-.68,4.83-2.05,6.33-1.37,1.5-3.3,2.24-5.79,2.24ZM557.69,610.22v-31.09h4.36v31.09h-4.36Z"/>
      <path d="M581.51,607.89l-2.99-2.69c2.15-2.41,3.76-5.1,4.83-8.06,1.07-2.96,1.6-6.23,1.6-9.79s-.54-6.83-1.6-9.79c-1.07-2.96-2.68-5.64-4.83-8.04l2.99-2.72c2.54,2.75,4.44,5.83,5.7,9.25,1.26,3.41,1.89,7.18,1.89,11.3s-.63,7.89-1.89,11.3-3.16,6.5-5.7,9.25Z"/>
    </g>
  </g>
  <g id="text01" class="st4" inkscape:label="text01">
    <g class="st4">
      <path d="M260.91,505.5c-2.45,0-4.34-.79-5.68-2.36-1.33-1.58-2-3.79-2-6.66v-4.9c0-2.88.65-5.11,1.96-6.68s3.14-2.36,5.51-2.36c1.31,0,2.51.34,3.6,1.03,1.09.68,1.97,1.65,2.64,2.89l-.45,4.53c0-.94-.17-1.75-.51-2.42-.34-.67-.84-1.18-1.49-1.53-.65-.35-1.44-.52-2.36-.52-1.44,0-2.55.45-3.35,1.35s-1.19,2.16-1.19,3.78v4.83c0,1.61.4,2.85,1.19,3.73s1.91,1.31,3.35,1.31c.93,0,1.71-.18,2.36-.54.65-.36,1.14-.89,1.49-1.57.34-.68.51-1.5.51-2.46l.3,4.68c-.4,1-1.09,1.89-2.06,2.68s-2.25,1.19-3.82,1.19ZM261.31,514.13c-1.67,0-3.16-.31-4.48-.93-1.32-.62-2.34-1.49-3.07-2.62l2.95-2.67c.57.78,1.25,1.39,2.04,1.82.79.43,1.62.64,2.49.64,1.67,0,2.96-.46,3.87-1.38.91-.92,1.37-2.22,1.37-3.9v-22.17h4.36v21.53c0,3.08-.83,5.46-2.49,7.15-1.66,1.69-4.01,2.53-7.04,2.53Z"/>
      <path d="M281.84,474.03v25.36c0,.53.12.94.35,1.24.24.3.57.45.99.45h2.05v4.15h-2.57c-1.64,0-2.92-.51-3.83-1.54-.91-1.03-1.37-2.47-1.37-4.34v-25.31h4.36Z"/>
      <path d="M298.66,505.43c-2.91,0-5.16-.84-6.76-2.53-1.6-1.69-2.39-4.07-2.39-7.13v-3.61c0-3.04.8-5.39,2.39-7.05,1.6-1.67,3.85-2.5,6.76-2.5s5.16.83,6.76,2.5c1.6,1.67,2.39,4.02,2.39,7.05v3.68c0,3.05-.8,5.41-2.39,7.09-1.6,1.67-3.85,2.51-6.76,2.51ZM298.66,501.29c1.52,0,2.7-.48,3.54-1.43.83-.95,1.25-2.29,1.25-4.02v-3.68c0-1.72-.42-3.06-1.25-4-.83-.94-2.01-1.41-3.54-1.41s-2.69.47-3.53,1.41c-.84.94-1.26,2.27-1.26,4v3.68c0,1.73.42,3.07,1.26,4.02.84.96,2.02,1.43,3.53,1.43Z"/>
      <path d="M314.01,505.11v-31.09h4.36v31.09h-4.36ZM323.95,505.43c-1.38,0-2.59-.33-3.61-.99-1.03-.66-1.78-1.6-2.27-2.81l.3-4.64c0,.96.17,1.77.51,2.44.34.67.84,1.18,1.49,1.54s1.44.53,2.36.53c1.44,0,2.55-.44,3.35-1.31s1.19-2.11,1.19-3.71v-4.81c0-1.62-.4-2.89-1.19-3.78s-1.91-1.35-3.35-1.35c-.93,0-1.71.17-2.36.51-.65.34-1.14.84-1.49,1.5-.34.66-.51,1.45-.51,2.39l-.45-4.28c.67-1.3,1.55-2.3,2.63-3,1.08-.71,2.29-1.06,3.61-1.06,2.38,0,4.22.79,5.52,2.36,1.3,1.58,1.95,3.8,1.95,6.68v4.83c0,2.84-.67,5.04-2.01,6.61-1.34,1.57-3.23,2.35-5.67,2.35Z"/>
      <path d="M344.93,505.43c-2.72,0-4.76-.56-6.12-1.69-1.36-1.13-2.04-2.85-2.04-5.17s.62-3.86,1.87-4.95,3.12-1.64,5.61-1.64h6.31l.3,3.51h-6.58c-1.13,0-1.97.25-2.54.76-.57.51-.85,1.28-.85,2.32,0,1.13.38,1.96,1.13,2.5.75.54,1.89.81,3.4.81,1.65,0,2.89-.18,3.72-.53.83-.36,1.24-.91,1.24-1.67l.45,3.12c-.38.6-.86,1.09-1.43,1.47-.57.38-1.22.67-1.96.87-.73.19-1.56.29-2.49.29ZM350.36,505.11v-14.07c0-1.45-.39-2.58-1.17-3.39s-1.88-1.21-3.3-1.21c-.87,0-1.73.13-2.58.4s-1.61.65-2.28,1.14l-3.19-2.18c.84-1.01,1.95-1.8,3.32-2.36,1.38-.56,2.9-.84,4.59-.84,2.78,0,4.93.72,6.46,2.16,1.52,1.44,2.29,3.47,2.29,6.09v14.26h-4.15Z"/>
      <path d="M365.49,474.03v25.36c0,.53.12.94.35,1.24.24.3.57.45.99.45h2.05v4.15h-2.57c-1.64,0-2.92-.51-3.83-1.54-.91-1.03-1.37-2.47-1.37-4.34v-25.31h4.36Z"/>
    </g>
    <g class="st4">
      <path d="M222.2,542.33v-22.19h4.36v22.19h-4.36ZM235.45,542.33v-13.45c0-1.57-.38-2.78-1.15-3.63-.77-.86-1.86-1.28-3.27-1.28s-2.53.38-3.3,1.13-1.17,1.82-1.17,3.18l-.45-4.28c.68-1.34,1.58-2.37,2.68-3.1s2.33-1.09,3.67-1.09c2.34,0,4.15.79,5.43,2.36,1.28,1.58,1.92,3.8,1.92,6.68v13.47h-4.36ZM248.71,542.33v-13.45c0-1.57-.4-2.78-1.21-3.63-.81-.86-1.95-1.28-3.43-1.28-1.35,0-2.4.41-3.14,1.24-.74.83-1.11,2-1.11,3.51l-.88-4.28c.71-1.48,1.64-2.62,2.78-3.42,1.14-.8,2.4-1.2,3.78-1.2,2.41,0,4.27.79,5.59,2.36,1.32,1.58,1.98,3.8,1.98,6.68v13.47h-4.36Z"/>
      <path d="M259.7,515.6v-4.36h4.36v4.36h-4.36ZM259.7,542.33v-22.19h4.36v22.19h-4.36Z"/>
      <path d="M270.69,542.33v-22.19h4.36v22.19h-4.36ZM284.16,542.33v-13.45c0-1.57-.4-2.78-1.21-3.63s-1.95-1.28-3.43-1.28-2.53.38-3.3,1.13-1.17,1.82-1.17,3.18l-.45-4.28c.68-1.34,1.58-2.37,2.68-3.1s2.33-1.09,3.67-1.09c2.41,0,4.27.79,5.59,2.36,1.32,1.58,1.98,3.8,1.98,6.68v13.47h-4.36Z"/>
      <path d="M295.15,515.6v-4.36h4.36v4.36h-4.36ZM295.15,542.33v-22.19h4.36v22.19h-4.36Z"/>
      <path d="M306.13,542.33v-22.19h4.36v22.19h-4.36ZM319.39,542.33v-13.45c0-1.57-.38-2.78-1.15-3.63-.77-.86-1.86-1.28-3.27-1.28s-2.53.38-3.3,1.13-1.17,1.82-1.17,3.18l-.45-4.28c.68-1.34,1.58-2.37,2.68-3.1s2.33-1.09,3.67-1.09c2.34,0,4.15.79,5.43,2.36,1.28,1.58,1.92,3.8,1.92,6.68v13.47h-4.36ZM332.64,542.33v-13.45c0-1.57-.4-2.78-1.21-3.63-.81-.86-1.95-1.28-3.43-1.28-1.35,0-2.4.41-3.14,1.24-.74.83-1.11,2-1.11,3.51l-.88-4.28c.71-1.48,1.64-2.62,2.78-3.42,1.14-.8,2.4-1.2,3.78-1.2,2.41,0,4.27.79,5.59,2.36,1.32,1.58,1.98,3.8,1.98,6.68v13.47h-4.36Z"/>
      <path d="M347.99,520.14v13.49c0,1.55.4,2.75,1.19,3.6s1.91,1.27,3.35,1.27,2.55-.38,3.32-1.14c.78-.76,1.17-1.83,1.17-3.22l.3,4.64c-.4,1-1.1,1.89-2.1,2.68-1,.79-2.3,1.19-3.91,1.19-2.45,0-4.34-.79-5.68-2.36-1.33-1.57-2-3.79-2-6.66v-13.49h4.36ZM357.02,542.33v-22.19h4.34v22.19h-4.34Z"/>
      <path d="M367.98,542.33v-22.19h4.36v22.19h-4.36ZM381.24,542.33v-13.45c0-1.57-.38-2.78-1.15-3.63-.77-.86-1.86-1.28-3.27-1.28s-2.53.38-3.3,1.13-1.17,1.82-1.17,3.18l-.45-4.28c.68-1.34,1.58-2.37,2.68-3.1s2.33-1.09,3.67-1.09c2.34,0,4.15.79,5.43,2.36,1.28,1.58,1.92,3.8,1.92,6.68v13.47h-4.36ZM394.49,542.33v-13.45c0-1.57-.4-2.78-1.21-3.63-.81-.86-1.95-1.28-3.43-1.28-1.35,0-2.4.41-3.14,1.24-.74.83-1.11,2-1.11,3.51l-.88-4.28c.71-1.48,1.64-2.62,2.78-3.42,1.14-.8,2.4-1.2,3.78-1.2,2.41,0,4.27.79,5.59,2.36,1.32,1.58,1.98,3.8,1.98,6.68v13.47h-4.36Z"/>
    </g>
  </g>
  <path id="fun" class="st3" d="M146.8,41.56c50.73,19.59,101.45,39.17,135.36,100.45,33.91,61.28,50.99,164.26,80.3,237.65,29.31,73.39,70.85,117.18,119.32,116.19,48.46-1,103.85-46.78,138.9-80.13,35.05-33.35,49.76-54.25,65.95-102.67s33.86-124.34,51.53-200.27" inkscape:label="fun" inkscape:original-d="m 34.401069,38.48976 c 10.08075,3.892041 20.16061,7.783739 30.241439,11.675811 3.395235,20.464889 6.790285,40.928661 10.185352,61.392539 8.255397,8.70415 16.510201,17.40763 24.764903,26.111 11.007107,-9.09916 22.013507,-18.19826 33.019867,-27.29786 2.92395,-4.15379 5.84754,-8.30774 8.77091,-12.462061 3.51191,-15.089545 10.53516,-45.266221 10.53516,-45.266221" inkscape:path-effect="#path-effect38429" sodipodi:nodetypes="ccccccc"/>
  <g id="step06" inkscape:label="step06">
    <circle id="path40047-4-7-2-9" class="st0" cx="470.7" cy="483.12" r="10.82"/>
    <g id="g45238" inkscape:label="">
      <g id="g45228">
        <g id="g45218">
          <path id="path45216" d="M476.27,517.54c.81,0,2.83-.06,4.26-.6,2.25-.86,2.46-2.59,2.46-3.11,0-1.31-1.13-2.49-3.09-2.49-3.11,0-7.61,2.81-7.61,8.12,0,3.11,1.8,5.29,4.5,5.29,4.05,0,6.6-3.15,6.6-3.54,0-.17-.19-.32-.3-.32-.09,0-.11.02-.39.3-1.89,2.51-4.73,2.96-5.85,2.96-1.69,0-2.59-1.33-2.59-3.54,0-.41,0-1.14.45-3.06h1.58ZM474.84,516.94c1.28-4.58,4.11-5.03,5.04-5.03,1.31,0,2.21.79,2.21,1.91,0,3.11-4.76,3.11-6.02,3.11h-1.24Z"/>
        </g>
        <g id="g45222">
          <path id="path45220" d="M490.57,515.73c.06-.17.81-1.67,1.89-2.61.77-.71,1.78-1.2,2.94-1.2s1.61.9,1.61,2.08c0,1.71-1.22,5.1-1.82,6.69-.26.71-.41,1.11-.41,1.63,0,1.35.92,2.42,2.34,2.42,2.78,0,3.81-4.37,3.81-4.56,0-.15-.11-.26-.3-.26-.26,0-.28.09-.43.6-.69,2.44-1.82,3.62-2.98,3.62-.3,0-.77-.02-.77-.98,0-.75.32-1.63.51-2.06.58-1.63,1.84-4.95,1.84-6.66s-1.03-3.11-3.3-3.11c-2.64,0-4.05,1.86-4.58,2.61-.09-1.69-1.31-2.61-2.63-2.61-.96,0-1.59.56-2.1,1.58-.54,1.07-.96,2.85-.96,2.96,0,.13.11.28.32.28.24,0,.28-.04.45-.73.47-1.8,1.01-3.51,2.19-3.51.69,0,.94.49.94,1.37,0,.66-.3,1.82-.51,2.74l-.84,3.21c-.11.58-.45,1.91-.6,2.46-.21.77-.53,2.16-.53,2.31,0,.41.32.75.77.75.36,0,.77-.19,1.01-.62.06-.15.34-1.2.47-1.8l.66-2.66.99-3.94Z"/>
        </g>
        <g id="g45226">
          <path id="path45224" d="M516.79,504.55c.02-.11.09-.3.09-.45,0-.3-.3-.3-.38-.3-.02,0-1.48.13-1.63.15-.51.04-.94.09-1.48.13-.75.06-.96.08-.96.62,0,.3.24.3.66.3,1.46,0,1.48.26,1.48.56,0,.17-.06.41-.08.51l-1.82,7.22c-.34-.77-1.13-1.95-2.68-1.95-3.36,0-6.99,4.33-6.99,8.74,0,2.94,1.73,4.67,3.75,4.67,1.65,0,3.04-1.28,3.86-2.27.3,1.76,1.71,2.27,2.59,2.27s1.61-.54,2.16-1.61c.47-1.01.88-2.81.88-2.94,0-.15-.11-.26-.3-.26-.26,0-.3.15-.41.6-.45,1.74-1.01,3.62-2.23,3.62-.86,0-.92-.77-.92-1.37,0-.11,0-.73.21-1.58l4.2-16.65ZM510.77,520.9c-.15.51-.15.56-.56,1.14-.66.83-1.95,2.1-3.36,2.1-1.22,0-1.89-1.11-1.89-2.85,0-1.63.92-4.97,1.48-6.23,1.01-2.08,2.4-3.15,3.56-3.15,1.97,0,2.34,2.44,2.34,2.68,0,.04-.08.41-.11.47l-1.46,5.83Z"/>
        </g>
      </g>
      <g class="st9">
        <g id="g45236">
          <g id="g45234">
            <g id="g45232">
              <path id="path45230" d="M524.87,514.38c0-.64-.04-.66-.45-.66-1.16,1.39-2.91,1.84-4.58,1.89-.09,0-.24,0-.26.06-.04.08-.04.13-.04.75.92,0,2.48-.19,3.66-.9v15.68c0,1.05-.06,1.41-2.63,1.41h-.88v.77c1.43-.04,2.91-.06,4.33-.06s2.93.02,4.35.06v-.77h-.9c-2.55,0-2.61-.34-2.61-1.41v-16.82Z"/>
            </g>
          </g>
        </g>
      </g>
    </g>
    <path id="path2" class="st1" d="M531.15,465.9l-50.05,14.26" inkscape:connection-end="#path40047-4-7-2-9" inkscape:connection-start="#path40047-4-7-2" inkscape:connector-curvature="0" inkscape:connector-type="polyline"/>
  </g>
  <g id="step05" inkscape:label="step05">
    <circle id="path40047-4-7-2" class="st0" cx="541.56" cy="462.93" r="10.82"/>
    <path id="path1" class="st1" d="M404.05,418.23l127.22,41.35" inkscape:connection-end="#path40047-4-7-2" inkscape:connection-start="#path40047-4-7" inkscape:connector-curvature="0" inkscape:connector-type="polyline"/>
  </g>
  <g id="step04" inkscape:label="step04">
    <path id="path45851" class="st1" d="M598.64,409.7l-194.07,4.92" inkscape:connection-end="#path40047-4-7" inkscape:connection-start="#path40047-4-0" inkscape:connector-curvature="0" inkscape:connector-type="polyline"/>
    <circle id="path40047-4-7" class="st0" cx="393.76" cy="414.89" r="10.82"/>
  </g>
  <g id="step03" inkscape:label="step03">
    <path id="path45831" class="st1" d="M362.19,321.79l237.07,84.02" inkscape:connection-end="#path40047-4-0" inkscape:connection-start="#path40047-4-9" inkscape:connector-curvature="0" inkscape:connector-type="polyline"/>
    <circle id="path40047-4-0" class="st0" cx="609.46" cy="409.42" r="10.82"/>
  </g>
  <g id="step02" inkscape:label="step02">
    <path id="path45811" class="st1" d="M652.55,337.11l-289.76-18.26" inkscape:connection-end="#path40047-4-9" inkscape:connection-start="#path40047-4" inkscape:connector-curvature="0" inkscape:connector-type="polyline"/>
    <circle id="path40047-4-9" class="st0" cx="352" cy="318.17" r="10.82"/>
  </g>
  <g id="step01" inkscape:label="step01">
    <path id="path45791" class="st1" d="M324.1,187l329.37,146.39" inkscape:connection-end="#path40047-4" inkscape:connection-start="#path40047" inkscape:connector-curvature="0" inkscape:connector-type="polyline"/>
    <circle id="path40047-4" class="st0" cx="663.35" cy="337.79" r="10.82"/>
  </g>
  <g id="start" inkscape:label="start">
    <circle id="path40047" class="st0" cx="314.21" cy="182.61" r="10.82"/>
    <g id="g43847" inkscape:label="">
      <g id="g34">
        <g id="use26">
          <path id="path50" d="M306.53,141.45c.51.09,1.29.26,1.48.3.39.11,1.73.58,1.73,2.03,0,.92-.84,3.32-4.28,3.32-.64,0-2.87-.09-3.45-1.73,1.18.15,1.78-.77,1.78-1.43,0-.62-.43-.96-1.01-.96-.66,0-1.52.51-1.52,1.86,0,1.74,1.78,2.85,4.16,2.85,4.52,0,5.85-3.34,5.85-4.88,0-.45,0-1.28-.94-2.23-.75-.71-1.46-.86-3.08-1.2-.81-.17-2.08-.43-2.08-1.78,0-.6.54-2.74,3.36-2.74,1.26,0,2.48.49,2.78,1.56-1.31,0-1.37,1.13-1.37,1.16,0,.62.56.79.83.79.43,0,1.26-.32,1.26-1.58s-1.13-2.51-3.45-2.51c-3.9,0-4.93,3.06-4.93,4.28,0,2.25,2.19,2.74,2.89,2.89Z"/>
        </g>
        <g id="use28">
          <path id="path54" d="M319.44,135.43h2.74c.56,0,.86,0,.86-.53,0-.34-.19-.34-.79-.34h-2.61l1.11-4.33c.11-.41.11-.47.11-.69,0-.47-.39-.73-.77-.73-.24,0-.92.09-1.16,1.03l-1.16,4.73h-2.79c-.6,0-.86,0-.86.58,0,.28.21.28.77.28h2.64l-1.95,7.86c-.24,1.05-.34,1.35-.34,1.73,0,1.41.98,2.68,2.64,2.68,3,0,4.61-4.35,4.61-4.56,0-.17-.11-.26-.3-.26-.06,0-.17,0-.23.11-.04.04-.08.06-.28.54-.62,1.48-1.99,3.56-3.71,3.56-.9,0-.96-.75-.96-1.39,0-.04,0-.6.09-.96l2.33-9.32Z"/>
        </g>
        <g id="use30">
          <path id="path58" d="M332.92,143.85c-.15.51-.15.56-.56,1.14-.66.83-1.95,2.1-3.36,2.1-1.22,0-1.89-1.11-1.89-2.85,0-1.63.92-4.97,1.48-6.23,1.01-2.08,2.4-3.15,3.56-3.15,1.97,0,2.34,2.44,2.34,2.68,0,.04-.08.41-.11.47l-1.46,5.83ZM334.83,136.23c-.34-.77-1.13-1.95-2.68-1.95-3.36,0-6.99,4.33-6.99,8.74,0,2.94,1.73,4.67,3.75,4.67,1.65,0,3.04-1.28,3.86-2.27.3,1.76,1.71,2.27,2.59,2.27s1.61-.54,2.16-1.61c.47-1.01.88-2.81.88-2.94,0-.15-.11-.26-.3-.26-.26,0-.3.15-.41.6-.45,1.74-1.01,3.62-2.23,3.62-.86,0-.92-.77-.92-1.37,0-.68.09-1.01.36-2.18.21-.73.36-1.39.6-2.25,1.09-4.46,1.37-5.53,1.37-5.72,0-.41-.34-.73-.77-.73-.96,0-1.2,1.03-1.26,1.39Z"/>
        </g>
        <g id="use32">
          <path id="path62" d="M350.83,135.22c-.92.19-1.41.84-1.41,1.5,0,.71.58.94.99.94.83,0,1.52-.71,1.52-1.59,0-.96-.94-1.78-2.42-1.78-1.18,0-2.55.53-3.81,2.34-.21-1.58-1.39-2.34-2.59-2.34s-1.74.88-2.1,1.54c-.51,1.07-.96,2.85-.96,3,0,.13.11.28.32.28.24,0,.28-.04.45-.73.45-1.78,1.01-3.51,2.19-3.51.71,0,.94.51.94,1.37,0,.66-.3,1.82-.51,2.74l-.84,3.21c-.11.58-.45,1.91-.6,2.46-.21.77-.53,2.16-.53,2.31,0,.41.32.75.77.75.34,0,.9-.21,1.07-.81.09-.24,1.2-4.73,1.37-5.42.15-.66.34-1.28.49-1.93.11-.41.23-.88.32-1.28.09-.26.9-1.73,1.63-2.38.36-.32,1.14-1.01,2.36-1.01.47,0,.94.09,1.33.36Z"/>
        </g>
      </g>
      <g id="g38">
        <g id="use36">
          <path id="path66" d="M359.17,135.43h2.74c.56,0,.86,0,.86-.53,0-.34-.19-.34-.79-.34h-2.61l1.11-4.33c.11-.41.11-.47.11-.69,0-.47-.39-.73-.77-.73-.24,0-.92.09-1.16,1.03l-1.16,4.73h-2.79c-.6,0-.86,0-.86.58,0,.28.21.28.77.28h2.64l-1.95,7.86c-.24,1.05-.34,1.35-.34,1.73,0,1.41.98,2.68,2.64,2.68,3,0,4.61-4.35,4.61-4.56,0-.17-.11-.26-.3-.26-.06,0-.17,0-.23.11-.04.04-.08.06-.28.54-.62,1.48-1.99,3.56-3.71,3.56-.9,0-.96-.75-.96-1.39,0-.04,0-.6.09-.96l2.33-9.32Z"/>
        </g>
      </g>
      <g class="st6">
        <g id="g44">
          <g id="g42">
            <g id="use40">
              <path id="path70" d="M371.63,137.33c0-.64-.04-.66-.45-.66-1.16,1.39-2.91,1.84-4.58,1.89-.09,0-.24,0-.26.06-.04.08-.04.13-.04.75.92,0,2.48-.19,3.66-.9v15.68c0,1.05-.06,1.41-2.63,1.41h-.88v.77c1.43-.04,2.91-.06,4.33-.06s2.93.02,4.35.06v-.77h-.9c-2.55,0-2.61-.34-2.61-1.41v-16.82Z"/>
            </g>
          </g>
        </g>
      </g>
    </g>
  </g>
  <g>
    <path d="M45.8,558.22h778.67"/>
    <g>
      <path class="st2" d="M45.8,558.22h764.55"/>
      <polygon points="824.46 558.22 804.57 566.35 809.29 558.22 804.57 550.09 824.46 558.22"/>
    </g>
  </g>
  <g>
    <path d="M66.67,20.44v553.78"/>
    <g>
      <path class="st2" d="M66.67,34.57v539.66"/>
      <polygon points="66.67 20.44 58.54 40.34 66.67 35.62 74.8 40.34 66.67 20.44"/>
    </g>
  </g>
  <g id="g37033" inkscape:label="">
    <g id="g63">
      <g id="use61">
        <path id="path163" d="M308.52,65.76c.48,0,1.04,0,1.04-.52,0-.44-.33-.44-.92-.44h-5.35c.83-3,2.77-4.83,5.71-4.83h.96c.56,0,1.06,0,1.06-.52,0-.44-.35-.44-.96-.44h-1.13c-4.06,0-8.52,3.25-8.52,8.44,0,3.67,2.48,6.15,5.75,6.15,2.1,0,4.19-1.33,4.19-1.65,0-.21-.08-.4-.29-.4-.1,0-.17.02-.33.15-1.25.83-2.48,1.23-3.46,1.23-1.75,0-3.6-1.15-3.6-4.35,0-.63.06-1.5.35-2.81h5.5Z"/>
      </g>
    </g>
    <g id="g67">
      <g id="use65">
        <path id="path167" d="M342.39,62.66c.5,0,.98,0,.98-.56,0-.6-.56-.6-1.13-.6h-18.46c-.56,0-1.13,0-1.13.6,0,.56.5.56,1,.56h18.73ZM342.25,68.53c.56,0,1.13,0,1.13-.58s-.48-.56-.98-.56h-18.73c-.5,0-1,0-1,.56s.56.58,1.13.58h18.46Z"/>
      </g>
    </g>
    <g id="g71">
      <g id="use69">
        <path id="path171" d="M366.58,39.15c0-.71-.04-.73-.5-.73-1.29,1.54-3.23,2.04-5.08,2.1-.1,0-.27,0-.29.06-.04.08-.04.15-.04.83,1.02,0,2.75-.21,4.06-1v17.42c0,1.17-.06,1.56-2.92,1.56h-.98v.85c1.58-.04,3.23-.06,4.81-.06s3.25.02,4.83.06v-.85h-1c-2.83,0-2.9-.38-2.9-1.56v-18.69Z"/>
      </g>
    </g>
    <path id="path73" d="M355.71,65.93h19.32v-1.86h-19.32v1.86Z"/>
    <g id="g36950">
      <g id="g36948">
        <path id="path175" d="M362.52,74.97c.06-.19.9-1.85,2.1-2.9.85-.79,1.98-1.33,3.27-1.33s1.79,1,1.79,2.31c0,1.9-1.35,5.67-2.02,7.44-.29.79-.46,1.23-.46,1.81,0,1.5,1.02,2.69,2.6,2.69,3.08,0,4.23-4.85,4.23-5.06,0-.17-.13-.29-.33-.29-.29,0-.31.1-.48.67-.77,2.71-2.02,4.02-3.31,4.02-.33,0-.85-.02-.85-1.08,0-.83.35-1.81.56-2.29.65-1.81,2.04-5.5,2.04-7.4s-1.15-3.46-3.67-3.46c-2.94,0-4.5,2.06-5.08,2.9-.1-1.88-1.46-2.9-2.92-2.9-1.06,0-1.77.63-2.33,1.75-.6,1.19-1.06,3.17-1.06,3.29,0,.15.13.31.35.31.27,0,.31-.04.5-.81.52-2,1.13-3.9,2.44-3.9.77,0,1.04.54,1.04,1.52,0,.73-.33,2.02-.56,3.04l-.94,3.56c-.13.65-.5,2.13-.67,2.73-.23.85-.58,2.4-.58,2.56,0,.46.35.83.85.83.4,0,.85-.21,1.13-.69.06-.17.38-1.33.52-2l.73-2.96,1.1-4.38Z"/>
      </g>
    </g>
    <g id="g36955">
      <g id="g36953">
        <path id="path179" d="M401.71,66.59l-16.52,20.42c-.38.46-.42.56-.42.73,0,.52.42.52,1.25.52h38.56l4-11.58h-1.17c-1.17,3.5-4.27,6.33-8.23,7.69-.75.23-3.96,1.33-10.79,1.33h-19.77l16.15-19.94c.33-.42.42-.56.42-.75s-.04-.23-.33-.65l-15.1-20.75h18.42c5.29,0,16,.33,19.25,9.02h1.17l-4-10.88h-38.56c-1.25,0-1.29.04-1.29,1.48l16.98,23.35Z"/>
      </g>
    </g>
    <g id="g85">
      <g id="use83">
        <path id="path183" d="M438.01,44.83c.06-.19.9-1.85,2.1-2.9.85-.79,1.98-1.33,3.27-1.33s1.79,1,1.79,2.31c0,1.9-1.35,5.67-2.02,7.44-.29.79-.46,1.23-.46,1.81,0,1.5,1.02,2.69,2.6,2.69,3.08,0,4.23-4.85,4.23-5.06,0-.17-.13-.29-.33-.29-.29,0-.31.1-.48.67-.77,2.71-2.02,4.02-3.31,4.02-.33,0-.85-.02-.85-1.08,0-.83.35-1.81.56-2.29.65-1.81,2.04-5.5,2.04-7.4s-1.15-3.46-3.67-3.46c-2.94,0-4.5,2.06-5.08,2.9-.1-1.88-1.46-2.9-2.92-2.9-1.06,0-1.77.63-2.33,1.75-.6,1.19-1.06,3.17-1.06,3.29,0,.15.13.31.35.31.27,0,.31-.04.5-.81.52-2,1.13-3.9,2.44-3.9.77,0,1.04.54,1.04,1.52,0,.73-.33,2.02-.56,3.04l-.94,3.56c-.13.65-.5,2.13-.67,2.73-.23.85-.58,2.4-.58,2.56,0,.46.35.83.85.83.4,0,.85-.21,1.13-.69.06-.17.38-1.33.52-2l.73-2.96,1.1-4.38Z"/>
      </g>
    </g>
    <g class="st8">
      <g id="g36965">
        <g id="g36963">
          <g id="g36961">
            <path id="path187" d="M440.56,85.17c0-.17-.15-.29-.33-.29-.29,0-.33.1-.5.67-.85,3-2.21,4.02-3.29,4.02-.4,0-.88-.1-.88-1.08,0-.9.4-1.9.77-2.88l2.31-6.15c.1-.27.33-.85.33-1.5,0-1.38-1-2.63-2.63-2.63-3.02,0-4.25,4.79-4.25,5.04,0,.15.13.31.35.31.31,0,.33-.15.46-.6.81-2.77,2.06-4.1,3.35-4.1.29,0,.85.04.85,1.1,0,.85-.44,1.94-.69,2.67l-2.31,6.15c-.21.52-.4,1.06-.4,1.65,0,1.5,1.02,2.69,2.6,2.69,3.04,0,4.23-4.83,4.23-5.06ZM440.28,69.27c0-.48-.4-1.08-1.13-1.08s-1.6.73-1.6,1.58.69,1.08,1.08,1.08c.9,0,1.65-.85,1.65-1.58Z"/>
          </g>
        </g>
      </g>
    </g>
    <g class="st7">
      <g id="g36973">
        <g id="g97">
          <g id="g36968">
            <path id="path191" d="M463.49,79.3c.5,0,.98,0,.98-.56,0-.6-.56-.6-1.13-.6h-18.46c-.56,0-1.13,0-1.13.6,0,.56.5.56,1,.56h18.73ZM463.34,85.17c.56,0,1.13,0,1.13-.58s-.48-.56-.98-.56h-18.73c-.5,0-1,0-1,.56s.56.58,1.13.58h18.46Z"/>
          </g>
          <g id="use95">
            <path id="path195" d="M474.82,68.8c0-.71-.04-.73-.5-.73-1.29,1.54-3.23,2.04-5.08,2.1-.1,0-.27,0-.29.06-.04.08-.04.15-.04.83,1.02,0,2.75-.21,4.06-1v17.42c0,1.17-.06,1.56-2.92,1.56h-.98v.85c1.58-.04,3.23-.06,4.81-.06s3.25.02,4.83.06v-.85h-1c-2.83,0-2.9-.38-2.9-1.56v-18.69Z"/>
          </g>
        </g>
      </g>
    </g>
    <g id="g36978">
      <g id="g36976">
        <path id="path199" d="M491.96,81.33s0-.1-.08-.21c-1.52-1.54-5.58-5.77-5.58-16.08s3.98-14.5,5.6-16.15c0-.04.06-.1.06-.21s-.08-.17-.23-.17c-.35,0-3.17,2.44-4.79,6.08-1.65,3.67-2.1,7.23-2.1,10.42,0,2.38.23,6.4,2.21,10.67,1.58,3.44,4.29,5.83,4.69,5.83.17,0,.23-.06.23-.19Z"/>
      </g>
    </g>
    <g id="g36983">
      <g id="g36981">
        <path id="path203" d="M502.24,76.97c-.9,1.25-2.19,2.38-3.79,2.38-.4,0-1.98-.06-2.48-1.58.1.02.25.02.33.02.98,0,1.65-.85,1.65-1.6s-.63-1.04-1.13-1.04-1.69.4-1.69,2.02,1.42,2.85,3.31,2.85c3.29,0,6.65-3.04,7.56-6.71l3.23-12.9c.04-.17.1-.35.1-.56,0-.5-.4-.83-.9-.83-.29,0-.98.15-1.25,1.13l-2.44,9.73c-.17.58-.17.65-.44,1.02-.67.92-1.75,2.04-3.33,2.04-1.85,0-2.02-1.81-2.02-2.71,0-1.88.9-4.42,1.79-6.81.35-.96.56-1.42.56-2.08,0-1.38-1-2.63-2.63-2.63-3.02,0-4.25,4.79-4.25,5.04,0,.15.13.31.35.31.31,0,.33-.15.46-.6.81-2.77,2.06-4.1,3.35-4.1.29,0,.85,0,.85,1.1,0,.85-.38,1.81-.85,3.06-1.63,4.33-1.63,5.42-1.63,6.21,0,3.15,2.25,3.88,3.9,3.88.96,0,2.15-.29,3.31-1.52l.02.02c-.5,1.96-.81,3.25-1.98,4.88Z"/>
      </g>
    </g>
    <g id="g36988">
      <g id="g36986">
        <path id="path207" d="M518.69,78.82c0-.17-.15-.29-.33-.29-.29,0-.33.1-.5.67-.85,3-2.21,4.02-3.29,4.02-.4,0-.88-.1-.88-1.08,0-.9.4-1.9.77-2.88l2.31-6.15c.1-.27.33-.85.33-1.5,0-1.38-1-2.63-2.63-2.63-3.02,0-4.25,4.79-4.25,5.04,0,.15.13.31.35.31.31,0,.33-.15.46-.6.81-2.77,2.06-4.1,3.35-4.1.29,0,.85.04.85,1.1,0,.85-.44,1.94-.69,2.67l-2.31,6.15c-.21.52-.4,1.06-.4,1.65,0,1.5,1.02,2.69,2.6,2.69,3.04,0,4.23-4.83,4.23-5.06ZM518.42,62.92c0-.48-.4-1.08-1.13-1.08s-1.6.73-1.6,1.58.69,1.08,1.08,1.08c.9,0,1.65-.85,1.65-1.58Z"/>
      </g>
    </g>
    <g id="g36993">
      <g id="g36991">
        <path id="path211" d="M550.15,65.66c.56,0,1.17,0,1.17-.65s-.6-.67-1.17-.67h-17.88c-.56,0-1.15,0-1.15.67s.58.65,1.15.65h17.88Z"/>
      </g>
    </g>
    <g id="g36998">
      <g id="g36996">
        <path id="path215" d="M571.54,81.33s0-.1-.08-.21c-1.52-1.54-5.58-5.77-5.58-16.08s3.98-14.5,5.6-16.15c0-.04.06-.1.06-.21s-.08-.17-.23-.17c-.35,0-3.17,2.44-4.79,6.08-1.65,3.67-2.1,7.23-2.1,10.42,0,2.38.23,6.4,2.21,10.67,1.58,3.44,4.29,5.83,4.69,5.83.17,0,.23-.06.23-.19Z"/>
      </g>
    </g>
    <g id="g37003">
      <g id="g37001">
        <path id="path219" d="M591.84,54.03c0-1.98-1.69-4.06-4.71-4.06-4.25,0-6.96,5.21-7.81,8.65l-5.23,20.73c-.06.27.13.33.29.33.23,0,.4-.04.44-.21l2.31-9.25c.33,1.85,2.15,3.38,4.1,3.38,4.71,0,9.17-3.71,9.17-8.63,0-1.25-.29-2.52-.98-3.56-.4-.65-.9-1.1-1.42-1.5,2.38-1.25,3.83-3.27,3.83-5.88ZM586.09,59.89c-.54.19-1.06.25-1.69.25-.46,0-.9.04-1.5-.17.33-.23.83-.29,1.52-.29.6,0,1.21.06,1.67.21ZM590.12,53.74c0,1.81-.9,4.46-3.04,5.67-.63-.23-1.48-.4-2.21-.4-.69,0-2.67-.06-2.67,1,0,.9,1.81.79,2.38.79.85,0,1.6-.19,2.42-.44,1.04.88,1.5,2,1.5,3.65,0,1.92-.52,3.46-1.15,4.9-1.08,2.44-3.67,4.02-5.96,4.02s-3.67-1.92-3.67-4.17c0-.29,0-.73.15-1.21l2.15-8.69c1.08-4.33,3.85-8.23,7.06-8.23,2.38,0,3.04,1.65,3.04,3.1Z"/>
      </g>
    </g>
    <g id="g37008">
      <g id="g37006">
        <path id="path223" d="M600.2,62.08c0-.71-.04-.73-.5-.73-1.29,1.54-3.23,2.04-5.08,2.1-.1,0-.27,0-.29.06-.04.08-.04.15-.04.83,1.02,0,2.75-.21,4.06-1v17.42c0,1.17-.06,1.56-2.92,1.56h-.98v.85c1.58-.04,3.23-.06,4.81-.06s3.25.02,4.83.06v-.85h-1c-2.83,0-2.9-.38-2.9-1.56v-18.69Z"/>
      </g>
    </g>
    <g id="g131">
      <g id="use129">
        <path id="path227" d="M622.89,59.78c-1.06.19-1.46.98-1.46,1.63,0,.79.63,1.04,1.08,1.04,1,0,1.69-.85,1.69-1.75,0-1.38-1.58-2-2.98-2-2,0-3.13,1.98-3.42,2.6-.77-2.48-2.81-2.6-3.42-2.6-3.38,0-5.15,4.31-5.15,5.04,0,.15.13.31.35.31.27,0,.33-.21.4-.33,1.13-3.67,3.33-4.38,4.29-4.38,1.5,0,1.79,1.4,1.79,2.19,0,.73-.19,1.48-.6,3.06l-1.1,4.54c-.5,1.98-1.46,3.79-3.21,3.79-.17,0-1,0-1.69-.42,1.19-.25,1.46-1.23,1.46-1.63,0-.67-.5-1.06-1.13-1.06-.79,0-1.67.69-1.67,1.75,0,1.4,1.56,2.02,2.98,2.02,1.58,0,2.71-1.25,3.42-2.6.52,1.94,2.17,2.6,3.4,2.6,3.38,0,5.15-4.33,5.15-5.06,0-.17-.13-.29-.33-.29-.29,0-.31.17-.42.44-.9,2.9-2.81,4.25-4.29,4.25-1.17,0-1.79-.85-1.79-2.21,0-.73.13-1.25.67-3.44l1.15-4.5c.5-1.98,1.63-3.44,3.15-3.44.06,0,.98,0,1.69.44Z"/>
      </g>
    </g>
    <g id="g135">
      <g id="use133">
        <path id="path231" d="M634.97,78.82c0-.17-.15-.29-.33-.29-.29,0-.33.1-.5.67-.85,3-2.21,4.02-3.29,4.02-.4,0-.88-.1-.88-1.08,0-.9.4-1.9.77-2.88l2.31-6.15c.1-.27.33-.85.33-1.5,0-1.38-1-2.63-2.63-2.63-3.02,0-4.25,4.79-4.25,5.04,0,.15.13.31.35.31.31,0,.33-.15.46-.6.81-2.77,2.06-4.1,3.35-4.1.29,0,.85.04.85,1.1,0,.85-.44,1.94-.69,2.67l-2.31,6.15c-.21.52-.4,1.06-.4,1.65,0,1.5,1.02,2.69,2.6,2.69,3.04,0,4.23-4.83,4.23-5.06ZM634.7,62.92c0-.48-.4-1.08-1.13-1.08s-1.6.73-1.6,1.58.69,1.08,1.08,1.08c.9,0,1.65-.85,1.65-1.58Z"/>
      </g>
    </g>
    <g id="g139">
      <g id="use137">
        <path id="path235" d="M657.12,65.6h8.75c.46,0,1.02,0,1.02-.56s-.52-.58-1.02-.58h-8.75v-8.77c0-.46,0-1.02-.56-1.02-.6,0-.6.52-.6,1.02v8.77h-8.75c-.46,0-1.02,0-1.02.56s.52.58,1.02.58h8.75v8.75c0,.48,0,1.04.56,1.04.6,0,.6-.54.6-1.04v-8.75Z"/>
      </g>
    </g>
    <g id="g143">
      <g id="use141">
        <path id="path239" d="M694.51,54.03c0-1.98-1.69-4.06-4.71-4.06-4.25,0-6.96,5.21-7.81,8.65l-5.23,20.73c-.06.27.13.33.29.33.23,0,.4-.04.44-.21l2.31-9.25c.33,1.85,2.15,3.38,4.1,3.38,4.71,0,9.17-3.71,9.17-8.63,0-1.25-.29-2.52-.98-3.56-.4-.65-.9-1.1-1.42-1.5,2.38-1.25,3.83-3.27,3.83-5.88ZM688.76,59.89c-.54.19-1.06.25-1.69.25-.46,0-.9.04-1.5-.17.33-.23.83-.29,1.52-.29.6,0,1.21.06,1.67.21ZM692.78,53.74c0,1.81-.9,4.46-3.04,5.67-.63-.23-1.48-.4-2.21-.4-.69,0-2.67-.06-2.67,1,0,.9,1.81.79,2.38.79.85,0,1.6-.19,2.42-.44,1.04.88,1.5,2,1.5,3.65,0,1.92-.52,3.46-1.15,4.9-1.08,2.44-3.67,4.02-5.96,4.02s-3.67-1.92-3.67-4.17c0-.29,0-.73.15-1.21l2.15-8.69c1.08-4.33,3.85-8.23,7.06-8.23,2.38,0,3.04,1.65,3.04,3.1Z"/>
      </g>
    </g>
    <g id="g147">
      <g id="use145">
        <path id="path243" d="M707.94,72.58c0-2.02-.02-5.46-1.42-8.1-1.23-2.31-3.17-3.13-4.9-3.13-1.58,0-3.6.73-4.85,3.1-1.31,2.48-1.46,5.54-1.46,8.13,0,1.88.04,4.75,1.06,7.27,1.42,3.4,3.96,3.85,5.25,3.85,1.52,0,3.83-.63,5.19-3.75,1-2.29,1.13-4.96,1.13-7.38ZM701.63,83.18c-2.1,0-3.38-1.81-3.83-4.33-.35-1.94-.35-4.79-.35-6.65,0-2.54,0-4.65.42-6.67.65-2.81,2.48-3.67,3.77-3.67s3.1.9,3.73,3.6c.44,1.88.48,4.1.48,6.73,0,2.17,0,4.79-.4,6.75-.71,3.6-2.65,4.23-3.81,4.23Z"/>
      </g>
    </g>
    <g id="g153">
      <g id="use149">
        <path id="path247" d="M718.58,65.03c0-2.38-.23-6.42-2.21-10.67-1.58-3.44-4.29-5.85-4.69-5.85-.1,0-.23.04-.23.21,0,.06.02.08.06.17,1.58,1.65,5.6,5.83,5.6,16.13s-4,14.5-5.6,16.15c-.04.06-.06.1-.06.17,0,.17.13.19.23.19.35,0,3.17-2.44,4.79-6.06,1.65-3.67,2.1-7.25,2.1-10.42Z"/>
      </g>
      <g id="use151">
        <path id="path251" d="M730.28,65.03c0-2.38-.23-6.42-2.21-10.67-1.58-3.44-4.29-5.85-4.69-5.85-.1,0-.23.04-.23.21,0,.06.02.08.06.17,1.58,1.65,5.6,5.83,5.6,16.13s-4,14.5-5.6,16.15c-.04.06-.06.1-.06.17,0,.17.13.19.23.19.35,0,3.17-2.44,4.79-6.06,1.65-3.67,2.1-7.25,2.1-10.42Z"/>
      </g>
    </g>
    <g id="g157">
      <g id="use155">
        <path id="path255" d="M747.07,56.15h-.58c-.33,2.35-.6,2.75-.73,2.94-.17.27-2.54.27-3,.27h-6.35c1.19-1.29,3.5-3.63,6.31-6.33,2.02-1.92,4.35-4.17,4.35-7.44,0-3.9-3.1-6.15-6.56-6.15-3.65,0-5.85,3.19-5.85,6.17,0,1.29.96,1.46,1.35,1.46.33,0,1.31-.19,1.31-1.35,0-1.02-.85-1.31-1.31-1.31-.19,0-.4.02-.52.08.63-2.79,2.54-4.19,4.56-4.19,2.88,0,4.75,2.27,4.75,5.29s-1.69,5.35-3.56,7.5l-6.58,7.44v.75h11.63l.79-5.13Z"/>
      </g>
    </g>
  </g>
</svg>