<?xml version="1.0" encoding="UTF-8" standalone="no"?>
<!-- Uploaded to: SVG Repo, www.svgrepo.com, Generator: SVG Repo Mixer Tools -->

<svg
   fill="#000000"
   height="650"
   width="680"
   version="1.1"
   id="Icons"
   viewBox="0 0 27.2 26"
   xml:space="preserve"
   sodipodi:docname="thumbs-up.svg"
   inkscape:version="1.2.2 (732a01da63, 2022-12-09)"
   inkscape:export-filename="thumbs-up.png"
   inkscape:export-xdpi="96"
   inkscape:export-ydpi="96"
   xmlns:inkscape="http://www.inkscape.org/namespaces/inkscape"
   xmlns:sodipodi="http://sodipodi.sourceforge.net/DTD/sodipodi-0.dtd"
   xmlns="http://www.w3.org/2000/svg"
   xmlns:svg="http://www.w3.org/2000/svg"><defs
   id="defs9" /><sodipodi:namedview
   id="namedview7"
   pagecolor="#ffffff"
   bordercolor="#666666"
   borderopacity="1.0"
   inkscape:showpageshadow="2"
   inkscape:pageopacity="0.0"
   inkscape:pagecheckerboard="0"
   inkscape:deskcolor="#d1d1d1"
   showgrid="false"
   inkscape:zoom="1.04625"
   inkscape:cx="468.33931"
   inkscape:cy="270.48984"
   inkscape:window-width="1536"
   inkscape:window-height="801"
   inkscape:window-x="-8"
   inkscape:window-y="-8"
   inkscape:window-maximized="1"
   inkscape:current-layer="Icons" />
<path
   d="m 26.8,12.3 c -0.3,-0.4 -0.9,-0.6 -1.5,-0.6 h -6.8 c -0.7,0 -1.3,-0.6 -1.3,-1.3 V 1.9 C 17.2,0.8 16.1,0 15.1,0 c -1,0 -1.8,0.8 -1.8,1.9 0,2.3 -0.7,4.6 -2.1,6.5 l -3.1,3.5 v 11.7 c 1.7,1.5 4.3,2.4 6.8,2.4 h 8.5 c 0.9,0 1.6,-0.6 1.8,-1.5 l 2,-11.1 c -0.1,-0.5 -0.1,-0.9 -0.4,-1.1 z"
   id="path2" />
<path
   d="M 3.9,13 H 1.3 C 0.6,13 0,13.6 0,14.3 V 24.7 C 0,25.4 0.6,26 1.3,26 h 2.6 c 0.7,0 1.3,-0.6 1.3,-1.3 V 14.3 C 5.2,13.6 4.6,13 3.9,13 Z"
   id="path4" />
</svg>
